<svg width="16" height="16" viewBox="0 0 16 16" fill="none" xmlns="http://www.w3.org/2000/svg">
<path fill-rule="evenodd" clip-rule="evenodd" d="M8 0C12.4 0 16 3.6 16 8V16H0V8C0 3.6 3.6 0 8 0ZM1.60156 12.3467V14.3984H3.20508V12.3467H1.60156ZM12.7949 12.3467V14.3984H14.3984V12.3467H12.7949ZM8.59473 10.5732C8.41946 10.6746 8.21603 10.7343 7.99902 10.7344C7.782 10.7343 7.5786 10.6746 7.40332 10.5732L6.49902 12.1396C6.95474 12.403 7.4717 12.5416 7.99805 12.542C8.52463 12.5423 9.04283 12.4046 9.49902 12.1416L8.59473 10.5732ZM1.60156 8.75V10.8467H3.20508V8.75H1.60156ZM12.7949 8.75V10.8467H14.3984V8.75H12.7949ZM7.99805 9.00195C7.70076 9.00209 7.45996 9.2437 7.45996 9.54102C7.4602 9.83813 7.70091 10.079 7.99805 10.0791C8.29526 10.079 8.53687 9.83818 8.53711 9.54102C8.53711 9.24365 8.2954 9.00201 7.99805 9.00195ZM6.5 6.94434C6.04422 7.20758 5.66459 7.5862 5.40137 8.04199C5.13821 8.4979 5.00007 9.01559 5 9.54199H6.80664C6.80683 9.10085 7.04704 8.71487 7.40332 8.50879L6.5 6.94434ZM8.5957 8.50977C8.95152 8.71597 9.19121 9.10022 9.19141 9.54102L11 9.54199C10.9999 9.01559 10.8618 8.4979 10.5986 8.04199C10.3354 7.58611 9.95589 7.20759 9.5 6.94434L8.5957 8.50977ZM2.89746 4.0791C2.0778 5.06619 1.60168 6.19832 1.60156 7.18066V7.25H3.20508V7.19824C3.2052 6.68947 3.46574 5.94876 4.03711 5.21875L2.89746 4.0791ZM11.9619 5.21875C12.5335 5.94891 12.7948 6.68936 12.7949 7.19824V7.25H14.3984V7.18066C14.3983 6.19817 13.9215 5.0663 13.1016 4.0791L11.9619 5.21875ZM7.25 1.64844C5.99794 1.80065 4.87902 2.32277 3.97363 3.0332L5.11719 4.17676C5.73613 3.72504 6.46113 3.39671 7.25 3.2666V1.64844ZM8.75 3.2666C9.5386 3.39666 10.263 3.72528 10.8818 4.17676L12.0254 3.0332C11.1201 2.32301 10.0018 1.80062 8.75 1.64844V3.2666Z" fill="#9CA3AF"/>
</svg>
