<svg width="16" height="16" viewBox="0 0 16 16" fill="none" xmlns="http://www.w3.org/2000/svg">
<g clip-path="url(#clip0_319_769)">
<path d="M1.96308 15.2384L1.41126 16.2121L2.09546 16.9273L3.46387 17.2849L2.09546 16.2121L2.60608 15.5188L5.29291 15.8308L5.93523 17.172L7.1233 18H-1L0.384615 15.6758L1.42206 14.8623L1.96308 15.2384Z" fill="#9CA3AF"/>
<path d="M15.6154 15.6758L17 18H8.8767L10.0648 17.172L10.7071 15.8308L13.3939 15.5188L13.9045 16.2121L12.5361 17.2849L13.9045 16.9273L14.5887 16.2121L14.0369 15.2384L14.5779 14.8623L15.6154 15.6758Z" fill="#9CA3AF"/>
<path d="M15.608 11.4845L15.1298 14.6017L14.6002 14.1868L13.4426 14.9936L10.4457 15.342L10.2613 15.3637L10.1776 15.5372L9.53388 16.8824L8.77201 17.4128L8 17.5646L7.22732 17.4128L6.46612 16.8824L5.82244 15.5372L5.73869 15.3637L5.5543 15.342L2.55745 14.9936L1.39978 14.1868L0.869569 14.6017L0.392045 11.4845L8 9.45785L15.608 11.4845Z" fill="#9CA3AF"/>
<path d="M8.51872 0.675561H11.4582L10.7665 1.35112H8.69163L8.86454 2.02668H10.0749L9.38327 2.70224H9.03745L9.38327 4.05336H6.61674L6.96255 2.70224H6.61674L5.9251 2.02668H7.13546L7.30837 1.35112H5.23347L4.54184 0.675561H7.48128L7.65418 0H8.34582L8.51872 0.675561Z" fill="#9CA3AF"/>
<path fill-rule="evenodd" clip-rule="evenodd" d="M4.54184 4.39115H11.4582L12.1498 3.71558H14.9163V6.08005L14.2247 6.75561H12.8414L13.5331 10.1334L8 8.78229L2.46694 10.1334L3.15857 6.75561H1.77531L1.08368 6.08005V3.71558H3.85021L4.54184 4.39115ZM4.54184 8.78229H3.85021V8.10673H4.54184V8.78229ZM12.1498 8.78229H11.4582V8.10673H12.1498V8.78229ZM5.9251 8.10673H5.23347V7.43117H5.9251V8.10673ZM10.7665 8.10673H10.0749V7.43117H10.7665V8.10673ZM7.30837 7.43117H6.61674V6.75561H7.30837V7.43117ZM9.38327 7.43117H8.69163V6.75561H9.38327V7.43117ZM4.54184 6.08005H3.85021V5.40449H4.54184V6.08005ZM5.9251 6.08005H5.23347V5.40449H5.9251V6.08005ZM7.30837 6.08005H6.61674V5.40449H7.30837V6.08005ZM9.38327 6.08005H8.69163V5.40449H9.38327V6.08005ZM10.7665 6.08005H10.0749V5.40449H10.7665V6.08005ZM12.1498 6.08005H11.4582V5.40449H12.1498V6.08005ZM3.15857 5.40449H2.46694V4.72893H3.15857V5.40449ZM13.5331 5.40449H12.8414V4.72893H13.5331V5.40449Z" fill="#9CA3AF"/>
</g>
<defs>
<clipPath id="clip0_319_769">
<rect width="16" height="16" fill="white"/>
</clipPath>
</defs>
</svg>
