<svg xmlns="http://www.w3.org/2000/svg" width="16" height="16" fill="none" viewBox="0 0 16 16"><metadata>© 2026 CTA — Центр Тактической Адаптации · V4DYA. Проприетарная графика. Копирование без разрешения запрещено.</metadata><path fill="#9ca3af" d="M1.54 10.231c.3 0 .564.19.695.465a6.37 6.37 0 0 0 3.055 3.027.8.8 0 0 1 .471.718v.845c0 .488-.452.844-.896.669a8.57 8.57 0 0 1-4.816-4.8c-.181-.455.166-.924.646-.924zm13.765 0c.48 0 .827.47.646.925a8.57 8.57 0 0 1-4.815 4.798c-.444.176-.896-.18-.896-.668v-.846a.8.8 0 0 1 .47-.718 6.37 6.37 0 0 0 3.056-3.026c.131-.275.396-.465.694-.465zm-9.303 1.564a.61.61 0 0 1 .643-.127A4 4 0 0 0 8 11.904c.468 0 .916-.08 1.33-.229a.61.61 0 0 1 .64.13c.272.27.212.732-.141.87A5 5 0 0 1 8 13.02a5 5 0 0 1-1.858-.356c-.35-.14-.409-.6-.139-.869m5.827-5.807c.26-.26.691-.202.83.143a5 5 0 0 1 .362 1.87 5 5 0 0 1-.35 1.84c-.137.347-.57.408-.832.147a.65.65 0 0 1-.133-.683 3.86 3.86 0 0 0-.008-2.631.65.65 0 0 1 .13-.686m-7.672.026a.65.65 0 0 1 .133.683 3.87 3.87 0 0 0-.008 2.585.65.65 0 0 1-.134.68c-.263.262-.699.2-.835-.15a5 5 0 0 1-.337-1.81c0-.652.124-1.272.349-1.841.137-.347.57-.408.832-.147M5.761 1.56a.8.8 0 0 1-.471.718 6.37 6.37 0 0 0-3.055 3.027c-.131.275-.396.465-.695.465H.695c-.48 0-.827-.47-.646-.925a8.58 8.58 0 0 1 4.816-4.8c.444-.175.896.181.896.67zM10.24.714c0-.488.452-.844.896-.669a8.58 8.58 0 0 1 4.815 4.8c.181.456-.166.925-.646.925h-.844c-.3 0-.564-.19-.695-.465a6.37 6.37 0 0 0-3.055-3.026.8.8 0 0 1-.471-.718zM7.999 2.983c.633 0 1.24.118 1.798.333.356.137.417.601.145.872a.61.61 0 0 1-.637.13A4 4 0 0 0 8 4.099c-.468 0-.916.08-1.331.229a.61.61 0 0 1-.64-.129c-.271-.27-.212-.732.141-.87A5 5 0 0 1 8 2.983"/></svg>