<svg width="21" height="21" viewBox="0 0 21 21" fill="none" xmlns="http://www.w3.org/2000/svg">
<path d="M7 0L0.42 2.21667C0.175 2.29833 0 2.50833 0 2.77667V20.4167C0 20.5714 0.0614583 20.7197 0.170854 20.8291C0.280251 20.9385 0.428624 21 0.583333 21L0.77 20.965L7 18.55L14 21L20.58 18.7833C20.825 18.7017 21 18.4917 21 18.2233V0.583333C21 0.428624 20.9385 0.280251 20.8291 0.170854C20.7197 0.0614583 20.5714 0 20.4167 0L20.23 0.035L14 2.45L7 0ZM5.83333 2.85833V16.5083L2.33333 17.8617V4.03667L5.83333 2.85833ZM8.16667 2.88167L12.8333 4.515V18.1183L8.16667 16.485V2.88167ZM18.6667 3.15V16.9633L15.1667 18.1417V4.50333L18.6667 3.15ZM5.20333 3.85L2.99833 4.63167V7.14L5.20333 6.35833V3.85ZM5.20333 7.05833L2.99833 7.84V10.3483L5.20333 9.56667V7.05833ZM5.20333 10.2667L2.99833 11.0483V13.5567L5.20333 12.775V10.2667ZM5.20333 13.475L2.99833 14.2567V16.765L5.20333 15.9833V13.475Z" fill="#9CA3AF"/>
</svg>
