<svg width="24" height="24" viewBox="0 0 24 24" fill="none" xmlns="http://www.w3.org/2000/svg">
<path d="M8.05983 18.3535C8.05988 18.4077 8.06957 18.4519 8.14772 18.5225C8.24956 18.6144 8.45309 18.7306 8.81471 18.8359C9.53831 19.0466 10.6465 19.1455 12.0979 19.1455C13.5493 19.1455 14.6575 19.0465 15.3811 18.8359C15.7427 18.7306 15.9463 18.6144 16.0481 18.5225C16.1263 18.4519 16.136 18.4077 16.136 18.3535H17.4016C17.5311 18.3535 17.6386 18.4586 17.6214 18.5869C17.5653 19.0049 17.3588 19.3597 17.053 19.6357C16.715 19.9408 16.2701 20.1388 15.801 20.2754C14.8631 20.5485 13.577 20.6455 12.0979 20.6455C10.6188 20.6455 9.33269 20.5485 8.39479 20.2754C7.92574 20.1388 7.48083 19.9408 7.14284 19.6357C6.83706 19.3597 6.63056 19.0049 6.57448 18.5869C6.55727 18.4586 6.66476 18.3535 6.79421 18.3535H8.05983ZM16.886 14.3848C17.6114 14.3848 18.155 14.6164 18.5227 14.8652C18.7037 14.9877 18.8398 15.1128 18.9339 15.2119C19.3917 15.6946 18.0208 16.3369 17.6819 16.1074C17.5302 16.0048 17.275 15.8848 16.886 15.8848C16.786 15.8849 16.6332 15.9231 16.3616 16.0605C16.0644 16.2109 15.8138 16.3743 15.3831 16.6123C14.5877 17.0518 13.5394 17.5254 12.0979 17.5254C10.6504 17.5254 9.64883 17.0471 8.87819 16.6064C8.47307 16.3748 8.21349 16.2051 7.92702 16.0645C7.66502 15.9359 7.47757 15.8848 7.30983 15.8848C6.79411 15.8848 6.55746 16.02 6.46803 16.0869C6.15293 16.3229 4.7953 15.8168 5.16725 15.2939C5.25445 15.1714 5.38329 15.0256 5.56862 14.8867C5.94863 14.6021 6.51089 14.3848 7.30983 14.3848C7.79926 14.3848 8.22375 14.5389 8.58815 14.7178C8.92837 14.8848 9.31021 15.1262 9.62233 15.3047C10.2862 15.6843 11.0216 16.0254 12.0979 16.0254C13.1801 16.0254 13.9685 15.6796 14.6575 15.2988C14.9689 15.1268 15.3731 14.8799 15.6839 14.7227C16.0195 14.5528 16.4287 14.3849 16.886 14.3848ZM10.7278 10.0439C11.078 10.3192 11.5203 10.4834 12.0003 10.4834C12.334 10.4833 12.6492 10.4036 12.928 10.2627C13.8283 11.0906 15.0597 11.609 15.0598 12.2617C15.0598 13.2908 14.0027 13.8749 12.4036 13.875C10.8043 13.875 10.137 13.1518 10.137 11.9141C10.137 11.2535 10.3567 10.647 10.7278 10.0439ZM8.5237 6.57422C9.17816 6.57429 9.77964 6.79025 10.3772 7.15527C10.1036 7.50486 9.94069 7.9455 9.94069 8.42383C9.94073 8.76495 10.0233 9.08681 10.1702 9.37012C9.345 10.2698 8.82751 11.4966 8.17604 11.4971C7.14695 11.4971 6.56276 10.4401 6.56276 8.84082C6.56276 7.24156 7.28601 6.57422 8.5237 6.57422ZM15.8245 5.37793C16.8535 5.37801 17.4378 6.435 17.4378 8.03418C17.4378 9.63338 16.7144 10.3007 15.4768 10.3008C14.8167 10.3008 14.2103 10.0806 13.6077 9.70996C13.89 9.35753 14.0588 8.91053 14.0589 8.42383C14.0589 8.08972 13.9794 7.77414 13.8382 7.49512C14.6583 6.59615 15.1752 5.37794 15.8245 5.37793ZM12.0003 6.80566C12.8937 6.80585 13.6184 7.5303 13.6184 8.42383C13.6183 9.31724 12.8937 10.0418 12.0003 10.042C11.1067 10.042 10.3822 9.31736 10.3821 8.42383C10.3821 7.53018 11.1066 6.80566 12.0003 6.80566ZM11.5969 3C13.196 3.00007 13.8635 3.7233 13.8635 4.96094C13.8635 5.61472 13.6477 6.21555 13.2835 6.8125C12.9316 6.53179 12.4854 6.36434 12.0003 6.36426C11.6586 6.36426 11.3356 6.4475 11.052 6.59473C10.1536 5.7773 8.94083 5.2613 8.94069 4.61328C8.94068 3.58419 9.99768 3 11.5969 3Z" fill="url(#paint0_linear_340_1683)"/>
<defs>
<linearGradient id="paint0_linear_340_1683" x1="12.0649" y1="3" x2="12.0649" y2="20.6455" gradientUnits="userSpaceOnUse">
<stop stop-color="#EAE8D8"/>
<stop offset="1" stop-color="#AEAB9C"/>
</linearGradient>
</defs>
</svg>
