<svg width="24" height="24" viewBox="0 0 24 24" fill="none" xmlns="http://www.w3.org/2000/svg">
<path d="M12 3.5625C16.6599 3.5625 20.4375 7.3401 20.4375 12C20.4375 16.6599 16.6599 20.4375 12 20.4375C7.3401 20.4375 3.5625 16.6599 3.5625 12C3.5625 7.3401 7.3401 3.5625 12 3.5625ZM12.0146 8.5293L10.0498 7.99805L9.88574 8.61523C10.1979 8.69961 10.404 8.78367 10.5039 8.86816C10.6038 8.9527 10.6633 9.04704 10.6826 9.15039C10.706 9.2516 10.6722 9.47551 10.5801 9.82227L9.70703 13.1074C9.61482 13.4545 9.53337 13.6665 9.46289 13.7422C9.39581 13.8185 9.29782 13.8696 9.16895 13.8955C9.04388 13.9192 8.82342 13.888 8.50781 13.8027L8.34375 14.4199L10.3096 14.9512L10.0146 16.0586L10.5801 16.2119L10.875 15.1035L11.7227 15.333L11.4287 16.4404L11.9941 16.5938L12.293 15.4697C13.0445 15.615 13.6729 15.5859 14.1777 15.3828C14.6746 15.1787 14.9879 14.8346 15.1162 14.3516C15.2376 13.894 15.1483 13.4708 14.8486 13.082C14.6404 12.8092 14.2314 12.5135 13.6211 12.1963C14.2597 12.2166 14.7301 12.1393 15.0322 11.9639C15.3352 11.7852 15.5282 11.5408 15.6104 11.2314C15.6882 10.938 15.667 10.6366 15.5479 10.3271C15.4294 10.0143 15.2249 9.74872 14.9336 9.53125C14.7345 9.38001 14.4195 9.23092 13.9893 9.08398L14.293 7.94141L13.7275 7.78809L13.4287 8.91211C13.3943 8.90253 13.3596 8.89237 13.3242 8.88281L12.5801 8.68262L12.8789 7.55957L12.3135 7.40625L12.0146 8.5293ZM11.7227 11.9424C12.237 12.078 12.6113 12.2281 12.8447 12.3926C13.0781 12.5572 13.2372 12.7798 13.3213 13.0596C13.4534 13.4903 13.454 13.7619 13.0752 14.1494C12.8982 14.3282 12.6803 14.4441 12.4219 14.4961C12.1675 14.5458 11.9054 14.5336 11.6367 14.4609C11.4555 14.4119 11.3292 14.3323 11.2578 14.2217C11.1907 14.1089 11.1794 13.9672 11.2246 13.7969L11.293 13.5615L11.7227 11.9424ZM12.4111 9.35352C12.902 9.48285 13.246 9.62472 13.4424 9.7793C13.6388 9.93389 13.771 10.1192 13.8398 10.334C13.9769 10.733 13.8962 11.1153 13.5508 11.4219C13.3813 11.5721 13.1691 11.6668 12.9141 11.7061C12.6623 11.7463 12.298 11.7021 11.8213 11.5732L12.4111 9.35352Z" fill="url(#paint0_linear_340_1673)"/>
<defs>
<linearGradient id="paint0_linear_340_1673" x1="12" y1="3.5625" x2="12" y2="20.4375" gradientUnits="userSpaceOnUse">
<stop stop-color="#EAE8D8"/>
<stop offset="1" stop-color="#AEAB9C"/>
</linearGradient>
</defs>
</svg>
