<svg width="24" height="24" viewBox="0 0 24 24" fill="none" xmlns="http://www.w3.org/2000/svg">
<path fill-rule="evenodd" clip-rule="evenodd" d="M18.8012 4.03799C18.8189 4.08417 18.7959 4.13601 18.7497 4.15378L14.5459 5.77145C14.5213 5.78093 14.502 5.8008 14.4934 5.82574L14.1971 6.68146C14.1769 6.73965 14.2202 6.80036 14.2817 6.80036H15.7769C15.8323 6.80036 15.8743 6.85007 15.8658 6.90476C15.6542 8.25453 15.6971 9.62883 15.9889 10.9573C15.9907 10.9658 15.9939 10.974 15.9981 10.9816C16.3527 11.623 16.5545 12.3607 16.5545 13.1455C16.5545 15.3928 14.8995 17.2535 12.7418 17.5754C12.6974 17.582 12.6638 17.6199 12.6638 17.6649V18.9804C12.6638 19.0209 12.6909 19.0563 12.7299 19.0669L15.0706 19.7029C15.1096 19.7135 15.1367 19.7489 15.1367 19.7893V20.3479C15.1367 20.3974 15.0966 20.4375 15.0471 20.4375H8.77614C8.72667 20.4375 8.68656 20.3974 8.68656 20.3479V19.7898C8.68656 19.7492 8.71395 19.7136 8.75327 19.7032L11.1637 19.0666C11.2031 19.0562 11.2305 19.0206 11.2305 18.9799V17.6192C11.2305 17.5762 11.1997 17.5393 11.1576 17.5306C9.12398 17.1072 7.59607 15.3048 7.59605 13.1455C7.59605 12.3607 7.7979 11.623 8.15249 10.9816C8.1567 10.974 8.1598 10.9658 8.16167 10.9573C8.45349 9.62883 8.49643 8.25453 8.28482 6.90476C8.27625 6.85007 8.31833 6.80036 8.37369 6.80036H13.4286C13.4667 6.80036 13.5007 6.77616 13.5132 6.74009L13.9963 5.34519C14.0049 5.32024 14.0241 5.30037 14.0488 5.29089L18.5245 3.5685C18.5707 3.55073 18.6225 3.57376 18.6403 3.61993L18.8012 4.03799ZM12.8333 10.6199C12.8131 10.6781 12.8563 10.7388 12.9179 10.7388H14.4695C14.5252 10.7388 14.5674 10.6885 14.5582 10.6336C14.4259 9.84216 14.3712 9.0395 14.3951 8.23707C14.3966 8.1863 14.356 8.14413 14.3053 8.14413H13.7544C13.7162 8.14413 13.6822 8.16832 13.6697 8.2044L12.8333 10.6199ZM9.84534 8.14413C9.79455 8.14413 9.75395 8.1863 9.75547 8.23707C9.77937 9.0395 9.72468 9.84216 9.59241 10.6336C9.58323 10.6885 9.6254 10.7388 9.68109 10.7388H12.0647C12.1029 10.7388 12.1369 10.7146 12.1494 10.6785L12.9858 8.26303C13.006 8.20483 12.9628 8.14413 12.9012 8.14413H9.84534Z" fill="url(#paint0_linear_340_1711)"/>
<path d="M7.53626 3.9448C8.10102 3.83246 8.68643 3.89009 9.21842 4.11045C9.75042 4.33081 10.2051 4.70401 10.5251 5.1828C10.749 5.5179 10.8997 5.89424 10.9701 6.28735C10.9797 6.34101 10.9377 6.38931 10.8832 6.38931H9.56771C9.52798 6.38931 9.49326 6.36304 9.4803 6.32547C9.43983 6.20815 9.38434 6.09584 9.31466 5.99155C9.1547 5.75217 8.92735 5.56558 8.66136 5.4554C8.39536 5.34522 8.10262 5.31638 7.82024 5.37255C7.53785 5.42872 7.27845 5.56737 7.07486 5.77096C6.87128 5.97455 6.73263 6.23395 6.67645 6.51633C6.62028 6.79872 6.64912 7.09146 6.7593 7.35746C6.86948 7.62345 7.05607 7.8508 7.29546 8.01076C7.35106 8.04791 7.40897 8.08102 7.46869 8.10998C7.50074 8.12552 7.52196 8.15753 7.52196 8.19315V9.54326C7.52196 9.59994 7.46996 9.64244 7.41489 9.62902C7.08574 9.54881 6.77135 9.41135 6.4867 9.22116C6.00791 8.90124 5.63471 8.44652 5.41435 7.91452C5.194 7.38253 5.13636 6.79712 5.2487 6.23236C5.36104 5.66759 5.63833 5.14879 6.04551 4.74161C6.45269 4.33443 6.97148 4.05714 7.53626 3.9448Z" fill="url(#paint1_linear_340_1711)"/>
<defs>
<linearGradient id="paint0_linear_340_1711" x1="12" y1="3.5625" x2="12" y2="20.4375" gradientUnits="userSpaceOnUse">
<stop stop-color="#EAE8D8"/>
<stop offset="1" stop-color="#AEAB9C"/>
</linearGradient>
<linearGradient id="paint1_linear_340_1711" x1="12" y1="3.5625" x2="12" y2="20.4375" gradientUnits="userSpaceOnUse">
<stop stop-color="#EAE8D8"/>
<stop offset="1" stop-color="#AEAB9C"/>
</linearGradient>
</defs>
</svg>
