<svg width="24" height="24" viewBox="0 0 24 24" fill="none" xmlns="http://www.w3.org/2000/svg">
<path d="M11.4569 21.5768C11.457 21.5769 11.4572 21.5769 11.4574 21.5768C11.5449 21.5078 11.9637 21.773 11.8446 21.8304C11.823 21.8407 11.7544 21.6925 11.7027 21.6852C11.6087 21.6719 11.8233 21.8985 11.6634 21.8312C11.6346 21.8189 11.4553 21.5853 11.4566 21.5767C11.4566 21.5765 11.4568 21.5766 11.4569 21.5768ZM12.5135 8.44399C12.6011 8.37583 12.7438 8.37151 12.8596 8.39292C12.8963 8.39931 12.9015 8.47626 12.9275 8.48403C12.9785 8.49914 13.0066 8.4524 13.0595 8.47332C13.0769 8.48068 13.0915 8.60024 13.1089 8.60543C13.2028 8.63312 13.2714 8.58278 13.36 8.58585C13.7966 8.60166 14.228 8.56422 14.6899 8.60428C14.8432 8.61716 15.0214 8.72977 15.1788 8.69673C15.1974 8.69275 15.1959 8.58766 15.2001 8.57939C15.2682 8.45335 15.23 8.66173 15.2622 8.69331C15.3904 8.81846 15.5341 8.85226 15.6718 8.84099C15.73 8.83597 15.7192 8.62085 15.7503 8.74734C15.7524 8.7559 15.7143 8.8609 15.7265 8.87595C15.7544 8.9096 15.8221 8.9061 15.8456 8.92148C15.8906 8.95153 15.8992 8.9528 15.9446 8.96711C16.0074 8.98798 16.0639 9.06343 16.1373 9.06173C16.1531 9.06107 16.1701 8.94683 16.1988 8.93617C16.2275 8.92548 16.2846 8.95591 16.2957 8.98858C16.3069 9.02121 16.268 9.10212 16.2646 9.12269C16.2334 9.29516 16.3815 9.09567 16.3932 9.09396C16.5585 9.06612 16.6405 9.19694 16.7461 9.27521C16.7638 9.2883 16.7842 9.29681 16.8054 9.30268L16.9355 9.33879C17.038 9.36724 17.1085 9.46114 17.1072 9.5675L17.1031 9.90264C17.1028 9.92323 17.0989 9.94355 17.0954 9.96384C17.0768 10.0719 17.1003 10.1943 17.0762 10.2941C17.0473 10.4114 16.9684 10.506 16.9574 10.6251C16.9562 10.6377 17.0887 10.6474 17.0874 10.6628C17.0734 10.8255 17.0295 10.9848 16.9119 11.1283C16.9 11.1427 16.7899 11.1002 16.7712 11.1132C16.687 11.1731 16.5221 11.2512 16.6524 11.3526C16.7607 11.4369 16.84 11.5943 16.7106 11.6399C16.6389 11.6652 16.522 11.6035 16.5659 11.6608C16.5756 11.6737 16.6869 11.6816 16.6933 11.6993C16.7197 11.7753 16.6699 11.8422 16.7127 11.9203C16.7217 11.9362 16.8197 11.9523 16.8364 11.9597C16.9717 12.0211 16.7266 12.0268 16.7073 12.0349C16.5627 12.0969 16.5993 12.173 16.579 12.2558C16.5744 12.275 16.7094 12.2796 16.7095 12.2991C16.7083 12.3999 16.6764 12.4963 16.5986 12.5782C16.5809 12.5965 16.4741 12.5528 16.46 12.5603C16.3992 12.5934 16.6065 12.6493 16.5521 12.6819C16.5409 12.6888 16.4471 12.6628 16.4363 12.6621C16.2673 12.6514 16.4943 12.7248 16.4979 12.7326C16.5498 12.8313 16.2965 12.8293 16.3131 12.9163C16.3153 12.9269 16.44 12.9325 16.4389 12.9608C16.4315 13.1496 16.3554 13.3296 16.217 13.4844C16.1957 13.5083 16.1107 13.4665 16.0992 13.4655C15.9197 13.4508 16.1467 13.5262 16.1533 13.5374C16.1609 13.5519 16.1613 13.5644 16.1581 13.5757C16.1188 13.7115 16.1897 13.868 16.1514 14.0041C16.0914 14.2175 16.0624 14.438 15.8264 14.5984C15.8225 14.6013 15.7118 14.5612 15.7045 14.5671C15.6154 14.6374 15.7954 14.6721 15.9915 14.7965C16.0407 14.8279 15.7694 14.7947 15.7492 14.7929C15.6752 14.7862 15.5127 14.7197 15.4977 14.7205C15.4015 14.7265 15.7533 14.8368 15.8767 14.9073C15.9107 14.9268 15.8981 14.9408 15.861 14.9277C15.8359 14.9189 15.8107 14.9105 15.8053 14.9112C15.7692 14.9156 15.8052 14.9424 15.766 14.9454C15.6753 14.9521 15.4042 14.8783 15.545 14.976C15.5633 14.9886 15.8786 15.0788 15.8485 15.1232C15.8363 15.1407 15.8143 15.2288 15.7862 15.2465C15.7583 15.2641 15.6634 15.2144 15.6584 15.2146C15.5049 15.2354 15.4578 15.1926 15.2512 15.1589C15.0455 15.125 15.5143 15.2727 15.562 15.3034C15.6095 15.3341 15.4847 15.3443 15.443 15.3428C15.4012 15.3413 15.3424 15.3053 15.3176 15.3081C15.1549 15.3273 15.5385 15.417 15.6047 15.4649C15.7613 15.5786 15.4028 15.5004 15.3527 15.5362C15.3391 15.546 15.421 15.5631 15.4243 15.5773C15.4363 15.6335 15.3196 15.6225 15.3992 15.7102C15.4123 15.7244 15.6029 15.8424 15.442 15.8144C15.4189 15.8102 15.3376 15.7679 15.3114 15.7803C15.2723 15.7988 15.2347 15.8441 15.2516 15.886C15.2642 15.917 15.414 15.9435 15.3597 15.9562C15.3355 15.9618 15.2625 15.9068 15.2239 15.9197C15.1854 15.9325 15.166 15.9951 15.16 16.0195C15.1541 16.0439 15.2646 16.0723 15.2712 16.077C15.3077 16.1043 15.3415 16.1693 15.3399 16.1733C15.2753 16.3804 15.0243 16.4903 15.0014 16.7063C14.9994 16.7232 15.1134 16.7612 15.1143 16.7643C15.1259 16.7996 15.0659 16.777 14.9884 16.744C14.945 16.7256 14.9264 16.7573 14.9349 16.8036C14.9393 16.8264 15.0294 16.8552 15.0375 16.8607C15.1568 16.9451 14.9802 16.888 14.9437 16.877C14.8095 16.8369 14.951 16.923 14.8613 16.8962C14.8491 16.8926 14.8366 16.8879 14.8239 16.8827C14.719 16.8392 14.7202 16.8575 14.8249 16.9016C14.891 16.9294 14.9503 16.9567 14.9612 16.9773C15.0441 17.135 14.7965 17.2462 14.7429 17.3153C14.6891 17.3856 14.6911 17.418 14.6408 17.4497C14.5498 17.5066 14.7155 17.5521 14.7591 17.6386C14.8025 17.7249 14.4447 17.5114 14.3614 17.4782C14.2784 17.4447 14.3564 17.4941 14.3084 17.4805C14.2604 17.4669 14.2157 17.4205 14.1891 17.4324C14.1627 17.4442 14.2757 17.5729 14.3547 17.6235C14.5223 17.7304 14.7197 17.8004 14.6266 17.8225C14.621 17.8236 14.5296 17.7626 14.5136 17.7697C14.3895 17.8277 14.3331 17.9242 14.2172 17.983C14.2011 17.991 14.1009 17.9208 14.0903 17.9247C14.047 17.9407 14.0125 18.0176 13.9672 18.0085C13.9231 17.9996 13.8938 18.0046 13.8819 18.0249C13.8615 18.0594 13.9801 18.1185 14.0485 18.1875C14.0691 18.2084 13.9763 18.1882 14.0278 18.2237C14.1959 18.3399 14.407 18.4294 14.2936 18.446C14.2881 18.4465 14.1967 18.3823 14.1856 18.3882C14.1134 18.4262 14.2934 18.5405 14.2777 18.6197C14.2727 18.6448 14.2434 18.6636 14.2067 18.6801C14.1126 18.7225 13.9913 18.7096 13.8963 18.6691C13.8177 18.6357 13.82 18.6646 13.8767 18.7225C13.9284 18.7753 13.9567 18.8851 13.8878 18.9115C13.8708 18.918 13.7921 18.8577 13.7821 18.8536C13.6256 18.7889 13.8099 18.926 13.8126 18.9386C13.8339 19.0708 13.6446 19.047 13.7351 19.2209C13.7384 19.2271 13.9341 19.3608 13.775 19.2887C13.7642 19.2836 13.691 19.1978 13.6595 19.2318C13.6275 19.2667 13.4764 19.2673 13.5337 19.3805C13.5476 19.4078 13.6863 19.5471 13.5444 19.4895C13.5252 19.4815 13.4713 19.4399 13.4367 19.4238C13.3262 19.3726 13.519 19.5151 13.338 19.4202C13.1569 19.3253 13.0058 19.2778 13.0867 19.4094C13.0892 19.4134 13.2371 19.5332 13.2238 19.5477C13.2024 19.5708 13.1451 19.5852 13.1277 19.613C13.1195 19.6264 13.2219 19.6853 13.2221 19.6888C13.2166 19.8145 13.0872 19.8172 12.9845 19.8848C12.966 19.8967 13.0622 20.0392 12.936 19.9977C12.7979 19.952 12.3554 19.5755 12.4095 19.7374C12.4188 19.765 12.5259 19.8675 12.6189 19.9634C12.7353 20.0834 12.4952 20.2278 12.4334 20.3831C12.4239 20.407 12.4197 20.4353 12.4233 20.4702C12.4244 20.4792 12.5744 20.6204 12.5629 20.6311C12.5456 20.6465 12.462 20.5983 12.4475 20.607C12.3848 20.6423 12.4125 20.7413 12.3631 20.7851C12.3444 20.8018 12.2717 20.7337 12.2495 20.7536C12.2275 20.7734 12.3178 20.8699 12.244 20.8625C12.2399 20.8621 12.235 20.861 12.2294 20.8593C12.0934 20.8182 12.0782 20.8559 12.1198 20.9917C12.1246 21.0074 12.2022 21.0569 12.2081 21.0673C12.2339 21.1109 12.1646 21.0764 12.1941 21.122C12.2011 21.133 12.271 21.1895 12.2807 21.2017C12.3658 21.3075 12.179 21.2182 12.1466 21.2023C12.0233 21.1428 12.1049 21.2279 12.0491 21.2137C11.9933 21.1993 11.9647 21.1295 11.9224 21.1313C11.8351 21.1351 11.7995 21.2028 11.7588 21.2468C11.7431 21.2646 11.8457 21.3284 11.8456 21.3327C11.8428 21.3569 11.703 21.3927 11.6824 21.3799C11.5746 21.313 11.875 21.575 11.7656 21.5551C11.7544 21.5529 11.5262 21.3706 11.5065 21.3269C11.4868 21.2833 11.5768 21.3174 11.5435 21.2523C11.5357 21.2368 11.3498 21.0317 11.3402 21.0171C11.2663 20.9024 11.6061 21.1765 11.626 21.19C11.8407 21.336 11.6444 21.1097 11.6364 21.0869C11.6008 20.9821 11.679 20.9825 11.6574 20.9025C11.6436 20.8506 11.4236 20.6679 11.4455 20.6543C11.518 20.6093 11.8466 20.8366 11.6235 20.5604C11.5761 20.5013 11.3216 20.3195 11.5501 20.4259C11.5647 20.4328 11.7675 20.5376 11.6718 20.4291C11.6597 20.4154 11.5883 20.359 11.5848 20.3508C11.5632 20.2979 11.6315 20.3281 11.6228 20.2824C11.6141 20.2367 11.5954 20.1759 11.6406 20.1676C11.6678 20.1626 11.8176 20.2457 11.8564 20.2632C11.9679 20.3142 11.8311 20.1699 11.9561 20.2448C12.0572 20.305 12.0668 20.2884 11.9746 20.2152C11.9466 20.193 11.9186 20.1707 11.8906 20.1485C11.8284 20.0992 11.8249 20.012 11.8918 19.9693C11.9406 19.9381 11.9883 19.9065 12.016 19.8592C12.0222 19.8482 11.913 19.782 11.9169 19.7683C11.9341 19.7107 12.035 19.7261 12.0412 19.6558C12.0495 19.5467 12.127 19.5494 12.1862 19.4574C12.1953 19.4433 12.2026 19.4281 12.217 19.4202C12.2341 19.4107 12.2921 19.4539 12.3185 19.4573C12.4168 19.4689 12.2096 19.3479 12.1864 19.3154C12.0881 19.1757 12.5317 19.4855 12.5596 19.4216C12.5614 19.4182 12.3503 19.216 12.3388 19.2009C12.2643 19.1025 12.4245 19.2534 12.4554 19.2461C12.5117 19.2328 12.5853 19.247 12.5441 19.157C12.5319 19.1305 12.4033 18.9995 12.5336 19.0547C12.5507 19.0619 12.6281 19.1175 12.6345 19.1182C12.7424 19.1241 12.4958 18.954 12.4292 18.8708C12.3626 18.7879 12.5603 18.8635 12.6152 18.8884C12.7574 18.9527 12.659 18.9418 12.6708 18.9514C12.8109 19.0659 12.8049 19.0187 12.8325 19.0043C13.0785 19.1646 13.0851 19.1223 12.8601 18.9887C12.8355 18.9741 12.8466 19.0071 12.8325 19.0043C12.6064 18.8235 12.5977 18.7693 12.847 18.8796C12.9639 18.9312 13.0756 19.0294 13.0663 18.9444C13.0621 18.906 12.8869 18.8047 12.855 18.7521C12.7822 18.6325 12.982 18.6691 12.9898 18.6004C12.9925 18.5756 12.8877 18.5345 12.8864 18.5156C12.8823 18.4653 12.971 18.4795 12.9561 18.4225C12.9546 18.4173 12.8519 18.3632 12.8572 18.3518C12.8952 18.2639 13.0017 18.2309 13.0539 18.1467C13.0793 18.1056 13.0669 18.0003 13.1031 17.9631C13.1648 17.8994 13.3628 17.8912 13.3631 17.8064C13.3636 17.7515 13.2577 17.7036 13.1988 17.647C13.0847 17.5373 13.357 17.6101 13.3988 17.622C13.3999 17.6226 13.4029 17.6558 13.4381 17.6731C13.4559 17.6818 13.4758 17.6866 13.4947 17.6926C13.5423 17.7075 13.3999 17.6231 13.3988 17.622C13.4257 17.6298 13.488 17.5695 13.4762 17.5444C13.4698 17.5308 13.3714 17.4826 13.3697 17.4765C13.3397 17.3535 13.3543 17.2553 13.4194 17.1825C13.4413 17.158 13.4711 17.1556 13.5003 17.1707C13.5316 17.187 13.5684 17.206 13.5715 17.2046C13.6491 17.1719 13.5341 17.0663 13.4777 16.9793C13.4483 16.9334 13.4465 16.9051 13.4806 16.8979C13.5682 16.8795 13.7464 16.8769 13.8355 16.8693C13.9006 16.8637 13.6877 16.7559 13.6845 16.7512C13.5863 16.6047 13.7316 16.6159 13.7897 16.5391C13.8176 16.5028 13.822 16.4077 13.8173 16.353C13.8134 16.3095 13.8737 16.311 13.8548 16.2643C13.8521 16.2579 13.7533 16.2196 13.7501 16.2166C13.649 16.1297 13.8795 16.2513 13.9251 16.2625C14.0912 16.3032 14.181 16.3216 14.1279 16.2432C14.1158 16.2249 13.7852 16.0465 13.7729 16.0189C13.7577 15.9831 13.8772 16.0448 13.8582 16.0059C13.8566 16.0026 13.7803 15.9708 13.7903 15.956C13.8357 15.8869 13.9134 15.8225 13.9367 15.7402C13.9401 15.7291 13.813 15.6941 13.8159 15.6774C13.8298 15.599 13.8647 15.5212 13.9487 15.4716C13.9698 15.4595 14.0514 15.5033 14.0783 15.5092C14.2412 15.5441 14.03 15.4254 14.0274 15.4183C13.9676 15.2467 14.2073 15.2196 14.1567 15.0485C14.1536 15.0387 13.9302 14.8983 14.1468 14.9448C14.1612 14.9479 14.3829 14.9955 14.2445 14.9233C14.2358 14.9188 14.1209 14.8971 14.1411 14.8736C14.1614 14.8499 14.1024 14.7814 14.2356 14.7838C14.2775 14.7847 14.5003 14.8263 14.3416 14.7341C14.3305 14.7274 13.9627 14.5475 14.2348 14.6139C14.2796 14.6249 14.5601 14.719 14.4292 14.6293C14.4038 14.6121 14.3363 14.6069 14.3038 14.5728C14.2536 14.5205 14.3427 14.5002 14.2293 14.4202C14.2092 14.406 14.0266 14.3166 14.1794 14.3374C14.2033 14.3406 14.2956 14.3769 14.31 14.3672C14.3791 14.3214 14.3346 14.2386 14.4182 14.1956C14.4476 14.1802 14.5974 14.237 14.6452 14.2257C14.6929 14.2145 14.7459 14.1785 14.6829 14.1335C14.6197 14.0886 14.3678 14.0445 14.3585 14.0025C14.3173 13.8222 14.5037 13.7038 14.5658 13.5504C14.5751 13.5276 14.482 13.5238 14.4893 13.4886C14.5161 13.3579 14.4878 13.1158 14.7025 13.0482C14.8747 12.9936 14.9619 13.1367 15.0398 13.0813C15.077 13.0543 14.7983 12.9481 14.791 12.9382C14.7174 12.8378 14.8574 12.813 14.8346 12.7321C14.8299 12.7154 14.7099 12.7027 14.7071 12.6889C14.6966 12.6413 14.7589 12.608 14.7586 12.5644C14.7582 12.5447 14.6681 12.5279 14.6787 12.5127C14.7031 12.4761 14.7484 12.449 14.8408 12.4281C14.8492 12.4262 14.955 12.4755 14.9657 12.4463C14.9827 12.399 15.0785 12.3562 15.0053 12.2806C14.9832 12.2581 14.779 12.2129 14.9278 12.2074C14.959 12.2064 15.2024 12.2688 14.9991 12.1812C14.9653 12.1664 14.6939 12.0352 14.8855 12.0403C14.936 12.0417 15.1418 12.0613 15.1144 12.0343C15.11 12.0305 14.9978 12.018 14.9905 11.999C14.9669 11.9325 14.9914 11.8728 14.9694 11.8043C14.9633 11.786 14.8445 11.7867 14.839 11.7602C14.8236 11.6885 14.869 11.6123 14.9176 11.5544C14.9357 11.5332 15.0268 11.5689 15.0374 11.5693C15.2101 11.5751 14.9879 11.5125 14.9766 11.5005C14.9093 11.4266 15.0242 11.4025 15.0065 11.3437C15.0018 11.3275 14.8922 11.3165 14.8832 11.3117C14.7954 11.2628 14.9842 11.3238 15.0092 11.3089C15.0799 11.2672 15.0829 11.2051 15.0797 11.1475C15.0784 11.1262 14.9492 11.1244 14.9494 11.1057C14.9484 10.994 14.9815 10.8843 15.0698 10.7936C15.0867 10.7765 15.1806 10.8073 15.2033 10.8074C15.2395 10.8076 15.257 10.8036 15.2622 10.797C15.2669 10.7912 15.2568 10.7957 15.2494 10.7947C15.1263 10.7819 15.0237 10.7906 14.9058 10.6201C14.9004 10.6121 14.8987 10.487 14.8911 10.4253C14.8874 10.3959 14.8752 10.4128 14.8742 10.4423C14.8741 10.4439 14.8741 10.4454 14.874 10.4469C14.8703 10.5552 14.7929 10.6472 14.6847 10.6404C14.5557 10.6323 14.4174 10.6059 14.2681 10.6238C14.2589 10.625 14.2988 10.7576 14.2815 10.7604C14.1808 10.7773 14.09 10.8366 13.9476 10.7315C13.9334 10.7213 13.8806 10.4849 13.8558 10.5291C13.8517 10.537 13.8091 10.5817 13.8093 10.6361C13.8096 10.6443 13.8475 10.751 13.8323 10.7586C13.744 10.8004 13.6385 10.8045 13.5217 10.7684C13.5029 10.7623 13.4846 10.642 13.4708 10.6368C13.3718 10.6007 13.3124 10.7161 13.2007 10.6384C13.1261 10.5858 13.0803 10.3819 12.9876 10.1972C12.9745 10.1711 12.9395 10.1782 12.8999 10.0659C12.8004 9.78352 12.7136 9.46666 12.6056 9.16628C12.5823 9.10155 12.5573 9.18843 12.5332 9.02105C12.5317 9.0098 12.5495 8.94538 12.5405 8.88893C12.5343 8.84985 12.4852 8.73867 12.482 8.68708C12.4788 8.63555 12.5244 8.72726 12.5267 8.66468C12.5289 8.60136 12.4767 8.47347 12.5135 8.44399ZM11.8519 20.8976C11.7797 20.8587 11.825 20.9517 11.9148 21.0001C11.9871 21.0389 11.9418 20.9458 11.8519 20.8976ZM12.0643 20.5675C12.2092 20.6189 11.7436 20.2452 11.8074 20.3604C11.8109 20.367 12.0559 20.5645 12.0643 20.5675ZM12.0569 19.9676C11.9257 19.9044 12.1645 20.1155 12.2168 20.1394C12.3895 20.218 12.1885 20.0307 12.0569 19.9676ZM14.0182 18.7727C14.0304 18.7586 14.0516 18.7583 14.0646 18.7717C14.129 18.8382 14.1257 18.8672 14.0318 18.8334C14.0077 18.8247 14.0014 18.7921 14.0182 18.7727ZM14.6071 17.0173C14.4923 16.9479 14.4609 16.9908 14.5909 17.0399C14.5962 17.0417 14.6118 17.0202 14.6071 17.0173ZM14.1272 16.8413C14.2441 16.8615 13.8661 16.6786 13.9429 16.7518C13.9471 16.7556 14.1214 16.8403 14.1272 16.8413ZM15.1433 15.4434C15.0355 15.4068 15.0574 15.442 15.1592 15.4691C15.1653 15.4707 15.1767 15.4548 15.1433 15.4434ZM15.765 14.4393C15.5645 14.3484 15.509 14.4597 15.7358 14.4981C15.7476 14.5001 15.7749 14.4444 15.765 14.4393ZM11.8126 2.15626C11.907 2.15521 12.0525 2.30399 12.229 2.40909C12.2538 2.42391 12.2801 2.39867 12.3722 2.47295C12.6038 2.65972 12.8439 2.88101 13.0921 3.07845C13.1455 3.12098 13.117 3.03944 13.2273 3.16554C13.2346 3.17405 13.2566 3.23393 13.2948 3.27573C13.3213 3.30465 13.42 3.37386 13.4513 3.41399C13.4826 3.45401 13.3973 3.39919 13.4308 3.45042C13.465 3.50204 13.5758 3.5826 13.566 3.62092C13.5427 3.70899 13.4438 3.77238 13.3503 3.80632C13.3213 3.81694 13.2705 3.7605 13.2477 3.76592C13.2032 3.77669 13.212 3.82579 13.1632 3.83334C13.1467 3.83558 13.0618 3.75194 13.0466 3.75608C12.964 3.77954 12.949 3.85067 12.8873 3.89291C12.5855 4.09772 12.3527 4.36128 12.114 4.6327C12.0356 4.72187 11.8675 4.78756 11.8427 4.91675C11.8398 4.93192 11.9317 4.98017 11.9375 4.98708C12.0256 5.09322 11.8564 4.96926 11.8182 4.97821C11.6673 5.01404 11.5941 5.11662 11.5734 5.22942C11.5649 5.27764 11.7639 5.34555 11.6419 5.32478C11.6336 5.32347 11.5456 5.25631 11.5292 5.26096C11.4921 5.27169 11.4815 5.3284 11.4628 5.34293C11.4264 5.37067 11.4238 5.37735 11.4024 5.41151C11.3724 5.45767 11.2924 5.48679 11.2844 5.55078C11.283 5.56459 11.3885 5.6073 11.395 5.63441C11.4016 5.66151 11.367 5.70273 11.3352 5.70493C11.3034 5.7071 11.2306 5.65587 11.2115 5.64841C11.0504 5.58508 11.2251 5.75805 11.2265 5.76787C11.2423 5.9436 11.065 5.98495 11.0001 6.10493C10.9511 6.19605 10.9381 6.31456 10.8867 6.39849C10.825 6.49831 10.7251 6.55757 10.6821 6.66361C10.6776 6.67476 10.8009 6.72425 10.7955 6.73791C10.738 6.88294 10.6552 7.01449 10.5068 7.11219C10.4918 7.1219 10.3971 7.05119 10.3759 7.05784C10.2783 7.08955 10.0949 7.11833 10.2077 7.25443C10.2915 7.35558 10.3209 7.5212 10.1898 7.52919C10.1146 7.53433 10.0165 7.44571 10.0451 7.51131C10.0515 7.52603 10.157 7.56238 10.159 7.58072C10.1673 7.65783 10.1044 7.7069 10.1288 7.7901C10.134 7.80713 10.2252 7.84677 10.2398 7.85784C10.3574 7.94842 10.1196 7.89206 10.099 7.89492C9.94591 7.91664 9.96498 7.99766 9.9288 8.06967C9.92038 8.08641 10.0505 8.12256 10.0467 8.14064C10.0256 8.23369 9.97627 8.3157 9.88562 8.37422C9.86503 8.3874 9.7691 8.32319 9.75395 8.32711C9.68846 8.34511 9.88024 8.44222 9.82143 8.46089C9.80927 8.46496 9.72244 8.42055 9.71205 8.41762C9.54897 8.37173 9.75724 8.4889 9.75951 8.49682C9.79289 8.59969 9.54575 8.5461 9.54737 8.63143C9.54783 8.6417 9.66876 8.67217 9.66318 8.69793C9.62499 8.87373 9.52477 9.02619 9.3682 9.15012C9.34403 9.1694 9.26592 9.11601 9.25472 9.11317C9.0797 9.07069 9.2934 9.17894 9.29844 9.19048C9.3021 9.20007 9.30293 9.20844 9.3018 9.21594C9.28046 9.35814 9.28986 9.51789 9.23683 9.65155C9.16275 9.83826 9.11386 10.0337 8.88237 10.1601C8.87812 10.1625 8.77011 10.1161 8.76255 10.1214C8.6704 10.1844 8.84795 10.2302 9.03925 10.3601C9.08728 10.3925 8.81887 10.3445 8.79875 10.3418C8.7254 10.3312 8.56537 10.2591 8.55041 10.2589C8.45582 10.2601 8.79199 10.38 8.91832 10.4526C8.95507 10.4737 8.9431 10.4869 8.9035 10.4718C8.88021 10.4629 8.85794 10.4549 8.85287 10.4552C8.8172 10.4571 8.85254 10.4846 8.81343 10.486C8.72309 10.4889 8.45341 10.4096 8.59277 10.5089C8.61096 10.5215 8.92438 10.6178 8.89495 10.6582C8.88281 10.6744 8.86259 10.7553 8.83554 10.7705C8.80845 10.7858 8.71293 10.7382 8.70789 10.7382C8.55634 10.754 8.50788 10.7152 8.30107 10.6834C8.09472 10.653 8.56572 10.7934 8.6141 10.8227C8.66227 10.852 8.53844 10.8627 8.49679 10.862C8.45514 10.8612 8.39529 10.8273 8.3706 10.8305C8.20903 10.8528 8.59495 10.9314 8.66311 10.9756C8.82477 11.0796 8.46587 11.0084 8.41701 11.049C8.40402 11.0593 8.48661 11.0721 8.49082 11.0858C8.50636 11.1394 8.38937 11.1355 8.47591 11.214C8.48992 11.2271 8.69034 11.325 8.52866 11.3076C8.50534 11.3051 8.42043 11.2709 8.39594 11.2839C8.35929 11.303 8.32577 11.3534 8.34753 11.3914C8.36356 11.4198 8.51496 11.4311 8.46292 11.4478C8.4397 11.4552 8.36064 11.4103 8.32405 11.4263C8.28742 11.4424 8.27689 11.5028 8.27481 11.5255C8.27271 11.5483 8.38596 11.5622 8.39298 11.5658C8.43285 11.5876 8.47608 11.6448 8.47518 11.6484C8.44844 11.8348 8.22569 11.9917 8.27832 12.1744C8.28237 12.1892 8.4023 12.1855 8.40415 12.1878C8.43223 12.2148 8.33674 12.2096 8.23086 12.2073C8.19483 12.2065 8.19901 12.2184 8.23003 12.2367C8.21102 12.238 8.20333 12.2582 8.21758 12.2709C8.23869 12.2896 8.26829 12.304 8.28748 12.3049C8.311 12.306 8.32909 12.3036 8.34477 12.3007C8.35877 12.2981 8.3641 12.2804 8.3524 12.2723C8.36168 12.2717 8.36849 12.2713 8.37073 12.2716C8.41436 12.2754 8.42768 12.2799 8.42406 12.2847C8.42113 12.2886 8.42075 12.2984 8.42531 12.3C8.51922 12.3278 8.4377 12.1757 8.45335 12.0865C8.47007 11.9963 8.59948 12.3955 8.63863 12.4769C8.67842 12.558 8.6528 12.4684 8.67998 12.5108C8.70737 12.5531 8.7096 12.6183 8.73848 12.6267C8.76902 12.6344 8.76383 12.4629 8.73533 12.3726C8.67442 12.1817 8.56887 11.9992 8.65044 12.0442C8.65525 12.0469 8.68777 12.1528 8.7041 12.1579C8.82876 12.1965 8.9303 12.1566 9.05557 12.183C9.07261 12.1869 9.10984 12.3043 9.12031 12.3079C9.16262 12.3223 9.23568 12.2831 9.26437 12.3173C9.29426 12.353 9.32037 12.3679 9.34148 12.3594C9.37754 12.345 9.31943 12.2248 9.30656 12.128C9.30271 12.0988 9.36392 12.1722 9.34453 12.1123C9.28135 11.9163 9.1685 11.7147 9.26753 11.7721C9.272 11.775 9.30563 11.8825 9.31786 11.8848C9.39679 11.9 9.32505 11.6975 9.38511 11.6452C9.40465 11.6283 9.4407 11.6325 9.48121 11.6432C9.58031 11.6692 9.66582 11.754 9.71255 11.8451C9.75347 11.925 9.76987 11.9015 9.76244 11.8187C9.75583 11.7451 9.80526 11.6425 9.87463 11.6679C9.8918 11.6742 9.91227 11.7721 9.91722 11.7818C9.9929 11.9345 9.94291 11.709 9.94959 11.6973C10.0236 11.5829 10.1467 11.7303 10.2032 11.5415C10.2049 11.5342 10.1587 11.3004 10.2232 11.4644C10.2273 11.4759 10.2189 11.5891 10.266 11.5872C10.3145 11.585 10.4204 11.6945 10.4659 11.5754C10.4763 11.5467 10.4912 11.3484 10.5436 11.4945C10.5504 11.5144 10.5544 11.583 10.5651 11.62C10.5984 11.7383 10.5819 11.497 10.6265 11.6986C10.6714 11.9002 10.7215 12.0493 10.7689 11.9048C10.7703 11.9006 10.7744 11.7086 10.7945 11.7108C10.8259 11.7145 10.8703 11.7535 10.9019 11.7526C10.9137 11.7521 10.9113 11.6809 10.9108 11.6476C10.9106 11.6364 10.9161 11.6277 10.9263 11.6231C11.029 11.5761 11.1025 11.6807 11.1999 11.74C11.2169 11.7511 11.3086 11.6031 11.3226 11.7378C11.3334 11.8845 11.1635 12.4425 11.2628 12.3256C11.2764 12.3046 11.3366 12.1668 11.3958 12.0464C11.4692 11.8975 11.6448 12.1102 11.8092 12.1328C11.8269 12.1352 11.8466 12.1345 11.869 12.1294C11.8768 12.1276 12.0114 11.971 12.0234 11.9832C12.0402 12.0013 11.9926 12.0861 12.0007 12.1004C12.0331 12.1626 12.133 12.1405 12.1728 12.196C12.1871 12.2161 12.113 12.2825 12.1288 12.3058C12.1441 12.3287 12.2505 12.2506 12.2325 12.3237C12.2314 12.3282 12.2292 12.3335 12.2262 12.3397C12.1711 12.4519 12.2074 12.4788 12.3319 12.4675C12.348 12.466 12.4125 12.4003 12.4239 12.3966C12.4721 12.3813 12.4236 12.4424 12.4746 12.4245C12.4869 12.4203 12.5577 12.365 12.5719 12.3586C12.6962 12.3032 12.5666 12.4686 12.5417 12.4944C12.4518 12.5983 12.5546 12.5418 12.5253 12.5921C12.4954 12.6417 12.4219 12.6503 12.4107 12.6908C12.3866 12.7728 12.4384 12.8283 12.4612 12.8755C12.4712 12.8948 12.5665 12.8204 12.5703 12.8218C12.5917 12.8327 12.574 12.9742 12.5547 12.9886C12.4475 13.0683 12.805 12.8834 12.7446 12.9796C12.7382 12.9891 12.482 13.1281 12.4357 13.1314C12.3895 13.135 12.4555 13.0642 12.3843 13.0726C12.3672 13.0737 12.1122 13.1769 12.0961 13.182C11.9676 13.2171 12.3413 12.9933 12.3608 12.979C12.5716 12.8272 12.2964 12.9403 12.2742 12.9432C12.1684 12.9484 12.1961 12.8785 12.1183 12.8823C12.0679 12.8847 11.834 13.0489 11.8312 13.0297C11.8237 12.9692 12.1159 12.6948 11.8127 12.8701C11.7484 12.9082 11.5187 13.1204 11.6803 12.9309C11.6916 12.9201 11.8366 12.7444 11.7199 12.8278C11.7053 12.8385 11.6391 12.9011 11.6317 12.9044C11.5839 12.9256 11.6278 12.8664 11.59 12.8776C11.5521 12.8889 11.5034 12.9139 11.509 12.8771C11.5131 12.8556 11.6116 12.7159 11.6329 12.6793C11.6944 12.5739 11.5556 12.7146 11.6365 12.5932C11.693 12.5038 11.6804 12.497 11.6164 12.5812C11.5937 12.6111 11.571 12.6409 11.5484 12.6708C11.5033 12.7302 11.4416 12.7187 11.3975 12.6586C11.3884 12.6462 11.3774 12.6367 11.3629 12.6322C11.3562 12.6306 11.3048 12.7479 11.297 12.7494C11.2661 12.7564 11.2796 12.6626 11.2389 12.6857C11.1909 12.7137 11.1794 12.6842 11.1343 12.6516C11.1235 12.6438 11.1075 12.6509 11.0992 12.6386C11.0916 12.6284 11.1054 12.5568 11.1022 12.532C11.0882 12.4404 11.0629 12.6808 11.0504 12.7171C11.0023 12.8736 11.0699 12.3317 11.0177 12.3402C11.0136 12.3409 10.9644 12.6284 10.9615 12.6464C10.9337 12.7632 10.9637 12.5451 10.95 12.5228C10.9249 12.4824 10.9031 12.4124 10.8692 12.498C10.8584 12.5233 10.8427 12.7051 10.8183 12.5658C10.8149 12.5476 10.8118 12.4515 10.8093 12.446C10.7637 12.3545 10.7818 12.6564 10.7718 12.7599C10.7625 12.8633 10.7115 12.6591 10.6962 12.6005C10.6591 12.4484 10.7027 12.5327 10.7018 12.5175C10.6944 12.3357 10.6707 12.3696 10.6474 12.3573C10.607 12.0638 10.5749 12.0862 10.6232 12.3457C10.6284 12.3741 10.6414 12.3444 10.6474 12.3573C10.6648 12.6482 10.6483 12.688 10.568 12.4262C10.5298 12.3037 10.5212 12.1542 10.4745 12.2183C10.4536 12.2473 10.5023 12.4456 10.4928 12.5043C10.4733 12.6378 10.3711 12.4667 10.3268 12.5096C10.3115 12.5251 10.3573 12.6282 10.3482 12.6424C10.3247 12.6801 10.2737 12.6077 10.253 12.6588C10.2513 12.6635 10.2913 12.7734 10.282 12.7778C10.212 12.8133 10.1229 12.7644 10.0396 12.7925C9.99969 12.8059 9.95096 12.8934 9.90477 12.898C9.82617 12.9056 9.66939 12.7874 9.61973 12.8536C9.58725 12.8964 9.64206 12.9998 9.65506 13.0809C9.68138 13.2375 9.50972 13.0115 9.48377 12.9762C9.48309 12.9752 9.50109 12.9467 9.48303 12.9109C9.47423 12.8934 9.46171 12.8777 9.45068 12.8616C9.4211 12.8183 9.48375 12.9751 9.48377 12.9762C9.46705 12.9534 9.38206 12.9622 9.3754 12.9896C9.37186 13.0045 9.42061 13.1038 9.41794 13.1097C9.36176 13.2301 9.28224 13.3011 9.16786 13.3187C9.13631 13.3236 9.11259 13.3081 9.1004 13.2786C9.08667 13.2454 9.0701 13.2055 9.06642 13.2047C8.97953 13.1816 8.98734 13.3419 8.955 13.4506C8.94625 13.4794 8.93446 13.5003 8.91988 13.5119C8.81621 13.5943 8.618 13.3683 8.50286 13.3029C8.43382 13.2598 8.46669 13.498 8.461 13.504C8.39462 13.5817 8.29248 13.6059 8.19589 13.5969C7.81443 13.6058 7.38482 13.2635 7.25897 12.951C7.20983 12.8501 7.15778 12.7201 7.12465 12.6074C7.09561 12.5191 7.07288 12.4406 7.05613 12.385C7.02962 12.2895 7.08623 12.2655 7.05121 12.2001C7.04653 12.1917 6.94054 12.198 6.9364 12.1953C6.81145 12.1195 7.06977 12.1629 7.11645 12.1507C7.28678 12.108 7.37763 12.0883 7.30433 12.017C7.28726 12.0014 6.92098 11.9151 6.90317 11.8792C6.88063 11.8344 7.01142 11.8669 6.98482 11.8202C6.98263 11.8167 6.90097 11.8041 6.90786 11.7809C6.93785 11.6788 7.00839 11.5561 7.01961 11.4594C7.02164 11.4452 6.88972 11.4367 6.89063 11.4155C6.89485 11.3164 6.92523 11.2045 7.00525 11.1349C7.02558 11.1169 7.11125 11.1527 7.13883 11.1546C7.30557 11.1664 7.08369 11.0666 7.08111 11.0582C7.01295 10.8592 7.25178 10.809 7.19997 10.6177C7.19625 10.608 6.97 10.4684 7.18926 10.5039C7.20392 10.5061 7.42762 10.5446 7.28828 10.4734C7.27958 10.4689 7.16337 10.4524 7.18424 10.4244C7.20508 10.3965 7.14718 10.3215 7.2824 10.3165C7.32498 10.315 7.54813 10.3548 7.39036 10.2599C7.37909 10.2539 7.01433 10.0649 7.28678 10.1311C7.33162 10.1421 7.61084 10.2399 7.48255 10.1444C7.45766 10.1259 7.3897 10.1214 7.35859 10.0841C7.31053 10.0271 7.40232 10.0022 7.29271 9.91498C7.27318 9.89985 7.09466 9.80096 7.24757 9.82488C7.27153 9.82869 7.36199 9.86909 7.37719 9.85896C7.44966 9.81093 7.41167 9.71909 7.50006 9.67411C7.53121 9.6582 7.67689 9.72498 7.72597 9.71466C7.77542 9.70321 7.83068 9.67101 7.77142 9.62027C7.71204 9.56972 7.46328 9.50903 7.45802 9.46367C7.43599 9.26481 7.63814 9.15106 7.72168 8.99532C7.73422 8.97193 7.64164 8.95878 7.65412 8.92172C7.70077 8.78202 7.71089 8.52649 7.9377 8.4838C8.11816 8.45226 8.18018 8.61239 8.26655 8.56803C8.30767 8.54709 8.04978 8.39591 8.04457 8.38414C7.98995 8.26861 8.1335 8.26526 8.12659 8.17814C8.12506 8.16008 8.00894 8.12685 8.00896 8.11197C8.00799 8.06083 8.07677 8.03592 8.08473 7.99241C8.08814 7.97249 8.00287 7.93895 8.01648 7.92512C8.04813 7.89162 8.09864 7.87177 8.19402 7.86777C8.20271 7.86744 8.29654 7.93761 8.3132 7.90993C8.33988 7.86488 8.44301 7.84047 8.38756 7.74932C8.37077 7.72213 8.18022 7.63497 8.32765 7.65936C8.3585 7.6645 8.58329 7.7778 8.40333 7.64764C8.37335 7.62611 8.1371 7.4359 8.32391 7.48125C8.37307 7.49318 8.57011 7.55697 8.54945 7.52406C8.54591 7.51924 8.43903 7.48258 8.43634 7.46186C8.42866 7.38957 8.46671 7.33485 8.46173 7.26107C8.46022 7.24125 8.34411 7.21517 8.3452 7.18714C8.34821 7.10993 8.41147 7.04383 8.47354 6.99706C8.49658 6.98 8.5761 7.0375 8.58643 7.04043C8.75289 7.08753 8.55262 6.97196 8.54467 6.95712C8.49825 6.8666 8.61574 6.87134 8.61433 6.80755C8.61419 6.79005 8.51084 6.75195 8.50322 6.74479C8.43116 6.67341 8.59802 6.78183 8.62646 6.77291C8.70628 6.74862 8.7256 6.68803 8.73807 6.62994C8.7425 6.60854 8.61794 6.57332 8.62327 6.55472C8.65259 6.44365 8.71585 6.34232 8.82725 6.27598C8.84845 6.26367 8.93011 6.31984 8.95199 6.32618C9.10479 6.37107 8.93359 6.23503 8.91998 6.21669C8.85755 6.13349 8.94273 6.15733 8.94642 6.11398C8.96351 5.90057 9.12598 5.71125 9.24423 5.56381C9.3979 5.37119 9.56856 5.25253 9.65944 5.03903C9.66526 5.0255 9.54479 4.97371 9.54833 4.96117C9.60084 4.80218 9.72453 4.68774 9.77465 4.52593C9.77898 4.51275 9.66269 4.46635 9.6661 4.44299C9.67236 4.39465 9.7068 4.34906 9.76357 4.3305C9.79106 4.32138 9.86716 4.40163 9.89292 4.39137C9.95309 4.36764 9.98857 4.32499 9.9986 4.26936C10.0026 4.24553 9.87722 4.20859 9.89091 4.18268C9.98267 4.00439 10.0677 3.82363 10.3132 3.74144C10.3246 3.73772 10.4274 3.79404 10.4869 3.81671C10.5199 3.82924 10.5138 3.80451 10.4846 3.78484C10.3992 3.72735 10.364 3.61515 10.4207 3.52922C10.5482 3.33579 10.7254 3.17542 10.8661 2.99043C10.8736 2.98043 10.7499 2.9195 10.764 2.89969C10.8454 2.78521 10.8938 2.65084 11.0861 2.61634C11.1051 2.61271 11.2935 2.76208 11.2889 2.70657C11.2879 2.69664 11.2993 2.62667 11.2672 2.58216C11.2623 2.57564 11.1658 2.51755 11.1753 2.49909C11.232 2.39297 11.3268 2.30925 11.4521 2.2585C11.4727 2.25023 11.5541 2.34037 11.5696 2.33515C11.678 2.29808 11.6717 2.15879 11.8126 2.15626ZM8.15937 13.0996C8.15946 13.0885 8.15409 13.0788 8.14536 13.072C8.02326 12.9769 7.87929 13.3482 8.13192 13.2889C8.14236 13.2851 8.15895 13.1477 8.15937 13.0996ZM12.6321 13.265C12.6322 13.265 12.6324 13.2648 12.6323 13.2646C12.612 13.1622 13.021 12.8816 13.0247 13.0194C13.025 13.0438 12.8628 13.0432 12.8347 13.0879C12.7825 13.1672 13.0777 13.0708 12.9484 13.1888C12.9244 13.2089 12.6387 13.269 12.6319 13.2652C12.6317 13.2651 12.6319 13.265 12.6321 13.265ZM12.2883 12.6678C12.3453 12.6088 12.245 12.63 12.1762 12.7058C12.1204 12.7659 12.2171 12.7408 12.2883 12.6678ZM11.9287 12.4749C11.9975 12.3378 11.5941 12.7796 11.7004 12.7137C11.7063 12.71 11.9243 12.4829 11.9287 12.4749ZM8.16835 12.572C8.16807 12.5668 8.14765 12.5543 8.14514 12.5586C8.06163 12.6711 8.1618 12.7173 8.16835 12.572ZM11.5782 12.375C11.642 12.1959 11.4921 12.427 11.4401 12.5629C11.3839 12.6963 11.5567 12.4281 11.5782 12.375ZM8.39166 12.3097C8.38619 12.3019 8.37617 12.299 8.36676 12.3007C8.33805 12.3059 8.30675 12.3105 8.29364 12.3135C8.15683 12.3411 8.32128 12.3352 8.23063 12.3553C8.2232 12.3573 8.21544 12.3592 8.20744 12.3609C8.09 12.3858 8.10002 12.3954 8.21748 12.3705C8.28144 12.357 8.33763 12.3459 8.35528 12.3478C8.39575 12.3505 8.41534 12.3461 8.39166 12.3097ZM8.23003 12.2367C8.2541 12.2351 8.28298 12.2387 8.30955 12.2495C8.3259 12.2558 8.34022 12.2638 8.3524 12.2723C8.32181 12.2741 8.26423 12.278 8.25397 12.2678C8.24224 12.2555 8.24384 12.2449 8.23003 12.2367ZM9.68467 11.6895C9.66622 11.6927 9.64956 11.6794 9.64798 11.6607C9.6401 11.5677 9.66206 11.547 9.71326 11.6336C9.72643 11.6558 9.71018 11.6852 9.68467 11.6895ZM8.20314 10.9674C8.09369 10.9363 8.11707 10.9711 8.22028 10.9925C8.22641 10.9937 8.2371 10.977 8.20314 10.9674ZM13.1024 10.0973C13.1003 10.0921 13.0744 10.0949 13.0755 10.1004C13.104 10.2327 13.1554 10.2272 13.1024 10.0973ZM8.82916 10.0037C8.63515 9.8996 8.57384 10.0022 8.79738 10.0567C8.80891 10.0596 8.8387 10.0093 8.82916 10.0037ZM12.2047 2.54097C12.1097 2.4456 12.0686 2.48017 12.1836 2.55884C12.1882 2.562 12.2086 2.54495 12.2047 2.54097Z" fill="url(#paint0_linear_340_1691)"/>
<defs>
<linearGradient id="paint0_linear_340_1691" x1="12" y1="2.15625" x2="12" y2="21.8438" gradientUnits="userSpaceOnUse">
<stop stop-color="#EAE8D8"/>
<stop offset="1" stop-color="#AEAB9C"/>
</linearGradient>
</defs>
</svg>
