<svg width="24" height="24" viewBox="0 0 24 24" fill="none" xmlns="http://www.w3.org/2000/svg">
<path d="M11.625 19.3125C11.625 19.4161 11.5411 19.5 11.4375 19.5H4.6875C4.58395 19.5 4.5 19.4161 4.5 19.3125V16.3125C4.5 16.2089 4.58395 16.125 4.6875 16.125H11.4375C11.5411 16.125 11.625 16.2089 11.625 16.3125V19.3125Z" fill="url(#paint0_linear_340_1669)"/>
<path d="M12.5096 17.1015C12.5136 17.1067 12.5183 17.1114 12.5235 17.1154L13.8175 18.1023C13.868 18.1408 13.8955 18.2022 13.8908 18.2656C13.8684 18.5639 13.8394 18.9677 13.8166 19.324C13.8102 19.4229 13.7282 19.5 13.6291 19.5H12.5625C12.4589 19.5 12.375 19.4161 12.375 19.3125V17.1473C12.375 17.0756 12.4659 17.0447 12.5096 17.1015Z" fill="url(#paint1_linear_340_1669)"/>
<path d="M16.8447 17.2896C16.8648 17.2944 16.8839 17.3025 16.9013 17.3136L18.5682 18.3723C18.5952 18.3894 18.6259 18.3994 18.6579 18.4012C18.7637 18.4072 19.0293 18.4223 19.3234 18.4394C19.4226 18.4452 19.5 18.5273 19.5 18.6265V19.3125C19.5 19.4161 19.4161 19.5 19.3125 19.5H14.9432C14.8312 19.5 14.7442 19.4024 14.757 19.2911L14.8305 18.6503C14.8448 18.5251 14.9762 18.4494 15.0917 18.4998L16.0858 18.9336C16.1242 18.9504 16.1688 18.944 16.2009 18.9172C16.2491 18.8771 16.2543 18.805 16.2125 18.7583L15.718 18.2068C15.693 18.179 15.677 18.1442 15.6719 18.1072L15.553 17.241C15.535 17.1101 15.6544 17.0022 15.7827 17.0332L16.8447 17.2896Z" fill="url(#paint2_linear_340_1669)"/>
<path d="M19.5 17.1224C19.5 17.2383 19.396 17.3264 19.2817 17.3074L18.5672 17.1883C18.5334 17.1827 18.5019 17.1679 18.476 17.1457L17.7115 16.4904C17.7007 16.4812 17.6889 16.4734 17.6768 16.4661C17.6599 16.4559 17.6413 16.4431 17.6216 16.4282C17.4884 16.3282 17.5734 16.125 17.7399 16.125H19.3125C19.4161 16.125 19.5 16.2089 19.5 16.3125V17.1224Z" fill="url(#paint3_linear_340_1669)"/>
<path d="M9 15.1875C9 15.2911 8.91605 15.375 8.8125 15.375H4.6875C4.58395 15.375 4.5 15.2911 4.5 15.1875V12.5625C4.5 12.4589 4.58395 12.375 4.6875 12.375H8.8125C8.91605 12.375 9 12.4589 9 12.5625V15.1875Z" fill="url(#paint4_linear_340_1669)"/>
<path d="M19.5 15.1875C19.5 15.2911 19.4161 15.375 19.3125 15.375H15.1875C15.0839 15.375 15 15.2911 15 15.1875V12.5625C15 12.4589 15.0839 12.375 15.1875 12.375H19.3125C19.4161 12.375 19.5 12.4589 19.5 12.5625V15.1875Z" fill="url(#paint5_linear_340_1669)"/>
<path d="M14.25 15.1875C14.25 15.2911 14.1661 15.375 14.0625 15.375H13.7198C13.705 15.375 13.6902 15.3732 13.6758 15.3698L13.4575 15.3171C13.424 15.309 13.3933 15.2918 13.3689 15.2674L12.8114 14.7098C12.7299 14.6284 12.7405 14.4934 12.8341 14.4262C13.0106 14.2993 13.2213 14.15 13.2891 14.1094C13.3667 14.0628 13.5138 13.8097 13.611 13.6263C13.6442 13.5636 13.7089 13.5234 13.7799 13.5234H14.0625C14.1661 13.5234 14.25 13.6074 14.25 13.7109V15.1875Z" fill="url(#paint6_linear_340_1669)"/>
<path d="M13.0981 13.093C13.0849 13.1141 13.0676 13.1324 13.0473 13.1468L12.3546 13.6357C12.3082 13.6685 12.2495 13.6775 12.1931 13.6708C11.875 13.6329 11.2582 13.7385 11.1562 13.6875C11.0156 13.6172 10.5469 12.9141 10.5469 12.8203C10.5469 12.7833 10.5433 12.6731 10.5446 12.5504C10.5457 12.4516 10.6276 12.375 10.7263 12.375H13.2086C13.3558 12.375 13.4456 12.537 13.3676 12.6619L13.0981 13.093Z" fill="url(#paint7_linear_340_1669)"/>
<path d="M7.61989 10.262C7.65263 10.3886 7.549 10.509 7.41894 10.4955L6.67006 10.4175C6.60349 10.4105 6.54567 10.3686 6.51834 10.3075L6.19123 9.57635C6.17392 9.53765 6.14117 9.50799 6.10095 9.49459C5.99777 9.4602 5.89309 9.54262 5.90231 9.65098L5.96966 10.4423C5.97406 10.4941 5.99973 10.5417 6.04054 10.5738L6.95092 11.2901C7.0908 11.4002 7.01296 11.625 6.83497 11.625H4.6875C4.58395 11.625 4.5 11.5411 4.5 11.4375V8.4375C4.5 8.33395 4.58395 8.25 4.6875 8.25H6.95437C7.03984 8.25 7.1145 8.3078 7.1359 8.39055L7.61989 10.262Z" fill="url(#paint8_linear_340_1669)"/>
<path d="M19.5 11.4375C19.5 11.5411 19.4161 11.625 19.3125 11.625H12.5625C12.4589 11.625 12.375 11.5411 12.375 11.4375V8.4375C12.375 8.33395 12.4589 8.25 12.5625 8.25H19.3125C19.4161 8.25 19.5 8.33395 19.5 8.4375V11.4375Z" fill="url(#paint9_linear_340_1669)"/>
<path d="M11.625 11.4375C11.625 11.5411 11.5411 11.625 11.4375 11.625H11.2198C11.1662 11.625 11.1154 11.6021 11.0792 11.5625C10.8568 11.3188 10.3782 10.8315 10.0078 10.6875C9.70323 10.5691 9.03215 10.289 8.64574 10.1264C8.57627 10.0971 8.53125 10.0291 8.53125 9.95376V9.21094C8.53125 9.11944 8.46288 8.77961 8.39765 8.47893C8.37217 8.36147 8.4613 8.25 8.5815 8.25H11.4375C11.5411 8.25 11.625 8.33395 11.625 8.4375V11.4375Z" fill="url(#paint10_linear_340_1669)"/>
<path d="M5.60406 5.84256C5.61795 5.85371 5.63018 5.86679 5.64038 5.88139L6.56489 7.20441C6.65174 7.3287 6.56282 7.49931 6.4112 7.49931H4.6875C4.58395 7.49931 4.5 7.41537 4.5 7.31181V5.34732C4.5 5.18996 4.68215 5.10259 4.80487 5.20109L5.60406 5.84256Z" fill="url(#paint11_linear_340_1669)"/>
<path d="M14.25 7.31181C14.25 7.41537 14.1661 7.49931 14.0625 7.49931H9.9375C9.83395 7.49931 9.75 7.41537 9.75 7.31181V4.68677C9.75 4.58321 9.83395 4.49927 9.9375 4.49927H14.0625C14.1661 4.49927 14.25 4.58321 14.25 4.68677V7.31181Z" fill="url(#paint12_linear_340_1669)"/>
<path d="M19.5 7.31181C19.5 7.41537 19.4161 7.49931 19.3125 7.49931H15.1875C15.0839 7.49931 15 7.41537 15 7.31181V4.68677C15 4.58321 15.0839 4.49927 15.1875 4.49927H19.3125C19.4161 4.49927 19.5 4.58321 19.5 4.68677V7.31181Z" fill="url(#paint13_linear_340_1669)"/>
<path d="M9 7.3969C9 7.45346 8.95415 7.49931 8.89759 7.49931H8.75381C8.73624 7.49931 8.7255 7.48002 8.73476 7.46509C8.7393 7.45778 8.73925 7.44851 8.73463 7.44125L8.44338 6.98356C8.42423 6.95348 8.41406 6.91856 8.41406 6.8829V6.42167C8.41406 6.40644 8.41009 6.39149 8.40254 6.37827C8.36765 6.31721 8.27863 6.3202 8.2479 6.38345L8.04438 6.80246C7.98603 6.92261 7.8233 6.94594 7.73159 6.84883C7.53708 6.64289 7.30664 6.40625 7.26562 6.35156C7.19531 6.25781 6.75 5.25 6.65625 5.13281C6.59554 5.05692 6.36772 4.98102 6.16377 4.75235C6.07039 4.64764 6.15775 4.49927 6.29805 4.49927H8.8125C8.91605 4.49927 9 4.58321 9 4.68677V7.3969Z" fill="url(#paint14_linear_340_1669)"/>
<defs>
<linearGradient id="paint0_linear_340_1669" x1="12" y1="4.49927" x2="12" y2="19.5" gradientUnits="userSpaceOnUse">
<stop stop-color="#EAE8D8"/>
<stop offset="1" stop-color="#AEAB9C"/>
</linearGradient>
<linearGradient id="paint1_linear_340_1669" x1="12" y1="4.49927" x2="12" y2="19.5" gradientUnits="userSpaceOnUse">
<stop stop-color="#EAE8D8"/>
<stop offset="1" stop-color="#AEAB9C"/>
</linearGradient>
<linearGradient id="paint2_linear_340_1669" x1="12" y1="4.49927" x2="12" y2="19.5" gradientUnits="userSpaceOnUse">
<stop stop-color="#EAE8D8"/>
<stop offset="1" stop-color="#AEAB9C"/>
</linearGradient>
<linearGradient id="paint3_linear_340_1669" x1="12" y1="4.49927" x2="12" y2="19.5" gradientUnits="userSpaceOnUse">
<stop stop-color="#EAE8D8"/>
<stop offset="1" stop-color="#AEAB9C"/>
</linearGradient>
<linearGradient id="paint4_linear_340_1669" x1="12" y1="4.49927" x2="12" y2="19.5" gradientUnits="userSpaceOnUse">
<stop stop-color="#EAE8D8"/>
<stop offset="1" stop-color="#AEAB9C"/>
</linearGradient>
<linearGradient id="paint5_linear_340_1669" x1="12" y1="4.49927" x2="12" y2="19.5" gradientUnits="userSpaceOnUse">
<stop stop-color="#EAE8D8"/>
<stop offset="1" stop-color="#AEAB9C"/>
</linearGradient>
<linearGradient id="paint6_linear_340_1669" x1="12" y1="4.49927" x2="12" y2="19.5" gradientUnits="userSpaceOnUse">
<stop stop-color="#EAE8D8"/>
<stop offset="1" stop-color="#AEAB9C"/>
</linearGradient>
<linearGradient id="paint7_linear_340_1669" x1="12" y1="4.49927" x2="12" y2="19.5" gradientUnits="userSpaceOnUse">
<stop stop-color="#EAE8D8"/>
<stop offset="1" stop-color="#AEAB9C"/>
</linearGradient>
<linearGradient id="paint8_linear_340_1669" x1="12" y1="4.49927" x2="12" y2="19.5" gradientUnits="userSpaceOnUse">
<stop stop-color="#EAE8D8"/>
<stop offset="1" stop-color="#AEAB9C"/>
</linearGradient>
<linearGradient id="paint9_linear_340_1669" x1="12" y1="4.49927" x2="12" y2="19.5" gradientUnits="userSpaceOnUse">
<stop stop-color="#EAE8D8"/>
<stop offset="1" stop-color="#AEAB9C"/>
</linearGradient>
<linearGradient id="paint10_linear_340_1669" x1="12" y1="4.49927" x2="12" y2="19.5" gradientUnits="userSpaceOnUse">
<stop stop-color="#EAE8D8"/>
<stop offset="1" stop-color="#AEAB9C"/>
</linearGradient>
<linearGradient id="paint11_linear_340_1669" x1="12" y1="4.49927" x2="12" y2="19.5" gradientUnits="userSpaceOnUse">
<stop stop-color="#EAE8D8"/>
<stop offset="1" stop-color="#AEAB9C"/>
</linearGradient>
<linearGradient id="paint12_linear_340_1669" x1="12" y1="4.49927" x2="12" y2="19.5" gradientUnits="userSpaceOnUse">
<stop stop-color="#EAE8D8"/>
<stop offset="1" stop-color="#AEAB9C"/>
</linearGradient>
<linearGradient id="paint13_linear_340_1669" x1="12" y1="4.49927" x2="12" y2="19.5" gradientUnits="userSpaceOnUse">
<stop stop-color="#EAE8D8"/>
<stop offset="1" stop-color="#AEAB9C"/>
</linearGradient>
<linearGradient id="paint14_linear_340_1669" x1="12" y1="4.49927" x2="12" y2="19.5" gradientUnits="userSpaceOnUse">
<stop stop-color="#EAE8D8"/>
<stop offset="1" stop-color="#AEAB9C"/>
</linearGradient>
</defs>
</svg>
