<svg width="24" height="24" viewBox="0 0 24 24" fill="none" xmlns="http://www.w3.org/2000/svg">
<path d="M17.0496 15.2321C17.0496 15.281 17.0633 15.3289 17.0891 15.3705L18.3387 17.3806C18.4804 17.6087 18.2082 17.9187 17.9561 17.8263C17.048 17.4934 15.5761 17.1113 14.1142 17.4037C12.2914 17.7682 10.0383 19.3222 9.10829 20.0097C8.93157 20.1403 8.67569 20.0136 8.67569 19.7938V17.669C8.67569 17.6243 8.6871 17.5802 8.70915 17.5413C8.91079 17.1853 9.11504 16.8713 9.33717 16.6095C9.71464 16.1645 10.1324 15.8831 10.6638 15.8022C11.8202 15.6263 12.4897 15.7748 14.2753 15.1086C15.1564 14.7798 15.8574 14.497 16.3457 14.2966C16.5916 14.1957 16.7788 14.1176 16.9127 14.0629C16.9785 14.0361 17.0496 14.0847 17.0496 14.1558V15.2321Z" fill="url(#paint0_linear_340_1725)"/>
<path d="M13.0638 9.77671C13.1551 9.77672 13.2411 9.82005 13.2955 9.89348L15.1519 12.4006C15.282 12.5763 15.1764 12.8285 14.9574 12.8583C13.1987 13.0978 11.974 13.315 10.6129 14.0505C10.5107 14.1057 10.3914 14.1014 10.3016 14.0438L9.84795 13.753C9.7495 13.6899 9.69798 13.5718 9.7192 13.4539C9.96078 12.1119 10.0357 11.2575 10.1032 10.0513C10.1119 9.89687 10.2392 9.77671 10.3921 9.77671H13.0638Z" fill="url(#paint1_linear_340_1725)"/>
<path fill-rule="evenodd" clip-rule="evenodd" d="M10.7135 4.11279C11.719 3.9128 12.757 3.94678 13.7472 4.2121C14.7374 4.47743 15.6533 4.967 16.4241 5.64293C17.1948 6.31886 17.7998 7.16309 18.1921 8.11021C18.9636 9.97285 18.8396 11.1252 17.9497 12.6901C17.927 12.7301 17.9145 12.7757 17.9145 12.8217V13.2626C17.9145 13.4073 17.7972 13.5247 17.6525 13.5247H17.0496C17.0189 13.5247 16.9938 13.5306 16.9866 13.5324C16.975 13.5351 16.9643 13.5383 16.9556 13.541C16.9382 13.5465 16.9184 13.5536 16.8981 13.5612C16.8568 13.5767 16.8015 13.5988 16.7346 13.6261C16.6014 13.6804 16.4075 13.7612 16.1665 13.8601C15.6811 14.0594 14.9852 14.3401 14.1103 14.6666C12.3838 15.3108 11.8477 15.1448 10.5928 15.3358C9.91853 15.4384 9.40587 15.7992 8.9774 16.3043C8.7431 16.5805 8.53074 16.9037 8.3279 17.2571C8.2799 17.3407 8.19078 17.3925 8.09437 17.3922C8.08369 17.3922 8.07308 17.3922 8.06258 17.3922C7.91672 17.3921 7.79767 17.2743 7.79767 17.1285V16.3815C7.79767 16.2368 7.68032 16.1194 7.53557 16.1194H6.73136C6.55677 16.1194 6.43098 15.9519 6.47966 15.7842L6.56336 15.4959C6.59587 15.384 6.69846 15.3069 6.81506 15.3069H7.78845C7.87608 15.3069 7.95791 15.2631 8.00652 15.1902L8.19921 14.9012C8.22791 14.8581 8.24323 14.8075 8.24323 14.7558L8.76742 11.5333C8.76742 11.5155 8.76923 11.4978 8.77282 11.4803L8.61071 9.72482C8.64425 9.5622 8.52005 9.40978 8.35402 9.40978H5.59607C5.45132 9.40978 5.33293 9.29218 5.34454 9.14789C5.54256 6.68696 8.48333 4.55641 10.7135 4.11279ZM10.3921 9.30494C9.98707 9.30494 9.65477 9.62242 9.63223 10.0249C9.5654 11.2185 9.49209 12.0527 9.25491 13.3703C9.20037 13.6734 9.33172 13.9824 9.59338 14.1502L10.047 14.441C10.2891 14.5962 10.5924 14.5978 10.8372 14.4656C12.1174 13.7737 13.2678 13.5645 15.0211 13.3258C15.5931 13.2479 15.8759 12.5857 15.531 12.1198L13.6746 9.6127C13.5313 9.41913 13.3047 9.30495 13.0638 9.30494H10.3921Z" fill="url(#paint2_linear_340_1725)"/>
<path d="M7.33942 11.8788C7.39812 11.9091 7.44322 11.9604 7.46568 12.0225L7.84839 13.0806C7.86656 13.1308 7.86895 13.1854 7.85524 13.237L7.48248 14.6403C7.45197 14.7552 7.34801 14.8352 7.22917 14.8352H6.38206C6.25961 14.8352 6.15348 14.7504 6.12644 14.6309L5.70985 12.791C5.70392 12.7648 5.70205 12.7379 5.7043 12.7111L5.78552 11.7466C5.79696 11.6109 5.91047 11.5065 6.0467 11.5065H6.55459C6.59641 11.5065 6.63763 11.5166 6.6748 11.5357L7.33942 11.8788Z" fill="url(#paint3_linear_340_1725)"/>
<defs>
<linearGradient id="paint0_linear_340_1725" x1="12.0226" y1="3.98437" x2="12.0226" y2="20.0625" gradientUnits="userSpaceOnUse">
<stop stop-color="#EAE8D8"/>
<stop offset="1" stop-color="#AEAB9C"/>
</linearGradient>
<linearGradient id="paint1_linear_340_1725" x1="12.0226" y1="3.98437" x2="12.0226" y2="20.0625" gradientUnits="userSpaceOnUse">
<stop stop-color="#EAE8D8"/>
<stop offset="1" stop-color="#AEAB9C"/>
</linearGradient>
<linearGradient id="paint2_linear_340_1725" x1="12.0226" y1="3.98437" x2="12.0226" y2="20.0625" gradientUnits="userSpaceOnUse">
<stop stop-color="#EAE8D8"/>
<stop offset="1" stop-color="#AEAB9C"/>
</linearGradient>
<linearGradient id="paint3_linear_340_1725" x1="12.0226" y1="3.98437" x2="12.0226" y2="20.0625" gradientUnits="userSpaceOnUse">
<stop stop-color="#EAE8D8"/>
<stop offset="1" stop-color="#AEAB9C"/>
</linearGradient>
</defs>
</svg>
