<svg width="24" height="24" viewBox="0 0 24 24" fill="none" xmlns="http://www.w3.org/2000/svg">
<path d="M12.4204 10.8453C12.3982 10.9065 12.4435 10.9711 12.5085 10.9711H15.973C16.0527 10.9711 16.0961 11.0643 16.0447 11.1253L9.82181 18.5136C9.7543 18.5938 9.62615 18.5196 9.66201 18.4211L11.5796 13.1547C11.6018 13.0935 11.5565 13.0289 11.4915 13.0289H8.027C7.94729 13.0289 7.90395 12.9357 7.9553 12.8747L14.1782 5.48638C14.2457 5.40623 14.3738 5.48038 14.338 5.57885L12.4204 10.8453Z" fill="url(#paint0_linear_340_1687)"/>
<path d="M6.47467 15.5464C6.57306 15.4623 6.72071 15.4742 6.80803 15.5697C6.95132 15.7265 7.10161 15.8768 7.2584 16.0201C7.35395 16.1074 7.36581 16.2551 7.2817 16.3535L5.75876 18.135C5.67465 18.2333 5.5265 18.2451 5.43013 18.1587C5.16297 17.9191 4.90899 17.6652 4.66941 17.398C4.58299 17.3016 4.59478 17.1535 4.69317 17.0694L6.47467 15.5464Z" fill="url(#paint1_linear_340_1687)"/>
<path d="M19.3068 17.0694C19.4052 17.1535 19.417 17.3016 19.3306 17.398C19.091 17.6652 18.837 17.9191 18.5699 18.1587C18.4735 18.2451 18.3254 18.2333 18.2412 18.135L16.7183 16.3535C16.6342 16.2551 16.6461 16.1074 16.7416 16.0201C16.8984 15.8768 17.0487 15.7265 17.192 15.5697C17.2793 15.4742 17.4269 15.4623 17.5253 15.5464L19.3068 17.0694Z" fill="url(#paint2_linear_340_1687)"/>
<path d="M5.22525 11.6625C5.35431 11.6725 5.4504 11.7853 5.44462 11.9146C5.4399 12.0205 5.4375 12.1271 5.4375 12.2344C5.4375 12.3416 5.4399 12.4482 5.44462 12.5542C5.4504 12.6835 5.35431 12.7962 5.22525 12.8062L2.88852 12.9878C2.75946 12.9978 2.64643 12.9013 2.63946 12.7721C2.62985 12.5939 2.625 12.4147 2.625 12.2344C2.625 12.0541 2.62985 11.8748 2.63946 11.6967C2.64643 11.5674 2.75946 11.4709 2.88852 11.481L5.22525 11.6625Z" fill="url(#paint3_linear_340_1687)"/>
<path d="M21.1115 11.481C21.2405 11.4709 21.3536 11.5674 21.3605 11.6967C21.3701 11.8748 21.375 12.0541 21.375 12.2344C21.375 12.4147 21.3701 12.5939 21.3605 12.7721C21.3536 12.9013 21.2405 12.9978 21.1115 12.9878L18.7747 12.8062C18.6457 12.7962 18.5496 12.6835 18.5554 12.5542C18.5601 12.4482 18.5625 12.3416 18.5625 12.2344C18.5625 12.1271 18.5601 12.0205 18.5554 11.9146C18.5496 11.7853 18.6457 11.6725 18.7747 11.6625L21.1115 11.481Z" fill="url(#paint4_linear_340_1687)"/>
<path d="M7.2817 7.64654C7.36581 7.74493 7.35395 7.89259 7.2584 7.97991C7.10161 8.12319 6.95132 8.27348 6.80803 8.43027C6.72071 8.52582 6.57306 8.53768 6.47467 8.45357L4.69317 6.93063C4.59478 6.84652 4.58299 6.69837 4.66941 6.602C4.90899 6.33484 5.16297 6.08086 5.43013 5.84128C5.5265 5.75487 5.67465 5.76665 5.75876 5.86504L7.2817 7.64654Z" fill="url(#paint5_linear_340_1687)"/>
<path d="M18.2412 5.86504C18.3254 5.76665 18.4735 5.75487 18.5699 5.84128C18.837 6.08086 19.091 6.33484 19.3306 6.602C19.417 6.69837 19.4052 6.84652 19.3068 6.93063L17.5253 8.45357C17.4269 8.53768 17.2793 8.52582 17.192 8.43027C17.0487 8.27348 16.8984 8.12319 16.7416 7.97991C16.6461 7.89259 16.6342 7.74493 16.7183 7.64654L18.2412 5.86504Z" fill="url(#paint6_linear_340_1687)"/>
<defs>
<linearGradient id="paint0_linear_340_1687" x1="12" y1="5.08177" x2="12" y2="18.9182" gradientUnits="userSpaceOnUse">
<stop stop-color="#EAE8D8"/>
<stop offset="1" stop-color="#AEAB9C"/>
</linearGradient>
<linearGradient id="paint1_linear_340_1687" x1="12" y1="5.08177" x2="12" y2="18.9182" gradientUnits="userSpaceOnUse">
<stop stop-color="#EAE8D8"/>
<stop offset="1" stop-color="#AEAB9C"/>
</linearGradient>
<linearGradient id="paint2_linear_340_1687" x1="12" y1="5.08177" x2="12" y2="18.9182" gradientUnits="userSpaceOnUse">
<stop stop-color="#EAE8D8"/>
<stop offset="1" stop-color="#AEAB9C"/>
</linearGradient>
<linearGradient id="paint3_linear_340_1687" x1="12" y1="5.08177" x2="12" y2="18.9182" gradientUnits="userSpaceOnUse">
<stop stop-color="#EAE8D8"/>
<stop offset="1" stop-color="#AEAB9C"/>
</linearGradient>
<linearGradient id="paint4_linear_340_1687" x1="12" y1="5.08177" x2="12" y2="18.9182" gradientUnits="userSpaceOnUse">
<stop stop-color="#EAE8D8"/>
<stop offset="1" stop-color="#AEAB9C"/>
</linearGradient>
<linearGradient id="paint5_linear_340_1687" x1="12" y1="5.08177" x2="12" y2="18.9182" gradientUnits="userSpaceOnUse">
<stop stop-color="#EAE8D8"/>
<stop offset="1" stop-color="#AEAB9C"/>
</linearGradient>
<linearGradient id="paint6_linear_340_1687" x1="12" y1="5.08177" x2="12" y2="18.9182" gradientUnits="userSpaceOnUse">
<stop stop-color="#EAE8D8"/>
<stop offset="1" stop-color="#AEAB9C"/>
</linearGradient>
</defs>
</svg>
