<svg width="24" height="24" viewBox="0 0 24 24" fill="none" xmlns="http://www.w3.org/2000/svg">
<path d="M6.11153 18.3312C6.25261 18.4723 6.25261 18.7011 6.11153 18.8421C5.97045 18.9832 5.74172 18.9832 5.60064 18.8421L5.15786 18.3994C5.01678 18.2583 5.01678 18.0295 5.15786 17.8885C5.29894 17.7474 5.52768 17.7474 5.66876 17.8885L6.11153 18.3312Z" fill="url(#paint0_linear_340_1727)"/>
<path d="M9.82403 18.2631C10.0121 18.4512 10.0121 18.7562 9.82403 18.9443L8.87036 19.898C8.68225 20.0861 8.37727 20.0861 8.18917 19.898L4.10202 15.8108C3.91391 15.6227 3.91391 15.3177 4.10202 15.1296L5.05568 14.176C5.24379 13.9879 5.54877 13.9879 5.73688 14.176L9.82403 18.2631Z" fill="url(#paint1_linear_340_1727)"/>
<path d="M19.2168 11.2545C19.4049 11.4426 19.4049 11.7476 19.2168 11.9357L18.2631 12.8894C18.075 13.0775 17.77 13.0775 17.5819 12.8894L15.4086 10.716C15.2255 10.533 14.9287 10.533 14.7457 10.716L10.716 14.7457C10.533 14.9287 10.533 15.2255 10.716 15.4086L12.8894 17.5819C13.0775 17.77 13.0775 18.075 12.8894 18.2631L11.9357 19.2168C11.7476 19.4049 11.4426 19.4049 11.2545 19.2168L4.78321 12.7455C4.5951 12.5574 4.5951 12.2524 4.78321 12.0643L5.73688 11.1106C5.92498 10.9225 6.22996 10.9225 6.41807 11.1106L8.62262 13.3152C8.80568 13.4982 9.10247 13.4982 9.28553 13.3152L13.3152 9.28554C13.4982 9.10248 13.4982 8.80569 13.3152 8.62263L11.1106 6.41808C10.9225 6.22998 10.9225 5.92499 11.1106 5.73688L12.0643 4.78318C12.2524 4.59509 12.5574 4.59512 12.7455 4.78322L19.2168 11.2545Z" fill="url(#paint2_linear_340_1727)"/>
<path d="M19.898 8.18917C20.0861 8.37727 20.0861 8.68223 19.898 8.87033L18.9443 9.82403C18.7562 10.0121 18.4512 10.0121 18.2631 9.82403L14.176 5.73688C13.9879 5.54878 13.9879 5.2438 14.176 5.05569L15.1297 4.10199C15.3178 3.9139 15.6227 3.91392 15.8108 4.10203L19.898 8.18917Z" fill="url(#paint3_linear_340_1727)"/>
<path d="M18.8422 5.60061C18.9832 5.74169 18.9832 5.97046 18.8421 6.11154C18.701 6.2526 18.4723 6.25261 18.3312 6.11154L17.8885 5.66877C17.7474 5.52769 17.7474 5.29895 17.8885 5.15787C18.0295 5.01679 18.2583 5.01676 18.3994 5.15784L18.8422 5.60061Z" fill="url(#paint4_linear_340_1727)"/>
<defs>
<linearGradient id="paint0_linear_340_1727" x1="12" y1="3.96094" x2="12" y2="20.0391" gradientUnits="userSpaceOnUse">
<stop stop-color="#EAE8D8"/>
<stop offset="1" stop-color="#AEAB9C"/>
</linearGradient>
<linearGradient id="paint1_linear_340_1727" x1="12" y1="3.96094" x2="12" y2="20.0391" gradientUnits="userSpaceOnUse">
<stop stop-color="#EAE8D8"/>
<stop offset="1" stop-color="#AEAB9C"/>
</linearGradient>
<linearGradient id="paint2_linear_340_1727" x1="12" y1="3.96094" x2="12" y2="20.0391" gradientUnits="userSpaceOnUse">
<stop stop-color="#EAE8D8"/>
<stop offset="1" stop-color="#AEAB9C"/>
</linearGradient>
<linearGradient id="paint3_linear_340_1727" x1="12" y1="3.96094" x2="12" y2="20.0391" gradientUnits="userSpaceOnUse">
<stop stop-color="#EAE8D8"/>
<stop offset="1" stop-color="#AEAB9C"/>
</linearGradient>
<linearGradient id="paint4_linear_340_1727" x1="12" y1="3.96094" x2="12" y2="20.0391" gradientUnits="userSpaceOnUse">
<stop stop-color="#EAE8D8"/>
<stop offset="1" stop-color="#AEAB9C"/>
</linearGradient>
</defs>
</svg>
