<svg width="24" height="24" viewBox="0 0 24 24" fill="none" xmlns="http://www.w3.org/2000/svg">
<path d="M11.6955 3.78367C11.7913 3.48878 12.2085 3.48878 12.3043 3.78367L14.1753 9.54194C14.2182 9.67382 14.3411 9.76311 14.4797 9.76311H20.5343C20.8444 9.76311 20.9733 10.1599 20.7225 10.3421L15.8242 13.9009C15.712 13.9824 15.6651 14.1269 15.7079 14.2588L17.5789 20.0171C17.6747 20.312 17.3372 20.5572 17.0863 20.3749L12.1881 16.8161C12.0759 16.7346 11.924 16.7346 11.8118 16.8161L6.91351 20.3749C6.66267 20.5572 6.32515 20.312 6.42097 20.0171L8.29194 14.2588C8.33479 14.1269 8.28785 13.9824 8.17567 13.9009L3.27739 10.3421C3.02654 10.1599 3.15546 9.76311 3.46553 9.76311H9.52013C9.6588 9.76311 9.78169 9.67382 9.82454 9.54194L11.6955 3.78367Z" fill="url(#paint0_linear_340_1729)"/>
<defs>
<linearGradient id="paint0_linear_340_1729" x1="11.9999" y1="3.5625" x2="11.9999" y2="20.4375" gradientUnits="userSpaceOnUse">
<stop stop-color="#EAE8D8"/>
<stop offset="1" stop-color="#AEAB9C"/>
</linearGradient>
</defs>
</svg>
