<svg width="24" height="24" viewBox="0 0 24 24" fill="none" xmlns="http://www.w3.org/2000/svg">
<path d="M6.47466 15.5464C6.57304 15.4623 6.72072 15.4742 6.80804 15.5697C6.95133 15.7265 7.10161 15.8768 7.25839 16.0201C7.35394 16.1074 7.3658 16.2551 7.28169 16.3535L5.75876 18.1349C5.67465 18.2333 5.5265 18.2451 5.43013 18.1587C5.16297 17.9191 4.90899 17.6652 4.66942 17.398C4.583 17.3016 4.59479 17.1535 4.69318 17.0694L6.47466 15.5464Z" fill="url(#paint0_linear_340_1698)"/>
<path d="M17.192 15.5697C17.2793 15.4742 17.427 15.4623 17.5253 15.5464L19.3068 17.0694C19.4052 17.1535 19.417 17.3016 19.3306 17.398C19.091 17.6652 18.837 17.9191 18.5699 18.1587C18.4735 18.2451 18.3254 18.2333 18.2412 18.1349L16.7183 16.3535C16.6342 16.2551 16.6461 16.1074 16.7416 16.0201C16.8984 15.8768 17.0487 15.7265 17.192 15.5697Z" fill="url(#paint1_linear_340_1698)"/>
<path d="M12.7946 4.87546C12.4256 5.51464 12.1989 7.1202 12.7946 7.90549C13.3902 8.69077 14.8813 9.74548 14.2994 12.3631C15.1199 11.8894 15.436 10.9911 15.436 9.74547C17.3726 12.3631 16.7921 15.4123 13.5958 17.2577C12.984 17.2577 11.7913 15.9237 12.4596 14.2423C11.7604 14.2423 10.5367 15.3931 10.5367 17.2577C8.42594 16.7918 6.13471 13.1641 8.64413 9.98186C8.52529 10.8073 9.06238 12.564 9.82288 12.3631C11.3081 11.2184 10.158 9.74544 10.158 8.38618C10.158 7.02693 10.9674 5.36505 12.7946 4.87546Z" fill="url(#paint2_linear_340_1698)"/>
<path d="M2.63947 11.6967C2.64644 11.5674 2.75948 11.471 2.88853 11.481L5.22523 11.6625C5.35428 11.6725 5.45041 11.7853 5.44464 11.9146C5.43991 12.0205 5.4375 12.1271 5.4375 12.2344C5.4375 12.3416 5.43991 12.4483 5.44464 12.5542C5.45041 12.6835 5.35428 12.7962 5.22523 12.8063L2.88853 12.9878C2.75948 12.9978 2.64644 12.9013 2.63947 12.7721C2.62986 12.5939 2.625 12.4147 2.625 12.2344C2.625 12.0541 2.62986 11.8748 2.63947 11.6967Z" fill="url(#paint3_linear_340_1698)"/>
<path d="M21.1115 11.481C21.2405 11.471 21.3536 11.5674 21.3605 11.6967C21.3701 11.8748 21.375 12.0541 21.375 12.2344C21.375 12.4147 21.3701 12.5939 21.3605 12.7721C21.3536 12.9013 21.2405 12.9978 21.1115 12.9878L18.7748 12.8063C18.6457 12.7962 18.5496 12.6835 18.5554 12.5542C18.5601 12.4483 18.5625 12.3416 18.5625 12.2344C18.5625 12.1271 18.5601 12.0205 18.5554 11.9146C18.5496 11.7853 18.6457 11.6725 18.7748 11.6625L21.1115 11.481Z" fill="url(#paint4_linear_340_1698)"/>
<path d="M5.43013 5.84129C5.5265 5.75487 5.67465 5.76666 5.75876 5.86505L7.28169 7.64653C7.3658 7.74492 7.35394 7.8926 7.25839 7.97992C7.10161 8.1232 6.95133 8.27348 6.80804 8.43027C6.72072 8.52582 6.57304 8.53768 6.47466 8.45357L4.69318 6.93063C4.59479 6.84652 4.583 6.69837 4.66942 6.60201C4.90899 6.33485 5.16297 6.08087 5.43013 5.84129Z" fill="url(#paint5_linear_340_1698)"/>
<path d="M18.2412 5.86505C18.3254 5.76666 18.4735 5.75487 18.5699 5.84129C18.837 6.08087 19.091 6.33485 19.3306 6.60201C19.417 6.69837 19.4052 6.84652 19.3068 6.93063L17.5253 8.45357C17.427 8.53768 17.2793 8.52582 17.192 8.43027C17.0487 8.27348 16.8984 8.1232 16.7416 7.97992C16.6461 7.8926 16.6342 7.74492 16.7183 7.64653L18.2412 5.86505Z" fill="url(#paint6_linear_340_1698)"/>
<defs>
<linearGradient id="paint0_linear_340_1698" x1="12" y1="4.87546" x2="12" y2="18.2168" gradientUnits="userSpaceOnUse">
<stop stop-color="#EAE8D8"/>
<stop offset="1" stop-color="#AEAB9C"/>
</linearGradient>
<linearGradient id="paint1_linear_340_1698" x1="12" y1="4.87546" x2="12" y2="18.2168" gradientUnits="userSpaceOnUse">
<stop stop-color="#EAE8D8"/>
<stop offset="1" stop-color="#AEAB9C"/>
</linearGradient>
<linearGradient id="paint2_linear_340_1698" x1="12" y1="4.87546" x2="12" y2="18.2168" gradientUnits="userSpaceOnUse">
<stop stop-color="#EAE8D8"/>
<stop offset="1" stop-color="#AEAB9C"/>
</linearGradient>
<linearGradient id="paint3_linear_340_1698" x1="12" y1="4.87546" x2="12" y2="18.2168" gradientUnits="userSpaceOnUse">
<stop stop-color="#EAE8D8"/>
<stop offset="1" stop-color="#AEAB9C"/>
</linearGradient>
<linearGradient id="paint4_linear_340_1698" x1="12" y1="4.87546" x2="12" y2="18.2168" gradientUnits="userSpaceOnUse">
<stop stop-color="#EAE8D8"/>
<stop offset="1" stop-color="#AEAB9C"/>
</linearGradient>
<linearGradient id="paint5_linear_340_1698" x1="12" y1="4.87546" x2="12" y2="18.2168" gradientUnits="userSpaceOnUse">
<stop stop-color="#EAE8D8"/>
<stop offset="1" stop-color="#AEAB9C"/>
</linearGradient>
<linearGradient id="paint6_linear_340_1698" x1="12" y1="4.87546" x2="12" y2="18.2168" gradientUnits="userSpaceOnUse">
<stop stop-color="#EAE8D8"/>
<stop offset="1" stop-color="#AEAB9C"/>
</linearGradient>
</defs>
</svg>
