<svg width="24" height="24" viewBox="0 0 24 24" fill="none" xmlns="http://www.w3.org/2000/svg">
<path d="M20.3215 7.06164C20.3933 7.10308 20.4375 7.17965 20.4375 7.26253V16.7375C20.4375 16.8203 20.3933 16.8969 20.3215 16.9384L19.2263 17.5706C19.1354 17.6231 19.0206 17.608 18.9463 17.5337L17.8233 16.4107C17.7798 16.3672 17.7553 16.3082 17.7553 16.2467V13.9998C17.7553 13.8866 17.8376 13.7914 17.9468 13.7613C18.7673 13.5353 19.3699 12.7839 19.3699 11.8917C19.3699 10.8206 18.5016 9.9524 17.4306 9.9524C16.3596 9.9524 15.4913 10.8206 15.4913 11.8917C15.4914 12.7839 16.0939 13.5353 16.9143 13.7613C17.0235 13.7913 17.1058 13.8866 17.1058 13.9998V16.5157C17.1058 16.5773 17.1303 16.6363 17.1738 16.6798L18.2761 17.7821C18.3839 17.8899 18.3601 18.0707 18.228 18.147L12.116 21.6758C12.0442 21.7173 11.9558 21.7173 11.884 21.6758L7.44569 19.1133C7.3136 19.0371 7.2898 18.8563 7.39765 18.7484L8.01967 18.1264C8.06318 18.0829 8.12218 18.0585 8.1837 18.0585H11.0773C11.1905 18.0585 11.2857 18.1408 11.3158 18.25C11.5418 19.0704 12.2932 19.673 13.1855 19.673C14.2565 19.673 15.1247 18.8047 15.1247 17.7337C15.1247 16.6627 14.2565 15.7944 13.1855 15.7944C12.2932 15.7944 11.5418 16.3971 11.3158 17.2175C11.2857 17.3267 11.1905 17.409 11.0773 17.409H7.91462C7.8531 17.409 7.7941 17.4334 7.7506 17.4769L6.72737 18.5001C6.65313 18.5743 6.53828 18.5894 6.44736 18.537L3.67849 16.9384C3.60671 16.8969 3.5625 16.8203 3.5625 16.7375V14.7347C3.5625 14.6066 3.66636 14.5027 3.79447 14.5027H10.8744C10.9359 14.5027 10.9949 14.4783 11.0384 14.4348L13.1935 12.2798C13.237 12.2362 13.2614 12.1772 13.2614 12.1157V10.3401C13.2614 10.2786 13.2859 10.2196 13.3294 10.1761L15.5161 7.98937C15.5596 7.94587 15.6186 7.92143 15.6801 7.92143H18.2605C18.322 7.92143 18.381 7.89699 18.4245 7.85348L19.495 6.78297C19.5693 6.70872 19.6841 6.6936 19.775 6.7461L20.3215 7.06164Z" fill="url(#paint0_linear_340_1709)"/>
<path d="M13.1855 16.444C13.8978 16.444 14.4752 17.0214 14.4752 17.7337C14.4752 18.446 13.8978 19.0235 13.1855 19.0235C12.4731 19.0235 11.8957 18.446 11.8957 17.7337C11.8957 17.0214 12.4731 16.444 13.1855 16.444Z" fill="url(#paint1_linear_340_1709)"/>
<path d="M13.626 3.19592C13.6977 3.23736 13.742 3.31394 13.742 3.39681V4.52084C13.742 4.58236 13.7175 4.64136 13.674 4.68487L10.0251 8.33372C9.94532 8.41352 9.82033 8.42292 9.72203 8.36747C9.44098 8.20892 9.11645 8.11842 8.77075 8.11842C7.69972 8.11842 6.83148 8.98666 6.83148 10.0577C6.83149 11.1287 7.69973 11.997 8.77075 11.997C9.84178 11.997 10.71 11.1287 10.71 10.0577C10.71 9.70726 10.617 9.37857 10.4544 9.09487C10.398 8.99637 10.407 8.87048 10.4872 8.7902L14.3235 4.9539C14.367 4.9104 14.3915 4.85139 14.3915 4.78987V4.03968C14.3915 3.8611 14.5848 3.7495 14.7394 3.83878L18.7767 6.16972C18.9088 6.24598 18.9326 6.42678 18.8248 6.53464L18.1555 7.20396C18.112 7.24747 18.053 7.27191 17.9915 7.27191H15.4111C15.3496 7.27191 15.2906 7.29635 15.2471 7.33985L12.6799 9.90706C12.6364 9.95057 12.6119 10.0096 12.6119 10.0711V11.8466C12.6119 11.9082 12.5875 11.9672 12.544 12.0107L10.7694 13.7853C10.7259 13.8288 10.6669 13.8532 10.6053 13.8532H3.79447C3.66636 13.8532 3.5625 13.7494 3.5625 13.6213V10.161C3.5625 10.0329 3.66636 9.92907 3.79447 9.92907H4.30631C4.36783 9.92907 4.42684 9.90462 4.47034 9.86112L5.20272 9.1287C5.24622 9.0852 5.27066 9.0262 5.27066 8.96468V6.27629C5.27066 6.19342 5.31487 6.11684 5.38665 6.0754L6.5339 5.41305C6.56917 5.39269 6.60917 5.38198 6.64989 5.38198H8.99942C9.04014 5.38198 9.08014 5.37126 9.11541 5.3509L9.89758 4.89928C9.96935 4.85784 10.0136 4.78126 10.0136 4.69839V3.53799C10.0136 3.45511 10.0578 3.37853 10.1296 3.3371L11.884 2.32417C11.9558 2.28273 12.0442 2.28273 12.116 2.32417L13.626 3.19592Z" fill="url(#paint2_linear_340_1709)"/>
<path d="M17.4306 10.6019C18.1429 10.6019 18.7204 11.1794 18.7204 11.8917C18.7204 12.604 18.1429 13.1814 17.4306 13.1814C16.7183 13.1814 16.1409 12.604 16.1409 11.8917C16.1409 11.1794 16.7183 10.6019 17.4306 10.6019Z" fill="url(#paint3_linear_340_1709)"/>
<path d="M8.77075 8.76794C9.48306 8.76794 10.0605 9.34538 10.0605 10.0577C10.0605 10.77 9.48306 11.3474 8.77075 11.3474C8.05845 11.3474 7.48101 10.77 7.481 10.0577C7.481 9.34538 8.05844 8.76794 8.77075 8.76794Z" fill="url(#paint4_linear_340_1709)"/>
<path d="M4.62114 8.69564C4.62114 8.75716 4.5967 8.81617 4.5532 8.85967L4.20126 9.2116C4.15776 9.25511 4.09876 9.27955 4.03724 9.27955H3.79447C3.66636 9.27955 3.5625 9.17569 3.5625 9.04757V7.26253C3.5625 7.17965 3.60671 7.10308 3.67848 7.06164L4.27318 6.71827C4.42783 6.62898 4.62114 6.74059 4.62114 6.91916V8.69564Z" fill="url(#paint5_linear_340_1709)"/>
<path d="M9.36405 4.32338C9.36405 4.40626 9.31983 4.48284 9.24807 4.52427L8.94134 4.70138C8.90607 4.72174 8.86607 4.73246 8.82535 4.73246H8.57846C8.34113 4.73246 8.25694 4.41826 8.46248 4.29959L9.01609 3.97996C9.17073 3.89067 9.36405 4.00228 9.36405 4.18085V4.32338Z" fill="url(#paint6_linear_340_1709)"/>
<defs>
<linearGradient id="paint0_linear_340_1709" x1="12" y1="2.29309" x2="12" y2="21.7069" gradientUnits="userSpaceOnUse">
<stop stop-color="#EAE8D8"/>
<stop offset="1" stop-color="#AEAB9C"/>
</linearGradient>
<linearGradient id="paint1_linear_340_1709" x1="12" y1="2.29309" x2="12" y2="21.7069" gradientUnits="userSpaceOnUse">
<stop stop-color="#EAE8D8"/>
<stop offset="1" stop-color="#AEAB9C"/>
</linearGradient>
<linearGradient id="paint2_linear_340_1709" x1="12" y1="2.29309" x2="12" y2="21.7069" gradientUnits="userSpaceOnUse">
<stop stop-color="#EAE8D8"/>
<stop offset="1" stop-color="#AEAB9C"/>
</linearGradient>
<linearGradient id="paint3_linear_340_1709" x1="12" y1="2.29309" x2="12" y2="21.7069" gradientUnits="userSpaceOnUse">
<stop stop-color="#EAE8D8"/>
<stop offset="1" stop-color="#AEAB9C"/>
</linearGradient>
<linearGradient id="paint4_linear_340_1709" x1="12" y1="2.29309" x2="12" y2="21.7069" gradientUnits="userSpaceOnUse">
<stop stop-color="#EAE8D8"/>
<stop offset="1" stop-color="#AEAB9C"/>
</linearGradient>
<linearGradient id="paint5_linear_340_1709" x1="12" y1="2.29309" x2="12" y2="21.7069" gradientUnits="userSpaceOnUse">
<stop stop-color="#EAE8D8"/>
<stop offset="1" stop-color="#AEAB9C"/>
</linearGradient>
<linearGradient id="paint6_linear_340_1709" x1="12" y1="2.29309" x2="12" y2="21.7069" gradientUnits="userSpaceOnUse">
<stop stop-color="#EAE8D8"/>
<stop offset="1" stop-color="#AEAB9C"/>
</linearGradient>
</defs>
</svg>
