<svg width="24" height="24" viewBox="0 0 24 24" fill="none" xmlns="http://www.w3.org/2000/svg">
<path fill-rule="evenodd" clip-rule="evenodd" d="M3.98438 9.09167C3.98438 9.00855 4.0879 8.96691 4.14834 9.02391C4.47376 9.33079 4.86746 9.58947 5.28339 9.79769C6.19791 10.2555 7.36818 10.5553 8.64905 10.6453C8.69716 10.6486 8.73473 10.6886 8.73473 10.7369V11.6799C8.73473 11.7304 8.77563 11.7713 8.82608 11.7713H9.28285C9.3333 11.7713 9.3742 11.7304 9.3742 11.6799V10.7648C9.3742 10.7144 9.41521 10.6738 9.46555 10.6738H19.9711C20.0216 10.6738 20.0625 10.7147 20.0625 10.7652V19.4085C20.0625 19.4591 20.0216 19.5 19.9711 19.5H9.46555C9.4151 19.5 9.3742 19.4591 9.3742 19.4085V18.2652C9.3742 18.2147 9.3333 18.1738 9.28285 18.1738H8.82608C8.77563 18.1738 8.73473 18.2147 8.73473 18.2652V19.378C8.73473 19.4309 8.68964 19.4728 8.63695 19.4688C6.00295 19.2688 3.98438 18.1305 3.98438 16.7561V9.09167ZM8.73473 17.7165C8.73473 17.767 8.77563 17.8079 8.82608 17.8079H9.28285C9.3333 17.8079 9.3742 17.767 9.3742 17.7165V16.253C9.3742 16.2025 9.3333 16.1616 9.28285 16.1616H8.82608C8.77563 16.1616 8.73473 16.2025 8.73473 16.253V17.7165ZM8.73473 15.7043C8.73473 15.7548 8.77563 15.7957 8.82608 15.7957H9.28285C9.3333 15.7957 9.3742 15.7548 9.3742 15.7043V14.2409C9.3742 14.1903 9.3333 14.1494 9.28285 14.1494H8.82608C8.77563 14.1494 8.73473 14.1903 8.73473 14.2409V15.7043ZM8.73473 13.6921C8.73473 13.7426 8.77563 13.7835 8.82608 13.7835H9.28285C9.3333 13.7835 9.3742 13.7426 9.3742 13.6921V12.2287C9.3742 12.1781 9.3333 12.1372 9.28285 12.1372H8.82608C8.77563 12.1372 8.73473 12.1781 8.73473 12.2287V13.6921Z" fill="url(#paint0_linear_340_1713)"/>
<path fill-rule="evenodd" clip-rule="evenodd" d="M9.46555 4.5C12.4927 4.5 14.9467 5.72849 14.9467 7.2439C14.9467 8.75932 12.4927 9.98781 9.46555 9.98781C6.43838 9.98781 3.98438 8.75932 3.98438 7.2439C3.98438 5.72849 6.43838 4.5 9.46555 4.5ZM9.28285 6.00915C7.97107 6.00915 6.90767 6.5722 6.90767 7.26677C6.90767 7.96133 7.97107 8.52439 9.28285 8.52439C10.5946 8.52439 11.658 7.96133 11.658 7.26677C11.658 6.5722 10.5946 6.00915 9.28285 6.00915Z" fill="url(#paint1_linear_340_1713)"/>
<path d="M14.9467 9.89634C14.9467 9.94686 14.9058 9.98781 14.8554 9.98781H13.689C13.5891 9.98781 13.5584 9.84241 13.6477 9.79769C14.0637 9.58947 14.4573 9.33079 14.7828 9.02391C14.8432 8.96691 14.9467 9.00855 14.9467 9.09167V9.89634Z" fill="url(#paint2_linear_340_1713)"/>
<defs>
<linearGradient id="paint0_linear_340_1713" x1="12.0234" y1="4.5" x2="12.0234" y2="19.5" gradientUnits="userSpaceOnUse">
<stop stop-color="#EAE8D8"/>
<stop offset="1" stop-color="#AEAB9C"/>
</linearGradient>
<linearGradient id="paint1_linear_340_1713" x1="12.0234" y1="4.5" x2="12.0234" y2="19.5" gradientUnits="userSpaceOnUse">
<stop stop-color="#EAE8D8"/>
<stop offset="1" stop-color="#AEAB9C"/>
</linearGradient>
<linearGradient id="paint2_linear_340_1713" x1="12.0234" y1="4.5" x2="12.0234" y2="19.5" gradientUnits="userSpaceOnUse">
<stop stop-color="#EAE8D8"/>
<stop offset="1" stop-color="#AEAB9C"/>
</linearGradient>
</defs>
</svg>
