<svg width="24" height="24" viewBox="0 0 24 24" fill="none" xmlns="http://www.w3.org/2000/svg">
<path d="M13.8052 8.4681C13.8052 8.64851 14.0005 8.76128 14.1568 8.67108L18.2019 6.33591C18.314 6.2712 18.4573 6.3096 18.522 6.42168L20.0923 9.14072C20.157 9.25284 20.1186 9.39622 20.0065 9.46093L15.9596 11.7961C15.8034 11.8863 15.8033 12.1118 15.9596 12.2021L20.0066 14.539C20.1187 14.6038 20.1571 14.7471 20.0923 14.8592L18.5221 17.5783C18.4573 17.6904 18.314 17.7288 18.2019 17.664L14.1568 15.328C14.0006 15.2378 13.8052 15.3506 13.8052 15.531V20.2031C13.8052 20.3326 13.7003 20.4375 13.5709 20.4375H10.4302C10.3008 20.4375 10.1959 20.3326 10.1959 20.2031V15.531C10.1959 15.3505 10.0006 15.2378 9.8443 15.328L5.79823 17.6641C5.68614 17.7288 5.54281 17.6904 5.47808 17.5783L3.9078 14.8592C3.84306 14.7471 3.88145 14.6038 3.99353 14.539L8.03966 12.2021C8.1959 12.1118 8.19586 11.8863 8.0396 11.7961L3.99364 9.46094C3.88151 9.39622 3.84309 9.25285 3.90783 9.14074L5.4781 6.42166C5.54282 6.30959 5.68613 6.27119 5.79822 6.33588L9.84433 8.67113C10.0006 8.76131 10.1959 8.64855 10.1959 8.46814V3.79687C10.1959 3.66743 10.3008 3.5625 10.4302 3.5625H13.5709C13.7003 3.5625 13.8052 3.66743 13.8052 3.79687V8.4681Z" fill="url(#paint0_linear_340_1693)"/>
<defs>
<linearGradient id="paint0_linear_340_1693" x1="12" y1="3.5625" x2="12" y2="20.4375" gradientUnits="userSpaceOnUse">
<stop stop-color="#EAE8D8"/>
<stop offset="1" stop-color="#AEAB9C"/>
</linearGradient>
</defs>
</svg>
