<svg width="24" height="24" viewBox="0 0 24 24" fill="none" xmlns="http://www.w3.org/2000/svg">
<path d="M10.3841 13.121L11.4633 14.2773C11.5486 14.3687 11.5487 14.5105 11.4635 14.602L7.46997 18.8929C6.99138 19.4071 6.18168 19.4216 5.68496 18.9249C5.18824 18.4282 5.20277 17.6185 5.71699 17.1399L10.0478 13.1092C10.144 13.0197 10.2945 13.025 10.3841 13.121Z" fill="url(#paint0_linear_340_1707)"/>
<path d="M9.22597 5.82104C10.2894 6.88443 10.5759 7.98973 10.3828 9.012C10.3108 9.3932 10.3921 9.80151 10.6757 10.0662L18.9132 17.7549C19.3071 18.1226 19.3178 18.7435 18.9368 19.1245L18.5126 19.5487C18.1316 19.9297 17.5107 19.919 17.143 19.5251L9.47169 11.3062C9.20322 11.0185 8.78761 10.9394 8.4017 11.0161C7.3752 11.2201 6.25688 10.9329 5.18549 9.86152C3.60485 8.28088 3.10975 5.53984 4.00702 4.64257C4.90429 3.7453 7.64533 4.2404 9.22597 5.82104Z" fill="url(#paint1_linear_340_1707)"/>
<path d="M20.298 7.14018C20.484 7.32614 20.484 7.62764 20.298 7.8136L17.5188 10.5928C17.1131 10.9985 16.5224 11.158 15.9677 11.0117C15.393 10.8601 14.7814 11.037 14.3765 11.4721L13.9081 11.9754C13.8184 12.0717 13.6676 12.0771 13.5713 11.9872L12.6007 11.0813C12.4998 10.9871 12.4999 10.827 12.601 10.7329L13.1378 10.2334C13.5729 9.82845 13.7498 9.21692 13.5982 8.64218C13.4519 8.08745 13.6114 7.49673 14.0171 7.09106L16.7963 4.31185C16.9822 4.12589 17.2837 4.12589 17.4697 4.31185C17.6557 4.4978 17.6557 4.7993 17.4697 4.98526L15.5262 6.92879C15.3216 7.13334 15.3216 7.46499 15.5262 7.66954C15.7307 7.8741 16.0624 7.8741 16.2669 7.66954L18.2105 5.72601C18.3964 5.54006 18.6979 5.54006 18.8839 5.72601C19.0698 5.91197 19.0698 6.21347 18.8839 6.39943L16.9403 8.34296C16.7358 8.54751 16.7358 8.87916 16.9403 9.08371C17.1449 9.28826 17.4765 9.28826 17.6811 9.08371L19.6246 7.14018C19.8106 6.95423 20.1121 6.95423 20.298 7.14018Z" fill="url(#paint2_linear_340_1707)"/>
<defs>
<linearGradient id="paint0_linear_340_1707" x1="12" y1="4.17238" x2="12" y2="19.8276" gradientUnits="userSpaceOnUse">
<stop stop-color="#EAE8D8"/>
<stop offset="1" stop-color="#AEAB9C"/>
</linearGradient>
<linearGradient id="paint1_linear_340_1707" x1="12" y1="4.17238" x2="12" y2="19.8276" gradientUnits="userSpaceOnUse">
<stop stop-color="#EAE8D8"/>
<stop offset="1" stop-color="#AEAB9C"/>
</linearGradient>
<linearGradient id="paint2_linear_340_1707" x1="12" y1="4.17238" x2="12" y2="19.8276" gradientUnits="userSpaceOnUse">
<stop stop-color="#EAE8D8"/>
<stop offset="1" stop-color="#AEAB9C"/>
</linearGradient>
</defs>
</svg>
