<svg width="24" height="24" viewBox="0 0 24 24" fill="none" xmlns="http://www.w3.org/2000/svg">
<path d="M5.39674 17.0427C5.60045 17.102 5.81587 17.1338 6.03872 17.1338H7.23098V17.9592C7.23098 18.2125 7.02567 18.4178 6.77242 18.4178H6.31386C5.80735 18.4178 5.39674 18.0072 5.39674 17.5007V17.0427Z" fill="url(#paint0_linear_340_1689)"/>
<path d="M18.6033 17.5007C18.6033 18.0072 18.1927 18.4178 17.6861 18.4178H17.2276C16.9743 18.4178 16.769 18.2125 16.769 17.9592V17.1338H17.9613C18.1841 17.1338 18.3995 17.102 18.6033 17.0427V17.5007Z" fill="url(#paint1_linear_340_1689)"/>
<path d="M19.1535 9.9803C19.8626 9.9803 20.4375 10.5552 20.4375 11.2643C20.4375 12.1035 19.3069 12.5482 19.337 12.5482V14.841C19.337 15.6008 18.721 16.2167 17.9613 16.2167H6.03872C5.27896 16.2167 4.66304 15.6008 4.66304 14.841V12.5482C4.69311 12.5482 3.5625 12.1035 3.5625 11.2643C3.5625 10.5552 4.13735 9.9803 4.84647 9.9803C5.93544 9.9803 7.18647 12.5225 7.18647 12.5225C7.18647 12.5225 9.37848 11.4477 12 11.4477C14.6592 11.4477 16.8149 12.5482 16.8149 12.5482C16.8149 12.5482 17.8461 9.9803 19.1535 9.9803Z" fill="url(#paint2_linear_340_1689)"/>
<path d="M16.2187 5.57812C17.7383 5.57813 18.9701 6.80995 18.9701 8.32948V9.07187C18.42 9.12398 17.9687 9.40286 17.6393 9.68555C17.2677 10.0044 16.9618 10.4035 16.7271 10.7611C16.5909 10.9688 16.4709 11.1745 16.3692 11.3618C16.1692 11.2862 15.9382 11.2047 15.6808 11.1234C14.7511 10.8299 13.451 10.5306 12 10.5306C10.5699 10.5306 9.27218 10.8226 8.34115 11.1083C8.05727 11.1954 7.80499 11.2827 7.59062 11.3623C7.47193 11.1655 7.33114 10.9449 7.17393 10.7223C6.93027 10.3773 6.62448 9.99495 6.2779 9.68949C5.98047 9.42736 5.53362 9.11491 4.98404 9.06896V8.32948C4.98404 6.80995 6.21586 5.57813 7.73539 5.57812H16.2187Z" fill="url(#paint3_linear_340_1689)"/>
<defs>
<linearGradient id="paint0_linear_340_1689" x1="12" y1="5.57812" x2="12" y2="18.4178" gradientUnits="userSpaceOnUse">
<stop stop-color="#EAE8D8"/>
<stop offset="1" stop-color="#AEAB9C"/>
</linearGradient>
<linearGradient id="paint1_linear_340_1689" x1="12" y1="5.57812" x2="12" y2="18.4178" gradientUnits="userSpaceOnUse">
<stop stop-color="#EAE8D8"/>
<stop offset="1" stop-color="#AEAB9C"/>
</linearGradient>
<linearGradient id="paint2_linear_340_1689" x1="12" y1="5.57812" x2="12" y2="18.4178" gradientUnits="userSpaceOnUse">
<stop stop-color="#EAE8D8"/>
<stop offset="1" stop-color="#AEAB9C"/>
</linearGradient>
<linearGradient id="paint3_linear_340_1689" x1="12" y1="5.57812" x2="12" y2="18.4178" gradientUnits="userSpaceOnUse">
<stop stop-color="#EAE8D8"/>
<stop offset="1" stop-color="#AEAB9C"/>
</linearGradient>
</defs>
</svg>
