<svg width="24" height="24" viewBox="0 0 24 24" fill="none" xmlns="http://www.w3.org/2000/svg">
<path d="M11.6645 20.0544C11.8186 19.9076 12.0584 19.9742 12.2289 20.052C12.2537 20.3224 12.3058 20.5698 12.0783 20.7685C11.8565 20.962 11.6396 20.8259 11.5496 20.5543C11.5028 20.413 11.555 20.1589 11.6645 20.0544Z" fill="url(#paint0_linear_340_1731)"/>
<path d="M13.6656 19.1296C13.9415 19.3605 14.0913 19.7107 14.262 20.0263C14.3362 20.1633 14.4108 20.2726 14.2937 20.4031C14.199 20.5086 14.0168 20.556 13.8919 20.6118V20.6119C13.7372 20.4208 13.5965 20.2474 13.456 20.074C13.4407 20.0794 13.4255 20.0849 13.4101 20.0902C13.4223 20.2475 13.4345 20.4047 13.4493 20.5971C13.2029 20.6771 12.9564 20.7572 12.6914 20.8432C12.6344 20.5872 12.675 20.3176 12.6977 20.0568C12.7071 19.9471 12.6929 19.8292 12.7935 19.7616C12.9013 19.689 13.1467 19.735 13.2715 19.735C13.3911 19.5514 13.5217 19.3507 13.6656 19.1296Z" fill="url(#paint1_linear_340_1731)"/>
<path d="M10.1073 19.0864C10.2676 19.2573 10.4197 19.4194 10.5715 19.5812C10.7134 19.5639 10.8661 19.5452 11.0385 19.5242C11.0385 19.8693 11.2007 20.5264 10.8307 20.7124C10.6595 20.7985 10.5872 20.8304 10.4744 20.663C10.3645 20.5 10.3547 20.2995 10.3157 20.1122C10.1579 20.1835 9.51914 20.579 9.56848 20.1562C9.59102 19.9626 9.73624 19.7339 9.81938 19.5582C9.90263 19.3823 9.9621 19.2156 10.1072 19.0863L10.1073 19.0864Z" fill="url(#paint2_linear_340_1731)"/>
<path d="M14.9205 18.0907C14.878 18.7654 14.896 19.4302 14.6987 20.0789C14.3446 19.5449 14.2089 18.9338 14.0019 18.3366C14.3119 18.2536 14.6072 18.1746 14.9205 18.0907Z" fill="url(#paint3_linear_340_1731)"/>
<path d="M10.0852 18.402C9.80232 18.9673 9.56595 19.5477 9.15681 20.0423C9.00392 19.3919 9.09224 18.7432 9.09955 18.0804H9.09969C9.4346 18.1897 9.75146 18.2931 10.0852 18.402Z" fill="url(#paint4_linear_340_1731)"/>
<path d="M11.6705 15.8043C11.7328 15.7609 11.8537 15.7559 11.9283 15.7842C12.2497 15.9061 12.5699 16.035 12.8788 16.1853C13.0959 16.2908 13.0957 16.65 12.8871 16.768C12.4821 16.9972 12.0655 17.1977 11.5069 17.2133C11.3836 17.1854 11.1825 17.1547 10.9913 17.0928C10.7661 17.02 10.6686 16.5865 10.8496 16.4305C11.1099 16.2059 11.3885 16.0013 11.6705 15.8043Z" fill="url(#paint5_linear_340_1731)"/>
<path d="M14.4001 12.6368C13.8418 13.1161 13.2876 13.5918 12.7218 14.0773C12.6408 13.9159 12.5642 13.763 12.4813 13.598C12.787 13.2151 13.0944 12.8301 13.4398 12.3975C12.8476 12.7364 12.307 13.0456 11.7621 13.3575C12.0006 13.7559 12.2335 14.1448 12.4739 14.5463H11.5115C10.8852 13.8409 10.2473 13.1223 9.60364 12.3972C9.68333 12.1575 9.76303 11.9177 9.84323 11.6764C10.0843 11.5959 10.3211 11.5168 10.5625 11.4362C11.0413 11.7557 11.5194 12.0746 12.0016 12.3965C12.6372 11.9988 13.2708 11.6025 13.9199 11.1964C14.0814 11.6807 14.24 12.1564 14.4001 12.6368Z" fill="url(#paint6_linear_340_1731)"/>
<path d="M7.60019 8.77295C7.51481 9.06066 7.48719 9.35997 7.80394 9.51064C8.10545 9.65407 8.35691 9.42065 8.55559 9.21153C8.66127 9.30933 8.76718 9.40733 8.88495 9.51631C8.51896 9.78278 7.94838 10.1582 7.49326 9.86522C7.06515 9.5896 7.14229 8.97868 7.19914 8.55098V8.55089C7.34493 8.63161 7.47105 8.70148 7.60019 8.77295Z" fill="url(#paint7_linear_340_1731)"/>
<path d="M5.85277 7.11223C6.32272 7.11223 6.86688 7.1113 7.41104 7.11415C7.4481 7.11436 7.48737 7.13807 7.52168 7.15759C8.05295 7.46056 8.58362 7.76463 9.12321 8.07349C9.28382 7.83254 9.44088 7.59706 9.60332 7.35347V7.35338C9.92261 7.59311 10.2356 7.82826 10.5624 8.07358C10.0803 8.47607 9.60648 8.87147 9.12587 9.27264C9.0945 9.2515 9.06404 9.23194 9.0345 9.21089C8.59054 8.89512 8.13438 8.59483 7.70708 8.25792C7.41672 8.02887 7.10514 7.92892 6.74463 7.89903C6.23377 7.85664 5.72576 7.78078 5.20435 7.71785C5.41328 7.52276 5.61216 7.33701 5.85277 7.11223Z" fill="url(#paint8_linear_340_1731)"/>
<path fill-rule="evenodd" clip-rule="evenodd" d="M20.525 7.07812V16.9219L15.4247 19.8664L15.4079 19.812C15.3942 19.8206 15.3804 19.8291 15.3666 19.8377V19.3932C15.9452 18.6402 16.8895 17.7811 16.5909 16.7352C16.5167 16.4754 16.1492 15.7124 15.8514 16.1328C15.5296 16.5872 15.3145 17.1647 15.1162 17.6808C14.8064 17.7697 14.4966 17.8588 14.1868 17.9476C13.9709 18.0096 13.6 18.1975 13.3719 18.1579C13.0665 18.1048 13.3739 17.7432 13.4605 17.6042C13.642 17.3128 13.826 17.0229 14.0035 16.729C14.1434 16.4974 14.3458 16.2381 14.4061 15.9705C14.4528 15.7633 14.3284 15.6291 14.1951 15.4863C14.033 15.3128 13.8186 15.2085 13.6929 15.001C13.5662 14.7917 13.5217 14.5449 13.4426 14.3163C13.7761 14.0351 14.1085 13.7547 14.4445 13.4715L14.7546 13.2099C14.9917 13.5815 15.2231 13.9443 15.4756 14.3402C15.4475 13.9868 15.4148 13.6339 15.3916 13.2802C15.3685 12.9287 15.3921 12.7243 15.7796 12.6444C16.0886 12.5808 16.3923 12.6782 16.6861 12.7645C17.0389 12.8682 17.3895 12.9787 17.7414 13.0853C17.5899 12.7815 17.4355 12.472 17.2774 12.155C16.8002 12.155 16.3228 12.1593 15.8457 12.155C15.4924 12.1519 15.1956 12.0104 15.0186 11.6906C14.6961 11.1085 15.0324 10.5529 15.6531 10.4749C15.8692 10.4478 16.0876 10.4594 16.3046 10.4668C16.5943 10.4766 16.6207 10.5225 16.796 10.7591C17.0726 11.1324 17.3488 11.5058 17.625 11.8794C17.8965 12.2466 18.1678 12.614 18.4391 12.9814L18.4862 13.0452C18.7301 13.3756 19.055 13.7121 19.2383 14.0788C18.2573 13.8366 17.2927 13.5983 16.319 13.3579L16.1905 13.808C16.0747 14.2134 15.9602 14.6142 15.846 15.0144C16.1152 15.0144 16.4852 14.9392 16.7051 15.1387C16.9424 15.3539 17.1169 15.7667 17.2731 16.0434C17.4427 16.3439 17.5632 16.5581 17.5149 16.9073C17.4677 17.2482 17.3639 17.5778 17.2809 17.9108C17.6735 17.5599 18.4116 16.8105 18.4154 16.8067C18.4154 16.8067 19.2741 16.6194 19.776 16.5424L19.8218 16.5159V12.5056C18.88 11.6486 17.8753 10.8054 16.9237 9.93498C17.2358 9.67361 17.5478 9.41211 17.8603 9.15125C18.1243 8.93083 18.6233 9.03575 18.9559 9.03575C18.7114 9.44424 18.4765 9.83677 18.238 10.2351L18.7384 10.6646C19.0973 10.9727 19.4568 11.2812 19.8218 11.5945V7.48402L18.2801 6.5939C17.747 6.60292 17.0141 6.80426 17.0122 6.80479C17.0122 6.80479 16.724 6.08552 16.5586 5.67265C16.393 5.92112 16.2383 6.15334 16.0782 6.39368C16.2885 6.90688 16.5086 7.58671 17.1384 7.68004C17.4676 7.72883 17.8336 7.67697 18.1648 7.65948C18.5063 7.64149 18.4565 7.69253 18.7969 7.65948L19.5235 8.29733C18.9384 8.33475 18.03 8.38336 17.4433 8.37035C16.9828 8.36018 16.4729 8.4167 16.1101 8.07797C15.7176 7.71147 15.376 7.25557 15.0285 6.84586C14.8589 6.64588 14.6476 6.45464 14.5799 6.19519C14.5136 5.94124 14.4623 5.6816 14.3987 5.42642L14.2594 5.38136C13.8435 5.24674 13.4266 5.1118 13.0095 4.9769C13.308 5.29156 13.6111 5.59984 13.9189 5.90538V6.63084C14.2274 6.81634 14.5337 7.00059 14.8414 7.1857L15.1169 7.35136V8.29733C15.3211 8.35538 15.7831 8.40513 15.7677 8.69884C15.7569 8.90328 15.4129 9.04032 15.2751 9.17532C15.0933 9.35364 14.9467 9.56461 14.8331 9.79234C14.7724 9.91404 14.7212 10.0407 14.6771 10.1693C14.6405 10.2767 14.63 10.4288 14.5636 10.5181C14.0282 9.88062 13.5575 9.14235 12.9661 8.55721C13.1311 9.24743 13.3954 9.92385 13.615 10.5986L13.2396 10.9098C12.8173 11.2597 12.394 11.6106 11.9646 11.9664C11.3894 11.562 10.8145 11.1579 10.2388 10.7532L9.84799 10.4785V9.76112H11.5159V10.2285H12.24C12.0815 9.27458 11.9238 8.32491 11.7625 7.3537C12.6478 7.67567 13.5181 7.99216 14.3967 8.3118V7.83078C14.0782 7.57555 13.7557 7.31704 13.4306 7.05649L13.2044 6.87515V5.91504C12.6528 5.44138 12.1012 4.96781 11.5301 4.47748C12.1096 4.43224 12.7264 4.44361 13.3072 4.46974C13.5637 4.48123 13.7997 4.65131 14.0271 4.76477C14.3132 4.90751 14.5991 5.05067 14.885 5.1936V5.6158C15.0848 5.6647 15.6198 5.74207 15.7449 5.51962C15.8192 5.3875 15.8416 5.27058 15.8249 5.17639L12 2.96814L9.83156 4.22008C10.1668 4.69361 10.5072 5.37905 10.8239 5.81245C10.7497 6.164 10.6751 6.51779 10.5988 6.8795C10.0497 6.32022 9.49059 5.30482 8.94798 4.73016L8.38118 5.05742C8.69011 5.40423 9.04933 6.08405 9.35397 6.38635H8.39166C8.16994 6.15923 7.84557 5.77094 7.60019 5.51962C7.35308 5.84932 7.19914 6.63084 7.19914 6.63084C7.19517 6.6297 6.39573 6.40033 6.07835 6.38695L4.17822 7.48402V12.3915H6.39389C6.28001 12.6501 6.17095 12.8976 6.06272 13.1433L5.99976 13.2862C6.27436 13.1022 6.54612 12.8859 6.83348 12.7247C7.08434 12.584 7.40554 12.6383 7.683 12.6384C7.76026 12.4841 7.83873 12.3276 7.92401 12.1574L7.6785 12.0587C7.35983 11.9306 7.0435 11.8035 6.72485 11.6755C6.24973 10.5653 5.77468 9.45523 5.28656 8.31454C5.70057 8.48016 6.08699 8.63467 6.4214 8.76846C6.51836 9.34867 6.53908 10.002 7.07156 10.3656C7.58902 10.7191 8.31023 10.6859 8.90697 10.7505C9.04138 10.9523 9.19865 11.1885 9.36322 11.4358C9.12129 11.5975 8.88341 11.7565 8.64787 11.914V12.8723H9.09703L9.18756 12.9631C9.72664 13.5036 10.2556 14.034 10.8184 14.5981C10.4365 14.9299 10.0845 15.2886 9.72229 15.6416C9.57164 15.7884 9.40993 15.9314 9.44951 16.1613C9.48128 16.3456 9.61946 16.5435 9.70494 16.7097C9.7892 16.8736 9.87908 17.036 9.99178 17.1823C10.0565 17.2664 10.1282 17.3459 10.2077 17.4161C10.2833 17.4829 10.4226 17.5358 10.4833 17.6086C10.5666 17.7084 10.566 17.9068 10.5345 18.0302C10.4799 18.2442 10.3597 18.1765 10.1914 18.1072C9.72152 17.9138 9.21917 17.7453 8.7679 17.5121C8.35186 17.2971 8.24726 16.8906 8.07224 16.4907C7.92584 16.1561 7.6286 15.7955 7.37286 16.2725C7.13428 16.7175 7.1752 17.2869 7.29683 17.7579C7.36737 18.031 7.45887 18.2809 7.60641 18.4952L8.40466 18.956L8.7679 19.9777L3.4751 16.9219V7.07812L12 2.15625L20.525 7.07812ZM4.24922 15.9057C4.22568 15.9178 4.20262 15.9309 4.17822 15.9451V12.8854H5.28354C5.27085 13.1104 5.34452 13.3399 5.15427 13.5417C5.00209 13.7031 4.89875 13.9112 4.74484 14.0708C4.54231 14.2808 4.55186 14.5225 4.57744 14.793C5.61225 14.315 6.64148 13.8396 7.68391 13.358L7.68414 13.3583C7.76658 13.6049 7.84375 13.8355 7.92456 14.0768C8.15603 14.1549 8.39206 14.2345 8.64302 14.3192C8.56293 14.4799 8.48557 14.6352 8.40466 14.7977C8.08304 14.7179 7.76648 14.6395 7.44171 14.5589L7.3357 14.7452C7.05505 15.2381 6.77713 15.7263 6.50009 16.215C6.48923 16.2343 6.48645 16.2603 6.48645 16.2832C6.48564 16.6659 6.48586 17.0486 6.48586 17.4552C6.55824 17.5179 6.64252 17.5909 6.73135 17.6678C6.68846 17.7537 6.64734 17.836 6.60648 17.9179L5.11948 17.0593C5.32279 16.6556 5.52878 16.2567 5.71832 15.8502C5.76634 15.747 5.77284 15.6083 5.75375 15.4934C5.71994 15.2892 5.60179 15.2239 5.41469 15.3129C5.02119 15.4999 4.63693 15.7065 4.24922 15.9057ZM5.99449 13.2897L5.9944 13.2898L5.99449 13.2896V13.2897Z" fill="url(#paint9_linear_340_1731)"/>
<path fill-rule="evenodd" clip-rule="evenodd" d="M5.99449 13.2897L5.9944 13.2898L5.99449 13.2896V13.2897Z" fill="url(#paint10_linear_340_1731)"/>
<defs>
<linearGradient id="paint0_linear_340_1731" x1="12" y1="2.15625" x2="12" y2="20.8594" gradientUnits="userSpaceOnUse">
<stop stop-color="#EAE8D8"/>
<stop offset="1" stop-color="#AEAB9C"/>
</linearGradient>
<linearGradient id="paint1_linear_340_1731" x1="12" y1="2.15625" x2="12" y2="20.8594" gradientUnits="userSpaceOnUse">
<stop stop-color="#EAE8D8"/>
<stop offset="1" stop-color="#AEAB9C"/>
</linearGradient>
<linearGradient id="paint2_linear_340_1731" x1="12" y1="2.15625" x2="12" y2="20.8594" gradientUnits="userSpaceOnUse">
<stop stop-color="#EAE8D8"/>
<stop offset="1" stop-color="#AEAB9C"/>
</linearGradient>
<linearGradient id="paint3_linear_340_1731" x1="12" y1="2.15625" x2="12" y2="20.8594" gradientUnits="userSpaceOnUse">
<stop stop-color="#EAE8D8"/>
<stop offset="1" stop-color="#AEAB9C"/>
</linearGradient>
<linearGradient id="paint4_linear_340_1731" x1="12" y1="2.15625" x2="12" y2="20.8594" gradientUnits="userSpaceOnUse">
<stop stop-color="#EAE8D8"/>
<stop offset="1" stop-color="#AEAB9C"/>
</linearGradient>
<linearGradient id="paint5_linear_340_1731" x1="12" y1="2.15625" x2="12" y2="20.8594" gradientUnits="userSpaceOnUse">
<stop stop-color="#EAE8D8"/>
<stop offset="1" stop-color="#AEAB9C"/>
</linearGradient>
<linearGradient id="paint6_linear_340_1731" x1="12" y1="2.15625" x2="12" y2="20.8594" gradientUnits="userSpaceOnUse">
<stop stop-color="#EAE8D8"/>
<stop offset="1" stop-color="#AEAB9C"/>
</linearGradient>
<linearGradient id="paint7_linear_340_1731" x1="12" y1="2.15625" x2="12" y2="20.8594" gradientUnits="userSpaceOnUse">
<stop stop-color="#EAE8D8"/>
<stop offset="1" stop-color="#AEAB9C"/>
</linearGradient>
<linearGradient id="paint8_linear_340_1731" x1="12" y1="2.15625" x2="12" y2="20.8594" gradientUnits="userSpaceOnUse">
<stop stop-color="#EAE8D8"/>
<stop offset="1" stop-color="#AEAB9C"/>
</linearGradient>
<linearGradient id="paint9_linear_340_1731" x1="12" y1="2.15625" x2="12" y2="20.8594" gradientUnits="userSpaceOnUse">
<stop stop-color="#EAE8D8"/>
<stop offset="1" stop-color="#AEAB9C"/>
</linearGradient>
<linearGradient id="paint10_linear_340_1731" x1="12" y1="2.15625" x2="12" y2="20.8594" gradientUnits="userSpaceOnUse">
<stop stop-color="#EAE8D8"/>
<stop offset="1" stop-color="#AEAB9C"/>
</linearGradient>
</defs>
</svg>
