<svg width="24" height="24" viewBox="0 0 24 24" fill="none" xmlns="http://www.w3.org/2000/svg">
<path fill-rule="evenodd" clip-rule="evenodd" d="M16.1261 10.1402C17.3687 10.1402 18.3761 11.1476 18.3761 12.3902V18.3902C18.3761 19.6329 17.3687 20.6402 16.1261 20.6402H7.5011C6.25846 20.6402 5.2511 19.6329 5.2511 18.3902V12.3902C5.2511 11.1476 6.25846 10.1402 7.5011 10.1402H16.1261ZM11.9978 13.1265C11.1694 13.1265 10.4978 13.7981 10.4978 14.6265C10.4978 15.1824 10.8002 15.6676 11.2494 15.9267L10.4845 17.2515H13.5156L12.7495 15.9247C13.1969 15.6651 13.4978 15.181 13.4978 14.6265C13.4978 13.7981 12.8262 13.1265 11.9978 13.1265Z" fill="url(#paint0_linear_340_1671)"/>
<path d="M13.342 3.36429C15.1859 3.38765 16.6734 4.88962 16.6734 6.73901V9.20274H14.0484V6.73901C14.0484 6.32481 13.7126 5.98901 13.2984 5.98901H10.3288C9.91463 5.98901 9.57885 6.32481 9.57884 6.73901V9.20274H6.95384V6.73901C6.95385 4.88962 8.44137 3.38765 10.2852 3.36429L10.3288 3.36401H13.2984L13.342 3.36429Z" fill="url(#paint1_linear_340_1671)"/>
<defs>
<linearGradient id="paint0_linear_340_1671" x1="11.8136" y1="3.36401" x2="11.8136" y2="20.6402" gradientUnits="userSpaceOnUse">
<stop stop-color="#EAE8D8"/>
<stop offset="1" stop-color="#AEAB9C"/>
</linearGradient>
<linearGradient id="paint1_linear_340_1671" x1="11.8136" y1="3.36401" x2="11.8136" y2="20.6402" gradientUnits="userSpaceOnUse">
<stop stop-color="#EAE8D8"/>
<stop offset="1" stop-color="#AEAB9C"/>
</linearGradient>
</defs>
</svg>
