<svg width="24" height="24" viewBox="0 0 24 24" fill="none" xmlns="http://www.w3.org/2000/svg">
<path d="M5.99951 13.2006C6.48016 15.6163 8.38286 17.5183 10.7983 17.9995V20.435C7.05351 19.9063 4.09215 16.9456 3.56396 13.2006H5.99951ZM20.436 13.2006C19.9078 16.9459 16.946 19.9067 13.2007 20.435V17.9995C15.6166 17.5186 17.5198 15.6166 18.0005 13.2006H20.436ZM10.7983 13.2006V16.1918C9.35595 15.7791 8.22049 14.6431 7.80811 13.2006H10.7983ZM16.1919 13.2006C15.7794 14.6435 14.6435 15.7793 13.2007 16.1918V13.2006H16.1919ZM13.2007 3.5639C16.9457 4.09212 19.9074 7.05344 20.436 10.7983H18.0005C17.5194 8.38277 15.6163 6.48012 13.2007 5.99945V3.5639ZM13.2007 7.80804C14.6431 8.22041 15.7781 9.35606 16.1909 10.7983H13.2007V7.80804ZM10.7983 5.99945C8.38313 6.48043 6.48053 8.38308 5.99951 10.7983H3.56396C4.09259 7.05376 7.05381 4.09249 10.7983 3.5639V5.99945ZM10.7983 10.7983H7.80908C8.22178 9.35636 9.35637 8.22063 10.7983 7.80804V10.7983Z" fill="url(#paint0_linear_340_1719)"/>
<defs>
<linearGradient id="paint0_linear_340_1719" x1="12" y1="3.5639" x2="12" y2="20.435" gradientUnits="userSpaceOnUse">
<stop stop-color="#EAE8D8"/>
<stop offset="1" stop-color="#AEAB9C"/>
</linearGradient>
</defs>
</svg>
