<svg width="24" height="24" viewBox="0 0 24 24" fill="none" xmlns="http://www.w3.org/2000/svg">
<path d="M15.7783 20.3254C15.7383 20.3948 15.6642 20.4375 15.5841 20.4375H8.41584C8.33571 20.4375 8.26167 20.3948 8.2216 20.3254L7.65182 19.3385C7.56549 19.189 7.6734 19.0021 7.84606 19.0021H16.1539C16.3265 19.0021 16.4344 19.189 16.3481 19.3385L15.7783 20.3254Z" fill="url(#paint0_linear_340_1717)"/>
<path d="M17.2286 17.8133C17.1886 17.8827 17.1145 17.9255 17.0344 17.9255H6.96551C6.88538 17.9255 6.81134 17.8827 6.77127 17.8133L6.20152 16.8265C6.1152 16.677 6.22311 16.4901 6.39576 16.4901H17.6042C17.7768 16.4901 17.8847 16.677 17.7984 16.8265L17.2286 17.8133Z" fill="url(#paint1_linear_340_1717)"/>
<path d="M12.5382 14.5526C12.5382 14.6764 12.4378 14.7768 12.314 14.7768H11.686C11.5621 14.7768 11.4617 14.6764 11.4617 14.5526V12.6197C11.4617 12.481 11.5864 12.3761 11.7246 12.3878C11.8153 12.3955 11.9072 12.3994 12 12.3994C12.0927 12.3994 12.1846 12.3955 12.2753 12.3878C12.4135 12.3761 12.5382 12.481 12.5382 12.6197V14.5526Z" fill="url(#paint2_linear_340_1717)"/>
<path d="M9.17981 11.2285C9.27791 11.1304 9.44034 11.1444 9.52976 11.2504C9.64827 11.391 9.77855 11.5213 9.91908 11.6398C10.0251 11.7292 10.0391 11.8916 9.94105 11.9897L8.57426 13.3566C8.48667 13.4442 8.34465 13.4442 8.25706 13.3566L7.81299 12.9125C7.7254 12.8249 7.7254 12.6829 7.81299 12.5953L9.17981 11.2285Z" fill="url(#paint3_linear_340_1717)"/>
<path d="M16.1869 12.5953C16.2745 12.6829 16.2745 12.8249 16.1869 12.9125L15.7429 13.3566C15.6553 13.4442 15.5132 13.4442 15.4257 13.3566L14.0588 11.9897C13.9607 11.8916 13.9747 11.7292 14.0808 11.6398C14.2213 11.5213 14.3516 11.391 14.4701 11.2504C14.5595 11.1444 14.722 11.1304 14.8201 11.2285L16.1869 12.5953Z" fill="url(#paint4_linear_340_1717)"/>
<path fill-rule="evenodd" clip-rule="evenodd" d="M12 6.54551C13.4492 6.54551 14.6241 7.72039 14.6241 9.16967C14.6241 10.619 13.4492 11.7938 12 11.7938C10.5507 11.7938 9.3758 10.619 9.3758 9.16967C9.3758 7.72039 10.5507 6.54551 12 6.54551ZM12 7.48752C11.0709 7.48752 10.3178 8.24064 10.3178 9.16967C10.3178 10.0987 11.0709 10.8518 12 10.8518C12.929 10.8518 13.6821 10.0987 13.6821 9.16967C13.6821 8.24064 12.929 7.48752 12 7.48752Z" fill="url(#paint5_linear_340_1717)"/>
<path d="M8.54986 8.63138C8.68855 8.63138 8.7935 8.75608 8.78182 8.89428C8.77414 8.98506 8.77023 9.07691 8.77023 9.16967C8.77023 9.26243 8.77414 9.35428 8.78182 9.44506C8.7935 9.58326 8.68855 9.70796 8.54986 9.70796H6.61707C6.4932 9.70796 6.39279 9.60754 6.39279 9.48367V8.85567C6.39279 8.7318 6.4932 8.63138 6.61707 8.63138H8.54986Z" fill="url(#paint6_linear_340_1717)"/>
<path d="M17.6071 9.48367C17.6071 9.60754 17.5067 9.70796 17.3828 9.70796H15.4501C15.3114 9.70796 15.2064 9.58326 15.2181 9.44506C15.2258 9.35428 15.2297 9.26243 15.2297 9.16967C15.2297 9.07691 15.2258 8.98506 15.2181 8.89428C15.2064 8.75608 15.3114 8.63138 15.4501 8.63138H17.3828C17.5067 8.63138 17.6071 8.7318 17.6071 8.85567V9.48367Z" fill="url(#paint7_linear_340_1717)"/>
<path d="M9.94112 6.34948C10.0392 6.44758 10.0252 6.61 9.91915 6.69943C9.77861 6.81795 9.64832 6.94824 9.52981 7.08878C9.44038 7.19484 9.27796 7.20884 9.17986 7.11075L7.81313 5.74401C7.72554 5.65642 7.72554 5.51441 7.81313 5.42682L8.2572 4.98275C8.34479 4.89516 8.4868 4.89516 8.57439 4.98275L9.94112 6.34948Z" fill="url(#paint8_linear_340_1717)"/>
<path d="M16.1868 5.42682C16.2744 5.51441 16.2744 5.65642 16.1868 5.74401L14.82 7.11076C14.7219 7.20885 14.5595 7.19484 14.4701 7.08879C14.3516 6.94824 14.2213 6.81795 14.0807 6.69944C13.9747 6.61001 13.9607 6.44758 14.0588 6.34948L15.4255 4.98275C15.5131 4.89516 15.6551 4.89516 15.7427 4.98275L16.1868 5.42682Z" fill="url(#paint9_linear_340_1717)"/>
<path d="M12.5382 5.71957C12.5382 5.85827 12.4135 5.96321 12.2753 5.95153C12.1846 5.94386 12.0927 5.93994 12 5.93994C11.9072 5.93994 11.8153 5.94386 11.7246 5.95153C11.5864 5.96321 11.4617 5.85827 11.4617 5.71957V3.78679C11.4617 3.66292 11.5621 3.5625 11.686 3.5625H12.314C12.4378 3.5625 12.5382 3.66292 12.5382 3.78679V5.71957Z" fill="url(#paint10_linear_340_1717)"/>
<defs>
<linearGradient id="paint0_linear_340_1717" x1="12" y1="3.5625" x2="12" y2="20.4375" gradientUnits="userSpaceOnUse">
<stop stop-color="#EAE8D8"/>
<stop offset="1" stop-color="#AEAB9C"/>
</linearGradient>
<linearGradient id="paint1_linear_340_1717" x1="12" y1="3.5625" x2="12" y2="20.4375" gradientUnits="userSpaceOnUse">
<stop stop-color="#EAE8D8"/>
<stop offset="1" stop-color="#AEAB9C"/>
</linearGradient>
<linearGradient id="paint2_linear_340_1717" x1="12" y1="3.5625" x2="12" y2="20.4375" gradientUnits="userSpaceOnUse">
<stop stop-color="#EAE8D8"/>
<stop offset="1" stop-color="#AEAB9C"/>
</linearGradient>
<linearGradient id="paint3_linear_340_1717" x1="12" y1="3.5625" x2="12" y2="20.4375" gradientUnits="userSpaceOnUse">
<stop stop-color="#EAE8D8"/>
<stop offset="1" stop-color="#AEAB9C"/>
</linearGradient>
<linearGradient id="paint4_linear_340_1717" x1="12" y1="3.5625" x2="12" y2="20.4375" gradientUnits="userSpaceOnUse">
<stop stop-color="#EAE8D8"/>
<stop offset="1" stop-color="#AEAB9C"/>
</linearGradient>
<linearGradient id="paint5_linear_340_1717" x1="12" y1="3.5625" x2="12" y2="20.4375" gradientUnits="userSpaceOnUse">
<stop stop-color="#EAE8D8"/>
<stop offset="1" stop-color="#AEAB9C"/>
</linearGradient>
<linearGradient id="paint6_linear_340_1717" x1="12" y1="3.5625" x2="12" y2="20.4375" gradientUnits="userSpaceOnUse">
<stop stop-color="#EAE8D8"/>
<stop offset="1" stop-color="#AEAB9C"/>
</linearGradient>
<linearGradient id="paint7_linear_340_1717" x1="12" y1="3.5625" x2="12" y2="20.4375" gradientUnits="userSpaceOnUse">
<stop stop-color="#EAE8D8"/>
<stop offset="1" stop-color="#AEAB9C"/>
</linearGradient>
<linearGradient id="paint8_linear_340_1717" x1="12" y1="3.5625" x2="12" y2="20.4375" gradientUnits="userSpaceOnUse">
<stop stop-color="#EAE8D8"/>
<stop offset="1" stop-color="#AEAB9C"/>
</linearGradient>
<linearGradient id="paint9_linear_340_1717" x1="12" y1="3.5625" x2="12" y2="20.4375" gradientUnits="userSpaceOnUse">
<stop stop-color="#EAE8D8"/>
<stop offset="1" stop-color="#AEAB9C"/>
</linearGradient>
<linearGradient id="paint10_linear_340_1717" x1="12" y1="3.5625" x2="12" y2="20.4375" gradientUnits="userSpaceOnUse">
<stop stop-color="#EAE8D8"/>
<stop offset="1" stop-color="#AEAB9C"/>
</linearGradient>
</defs>
</svg>
