<svg width="24" height="24" viewBox="0 0 24 24" fill="none" xmlns="http://www.w3.org/2000/svg">
<path d="M9.97385 14.5811C10.5317 15.0197 11.2354 15.2812 12 15.2812C12.532 15.2812 13.0343 15.1546 13.4786 14.9299C14.9131 16.2492 16.8749 17.0754 16.875 18.1156C16.875 19.7553 15.1909 20.6859 12.6428 20.6859C10.0947 20.6859 9.03108 19.5337 9.03108 17.5616C9.03108 16.5089 9.38221 15.5423 9.97385 14.5811Z" fill="url(#paint0_linear_340_1677)"/>
<path d="M6.46078 9.05305C7.5038 9.05305 8.46222 9.3977 9.41455 9.97943C8.97864 10.5364 8.7188 11.2379 8.7188 12C8.7188 12.5438 8.85115 13.0567 9.08533 13.5083C7.7702 14.9422 6.94515 16.8969 5.90685 16.8969C4.26718 16.8969 3.33655 15.2129 3.33655 12.6648C3.33655 10.1167 4.48875 9.05306 6.46078 9.05305Z" fill="url(#paint1_linear_340_1677)"/>
<path d="M18.0936 7.14748C19.7332 7.14746 20.6639 8.83146 20.6639 11.3796C20.6639 13.9277 19.5117 14.9913 17.5396 14.9913C16.4879 14.9913 15.5222 14.6409 14.562 14.0503C15.0121 13.4886 15.2813 12.7758 15.2813 12C15.2813 11.4676 15.1544 10.9649 14.9294 10.5202C16.2361 9.08789 17.059 7.14749 18.0936 7.14748Z" fill="url(#paint2_linear_340_1677)"/>
<path d="M12 9.42188C13.4239 9.42188 14.5782 10.5761 14.5782 12C14.5782 13.4239 13.4239 14.5781 12 14.5781C10.5762 14.5781 9.42192 13.4239 9.42192 12C9.42192 10.5761 10.5762 9.42188 12 9.42188Z" fill="url(#paint3_linear_340_1677)"/>
<path d="M11.3576 3.35852C13.9057 3.35852 14.9693 4.51072 14.9693 6.48276C14.9693 7.52471 14.6253 8.48218 14.0446 9.43355C13.4838 8.98619 12.7732 8.71875 12 8.71875C11.4557 8.71875 10.9423 8.85134 10.4904 9.08592C9.05886 7.78326 7.12547 6.96146 7.12546 5.92882C7.12544 4.28915 8.80949 3.35852 11.3576 3.35852Z" fill="url(#paint4_linear_340_1677)"/>
<defs>
<linearGradient id="paint0_linear_340_1677" x1="12.0002" y1="3.35852" x2="12.0002" y2="20.6859" gradientUnits="userSpaceOnUse">
<stop stop-color="#EAE8D8"/>
<stop offset="1" stop-color="#AEAB9C"/>
</linearGradient>
<linearGradient id="paint1_linear_340_1677" x1="12.0002" y1="3.35852" x2="12.0002" y2="20.6859" gradientUnits="userSpaceOnUse">
<stop stop-color="#EAE8D8"/>
<stop offset="1" stop-color="#AEAB9C"/>
</linearGradient>
<linearGradient id="paint2_linear_340_1677" x1="12.0002" y1="3.35852" x2="12.0002" y2="20.6859" gradientUnits="userSpaceOnUse">
<stop stop-color="#EAE8D8"/>
<stop offset="1" stop-color="#AEAB9C"/>
</linearGradient>
<linearGradient id="paint3_linear_340_1677" x1="12.0002" y1="3.35852" x2="12.0002" y2="20.6859" gradientUnits="userSpaceOnUse">
<stop stop-color="#EAE8D8"/>
<stop offset="1" stop-color="#AEAB9C"/>
</linearGradient>
<linearGradient id="paint4_linear_340_1677" x1="12.0002" y1="3.35852" x2="12.0002" y2="20.6859" gradientUnits="userSpaceOnUse">
<stop stop-color="#EAE8D8"/>
<stop offset="1" stop-color="#AEAB9C"/>
</linearGradient>
</defs>
</svg>
