<svg width="24" height="24" viewBox="0 0 24 24" fill="none" xmlns="http://www.w3.org/2000/svg">
<path d="M14.625 15C14.9854 15.6306 15.75 16.485 15.75 17.25C15.75 17.8713 15.2463 18.375 14.625 18.375C14.0037 18.375 13.5 17.8713 13.5 17.25C13.5 16.4385 14.2431 15.6684 14.625 15Z" fill="url(#paint0_linear_340_1681)"/>
<path d="M10.4531 13.5C10.8135 14.1306 11.5781 14.985 11.5781 15.75C11.5781 16.3713 11.0744 16.875 10.4531 16.875C9.8318 16.875 9.32812 16.3713 9.32812 15.75C9.32812 14.9385 10.0712 14.1684 10.4531 13.5Z" fill="url(#paint1_linear_340_1681)"/>
<path fill-rule="evenodd" clip-rule="evenodd" d="M11.7891 5.34375C13.0709 5.34375 14.2062 5.96686 14.9097 6.92683C15.1499 6.87249 15.3998 6.84375 15.6562 6.84375C17.6004 6.84375 19.0135 8.47199 19.0253 10.2304C19.9628 10.8718 20.5781 11.9491 20.5781 13.1719C20.5781 15.1394 18.9831 16.7344 17.0156 16.7344H16.6164C16.5041 16.2649 16.2818 15.8675 16.1193 15.6002C16.0626 15.5068 16.0037 15.415 15.9466 15.3281C16.3029 15.3281 16.6593 15.3281 17.0156 15.3281C18.2065 15.3281 19.1719 14.3627 19.1719 13.1719C19.1719 12.1255 18.4266 11.2534 17.4379 11.0571C18.0338 9.79278 17.0812 8.25 15.6562 8.25C15.0929 8.25 14.5848 8.48664 14.226 8.86592C14.0582 7.67013 13.0311 6.75 11.7891 6.75C10.3837 6.75 9.24144 7.97645 9.33353 9.37505C9.33173 9.37504 9.32993 9.375 9.32812 9.375C8.31991 9.375 7.49764 10.1708 7.45496 11.1685C6.08173 10.6205 4.5 11.667 4.5 13.1719C4.5 14.3627 5.46539 15.3281 6.65625 15.3281C7.26137 15.3281 7.86649 15.3281 8.4716 15.3281C8.42174 15.5271 8.39062 15.7407 8.39062 15.966C8.39063 16.2357 8.43755 16.4943 8.52342 16.7344H6.65625C4.68874 16.7344 3.09375 15.1394 3.09375 13.1719C3.09375 11.2032 4.68943 9.72715 6.47987 9.62018C6.83574 8.99942 7.38851 8.50617 8.05312 8.22565C8.49445 6.58806 9.99928 5.34375 11.7891 5.34375ZM9.34772 7.96889C9.34782 7.96889 9.34795 7.96889 9.34795 7.96889C9.34774 7.96888 9.34715 7.96885 9.34634 7.96884C9.34572 7.96884 9.34484 7.9688 9.34378 7.9688C9.34579 7.96882 9.34731 7.96888 9.34772 7.96889Z" fill="url(#paint2_linear_340_1681)"/>
<path d="M12.8593 15.3493C12.8575 15.3422 12.8557 15.3352 12.8538 15.3281C12.8604 15.3281 12.867 15.3281 12.8736 15.3281C12.8688 15.3352 12.864 15.3422 12.8593 15.3493Z" fill="url(#paint3_linear_340_1681)"/>
<path d="M12.9375 10.875C13.2979 11.5056 14.0625 12.36 14.0625 13.125C14.0625 13.7463 13.5588 14.25 12.9375 14.25C12.3162 14.25 11.8125 13.7463 11.8125 13.125C11.8125 12.3135 12.5556 11.5434 12.9375 10.875Z" fill="url(#paint4_linear_340_1681)"/>
<defs>
<linearGradient id="paint0_linear_340_1681" x1="11.8359" y1="5.34375" x2="11.8359" y2="18.375" gradientUnits="userSpaceOnUse">
<stop stop-color="#EAE8D8"/>
<stop offset="1" stop-color="#AEAB9C"/>
</linearGradient>
<linearGradient id="paint1_linear_340_1681" x1="11.8359" y1="5.34375" x2="11.8359" y2="18.375" gradientUnits="userSpaceOnUse">
<stop stop-color="#EAE8D8"/>
<stop offset="1" stop-color="#AEAB9C"/>
</linearGradient>
<linearGradient id="paint2_linear_340_1681" x1="11.8359" y1="5.34375" x2="11.8359" y2="18.375" gradientUnits="userSpaceOnUse">
<stop stop-color="#EAE8D8"/>
<stop offset="1" stop-color="#AEAB9C"/>
</linearGradient>
<linearGradient id="paint3_linear_340_1681" x1="11.8359" y1="5.34375" x2="11.8359" y2="18.375" gradientUnits="userSpaceOnUse">
<stop stop-color="#EAE8D8"/>
<stop offset="1" stop-color="#AEAB9C"/>
</linearGradient>
<linearGradient id="paint4_linear_340_1681" x1="11.8359" y1="5.34375" x2="11.8359" y2="18.375" gradientUnits="userSpaceOnUse">
<stop stop-color="#EAE8D8"/>
<stop offset="1" stop-color="#AEAB9C"/>
</linearGradient>
</defs>
</svg>
