<svg width="24" height="24" viewBox="0 0 24 24" fill="none" xmlns="http://www.w3.org/2000/svg">
<g clip-path="url(#clip0_340_1700)">
<path fill-rule="evenodd" clip-rule="evenodd" d="M13.1589 4.45594C13.2616 4.42757 13.3635 4.43544 13.4611 4.47692C13.5065 4.49626 13.5384 4.52735 13.5378 4.58401C13.5361 4.73386 13.5375 4.88373 13.5391 5.03358C13.5395 5.06764 13.5434 5.10197 13.549 5.13558C13.5552 5.17236 13.5459 5.20609 13.5401 5.24169C13.535 5.27323 13.5628 5.31201 13.5536 5.34066C13.5337 5.40247 13.5437 5.46595 13.53 5.52749C13.5244 5.55261 13.5308 5.58107 13.5357 5.60737C13.5406 5.63397 13.5384 5.65661 13.5251 5.67962C13.5232 5.55637 13.5217 5.59942 13.52 5.68762C13.5218 5.68494 13.5235 5.68228 13.5251 5.67962C13.5256 5.71827 13.5263 5.77327 13.5269 5.84835C13.5271 5.87176 13.5234 5.89545 13.5256 5.91868C13.5265 5.92862 13.5357 5.94259 13.5446 5.94603C13.5601 5.95199 13.5734 5.94261 13.5775 5.92608C13.5831 5.90331 13.586 5.8798 13.5925 5.8573C13.6032 5.82051 13.617 5.80976 13.6553 5.80859C13.6829 5.80777 13.7109 5.8074 13.738 5.81128C13.7794 5.81716 13.7936 5.83614 13.7948 5.87699C13.7961 5.92028 13.7984 5.96349 13.7996 6.00668C13.8002 6.0291 13.8066 6.04536 13.8331 6.04735C13.861 6.04943 13.87 6.06726 13.8691 6.09229C13.868 6.12292 13.8695 6.15401 13.8653 6.18428C13.8594 6.22784 13.8397 6.24313 13.7951 6.24395C13.7657 6.24449 13.7361 6.24474 13.7068 6.24266C13.6818 6.24085 13.6759 6.25208 13.6744 6.27404C13.6697 6.34116 13.669 6.34117 13.6016 6.34252C13.5754 6.34307 13.5617 6.35603 13.5604 6.38139C13.5577 6.43236 13.5829 6.45806 13.6362 6.45848C13.6509 6.45857 13.6656 6.45931 13.6804 6.45895C13.7054 6.45832 13.7164 6.46789 13.7166 6.49426C13.7166 6.51125 13.7262 6.52817 13.7313 6.54516C13.7518 6.61213 13.734 6.67983 13.6582 6.72421C13.633 6.73893 13.6272 6.75403 13.6491 6.7721C13.665 6.78512 13.6869 6.7929 13.7075 6.79796C13.7267 6.80265 13.7479 6.7994 13.7679 6.80202C13.8422 6.81205 13.8786 6.8848 13.8416 6.94824L13.8402 6.95064C13.8315 6.96548 13.8228 6.9804 13.8135 6.9949C13.7792 7.04794 13.7922 7.08618 13.8508 7.10687L13.8566 7.10888C13.901 7.12456 13.9455 7.1403 13.9887 7.15884C14.0147 7.16995 14.0334 7.19092 14.0371 7.22047C14.0389 7.23475 14.0388 7.24929 14.039 7.26375C14.0416 7.47686 14.0428 7.69 14.0472 7.90311C14.0509 8.0835 14.0582 8.2638 14.0638 8.44419C14.0676 8.56503 14.0709 8.68595 14.0747 8.80679C14.0806 8.99622 14.0872 9.18557 14.0928 9.37501C14.0987 9.5807 14.1037 9.78642 14.1092 9.99211C14.1127 10.1311 14.1162 10.27 14.1199 10.409C14.122 10.4848 14.124 10.5604 14.1272 10.6361C14.129 10.6774 14.1083 10.7048 14.0735 10.7232C14.0427 10.7394 14.0116 10.7553 13.9791 10.7677C13.9588 10.7755 13.9484 10.7856 13.9492 10.8068C13.9495 10.814 13.9502 10.822 13.9475 10.8284C13.9163 10.8999 13.9203 10.9709 13.9419 11.0447C13.9523 11.0803 13.9486 11.1199 13.9497 11.1578C13.9504 11.1832 13.937 11.1984 13.9103 11.2006C13.8701 11.2041 13.83 11.2089 13.7897 11.2106C13.7635 11.2116 13.7546 11.223 13.7536 11.2472C13.7522 11.286 13.7586 11.3042 13.7844 11.3071C13.8076 11.3097 13.8325 11.3088 13.8551 11.3037C13.9421 11.2836 14.0013 11.3103 14.0375 11.3912C14.0583 11.438 14.0826 11.4812 14.1199 11.518C14.1722 11.5695 14.235 11.5962 14.3072 11.5982C14.4526 11.6022 14.5981 11.6036 14.7437 11.6044C14.8006 11.6047 14.8578 11.6028 14.9143 11.5967C14.9381 11.5942 14.961 11.5792 14.9833 11.568C14.9945 11.5623 15.0026 11.5511 15.0134 11.5444C15.0417 11.5267 15.0628 11.5306 15.0763 11.5603C15.0904 11.5914 15.101 11.6244 15.109 11.6576C15.114 11.679 15.1222 11.6885 15.1451 11.688C15.2296 11.6861 15.3143 11.6875 15.3987 11.6835C15.4941 11.679 15.5896 11.6732 15.6844 11.6623C15.7917 11.65 15.8984 11.6331 16.0052 11.6163L16.0221 11.6136C16.0782 11.6048 16.134 11.5929 16.1896 11.5808C16.2668 11.564 16.344 11.5475 16.4204 11.5276C16.6355 11.4717 16.8503 11.4145 17.0648 11.3564C17.0937 11.3485 17.1278 11.3473 17.1467 11.317C17.1492 11.3131 17.1572 11.3084 17.1603 11.3096C17.1963 11.3236 17.2281 11.3052 17.2616 11.2992C17.2696 11.2978 17.2826 11.3041 17.2881 11.3109C17.3285 11.361 17.3529 11.4194 17.3721 11.4796C17.3763 11.4927 17.3723 11.5082 17.3739 11.5223C17.3778 11.558 17.3792 11.5944 17.3879 11.6291C17.4076 11.7077 17.431 11.7855 17.4529 11.8636C17.4705 11.9263 17.4881 11.9888 17.5057 12.0514C17.5091 12.0636 17.5146 12.0755 17.5162 12.0879C17.5212 12.1272 17.5354 12.1608 17.5553 12.1967C17.5848 12.2495 17.5986 12.3113 17.5991 12.374C17.5993 12.3946 17.6063 12.4152 17.611 12.4357C17.6198 12.4742 17.6309 12.5123 17.6381 12.5511C17.6424 12.5746 17.6385 12.5981 17.6147 12.6133C17.6088 12.6171 17.6013 12.6233 17.6005 12.6291C17.5889 12.7137 17.5157 12.7247 17.4536 12.7424C17.2295 12.8062 17.0047 12.8681 16.7793 12.9269L16.7756 12.9278C16.6063 12.972 16.4367 13.0162 16.2649 13.0494C16.0758 13.0859 15.8845 13.1122 15.6935 13.1379C15.599 13.1505 15.5029 13.1522 15.4075 13.1578C15.3629 13.1605 15.362 13.1591 15.3484 13.2027C15.3431 13.2196 15.3409 13.2378 15.3401 13.2555C15.3386 13.2861 15.3407 13.3155 15.3118 13.3392C15.3011 13.3481 15.3009 13.3726 15.3009 13.39C15.3009 13.5001 15.3027 13.6102 15.303 13.7204C15.303 13.7854 15.3002 13.8505 15.3006 13.9156C15.3012 13.9949 15.3035 14.0744 15.3061 14.1537C15.3064 14.1657 15.3088 14.1804 15.3161 14.189C15.3381 14.215 15.3397 14.2445 15.339 14.2758C15.3377 14.3282 15.3375 14.3806 15.3367 14.433C15.3361 14.4674 15.3346 14.5008 15.358 14.5313C15.3667 14.5427 15.3679 14.5624 15.3667 14.5779C15.3645 14.607 15.3757 14.6263 15.4008 14.64C15.4377 14.6601 15.4735 14.6825 15.5115 14.7007C15.5621 14.7249 15.6127 14.7253 15.6647 14.6991C15.6901 14.6863 15.7201 14.6786 15.7486 14.6768C15.8063 14.6732 15.8447 14.7097 15.851 14.767C15.854 14.7938 15.8571 14.8207 15.8615 14.8473C15.8665 14.8776 15.8831 14.8993 15.9111 14.9149C16.0357 14.9844 16.1595 15.0552 16.2837 15.1254C16.3491 15.1624 16.4144 15.1993 16.4801 15.2357C16.527 15.2616 16.5729 15.2692 16.6162 15.2276C16.6404 15.2044 16.6694 15.2027 16.6975 15.2183C16.7327 15.2378 16.7687 15.2573 16.7999 15.282C16.8404 15.3141 16.863 15.359 16.8592 15.4106C16.8547 15.4717 16.8456 15.5325 16.836 15.5931C16.8234 15.6715 16.8122 15.7504 16.7936 15.8275C16.7581 15.975 16.7204 16.1221 16.6778 16.2677C16.664 16.3148 16.6436 16.3628 16.6029 16.3981C16.5503 16.4438 16.4906 16.449 16.4329 16.4105C16.3237 16.3374 16.2156 16.2627 16.1042 16.1929C15.9137 16.0734 15.7201 15.9586 15.5296 15.839C15.3655 15.736 15.2042 15.6286 15.0409 15.5244C14.9735 15.4814 14.9051 15.4394 14.8352 15.4005C14.7654 15.3617 14.6868 15.3657 14.6095 15.3604C14.4583 15.3502 14.3541 15.421 14.2716 15.5361C14.2222 15.6048 14.1999 15.6808 14.199 15.7646C14.1984 15.8239 14.1914 15.8833 14.1895 15.9427C14.1885 15.9751 14.1739 15.9928 14.1425 15.9998C14.1319 16.0022 14.1182 16.0041 14.1124 16.0114C14.0704 16.0632 14.0097 16.0627 13.9517 16.0664C13.9084 16.0692 13.8656 16.0715 13.825 16.0432C13.7975 16.0241 13.7732 16.0429 13.771 16.0776C13.7699 16.0956 13.7697 16.1138 13.7699 16.1319C13.7703 16.1652 13.7684 16.1958 13.734 16.2168C13.7286 16.22 13.7247 16.2272 13.722 16.2354C13.722 16.3356 13.7221 16.4358 13.722 16.5359C13.722 16.5415 13.7219 16.547 13.7219 16.5525C13.7224 16.607 13.7232 16.6092 13.7795 16.6087C13.8836 16.6076 13.9877 16.6051 14.0918 16.6014C14.1044 16.601 14.1209 16.5925 14.1281 16.5827C14.1419 16.5637 14.1622 16.5582 14.1773 16.5674C14.2113 16.5881 14.2561 16.6012 14.2681 16.6442C14.2803 16.6883 14.2913 16.734 14.293 16.7793C14.2962 16.8641 14.2914 16.9492 14.2912 17.0341C14.2911 17.0817 14.2944 17.0841 14.3426 17.0855C14.3692 17.0862 14.3957 17.087 14.4223 17.086C14.4523 17.085 14.4705 17.0983 14.4724 17.1267C14.4767 17.1928 14.4807 17.259 14.4811 17.3254C14.4813 17.3582 14.4703 17.3656 14.4343 17.367C14.4019 17.3682 14.3693 17.3679 14.3368 17.3676L14.3318 17.3675C14.3081 17.3672 14.2974 17.3782 14.2965 17.4008C14.2911 17.5292 14.3147 17.6499 14.3953 17.7556C14.4369 17.8103 14.4778 17.8656 14.5187 17.9209C14.6148 18.051 14.7107 18.1812 14.8063 18.3116C14.8207 18.331 14.8344 18.3511 14.8465 18.372C14.8636 18.4016 14.8591 18.4138 14.8321 18.4315C14.8163 18.4419 14.7807 18.4371 14.788 18.4647C14.7971 18.4988 14.8009 18.5375 14.8373 18.5609C14.8635 18.5778 14.8858 18.6006 14.9099 18.6206C14.9231 18.6316 14.9242 18.6423 14.918 18.6593C14.9121 18.6751 14.9157 18.6949 14.9176 18.7126C14.9198 18.733 14.9341 18.7398 14.9541 18.7382C14.9572 18.7379 14.9627 18.741 14.9634 18.7436C14.9822 18.8039 15.0479 18.8198 15.0841 18.8642C15.1167 18.9043 15.1568 18.9385 15.1935 18.9754C15.2553 19.0374 15.3334 19.0424 15.4145 19.034C15.4667 19.0286 15.522 18.9748 15.5156 18.9245C15.4997 18.7975 15.5744 18.725 15.67 18.6638C15.6908 18.6504 15.7188 18.6434 15.7441 18.6417C15.788 18.6387 15.8147 18.6605 15.8274 18.702C15.8311 18.7143 15.833 18.7273 15.8345 18.7402C15.8517 18.8813 15.8701 19.0223 15.8853 19.1637C15.8933 19.2385 15.8576 19.2964 15.7972 19.3392C15.7739 19.3556 15.7606 19.3729 15.7575 19.4015C15.7513 19.4581 15.706 19.4849 15.661 19.5092C15.638 19.5215 15.6127 19.5313 15.5873 19.5377C14.7351 19.7507 13.8268 19.9266 12.9484 19.955C12.8708 19.9575 12.7928 19.946 12.7228 19.9113C12.6014 19.851 12.5828 19.7959 12.6099 19.6547C12.6213 19.5954 12.6477 19.5389 12.6661 19.4808L12.6663 19.4803C12.6734 19.4577 12.6808 19.4345 12.6821 19.4112C12.6863 19.33 12.6926 19.2486 12.6897 19.1675C12.6776 18.8259 12.698 18.4847 12.6964 18.1433C12.6952 17.8867 12.7001 17.6302 12.703 17.3736C12.7033 17.3442 12.7082 17.3149 12.7105 17.2856C12.7121 17.2654 12.7161 17.2447 12.7134 17.225C12.6934 17.072 12.7099 16.919 12.7104 16.766C12.7106 16.7013 12.7184 16.6363 12.7131 16.5722C12.695 16.3526 12.7155 16.1332 12.7137 15.9137C12.7133 15.8714 12.7158 15.832 12.7538 15.8079C12.7264 15.8032 12.722 15.7943 12.7217 15.7615C12.7212 15.7109 12.7227 15.6603 12.7228 15.6096C12.7228 15.5884 12.7262 15.565 12.6933 15.5615C12.6865 15.5608 12.6756 15.5503 12.6754 15.5439C12.6744 15.5098 12.6488 15.5063 12.6238 15.4985C12.517 15.4648 12.4106 15.43 12.3042 15.3949C12.2905 15.3904 12.2781 15.3822 12.2652 15.3754C12.2411 15.3628 12.2182 15.3471 12.1929 15.3383C12.1663 15.3291 12.155 15.3158 12.1544 15.2875C12.1532 15.2231 12.1519 15.2231 12.0856 15.2224H12.0847C12.0221 15.2217 11.9594 15.2202 11.8968 15.2197C11.8641 15.2194 11.8379 15.2101 11.8139 15.1852C11.7738 15.1434 11.7294 15.1059 11.6996 15.0546C11.6884 15.0353 11.6779 15.0189 11.6786 14.9959C11.6835 14.8552 11.6874 14.7143 11.6922 14.5736C11.6927 14.5612 11.693 14.544 11.7007 14.5377C11.7309 14.5127 11.7236 14.4799 11.7264 14.4484C11.7378 14.3206 11.7505 14.193 11.7619 14.0652C11.7755 13.9122 11.7884 13.7593 11.8012 13.6063C11.8138 13.4551 11.8259 13.3039 11.8382 13.1527C11.8434 13.0897 11.8488 13.0267 11.8535 12.9636C11.8684 12.7655 11.8836 12.5675 11.8976 12.3693C11.9067 12.2414 11.9102 12.1131 11.9229 11.9856C11.9376 11.8366 11.958 11.6881 11.9789 11.5398C11.9876 11.4775 12.0209 11.4248 12.065 11.3794C12.0915 11.3521 12.1225 11.3384 12.1627 11.3385C12.3026 11.3392 12.4426 11.3382 12.5825 11.335C12.6146 11.3343 12.6466 11.323 12.6783 11.3155C12.6849 11.314 12.6935 11.3091 12.6956 11.3037C12.7082 11.2703 12.7292 11.2361 12.7287 11.2025C12.7271 11.084 12.7537 10.97 12.7743 10.8548C12.7769 10.8403 12.7901 10.8275 12.7983 10.8139C12.8137 10.7884 12.8066 10.7728 12.7765 10.769C12.7402 10.7644 12.7036 10.7603 12.667 10.7582C12.6063 10.7549 12.5591 10.7101 12.5598 10.6509C12.5619 10.4653 12.5649 10.2798 12.5678 10.0942L12.5686 10.0437C12.5695 9.99308 12.5717 9.94256 12.5728 9.89195C12.5836 9.37535 12.5952 8.85883 12.6046 8.34223C12.6108 8.00431 12.6142 7.66639 12.6182 7.32838C12.6186 7.29368 12.6199 7.26031 12.638 7.22895C12.645 7.21693 12.6474 7.20174 12.6495 7.18764C12.6571 7.13786 12.6787 7.11789 12.7307 7.10858C12.7585 7.10358 12.7857 7.09481 12.8128 7.08611L12.8151 7.08534C12.82 7.08381 12.824 7.07488 12.8251 7.06873C12.8256 7.06584 12.819 7.05925 12.8147 7.05833C12.7214 7.03827 12.6726 6.95919 12.6058 6.90497C12.4626 6.78892 12.3231 6.66843 12.182 6.54995C12.1038 6.48434 12.0254 6.41891 11.9468 6.35357C11.9132 6.32564 11.8789 6.2985 11.8453 6.27048C11.7938 6.22746 11.782 6.17109 11.7915 6.10873C11.7955 6.08207 11.8054 6.0562 11.8083 6.02954C11.8166 5.95662 11.8951 5.90657 11.9617 5.90665C12.0041 5.90665 12.0465 5.90746 12.0889 5.90836C12.2251 5.91144 12.3614 5.9147 12.4976 5.91787V5.91551L12.4974 5.91478C12.6668 5.91759 12.8362 5.92029 13.0057 5.92309C13.0149 5.92327 13.0241 5.92382 13.0333 5.92373C13.0669 5.92321 13.0823 5.92146 13.0894 5.90905C13.0887 6.00666 13.089 6.05583 13.0922 5.90216C13.0948 5.89312 13.0953 5.88022 13.0953 5.86179C13.0954 5.81817 13.0953 5.78129 13.0953 5.75042C13.0957 5.74116 13.097 5.73105 13.0952 5.72277C13.0948 5.55362 13.0931 5.60923 13.0915 5.71356C13.0504 5.63792 13.0847 5.55986 13.083 5.48311C13.0827 5.46874 13.0864 5.45419 13.0853 5.43992C13.0845 5.42989 13.0816 5.41686 13.0746 5.4109C13.0359 5.37746 13.0367 5.3336 13.0424 5.29049C13.0459 5.2632 13.05 5.23771 13.0403 5.21087C13.0362 5.19949 13.0379 5.18586 13.0379 5.17321C13.0372 5.04505 13.0372 4.91677 13.0358 4.78861C13.0354 4.75808 13.0303 4.72755 13.0272 4.69701C13.0251 4.67722 13.0225 4.65748 13.0205 4.63769C13.0092 4.5316 13.0848 4.47628 13.1589 4.45594ZM15.0183 13.2535C14.8416 13.2048 14.6732 13.2723 14.5925 13.435C14.5747 13.4707 14.5642 13.5084 14.5642 13.5495C14.5642 13.647 14.561 13.7445 14.5597 13.842C14.5594 13.8608 14.5547 13.8823 14.5826 13.8903C14.6613 13.9127 14.7397 13.9224 14.8219 13.9052C14.914 13.8859 14.9896 13.8438 15.0493 13.7727C15.06 13.7601 15.0692 13.7384 15.093 13.7556C15.1132 13.7701 15.1156 13.7873 15.0996 13.8121C15.0908 13.8257 15.0805 13.8386 15.0713 13.852C14.9991 13.9579 14.9 14.0251 14.7715 14.0453C14.7157 14.0541 14.6584 14.0536 14.6017 14.0565C14.5672 14.0582 14.559 14.0632 14.567 14.0937C14.5788 14.1389 14.5921 14.1845 14.6121 14.2267C14.6317 14.2681 14.6682 14.2964 14.7102 14.3182C14.825 14.3775 14.982 14.3481 15.068 14.2624C15.0988 14.2318 15.123 14.1947 15.1549 14.1654C15.1777 14.1444 15.1841 14.1227 15.184 14.0941C15.1829 13.9804 15.1836 13.8667 15.1836 13.7529H15.1859V13.417C15.1859 13.3747 15.1859 13.3326 15.1312 13.319C15.1231 13.317 15.1173 13.3074 15.1094 13.3029C15.0793 13.2857 15.0509 13.2624 15.0183 13.2535ZM12.5939 11.7489C12.5406 11.7489 12.487 11.7457 12.4338 11.7491C12.3493 11.7545 12.3047 11.8021 12.3042 11.8861C12.3038 11.9707 12.3078 12.0555 12.3087 12.1402C12.3112 12.3567 12.3135 12.5733 12.3151 12.7899C12.3163 12.9614 12.3151 13.1329 12.3174 13.3044C12.3192 13.445 12.3264 13.5855 12.3278 13.7261C12.3291 13.8562 12.3249 13.9863 12.3248 14.1164C12.3248 14.145 12.3277 14.1747 12.3363 14.2017C12.3513 14.2483 12.3852 14.2794 12.4363 14.2824C12.4895 14.2857 12.543 14.2835 12.5965 14.2833C12.6188 14.2832 12.6353 14.2747 12.6416 14.2515C12.6526 14.2107 12.6737 14.1754 12.7024 14.1437C12.7114 14.1338 12.7172 14.1183 12.7188 14.1048C12.7239 14.0603 12.7262 14.0155 12.7298 13.9707C12.731 13.9566 12.7284 13.9355 12.7364 13.9299C12.7634 13.9109 12.7571 13.8846 12.7571 13.8609C12.7573 13.7419 12.7554 13.6228 12.7546 13.5038C12.7535 13.3289 12.7528 13.154 12.752 12.979C12.7519 12.9502 12.752 12.9212 12.752 12.8924L12.7519 12.8923H12.7505C12.7505 12.8453 12.7508 12.7984 12.7505 12.7514C12.7494 12.6325 12.7475 12.5135 12.747 12.3945C12.7468 12.3494 12.7517 12.3041 12.7498 12.2591C12.7473 12.1976 12.7576 12.1328 12.713 12.0791C12.7098 12.0754 12.7093 12.0687 12.7094 12.0636C12.7103 12.0298 12.691 12.0062 12.6691 11.9834C12.6348 11.9478 12.6165 11.9057 12.6177 11.8561C12.6183 11.829 12.6177 11.8019 12.6194 11.7749C12.6206 11.7557 12.612 11.7489 12.5939 11.7489ZM12.8978 11.312C12.8988 11.3131 12.8998 11.3142 12.9007 11.3154C12.9018 11.3144 12.9038 11.3134 12.9039 11.3124C12.9039 11.3114 12.9022 11.3101 12.9011 11.309C12.9 11.31 12.8989 11.311 12.8978 11.312ZM12.9002 11.2862L12.9019 11.2828L12.8987 11.2826L12.9002 11.2862ZM12.8888 11.2428C12.8889 11.2437 12.8899 11.2445 12.8905 11.2453C12.8907 11.2439 12.8912 11.2426 12.891 11.2413C12.8909 11.2404 12.8899 11.2397 12.8894 11.2389C12.8892 11.2402 12.8886 11.2416 12.8888 11.2428ZM12.5766 6.11044C12.5359 6.10981 12.5299 6.11488 12.5171 6.15158C12.4989 6.20426 12.4694 6.22631 12.4116 6.22956C12.3694 6.23191 12.3271 6.23298 12.2849 6.23551C12.2417 6.23805 12.2316 6.25037 12.2273 6.29176C12.2231 6.33233 12.2397 6.36063 12.2707 6.38494C12.3267 6.42886 12.382 6.47348 12.437 6.51858C12.5315 6.59603 12.6256 6.67396 12.7199 6.75169C12.7674 6.79091 12.824 6.78158 12.8551 6.72844C12.8651 6.71136 12.8651 6.6978 12.8447 6.68316C12.8016 6.65224 12.791 6.55999 12.8289 6.52474C12.8527 6.50269 12.8567 6.48 12.8568 6.45261C12.8569 6.41475 12.8568 6.37679 12.8568 6.33893H12.8611C12.8611 6.29735 12.8622 6.25585 12.8608 6.21437C12.8589 6.15834 12.8207 6.11912 12.7642 6.11613C12.7017 6.11288 12.6391 6.11152 12.5766 6.11044ZM13.5191 5.68899C13.5078 5.70499 13.5034 5.72893 13.5036 5.74918C13.5119 6.24203 13.5163 5.86919 13.52 5.68762C13.5197 5.68806 13.5194 5.68855 13.5191 5.68899Z" fill="url(#paint0_linear_340_1700)"/>
<path d="M13.0929 5.71617C13.094 5.71817 13.0947 5.72041 13.0952 5.72277C13.0952 5.73139 13.0953 5.7406 13.0953 5.75042C13.0952 5.75152 13.0951 5.75264 13.0951 5.75371C13.094 5.81639 13.0929 5.86515 13.0922 5.90216C13.0914 5.90477 13.0905 5.90704 13.0894 5.90905C13.0898 5.85021 13.0906 5.77377 13.0915 5.71356C13.092 5.71443 13.0924 5.71531 13.0929 5.71617Z" fill="url(#paint1_linear_340_1700)"/>
<path fill-rule="evenodd" clip-rule="evenodd" d="M10.1555 3.5625C10.1992 3.66148 10.2372 3.74437 10.2723 3.82848C10.2799 3.84652 10.2794 3.86823 10.2799 3.88822C10.2916 4.3619 10.3032 4.88054 10.3142 5.35422C10.3149 5.39078 10.3157 5.42759 10.3125 5.46391C10.3054 5.54557 10.3422 5.58484 10.4238 5.58801C10.5339 5.59216 10.6438 5.59995 10.7538 5.6036C10.8397 5.60628 10.9022 5.62142 10.9044 5.73159C10.9068 5.84665 10.8353 5.84424 10.7553 5.85984C10.5977 5.89056 10.4417 5.93078 10.2868 5.9732C10.1759 6.00343 10.1389 6.09341 10.1374 6.19726C10.1345 6.39619 10.122 6.14967 10.1416 6.34665C10.1531 6.46074 10.1899 6.6336 10.2664 6.66821C10.5221 6.78377 10.6214 6.95564 10.5908 7.22161C10.5873 7.25233 10.6038 7.285 10.6045 7.31694C10.6134 7.66239 10.62 8.00808 10.63 8.35378C10.6307 8.3779 10.6464 8.41446 10.6656 8.42325C10.757 8.46567 10.7661 8.54689 10.7686 8.62831C10.7852 9.15587 10.8009 10.1306 10.8125 10.6584C10.8137 10.7161 10.7968 10.7791 10.771 10.8312C10.7419 10.8905 10.7612 10.9119 10.8063 10.9495C10.8473 10.9836 10.8885 11.0414 10.8922 11.0916C10.9042 11.2488 10.8938 11.4078 10.9007 11.5655C10.9083 11.7374 10.8897 11.9098 10.9711 12.0777C10.9971 12.1311 10.9348 12.2321 10.8985 12.3042C10.893 12.3152 10.8082 12.2864 10.7573 12.2752C10.756 12.2918 10.7529 12.3157 10.7529 12.3396C10.7438 13.3871 10.72 14.435 10.7345 15.482C10.7391 15.8275 10.6065 16.034 10.3169 16.1756L10.3152 16.1764C10.279 16.1937 10.2351 16.2024 10.2075 16.2283C10.1429 16.2503 10.0686 16.2656 9.98966 16.275V20.0022H10.0273C10.0561 20.0022 10.0837 20.0048 10.1102 20.0084C10.2474 20.027 10.3488 20.0897 10.3488 20.165V20.321C10.3488 20.3969 10.2078 20.4522 10.0622 20.434C9.25876 20.3337 8.49277 20.323 7.7734 20.4244C7.62422 20.4454 7.47582 20.3909 7.47582 20.3125V20.1649C7.47585 20.0751 7.61987 20.0022 7.79746 20.0022H7.87983V19.9406C7.87983 19.871 7.98581 19.8112 8.13287 19.7977L9.54288 19.6601V16.2815C9.30894 16.2649 9.18277 16.2111 9.10269 16.1403C9.07866 16.1364 9.05215 16.1342 9.03229 16.122C8.92171 16.0545 8.80793 16.0664 8.69048 16.0988C8.61619 16.1195 8.53848 16.129 8.46468 16.151C8.19202 16.2322 7.92059 16.3178 7.64793 16.3997C7.56432 16.4248 7.45152 16.4835 7.40297 16.3875C7.31421 16.2122 7.24114 16.0237 7.1975 15.8329C7.16317 15.682 7.26173 15.6181 7.41866 15.6293C7.53022 15.6373 7.64867 15.6373 7.75533 15.6085C8.02234 15.5366 8.28445 15.4467 8.54827 15.3628C8.58701 15.3506 8.62674 15.3377 8.66107 15.3172C8.77509 15.249 8.77098 14.9324 8.68785 14.8308C8.64691 14.7806 8.62162 14.6647 8.61745 14.6021C8.60127 14.3585 8.61842 14.1179 8.7192 13.8885C8.73783 13.8461 8.72018 13.6092 8.7192 13.5582C8.68144 13.5602 8.6439 13.5634 8.60614 13.5636C8.5804 13.5638 8.55464 13.5599 8.5289 13.558C8.52596 13.5497 8.52329 13.5411 8.52035 13.5329C8.63461 13.4648 8.74889 13.3968 8.87859 13.3198L8.87881 13.3195C8.844 13.3054 8.81286 13.2884 8.77952 13.2796C7.50773 12.9434 6.43239 11.5989 6.43239 11.5989C6.43105 11.5976 6.33161 11.4974 6.39759 11.411C6.60198 11.1433 6.79149 10.9146 7.01794 10.6637C7.08978 10.584 7.24134 10.6389 7.24134 10.6389C7.24584 10.6437 8.52747 12.0113 9.30768 12.1189C9.3349 12.1226 9.39423 12.0784 9.39619 12.0535C9.41237 11.8395 9.41974 11.893 9.42661 11.6783C9.42735 11.6529 9.41653 11.6146 9.3979 11.6032C9.23165 11.5008 9.26106 11.3518 9.31745 11.2148C9.4707 10.8413 9.48889 10.4503 9.49649 10.0561C9.50262 9.73573 9.50356 9.14635 9.52612 8.827C9.54034 8.62783 9.55213 8.42084 9.69214 8.25238C9.71445 8.22532 9.71888 8.17729 9.71888 8.13902C9.72035 7.68386 9.72084 7.22893 9.71888 6.77402C9.71839 6.65798 9.61639 6.54219 9.7184 6.4259C9.69388 6.14628 9.77552 6.30793 9.67302 6.0322C9.6664 6.01465 9.66419 5.98734 9.67351 5.9732C9.74461 5.86423 9.69189 5.69747 9.83803 5.6236C9.84023 5.62238 9.83609 5.60851 9.83413 5.59535C9.79931 5.5856 9.76251 5.57535 9.71984 5.56365C9.71984 5.51294 9.7179 5.46856 9.7201 5.42443C9.73408 5.14213 9.75443 4.81534 9.76228 4.53279C9.77135 4.20879 9.7255 3.88016 9.87384 3.5625H10.1555ZM8.54858 19.8411C8.48556 19.8411 8.43443 19.8649 8.43443 19.8941C8.43445 19.9234 8.48557 19.9471 8.54858 19.9471H9.3641C9.42711 19.9471 9.47828 19.9234 9.4783 19.8941C9.4783 19.8649 9.42712 19.8411 9.3641 19.8411H8.54858ZM9.252 13.907C9.10979 13.9046 9.05305 13.8958 8.9123 13.9141C8.87234 13.9195 8.8369 14.0022 8.82537 14.0483C8.79031 14.1892 8.81406 14.3287 8.80008 14.4731C8.7861 14.6167 8.76706 14.7788 8.92177 14.8054C9.03284 14.8244 9.13822 14.8032 9.25174 14.8054C9.26768 14.8056 9.28415 14.7854 9.30058 14.7744L9.30005 14.7742C9.25518 14.6813 9.20173 14.6257 9.08967 14.6199C8.96046 14.613 8.85749 14.4948 8.87294 14.3539C8.88152 14.3753 8.88838 14.3978 8.89942 14.418C8.95728 14.5223 9.06319 14.5838 9.162 14.5448C9.23287 14.5167 9.29515 14.4095 9.31526 14.3263C9.34248 14.2147 9.32974 14.0923 9.32385 13.975C9.32263 13.9502 9.2775 13.9075 9.252 13.907ZM10.2348 6.98175C10.1504 6.98126 10.1173 7.05488 10.1193 7.14532C10.1216 7.24453 10.1208 7.34386 10.1199 7.44318C10.119 7.55448 10.118 7.6658 10.1215 7.77697C10.1247 7.884 10.1455 7.99127 10.1686 8.09609C10.1735 8.11804 10.2213 8.14046 10.2512 8.14339C10.2669 8.14483 10.3012 8.10487 10.302 8.08269C10.3056 7.97958 10.3052 7.87633 10.3047 7.77304C10.3046 7.73861 10.3044 7.70416 10.3044 7.66973C10.3029 7.66973 10.3014 7.66959 10.2999 7.66946C10.2983 7.66934 10.2968 7.6692 10.2953 7.6692V7.66898C10.3006 7.58452 10.3059 7.49998 10.3113 7.41545C10.3166 7.33092 10.3219 7.24635 10.3272 7.16187C10.3272 7.16059 10.3274 7.15921 10.3276 7.15781C10.3279 7.15497 10.3284 7.15207 10.3272 7.14995C10.3177 7.13153 10.3081 7.10829 10.2986 7.08502C10.2774 7.03347 10.2562 6.98175 10.2348 6.98175ZM10.1242 4.14494C10.1734 3.96965 10.1477 3.94893 9.90913 3.97891C9.88315 4.16734 9.89321 4.17467 10.1242 4.14494Z" fill="url(#paint2_linear_340_1700)"/>
<path d="M7.03467 15.679H8.5635C8.7059 15.679 8.82131 15.5635 8.82131 15.4211C8.82131 15.2787 8.7059 15.1633 8.5635 15.1633H7.03467C6.89226 15.1633 6.77686 15.2787 6.77686 15.4211C6.77686 15.5635 6.89226 15.679 7.03467 15.679Z" fill="black"/>
</g>
<defs>
<linearGradient id="paint0_linear_340_1700" x1="12.0073" y1="3.5625" x2="12.0073" y2="20.4375" gradientUnits="userSpaceOnUse">
<stop stop-color="#EAE8D8"/>
<stop offset="1" stop-color="#AEAB9C"/>
</linearGradient>
<linearGradient id="paint1_linear_340_1700" x1="12.0073" y1="3.5625" x2="12.0073" y2="20.4375" gradientUnits="userSpaceOnUse">
<stop stop-color="#EAE8D8"/>
<stop offset="1" stop-color="#AEAB9C"/>
</linearGradient>
<linearGradient id="paint2_linear_340_1700" x1="12.0073" y1="3.5625" x2="12.0073" y2="20.4375" gradientUnits="userSpaceOnUse">
<stop stop-color="#EAE8D8"/>
<stop offset="1" stop-color="#AEAB9C"/>
</linearGradient>
<clipPath id="clip0_340_1700">
<rect width="24" height="24" fill="white"/>
</clipPath>
</defs>
</svg>
