<svg width="24" height="24" viewBox="0 0 24 24" fill="none" xmlns="http://www.w3.org/2000/svg">
<path d="M5.44388 10.5762C6.14228 11.0813 7.05489 11.2147 7.87976 10.9115L8.54223 11.574C8.5252 11.7136 8.51641 11.8558 8.51641 12C8.51641 13.9239 10.0761 15.4836 12 15.4836C12.1442 15.4836 12.2864 15.4748 12.426 15.4577L13.0884 16.1202C12.7852 16.9451 12.9187 17.8576 13.4238 18.556L13.1309 18.6774C13.0141 18.7258 12.9379 18.8398 12.9379 18.9662V19.7264C12.9379 19.8991 12.7979 20.0391 12.6253 20.0391H11.3747C11.2021 20.0391 11.0621 19.8991 11.0621 19.7264V18.9662C11.0621 18.8398 10.9859 18.7258 10.8691 18.6774L8.07799 17.5213C7.96117 17.4729 7.82668 17.4996 7.73727 17.5891L7.19977 18.1266C7.07768 18.2487 6.87969 18.2487 6.7576 18.1266L5.87336 17.2423C5.75129 17.1202 5.75129 16.9223 5.87336 16.8002L6.41091 16.2626C6.50031 16.1732 6.52707 16.0387 6.47868 15.9219L5.32259 13.1309C5.2742 13.0141 5.16021 12.9379 5.03377 12.9379H4.27357C4.10091 12.9379 3.96094 12.7979 3.96094 12.6253V11.3747C3.96094 11.2021 4.10091 11.0621 4.27357 11.0621H5.03377C5.16021 11.0621 5.2742 10.9859 5.32259 10.8691L5.44388 10.5762Z" fill="url(#paint0_linear_340_1679)"/>
<path d="M12.6253 3.96094C12.7979 3.96094 12.9379 4.10091 12.9379 4.27357V5.03377C12.9379 5.16021 13.0141 5.2742 13.1309 5.32259L15.9219 6.47868C16.0387 6.52707 16.1732 6.50035 16.2626 6.41095L16.8002 5.8734C16.9223 5.75132 17.1202 5.75133 17.2423 5.8734L18.1266 6.75764C18.2486 6.87974 18.2487 7.07772 18.1266 7.19981L17.5891 7.73727C17.4996 7.82668 17.4729 7.96117 17.5213 8.07799L18.6774 10.8691C18.7258 10.9859 18.8398 11.0621 18.9662 11.0621H19.7264C19.8991 11.0621 20.0391 11.2021 20.0391 11.3747V12.6253C20.0391 12.7979 19.8991 12.9379 19.7264 12.9379H18.9662C18.8398 12.9379 18.7258 13.0141 18.6774 13.1309L18.556 13.4238C17.8576 12.9188 16.9451 12.7852 16.1202 13.0884L15.4577 12.426C15.4748 12.2864 15.4836 12.1442 15.4836 12C15.4836 10.0761 13.9239 8.51641 12 8.51641C11.8558 8.51641 11.7136 8.52524 11.574 8.54227L10.9115 7.87976C11.2147 7.05488 11.0812 6.14232 10.5762 5.44392L10.8691 5.32259C10.9859 5.2742 11.0621 5.16021 11.0621 5.03377V4.27357C11.0621 4.10091 11.2021 3.96094 11.3747 3.96094H12.6253Z" fill="url(#paint1_linear_340_1679)"/>
<path d="M7.20539 4.70797C7.9835 4.59358 8.76986 4.85392 9.32598 5.41004L9.6742 5.75826C10.1527 6.23674 10.3069 6.95094 10.0685 7.58423C9.94934 7.90087 10.0265 8.25798 10.2657 8.49722L15.5028 13.7343C15.742 13.9735 16.0991 14.0506 16.4158 13.9314C17.0491 13.6931 17.7633 13.8473 18.2418 14.3258L18.59 14.674C19.1461 15.2301 19.4065 16.0165 19.2921 16.7947L19.1986 17.4301L17.816 16.0475L16.4212 16.4213L16.0475 17.816L17.4301 19.1987L16.787 19.2917C16.0111 19.404 15.2277 19.1436 14.6733 18.5893L14.3258 18.2418C13.8473 17.7633 13.6931 17.0491 13.9314 16.4158C14.0506 16.0991 13.9735 15.742 13.7343 15.5028L8.49722 10.2657C8.25798 10.0265 7.90087 9.94938 7.58423 10.0686C6.95094 10.307 6.23674 10.1527 5.75826 9.6742L5.41073 9.32672C4.85636 8.77235 4.59603 7.9889 4.70832 7.21298L4.71085 7.19519L4.80139 6.56988L6.18398 7.95247L7.57878 7.57878L7.95247 6.18398L6.56988 4.80139L7.20539 4.70797Z" fill="url(#paint2_linear_340_1679)"/>
<defs>
<linearGradient id="paint0_linear_340_1679" x1="12" y1="3.96094" x2="12" y2="20.0391" gradientUnits="userSpaceOnUse">
<stop stop-color="#EAE8D8"/>
<stop offset="1" stop-color="#AEAB9C"/>
</linearGradient>
<linearGradient id="paint1_linear_340_1679" x1="12" y1="3.96094" x2="12" y2="20.0391" gradientUnits="userSpaceOnUse">
<stop stop-color="#EAE8D8"/>
<stop offset="1" stop-color="#AEAB9C"/>
</linearGradient>
<linearGradient id="paint2_linear_340_1679" x1="12" y1="3.96094" x2="12" y2="20.0391" gradientUnits="userSpaceOnUse">
<stop stop-color="#EAE8D8"/>
<stop offset="1" stop-color="#AEAB9C"/>
</linearGradient>
</defs>
</svg>
