<svg width="16" height="16" viewBox="0 0 16 16" fill="none" xmlns="http://www.w3.org/2000/svg">
<path d="M9.36719 14.8672C9.8873 14.7643 10.3919 15.0847 10.5264 15.5898C9.73198 15.8541 8.88316 16 8 16C7.11651 16 6.2673 15.8543 5.47266 15.5898C5.60701 15.0846 6.11262 14.7643 6.63281 14.8672C7.07417 14.9545 7.53127 15 8 15C8.46873 15 8.92583 14.9545 9.36719 14.8672Z" fill="black"/>
<path d="M0.845703 11.5801C1.29819 11.317 1.88346 11.4477 2.17871 11.8887C2.69 12.6523 3.34766 13.31 4.11133 13.8213C4.55224 14.1165 4.68182 14.7009 4.41895 15.1533C2.87636 14.3796 1.61921 13.1228 0.845703 11.5801Z" fill="black"/>
<path d="M13.8213 11.8887C14.1164 11.4479 14.7009 11.3175 15.1533 11.5801C14.3797 13.1229 13.1229 14.3797 11.5801 15.1533C11.3175 14.7009 11.4479 14.1164 11.8887 13.8213C12.6523 13.31 13.31 12.6523 13.8213 11.8887Z" fill="black"/>
<path d="M9.58887 8.82227C9.66583 8.8394 9.73405 8.89114 9.79395 8.97656C9.85393 9.06225 9.88477 9.15694 9.88477 9.25977V10.0439C9.88462 10.1467 9.78989 10.288 9.60156 10.4678C9.42161 10.6477 9.26721 10.7681 9.13867 10.8281C9.10453 10.8452 9.07027 10.8535 9.03613 10.8535H8.36719V8.51367L9.58887 8.82227Z" fill="black"/>
<path d="M7.63477 7.26758L6.5166 6.97168C6.43955 6.95453 6.37146 6.90712 6.31152 6.83008C6.26013 6.74443 6.2344 6.65476 6.23438 6.56055V5.82812C6.23438 5.74244 6.32808 5.60453 6.5166 5.41602C6.71358 5.21905 6.86813 5.09536 6.97949 5.04395C7.03065 5.02689 7.06902 5.01766 7.09473 5.01758H7.63477V7.26758Z" fill="black"/>
<path fill-rule="evenodd" clip-rule="evenodd" d="M8 2C11.3137 2 14 4.68629 14 8C14 11.3137 11.3137 14 8 14C4.68629 14 2 11.3137 2 8C2 4.68629 4.68629 2 8 2ZM7.63477 4.01562H7.03125C6.79989 4.01562 6.55492 4.0887 6.29785 4.23438C6.16937 4.31155 5.99815 4.45279 5.78418 4.6582C5.57866 4.86372 5.43751 5.02654 5.36035 5.14648C5.24039 5.31786 5.17969 5.54535 5.17969 5.82812V6.6123C5.17977 6.912 5.26113 7.18622 5.42383 7.43457C5.58664 7.68307 5.81 7.84573 6.09277 7.92285L7.63477 8.32129V10.8535H6.97949C6.93665 10.8535 6.89756 10.8453 6.86328 10.8281C6.75193 10.7681 6.61899 10.6692 6.46484 10.5322C6.31934 10.3867 6.20794 10.2454 6.13086 10.1084L6.01562 9.87695L5 10.1465C5.16254 10.4972 5.27809 10.7199 5.34668 10.8145C5.86924 11.5084 6.40074 11.8563 6.94043 11.8564H7.63477V13H8.36719V11.8564H9.08789C9.31911 11.8563 9.56342 11.7833 9.82031 11.6377C9.94879 11.5606 10.1158 11.4235 10.3213 11.2266C10.5355 11.0209 10.6817 10.8573 10.7588 10.7373C10.8785 10.566 10.9385 10.3391 10.9385 10.0566V9.18262C10.9385 8.89139 10.8529 8.6256 10.6816 8.38574C10.5103 8.13726 10.2827 7.97459 10 7.89746L8.36719 7.45996V5.01758H8.88184C8.91608 5.01759 8.94599 5.02269 8.97168 5.03125C9.08299 5.09121 9.21605 5.19339 9.37012 5.33887C9.52436 5.48454 9.63555 5.62244 9.7041 5.75098L9.83301 6.00781L10.8613 5.71191C10.7157 5.38634 10.5952 5.16803 10.501 5.05664C9.97829 4.36262 9.45117 4.01562 8.91992 4.01562H8.36719V3H7.63477V4.01562Z" fill="black"/>
<path d="M0.40918 5.47266C0.914987 5.60664 1.23578 6.11231 1.13281 6.63281C1.04551 7.07417 1 7.53127 1 8C1 8.46873 1.04551 8.92583 1.13281 9.36719C1.23577 9.88761 0.914847 10.3923 0.40918 10.5264C0.144949 9.73206 0 8.88305 0 8C2.57622e-08 7.11662 0.144762 6.26721 0.40918 5.47266Z" fill="black"/>
<path d="M15.5898 5.47266C15.8543 6.2673 16 7.11651 16 8C16 8.88316 15.8541 9.73198 15.5898 10.5264C15.0847 10.3919 14.7643 9.8873 14.8672 9.36719C14.9545 8.92583 15 8.46873 15 8C15 7.53127 14.9545 7.07417 14.8672 6.63281C14.7643 6.11262 15.0846 5.60701 15.5898 5.47266Z" fill="black"/>
<path d="M4.41895 0.845703C4.68239 1.29825 4.55248 1.88337 4.11133 2.17871C3.34766 2.69 2.69 3.34766 2.17871 4.11133C1.88337 4.55248 1.29825 4.68239 0.845703 4.41895C1.6193 2.87644 2.87644 1.6193 4.41895 0.845703Z" fill="black"/>
<path d="M11.5801 0.845703C13.1228 1.61921 14.3796 2.87636 15.1533 4.41895C14.7009 4.68182 14.1165 4.55224 13.8213 4.11133C13.31 3.34766 12.6523 2.69 11.8887 2.17871C11.4477 1.88346 11.317 1.29819 11.5801 0.845703Z" fill="black"/>
<path d="M8 0C8.88305 0 9.73206 0.144949 10.5264 0.40918C10.3923 0.914847 9.88761 1.23577 9.36719 1.13281C8.92583 1.04551 8.46873 1 8 1C7.53127 1 7.07417 1.04551 6.63281 1.13281C6.11231 1.23578 5.60664 0.914987 5.47266 0.40918C6.26721 0.144762 7.11662 2.5763e-08 8 0Z" fill="black"/>
</svg>
