<svg width="16" height="16" viewBox="0 0 16 16" fill="none" xmlns="http://www.w3.org/2000/svg">
<path d="M9.36719 14.8672C9.8873 14.7643 10.3919 15.0847 10.5264 15.5898C9.73198 15.8541 8.88316 16 8 16C7.11651 16 6.2673 15.8543 5.47266 15.5898C5.60701 15.0846 6.11262 14.7643 6.63281 14.8672C7.07417 14.9545 7.53127 15 8 15C8.46873 15 8.92583 14.9545 9.36719 14.8672Z" fill="black"/>
<path d="M0.845703 11.5801C1.29819 11.317 1.88346 11.4477 2.17871 11.8887C2.69 12.6523 3.34766 13.31 4.11133 13.8213C4.55224 14.1165 4.68182 14.7009 4.41895 15.1533C2.87636 14.3796 1.61921 13.1228 0.845703 11.5801Z" fill="black"/>
<path d="M13.8213 11.8887C14.1164 11.4479 14.7009 11.3175 15.1533 11.5801C14.3797 13.1229 13.1229 14.3797 11.5801 15.1533C11.3175 14.7009 11.4479 14.1164 11.8887 13.8213C12.6523 13.31 13.31 12.6523 13.8213 11.8887Z" fill="black"/>
<path fill-rule="evenodd" clip-rule="evenodd" d="M8 2C11.3137 2 14 4.68629 14 8C14 11.3137 11.3137 14 8 14C4.68629 14 2 11.3137 2 8C2 4.68629 4.68629 2 8 2ZM7.3252 4C7.1002 4 6.8623 4.07427 6.6123 4.22266C6.49571 4.29249 6.33747 4.43635 6.1377 4.6543C5.93774 4.86374 5.79623 5.03015 5.71289 5.15234C5.59623 5.32691 5.53712 5.55371 5.53711 5.83301V6.70996H5V7.66602H5.53711V8.41211H5V9.36816H5.53711V10.167C5.53712 10.455 5.59623 10.6868 5.71289 10.8613C5.78796 10.9835 5.92528 11.1492 6.125 11.3584C6.32491 11.5591 6.48733 11.6988 6.6123 11.7773C6.8623 11.9257 7.10456 12 7.33789 12H9.1123C9.63726 12 10.1538 11.6464 10.6621 10.9395C10.7288 10.8435 10.8417 10.6166 11 10.2588L10.0127 9.9834C9.95441 10.1142 9.9127 10.1975 9.8877 10.2324C9.72936 10.5379 9.49147 10.7825 9.1748 10.9658L9.0752 10.9785H7.3252L7.2998 10.9658C7.20814 10.9134 7.0831 10.8084 6.9248 10.6514C6.76657 10.4943 6.65018 10.3546 6.5752 10.2324C6.56689 10.2237 6.56253 10.1977 6.5625 10.1543V9.36816H9.5127V8.41211H6.5625V7.66602H9.5127V6.70996H6.5625V5.91113C6.56252 5.82415 6.56688 5.77629 6.5752 5.76758C6.65018 5.64543 6.76657 5.50567 6.9248 5.34863C7.0831 5.19155 7.20814 5.08657 7.2998 5.03418H7.3252C7.35009 5.02551 7.37108 5.02148 7.3877 5.02148H9.0752C9.10839 5.0215 9.14161 5.02551 9.1748 5.03418C9.28314 5.09528 9.4125 5.20024 9.5625 5.34863C9.71249 5.49702 9.82103 5.63665 9.8877 5.76758L10.0127 6.04297L11 5.72852C10.8833 5.44046 10.7704 5.21767 10.6621 5.06055C10.1538 4.35364 9.63726 4 9.1123 4H7.3252Z" fill="black"/>
<path d="M0.40918 5.47266C0.914987 5.60664 1.23578 6.11231 1.13281 6.63281C1.04551 7.07417 1 7.53127 1 8C1 8.46873 1.04551 8.92583 1.13281 9.36719C1.23577 9.88761 0.914847 10.3923 0.40918 10.5264C0.144949 9.73206 0 8.88305 0 8C2.57622e-08 7.11662 0.144762 6.26721 0.40918 5.47266Z" fill="black"/>
<path d="M15.5898 5.47266C15.8543 6.2673 16 7.11651 16 8C16 8.88316 15.8541 9.73198 15.5898 10.5264C15.0847 10.3919 14.7643 9.8873 14.8672 9.36719C14.9545 8.92583 15 8.46873 15 8C15 7.53127 14.9545 7.07417 14.8672 6.63281C14.7643 6.11262 15.0846 5.60701 15.5898 5.47266Z" fill="black"/>
<path d="M4.41895 0.845703C4.68239 1.29825 4.55248 1.88337 4.11133 2.17871C3.34766 2.69 2.69 3.34766 2.17871 4.11133C1.88337 4.55248 1.29825 4.68239 0.845703 4.41895C1.6193 2.87644 2.87644 1.6193 4.41895 0.845703Z" fill="black"/>
<path d="M11.5801 0.845703C13.1228 1.61921 14.3796 2.87636 15.1533 4.41895C14.7009 4.68182 14.1165 4.55224 13.8213 4.11133C13.31 3.34766 12.6523 2.69 11.8887 2.17871C11.4477 1.88346 11.317 1.29819 11.5801 0.845703Z" fill="black"/>
<path d="M8 0C8.88305 0 9.73206 0.144949 10.5264 0.40918C10.3923 0.914847 9.88761 1.23577 9.36719 1.13281C8.92583 1.04551 8.46873 1 8 1C7.53127 1 7.07417 1.04551 6.63281 1.13281C6.11231 1.23578 5.60664 0.914987 5.47266 0.40918C6.26721 0.144762 7.11662 2.5763e-08 8 0Z" fill="black"/>
</svg>
