<svg width="16" height="16" viewBox="0 0 16 16" fill="none" xmlns="http://www.w3.org/2000/svg">
<path d="M9.36719 14.8672C9.8873 14.7643 10.3919 15.0847 10.5264 15.5898C9.73198 15.8541 8.88316 16 8 16C7.11651 16 6.2673 15.8543 5.47266 15.5898C5.60701 15.0846 6.11262 14.7643 6.63281 14.8672C7.07417 14.9545 7.53127 15 8 15C8.46873 15 8.92583 14.9545 9.36719 14.8672Z" fill="black"/>
<path d="M0.845703 11.5801C1.29819 11.317 1.88346 11.4477 2.17871 11.8887C2.69 12.6523 3.34766 13.31 4.11133 13.8213C4.55224 14.1165 4.68182 14.7009 4.41895 15.1533C2.87636 14.3796 1.61921 13.1228 0.845703 11.5801Z" fill="black"/>
<path d="M13.8213 11.8887C14.1164 11.4479 14.7009 11.3175 15.1533 11.5801C14.3797 13.1229 13.1229 14.3797 11.5801 15.1533C11.3175 14.7009 11.4479 14.1164 11.8887 13.8213C12.6523 13.31 13.31 12.6523 13.8213 11.8887Z" fill="black"/>
<path d="M9.61816 5.04004C9.71242 5.04903 9.84418 5.12469 10.0137 5.2666C10.1834 5.40875 10.2832 5.52441 10.3115 5.61328C10.3303 5.66643 10.3398 5.71544 10.3398 5.75977V6.91992C10.3398 6.99988 10.3251 7.05819 10.2969 7.09375C10.212 7.20915 10.0941 7.32886 9.94336 7.45312C9.79242 7.56868 9.66008 7.62695 9.54688 7.62695H6.73145V5.04004H9.61816Z" fill="black"/>
<path fill-rule="evenodd" clip-rule="evenodd" d="M8 2C11.3137 2 14 4.68629 14 8C14 11.3137 11.3137 14 8 14C4.68629 14 2 11.3137 2 8C2 4.68629 4.68629 2 8 2ZM5.57031 7.62695H4.5V8.66699H5.57031V9.81152H4.5V10.5723H5.57031V12H6.73145V10.5723H9.3291V9.81152H6.73145V8.66699H9.56152C9.91982 8.66696 10.2311 8.57803 10.4951 8.40039C10.5989 8.32928 10.7364 8.21371 10.9062 8.05371C11.0854 7.8938 11.2032 7.77333 11.2598 7.69336C11.4199 7.46245 11.4999 7.21367 11.5 6.94727V5.74707C11.5 5.4716 11.4201 5.21738 11.2598 4.98633C11.2031 4.90636 11.0894 4.78668 10.9199 4.62695C10.7503 4.46716 10.6135 4.3514 10.5098 4.28027C10.2362 4.09367 9.9199 4.00004 9.56152 4H5.57031V7.62695Z" fill="black"/>
<path d="M0.40918 5.47266C0.914987 5.60664 1.23578 6.11231 1.13281 6.63281C1.04551 7.07417 1 7.53127 1 8C1 8.46873 1.04551 8.92583 1.13281 9.36719C1.23577 9.88761 0.914847 10.3923 0.40918 10.5264C0.144949 9.73206 0 8.88305 0 8C2.57622e-08 7.11662 0.144762 6.26721 0.40918 5.47266Z" fill="black"/>
<path d="M15.5898 5.47266C15.8543 6.2673 16 7.11651 16 8C16 8.88316 15.8541 9.73198 15.5898 10.5264C15.0847 10.3919 14.7643 9.8873 14.8672 9.36719C14.9545 8.92583 15 8.46873 15 8C15 7.53127 14.9545 7.07417 14.8672 6.63281C14.7643 6.11262 15.0846 5.60701 15.5898 5.47266Z" fill="black"/>
<path d="M4.41895 0.845703C4.68239 1.29825 4.55248 1.88337 4.11133 2.17871C3.34766 2.69 2.69 3.34766 2.17871 4.11133C1.88337 4.55248 1.29825 4.68239 0.845703 4.41895C1.6193 2.87644 2.87644 1.6193 4.41895 0.845703Z" fill="black"/>
<path d="M11.5801 0.845703C13.1228 1.61921 14.3796 2.87636 15.1533 4.41895C14.7009 4.68182 14.1165 4.55224 13.8213 4.11133C13.31 3.34766 12.6523 2.69 11.8887 2.17871C11.4477 1.88346 11.317 1.29819 11.5801 0.845703Z" fill="black"/>
<path d="M8 0C8.88305 0 9.73206 0.144949 10.5264 0.40918C10.3923 0.914847 9.88761 1.23577 9.36719 1.13281C8.92583 1.04551 8.46873 1 8 1C7.53127 1 7.07417 1.04551 6.63281 1.13281C6.11231 1.23578 5.60664 0.914987 5.47266 0.40918C6.26721 0.144762 7.11662 2.5763e-08 8 0Z" fill="black"/>
</svg>
