<svg xmlns="http://www.w3.org/2000/svg" fill="none" viewBox="0 0 96 31"><path fill="#f2f2f2" d="M93.773 0a2.24 2.24 0 0 0-2.227 2.249 2.23 2.23 0 0 0 1.924 2.184.022.022 0 0 0 .025-.022V3.052c0-.01-.008-.02-.018-.022a1.392 1.392 0 1 1 .592 0 .02.02 0 0 0-.017.022v1.359c0 .013.011.024.025.022A2.227 2.227 0 0 0 93.773 0M2.186 13.38H1.173v-1.012h-.16v1.013H0v.16h1.012v1.013h.16V13.54h1.014zm92.68 0h-1.013v-1.012h-.16v1.013h-1.012v.16h1.012v1.013h.16V13.54h1.013zM39.59 11.907v-9.69L37.384.011h-6.698V26.92h3.56V14.993h1.781V26.92h3.561V15.024l-1.135-1.135h-.848v-.848h.848zm-3.562.033h-1.78V3.064h1.78zM26.703.012h-4.494l-2.204 2.204V26.92h3.561V14.992h1.78v11.927h3.561V2.216zM25.346 11.94h-1.78V3.064h1.78zM16.02.012h-3.36l-1.135 1.135v.848h-.847v-.848L9.543.012h-3.36L3.98 2.216v24.705h3.562V3.064h1.78v23.857h3.561V3.064h1.78v23.857h3.562V2.216zm72.277 0h-6.698v26.907h3.561V3.064h1.78v23.855h3.561V2.216zm-40.23 0h-4.494L41.37 2.216V26.92h3.561V14.992h1.78v11.927h3.561V2.216zM46.711 11.94h-1.78V3.064h1.78zM77.614.012H73.12l-2.204 2.204v22.499l2.204 2.204h4.494l2.205-2.204V2.216zm-1.356 23.856h-1.78V3.064h1.78zM51.162 3.064h2.162v23.857h3.56V3.064h2.163V.014h-7.885zm14.413 8.876h-1.78V.012h-3.562v26.907h3.562V14.992h1.78V26.92h3.561V.012h-3.561zM7.402 28.708h-.608v2.185h.608zm-1.134 0H5.66v2.185h.608zm2.268 0h-.608v2.185h.608zm-4.314 0h-.243v2.185h.243zm.973 0h-.243v2.185h.243zm5.355 0h-.608v2.185h.608zm2.33 0h-.243v2.185h.242zm-.486 0h-.244v2.185h.244zm-1.134 0h-.244v2.185h.244zm-1.899 0h-.244v2.185h.244zm2.384 0h-.242v2.185h.242zm-7.038 0h-.242v2.185h.242zm15.293 0v2.185h2.185v-2.185zm2.025 1.479-.546.546h-.772l-.546-.547v-.772l.546-.546h.772l.546.546z"/><path fill="#f2f2f2" d="M21.093 29.436a.364.364 0 1 0 0 .729.364.364 0 0 0 0-.729M14.66 30.78v.113h.113l.728-.729h.502l.728.729h.113v-.114l-.728-.727v-.503l.728-.728v-.113h-.113l-.728.728h-.502l-.728-.728h-.113v.114l.728.728v.501zm21.808-.765h-.44v.44h.44zm.879 0h-.44v.44h.44z"/><path fill="#f2f2f2" d="M36.907 30.455h-.44v.44h.44zm0-.88h-.44v.44h.44zm1.32.44h-.44v.44h.44zm-.44.44h-.44v.44h.44zm0-.88h-.44v.44h.44zm.44-.88H36.02v.44h2.208zm3.716.005v.95h-.123v-.705h-.014l-.125.301h-.066l-.123-.301h-.014v.705h-.125v-.95h.147l.142.355h.013l.143-.356zm.847.539v.411h-.134v-.286h-.32v.286H42.2v-.404l.208-.547h.178zm-.134.007-.15-.402h-.017l-.15.402zm.801.017.185.326v.061h-.123l-.204-.37h-.14v.37h-.135v-.95h.302c.182 0 .304.118.304.291a.27.27 0 0 1-.189.272m-.13-.1c.11 0 .18-.066.18-.172s-.069-.173-.18-.173h-.152v.345zm1.159.076v.411h-.135v-.286h-.32v.286h-.134v-.404l.208-.547h.177zm-.135.007-.15-.402h-.017l-.15.402zm.984-.546v.118h-.227v.832h-.136v-.832h-.228v-.119zm.847 0v.95h-.135v-.416h-.32v.416h-.135v-.95h.135v.414h.32V28.7zm.856.255v.437c0 .16-.12.27-.302.27-.18 0-.304-.108-.304-.27v-.437c0-.16.122-.27.304-.27.181 0 .302.11.302.27m-.136.01c0-.098-.065-.162-.166-.162-.105 0-.17.067-.17.162v.417c0 .095.065.162.17.162.1 0 .166-.064.166-.162zm.975-.265v.95h-.136v-.336l-.319-.403v.74h-.134v-.952h.136l.317.403v-.403zm1.748.064-.588.886h-.106v-.065l.589-.886h.105zm1.645-.064v.118h-.228v.832h-.136v-.832h-.228v-.119zm.846.539v.411h-.136v-.286h-.32v.286h-.134v-.404l.208-.547h.177zm-.136.007-.15-.402h-.016l-.15.402zm.992-.546v.692c0 .16-.12.27-.302.27-.18 0-.304-.108-.304-.27V28.7h.135v.683c0 .095.064.162.17.162.1 0 .165-.064.165-.162V28.7zm1.559.304v-.04c0-.096-.065-.161-.165-.161-.106 0-.17.067-.17.162v.417c0 .095.064.162.17.162.1 0 .165-.064.165-.162v-.038h.137v.048c0 .16-.121.27-.302.27-.18 0-.305-.108-.305-.27v-.437c0-.16.122-.27.305-.27.18 0 .302.11.302.27v.049zm.521-.186v.295h.364v.12h-.364v.299h.454v.118h-.59v-.95h.59v.118zm1.303-.118v.118h-.227v.832h-.136v-.832h-.228v-.119zm.621.118v.714h.226v.118h-.59v-.118h.227v-.714h-.227v-.119h.59v.119zm1.695 0v.714h.226v.118h-.59v-.118h.228v-.714h-.228v-.119h.59v.119zm1.099-.118v.064l-.185.722-.038.164h-.193l-.225-.886V28.7h.128l.184.787h.017l.185-.787zm-34.515.643c-.125 0-.191-.056-.191-.155 0-.056.03-.112.079-.138.033-.017.056-.02.125-.02.115 0 .184.056.184.152 0 .105-.069.16-.197.16m-.037 1.566a.16.16 0 0 1-.154-.158q.001-.088.085-.138.014-.009.013-.013c0-.007-.003-.01-.046-.043-.03-.02-.052-.072-.052-.115 0-.05.03-.108.062-.128.03-.017.036-.023.036-.03 0-.003 0-.01-.003-.01l-.046-.03a.16.16 0 0 1-.05-.115c0-.095.07-.158.178-.158.086 0 .102.004.135.023a.16.16 0 0 1 .08.135.17.17 0 0 1-.07.129q-.036.02-.036.026 0 .01.023.02a.16.16 0 0 1 .082.138c0 .053-.02.086-.065.125q-.01.01-.01.017-.001.018.036.016h1.083c.076 0 .099.003.128.02.05.026.08.076.08.131 0 .086-.07.158-.152.158zm1.008-2.195c.098 0 .167.066.167.155 0 .095-.069.158-.174.158h-.688a.155.155 0 0 1-.155-.155c0-.089.07-.158.168-.158zm-.692 1.258a.16.16 0 0 1-.158-.159c0-.085.073-.154.165-.154h.74c.073 0 .09.003.119.023.05.026.076.076.076.131 0 .093-.07.159-.171.159zm.988-.968c.115 0 .184.059.184.158 0 .043-.023.099-.05.115l-.045.03q-.007.003-.007.013 0 .004.007.01l.04.023c.029.016.055.072.055.118 0 .102-.069.161-.187.161-.07 0-.093-.006-.126-.023a.17.17 0 0 1-.075-.135c0-.049.023-.102.056-.121l.033-.024q.01-.004.01-.01c0-.01.003-.006-.034-.029a.16.16 0 0 1-.065-.118v-.01c.003-.109.069-.158.204-.158m.733.3-.046.033q-.004.006-.003.01 0 .01.046.036c.03.02.053.073.053.119a.16.16 0 0 1-.08.138.3.3 0 0 1-.121.02c-.119 0-.188-.056-.188-.158 0-.05.03-.109.066-.129.03-.013.033-.016.033-.023l-.003-.013-.05-.033c-.026-.016-.046-.069-.046-.112 0-.098.066-.158.184-.158.086 0 .11.004.145.033.037.03.06.076.06.125 0 .04-.023.096-.05.112m-.135.672c.119 0 .188.059.188.154 0 .046-.023.1-.05.119l-.042.026q-.01.006-.01.013c0 .007.006.014.03.024.039.016.075.078.075.128a.16.16 0 0 1-.085.141c-.027.013-.05.017-.112.017-.122 0-.194-.056-.194-.155 0-.043.023-.092.049-.112l.05-.036q.002 0 .003-.007c0-.003-.004-.01-.007-.01l-.04-.026a.16.16 0 0 1-.055-.118c.006-.112.065-.158.2-.158m.965-1.26c.088 0 .158.068.158.154 0 .099-.07.161-.175.161h-.681a.155.155 0 0 1-.158-.155c0-.095.07-.16.175-.16zm-.705 1.256c-.079 0-.148-.072-.148-.154 0-.086.07-.155.152-.155h.707c.092 0 .155.063.155.148 0 .096-.07.162-.168.162zm.649.629c.089 0 .112.003.138.016.053.03.082.08.082.132 0 .095-.069.161-.17.161h-.699c-.075 0-.144-.075-.144-.154 0-.08.069-.155.141-.155zm.47-1.293-.032.023q-.01.003-.01.013c0 .01.006.013.026.02.04.016.076.079.076.131 0 .102-.073.162-.191.162h-.02c-.112 0-.178-.063-.178-.159 0-.049.03-.105.063-.125.036-.023.04-.023.04-.03 0-.002-.004-.01-.007-.01l-.043-.025c-.03-.02-.056-.076-.056-.122 0-.056.033-.109.085-.135.027-.017.053-.02.12-.02.117 0 .187.056.187.158 0 .043-.027.099-.06.119m-.243.68a.3.3 0 0 1 .118-.015c.119 0 .188.055.188.154 0 .046-.026.102-.06.122l-.032.023q-.009.004-.007.01c0 .01.003.013.026.026.043.02.073.076.073.129 0 .055-.03.111-.08.138a.3.3 0 0 1-.12.02c-.12 0-.188-.056-.188-.155 0-.046.03-.105.059-.122.036-.02.043-.023.043-.033s0-.01-.033-.026c-.037-.02-.07-.08-.07-.125a.16.16 0 0 1 .083-.145m2.55-.958c.069 0 .092.007.125.023a.16.16 0 0 1 .079.135c0 .046-.03.102-.063.125l-.033.02-.006.013c0 .01.003.013.03.026.039.02.069.076.069.129a.16.16 0 0 1-.083.141.23.23 0 0 1-.112.02c-.128 0-.197-.06-.197-.158q0-.095.079-.135.023-.01.023-.023 0-.014-.023-.023c-.056-.03-.08-.066-.08-.122q0-.169.192-.17m.303.948c-.106 0-.181-.066-.181-.158 0-.099.069-.158.184-.158h.816c.03 0 .036 0 .036-.006q.001-.005-.013-.014a.16.16 0 0 1-.076-.135c0-.046.023-.102.056-.121l.037-.023a.02.02 0 0 0 .006-.014q-.001-.009-.003-.013l-.036-.02c-.033-.02-.06-.075-.06-.121 0-.096.07-.162.172-.162.095 0 .108.004.141.023.05.027.08.08.08.135a.17.17 0 0 1-.053.119l-.047.03q-.004 0-.003.01 0 .009.023.02a.17.17 0 0 1 .08.134c0 .053-.03.109-.067.132l-.033.016q-.004.004-.003.013c0 .007 0 .01.013.014.046.02.09.082.09.138a.16.16 0 0 1-.162.16h-.053q-.02.002-.02.017l.004.007.036.033c.02.02.036.06.036.099 0 .102-.069.16-.19.16q-.2 0-.201-.154c0-.046.023-.095.052-.122q.028-.023.027-.026c0-.006-.01-.013-.02-.013zm.599-1.264c.105 0 .138.007.167.023q.075.051.076.135a.17.17 0 0 1-.069.135c-.036.02-.05.023-.135.026h-.04l-.615-.003a.16.16 0 0 1-.161-.155c0-.085.072-.16.154-.16zm-.392 1.896c.092 0 .161.062.161.151 0 .096-.076.162-.184.162-.132 0-.207-.056-.207-.158 0-.1.069-.158.187-.158zm.27-.316q.207 0 .207.151a.15.15 0 0 1-.082.139c-.03.016-.053.023-.115.023-.122 0-.195-.056-.195-.149 0-.105.066-.164.185-.164m.99-.011c.07 0 .096.003.125.023a.15.15 0 0 1 .076.129.17.17 0 0 1-.08.138c-.029.016-.052.02-.111.02s-.085-.004-.115-.02a.16.16 0 0 1-.082-.135c0-.099.065-.155.187-.155m-.102-1.237a.2.2 0 0 1 .109-.02q.198.001.2.155c0 .102-.075.158-.197.158-.119 0-.194-.056-.194-.149 0-.059.033-.118.082-.144m1.083 1.553c.092 0 .158.063.158.151 0 .096-.07.158-.178.158h-.642c-.125 0-.194-.055-.194-.158 0-.052.033-.108.08-.135.029-.016.045-.016.134-.016zm-.007-1.886c.099 0 .172.066.172.158 0 .099-.07.155-.182.155h-.664c-.1 0-.172-.063-.172-.155 0-.089.07-.158.165-.158zm.01.945c.089 0 .158.069.158.151 0 .096-.069.162-.171.162h-.355c-.106 0-.175-.067-.175-.155 0-.09.073-.158.161-.158zm.138-.59q.04-.035.149-.036c.115 0 .187.06.187.155 0 .046-.026.105-.06.125-.035.023-.042.027-.042.033s.007.013.03.023c.04.02.072.08.072.128 0 .103-.069.162-.187.162-.073 0-.093-.003-.125-.023a.152.152 0 0 1-.017-.257l.033-.02.006-.013-.006-.013-.043-.03c-.026-.016-.05-.072-.05-.115 0-.04.024-.089.053-.118m.333 1.06c0 .05-.03.106-.063.125l-.03.02q-.01.004-.01.013c0 .007.004.007.04.03a.16.16 0 0 1 .063.122c0 .105-.07.158-.2.158-.123 0-.189-.056-.189-.155 0-.06.033-.119.08-.138q.02-.009.02-.017-.002-.01-.004-.01l-.05-.036c-.026-.016-.046-.066-.046-.112 0-.098.07-.154.191-.154.129 0 .198.056.198.154m59.271-3.895v.645h-.123v-.645h-.233v-.1h.589v.1zm1.036.645v-.622h-.003l-.244.622h-.078l-.244-.622h-.004v.622h-.123v-.745h.19l.222.566.219-.566h.188v.745zm-52.85 3.248h.106v.188h-.2v-.188l.07-.206h.1v.037zm.417 0v.188h-.2v-.188l.07-.206h.1v.037l-.076.169zm.432-.088v.295h.364v.12h-.364v.298h.455v.118h-.59v-.949h.59v.118zm1.308.57c0 .162-.12.273-.296.273s-.3-.114-.3-.276v-.013h.134v.015c0 .092.067.156.166.156.093 0 .16-.064.16-.146 0-.079-.044-.12-.124-.15l-.13-.044c-.158-.055-.205-.152-.205-.254 0-.154.12-.263.292-.263.18 0 .298.112.298.27v.016h-.135v-.015c0-.09-.064-.153-.163-.153-.091 0-.154.058-.154.137 0 .074.043.11.117.137l.145.052c.149.052.196.15.196.258m.714-.384v-.038c0-.098-.066-.162-.167-.162-.105 0-.169.067-.169.162v.416c0 .094.064.162.17.162.105 0 .165-.065.165-.162v-.039h.136v.049c0 .16-.12.27-.302.27-.18 0-.304-.108-.304-.27v-.436c0-.16.121-.27.304-.27.184 0 .303.11.303.27v.048zm.975.235v.41h-.136v-.286h-.32v.286h-.135v-.403l.209-.546h.177zm-.136.007-.15-.4h-.017l-.15.4zm.985-.255c0 .173-.123.29-.308.29h-.15v.368h-.136v-.95h.29c.182 0 .304.119.304.291zm-.14 0c0-.104-.069-.172-.18-.172h-.138v.344h.137c.112 0 .182-.066.182-.172m.529-.173v.295h.365v.12h-.365v.298h.455v.118h-.59v-.949h.59v.118zm2.198-.118v.064l-.062.728-.012.158h-.184l-.015-.08-.06-.394h-.017l-.06.393-.015.081h-.184l-.012-.158-.062-.728v-.064h.124l.036.627v.164h.024l.104-.571h.108l.104.57h.021v-.163l.037-.627zm.574.118v.713h.227v.117h-.59v-.117h.227v-.713h-.227v-.118h.59v.118zm1.074.713v.118h-.589v-.95h.135v.831h.456zm.848 0v.118h-.59v-.95h.136v.831h.455m1.694-.83v.95h-.123v-.704h-.015l-.124.3h-.066l-.123-.3h-.015v.703h-.124v-.949h.146l.142.355h.013l.142-.355zm.849.539v.41h-.135v-.286h-.32v.286h-.136v-.403l.209-.546h.177zm-.135.007-.151-.4h-.017l-.15.4zm1.004-.484-.239.409.239.417v.061h-.12l-.229-.415h-.149v.415h-.135v-.949h.135v.414h.146l.232-.414h.12zm.371.056v.295h.365v.12h-.365v.298h.455v.118h-.59v-.949h.59v.118zm2.15-.118v.95h-.123v-.704h-.014l-.125.3h-.066l-.123-.3h-.015v.703h-.124v-.949h.146l.142.355h.013l.142-.355zm.394.118v.295h.365v.12h-.365v.298h.455v.118h-.59v-.949h.59v.118zm2.022.168v-.02c0-.097-.066-.162-.166-.162-.106 0-.17.067-.17.162v.416c0 .095.064.162.17.162.105 0 .166-.065.166-.162v-.128h-.146v-.11h.283v.248c0 .16-.121.27-.302.27s-.305-.108-.305-.27v-.436c0-.16.122-.27.305-.27s.302.11.302.27v.03zm.983-.031v.437c0 .159-.12.27-.302.27-.18 0-.304-.109-.304-.27v-.437c0-.159.121-.27.304-.27s.302.111.302.27m-.136.01c0-.097-.066-.162-.166-.162-.105 0-.17.068-.17.162v.417c0 .094.065.161.17.161s.166-.064.166-.161zm.978-.005v.43c0 .153-.111.26-.274.26h-.318v-.95h.318c.163 0 .274.106.274.26m-.136.013c0-.09-.06-.154-.166-.154h-.155v.712h.155c.1 0 .166-.057.166-.153zm.432-.273h.2v.19l-.07.204h-.1v-.037l.076-.168h-.106zm.511 0v.19l-.07.204h-.1v-.037l.076-.168h-.106v-.189z"/></svg>