<svg width="28" height="28" viewBox="0 0 28 28" fill="none" xmlns="http://www.w3.org/2000/svg">
<path d="M19.1344 0.560211L19.0786 0.606402C18.981 0.680607 18.8619 0.725557 18.7367 0.735446C18.6116 0.745335 18.4862 0.719709 18.3767 0.661877L17.113 0L15.8496 0.661877C15.7549 0.711518 15.6482 0.737574 15.5397 0.737574C15.4313 0.737574 15.3246 0.711518 15.2298 0.661877L13.9663 0L12.703 0.661877C12.6082 0.711531 12.5015 0.737594 12.3931 0.737594C12.2846 0.737594 12.1779 0.711531 12.0831 0.661877L10.8196 0L9.55627 0.661877C9.44566 0.719796 9.31922 0.745442 9.19305 0.73555C9.06689 0.725657 8.94671 0.680674 8.84782 0.606327L8.78621 0.560585V5.98983H19.1344V0.560211Z" fill="#9CA3AF"/>
<path d="M20.2156 7.18767H7.7182C7.49074 7.18713 7.26545 7.22918 7.05545 7.31136C6.84544 7.39355 6.65494 7.51423 6.49503 7.66636C6.33512 7.8185 6.20901 7.99904 6.12405 8.19748C6.03909 8.39592 5.99698 8.60828 6.00017 8.82218V26.3405C6.00017 27.2487 6.75264 28 7.7182 28H20.2156C21.1812 28 22 27.2487 22 26.3405V8.82218C22 7.91385 21.1812 7.18767 20.2156 7.18767ZM7.9902 10.4068C7.9902 10.248 8.05729 10.0957 8.17671 9.98334C8.29614 9.87102 8.45811 9.80792 8.62701 9.80792H19.2936C19.4625 9.80792 19.6244 9.87102 19.7439 9.98334C19.8633 10.0957 19.9304 10.248 19.9304 10.4068V13.7009C19.9304 13.8597 19.8633 14.0121 19.7439 14.1244C19.6244 14.2367 19.4625 14.2998 19.2936 14.2998H8.62701C8.45811 14.2998 8.29614 14.2367 8.17671 14.1244C8.05729 14.0121 7.9902 13.8597 7.9902 13.7009V10.4068ZM10.7032 24.6311H8.63361C8.46472 24.6311 8.30275 24.568 8.18332 24.4557C8.0639 24.3434 7.9968 24.191 7.9968 24.0322C7.9968 23.8733 8.0639 23.721 8.18332 23.6087C8.30275 23.4964 8.46472 23.4333 8.63361 23.4333H10.7032C10.8721 23.4333 11.0341 23.4964 11.1535 23.6087C11.273 23.721 11.3401 23.8733 11.3401 24.0322C11.3401 24.191 11.273 24.3434 11.1535 24.4557C11.0341 24.568 10.8721 24.6311 10.7032 24.6311ZM10.7032 21.3371H8.63361C8.46472 21.3371 8.30275 21.274 8.18332 21.1616C8.0639 21.0493 7.9968 20.897 7.9968 20.7381C7.9968 20.5793 8.0639 20.427 8.18332 20.3146C8.30275 20.2023 8.46472 20.1392 8.63361 20.1392H10.7032C10.8721 20.1392 11.0341 20.2023 11.1535 20.3146C11.273 20.427 11.3401 20.5793 11.3401 20.7381C11.3401 20.897 11.273 21.0493 11.1535 21.1616C11.0341 21.274 10.8721 21.3371 10.7032 21.3371ZM10.7032 18.043H8.63361C8.46472 18.043 8.30275 17.9799 8.18332 17.8676C8.0639 17.7553 7.9968 17.6029 7.9968 17.4441C7.9968 17.2853 8.0639 17.1329 8.18332 17.0206C8.30275 16.9083 8.46472 16.8452 8.63361 16.8452H10.7032C10.8721 16.8452 11.0341 16.9083 11.1535 17.0206C11.273 17.1329 11.3401 17.2853 11.3401 17.4441C11.3401 17.6029 11.273 17.7553 11.1535 17.8676C11.0341 17.9799 10.8721 18.043 10.7032 18.043ZM15.0017 24.6311H12.9321C12.7632 24.6311 12.6012 24.568 12.4818 24.4557C12.3624 24.3434 12.2953 24.191 12.2953 24.0322C12.2953 23.8733 12.3624 23.721 12.4818 23.6087C12.6012 23.4964 12.7632 23.4333 12.9321 23.4333H15.0017C15.1706 23.4333 15.3326 23.4964 15.452 23.6087C15.5714 23.721 15.6385 23.8733 15.6385 24.0322C15.6385 24.191 15.5714 24.3434 15.452 24.4557C15.3326 24.568 15.1706 24.6311 15.0017 24.6311ZM15.0017 21.3371H12.9321C12.7632 21.3371 12.6012 21.274 12.4818 21.1616C12.3624 21.0493 12.2953 20.897 12.2953 20.7381C12.2953 20.5793 12.3624 20.427 12.4818 20.3146C12.6012 20.2023 12.7632 20.1392 12.9321 20.1392H15.0017C15.1706 20.1392 15.3326 20.2023 15.452 20.3146C15.5714 20.427 15.6385 20.5793 15.6385 20.7381C15.6385 20.897 15.5714 21.0493 15.452 21.1616C15.3326 21.274 15.1706 21.3371 15.0017 21.3371ZM15.0017 18.043H12.9321C12.7632 18.043 12.6012 17.9799 12.4818 17.8676C12.3624 17.7553 12.2953 17.6029 12.2953 17.4441C12.2953 17.2853 12.3624 17.1329 12.4818 17.0206C12.6012 16.9083 12.7632 16.8452 12.9321 16.8452H15.0017C15.1706 16.8452 15.3326 16.9083 15.452 17.0206C15.5714 17.1329 15.6385 17.2853 15.6385 17.4441C15.6385 17.6029 15.5714 17.7553 15.452 17.8676C15.3326 17.9799 15.1706 18.043 15.0017 18.043ZM19.3002 24.6311H17.2305C17.0616 24.6311 16.8997 24.568 16.7802 24.4557C16.6608 24.3434 16.5937 24.191 16.5937 24.0322C16.5937 23.8733 16.6608 23.721 16.7802 23.6087C16.8997 23.4964 17.0616 23.4333 17.2305 23.4333H19.3002C19.4691 23.4333 19.631 23.4964 19.7505 23.6087C19.8699 23.721 19.937 23.8733 19.937 24.0322C19.937 24.191 19.8699 24.3434 19.7505 24.4557C19.631 24.568 19.4691 24.6311 19.3002 24.6311ZM19.3002 21.3371H17.2305C17.0616 21.3371 16.8997 21.274 16.7802 21.1616C16.6608 21.0493 16.5937 20.897 16.5937 20.7381C16.5937 20.5793 16.6608 20.427 16.7802 20.3146C16.8997 20.2023 17.0616 20.1392 17.2305 20.1392H19.3002C19.4691 20.1392 19.631 20.2023 19.7505 20.3146C19.8699 20.427 19.937 20.5793 19.937 20.7381C19.937 20.897 19.8699 21.0493 19.7505 21.1616C19.631 21.274 19.4691 21.3371 19.3002 21.3371ZM19.3002 18.043H17.2305C17.0616 18.043 16.8997 17.9799 16.7802 17.8676C16.6608 17.7553 16.5937 17.6029 16.5937 17.4441C16.5937 17.2853 16.6608 17.1329 16.7802 17.0206C16.8997 16.9083 17.0616 16.8452 17.2305 16.8452H19.3002C19.4691 16.8452 19.631 16.9083 19.7505 17.0206C19.8699 17.1329 19.937 17.2853 19.937 17.4441C19.937 17.6029 19.8699 17.7553 19.7505 17.8676C19.631 17.9799 19.4691 18.043 19.3002 18.043Z" fill="#9CA3AF"/>
</svg>
