<svg width="28" height="29" viewBox="0 0 28 29" fill="none" xmlns="http://www.w3.org/2000/svg">
<path d="M21.3203 20.9482C21.4923 21.043 21.6336 21.1778 21.7432 21.3525V24.6484C21.6023 24.8159 21.4572 24.9507 21.3086 25.0527H19.5811C19.4559 24.9798 19.3146 24.845 19.1582 24.6484V21.3643C19.2756 21.2038 19.4206 21.065 19.5928 20.9482H21.3203Z" fill="#9CA3AF"/>
<path d="M8.25684 20.9922C8.38156 21.0505 8.48343 21.1377 8.56152 21.2539V22.2285C8.53018 22.2796 8.47571 22.3387 8.39746 22.4043C8.32789 22.4619 8.28064 22.4914 8.25684 22.4922H6.25879V20.9922H8.25684Z" fill="#9CA3AF"/>
<path d="M14.5332 20.9922C14.6584 21.0505 14.7615 21.1373 14.8398 21.2539V22.2285C14.8085 22.2795 14.7539 22.3388 14.6758 22.4043C14.6053 22.4627 14.5567 22.4922 14.5332 22.4922H12.5352V20.9922H14.5332Z" fill="#9CA3AF"/>
<path fill-rule="evenodd" clip-rule="evenodd" d="M23.1758 17C24.7352 17 26 18.2648 26 19.8242V26.1758C26 27.7352 24.7352 29 23.1758 29H4.82422C3.26483 29 2 27.7352 2 26.1758V19.8242C2 18.2648 3.26483 17 4.82422 17H23.1758ZM19.5576 19.666C19.2912 19.666 19.032 19.7354 18.7812 19.874C18.6638 19.9397 18.512 20.0615 18.3242 20.2363C18.1446 20.4109 18.011 20.5528 17.9248 20.6621C17.7917 20.8445 17.7237 21.0754 17.7236 21.3525V24.6484C17.7238 24.918 17.7918 25.1439 17.9248 25.3262C18.011 25.4356 18.1443 25.5824 18.3242 25.7646C18.5119 25.9394 18.6639 26.0604 18.7812 26.126C19.032 26.2646 19.2912 26.334 19.5576 26.334H21.3438C21.6099 26.3339 21.8696 26.2645 22.1201 26.126C22.3629 25.9873 22.6496 25.7201 22.9785 25.3262C23.1113 25.144 23.1776 24.9178 23.1777 24.6484V21.3525C23.1777 21.0755 23.1115 20.8444 22.9785 20.6621C22.6262 20.2537 22.3394 19.9909 22.1201 19.874C21.8696 19.7355 21.6099 19.6661 21.3438 19.666H19.5576ZM4.82422 26.2783H6.25879V23.7725H8.25684C8.5931 23.7723 8.88636 23.688 9.13672 23.5205C9.22287 23.4621 9.33756 23.3676 9.47852 23.2363C9.62726 23.1051 9.72542 23.0027 9.77246 22.9297C9.92128 22.7254 9.99508 22.4877 9.99512 22.2178V21.2881C9.99512 20.9963 9.92116 20.7542 9.77246 20.5645C9.58445 20.331 9.37173 20.1297 9.13672 19.9619C8.89419 19.7945 8.60084 19.7121 8.25684 19.7119H4.82422V26.2783ZM11.1025 26.2783H12.5352V23.7725H13.665L15.0625 26.2783H16.6602L15.1328 23.6738C15.2578 23.6156 15.3524 23.5642 15.415 23.5205C15.5012 23.4621 15.6158 23.3677 15.7568 23.2363C15.9052 23.1054 16.0027 23.0026 16.0498 22.9297C16.1985 22.7255 16.2734 22.4876 16.2734 22.2178V21.2881C16.2734 20.9964 16.1984 20.7541 16.0498 20.5645C15.8619 20.3312 15.6499 20.1296 15.415 19.9619C15.1722 19.7942 14.8778 19.7119 14.5332 19.7119H11.1025V26.2783Z" fill="#9CA3AF"/>
<path d="M16.9062 7.08496C16.2842 7.30055 15.836 7.90398 15.8359 8.61523C15.8359 9.50739 16.541 10.2305 17.4102 10.2305C18.2792 10.2303 18.9834 9.50728 18.9834 8.61523C18.9833 7.8752 18.4984 7.25168 17.8369 7.06055L22 3.36523L19.9014 14H8.09863L6 3.36523L10.1631 7.06055C9.50164 7.25168 9.01667 7.8752 9.0166 8.61523C9.0166 9.50728 9.72082 10.2303 10.5898 10.2305C11.459 10.2305 12.1641 9.50739 12.1641 8.61523C12.164 7.90398 11.7158 7.30055 11.0938 7.08496L14 0L16.9062 7.08496Z" fill="#9CA3AF"/>
</svg>
