<svg width="28" height="28" viewBox="0 0 28 28" fill="none" xmlns="http://www.w3.org/2000/svg">
<path fill-rule="evenodd" clip-rule="evenodd" d="M21.1582 4.58789V16.6709C21.1582 16.9186 21.0825 17.2435 20.9189 17.6406C20.7572 18.0332 20.5194 18.471 20.2227 18.9355C19.6292 19.8646 18.8181 20.8709 17.9609 21.8027C17.1041 22.7341 16.2118 23.581 15.4609 24.1904C15.085 24.4956 14.7515 24.7352 14.4814 24.8965C14.3463 24.9772 14.2328 25.0347 14.1436 25.0703C14.0999 25.0877 14.0651 25.0982 14.0391 25.1045C14.0126 25.1109 14 25.1113 14 25.1113C14 25.1113 13.9874 25.1109 13.9609 25.1045C13.9349 25.0982 13.9001 25.0877 13.8564 25.0703C13.7672 25.0347 13.6537 24.9772 13.5186 24.8965C13.2485 24.7352 12.915 24.4956 12.5391 24.1904C11.7882 23.581 10.8959 22.7341 10.0391 21.8027C9.18185 20.8709 8.37081 19.8646 7.77734 18.9355C7.48061 18.471 7.24282 18.0332 7.08105 17.6406C6.91749 17.2435 6.84183 16.9186 6.8418 16.6709V4.58789L14 2.90918L21.1582 4.58789ZM13 7V10H11V8H9V11.5L10 12V14.5L9 15V17H12.5V13L14 12L15.5 13V17H19V15L18 14.5V12L19 11.5V8H17V10H15V7H13Z" fill="#9CA3AF"/>
<path fill-rule="evenodd" clip-rule="evenodd" d="M24 2.27734V16.8184C24 17.526 23.7923 18.201 23.5537 18.7637C23.3068 19.3459 22.9722 19.9329 22.6025 20.4951C21.8632 21.6195 20.8917 22.7835 19.9072 23.8232C18.9201 24.8657 17.875 25.8316 16.9629 26.5508C16.51 26.9079 16.0567 27.2302 15.6387 27.4727C15.43 27.5937 15.1997 27.713 14.9609 27.8057C14.7449 27.8895 14.4012 28 14 28C13.5988 28 13.2551 27.8895 13.0391 27.8057C12.8003 27.713 12.57 27.5937 12.3613 27.4727C11.9433 27.2302 11.49 26.9079 11.0371 26.5508C10.125 25.8316 9.07993 24.8657 8.09277 23.8232C7.10826 22.7835 6.13676 21.6195 5.39746 20.4951C5.02781 19.9329 4.69322 19.3459 4.44629 18.7637C4.20771 18.201 4.00003 17.526 4 16.8184V2.27734L14 0L24 2.27734ZM13.9092 2.02051L6 3.875V16.6709C6.00004 17.0894 6.12203 17.5422 6.30859 17.9951C6.49711 18.4526 6.76323 18.9386 7.07812 19.4316C7.70822 20.4181 8.55523 21.4669 9.43457 22.4229C10.3144 23.3793 11.2379 24.2546 12.0264 24.8945C12.4198 25.2139 12.7875 25.4807 13.1045 25.6699C13.2629 25.7645 13.4156 25.8446 13.5576 25.9014C13.6943 25.956 13.848 26 14 26C14.152 26 14.3057 25.956 14.4424 25.9014C14.5844 25.8446 14.7371 25.7645 14.8955 25.6699C15.2125 25.4807 15.5802 25.2139 15.9736 24.8945C16.7621 24.2546 17.6856 23.3793 18.5654 22.4229C19.4448 21.4669 20.2918 20.4181 20.9219 19.4316C21.2368 18.9386 21.5029 18.4526 21.6914 17.9951C21.878 17.5422 22 17.0894 22 16.6709V3.875L14.0908 2.02051L14 2L13.9092 2.02051Z" fill="#9CA3AF"/>
</svg>
