<svg width="28" height="28" viewBox="0 0 28 28" fill="none" xmlns="http://www.w3.org/2000/svg">
<path d="M20.26 19.7987C20.3095 20.1481 20.3603 20.4983 20.4197 20.8461C20.5008 21.3201 20.559 22.0107 20.8867 22.3713C21.1052 22.6118 21.5678 22.8171 21.8642 22.9613C23.1582 23.5913 24.513 24.1061 25.7858 24.7795C26.5377 25.1773 27.4321 25.6865 27.7514 26.5256C27.8517 26.7889 27.9974 27.3898 28 27.6642C28.0018 27.8534 27.8539 28.0008 27.6666 28H0.301511C-0.134482 27.9601 0.0144091 27.4472 0.0696627 27.157C0.313583 25.8759 1.01656 25.4226 2.08944 24.8418C3.46768 24.0958 4.95365 23.5572 6.35155 22.8522C6.95609 22.5472 7.25666 22.3893 7.41886 21.6822C7.55986 21.068 7.61465 20.4177 7.73908 19.7987C7.93673 20.0019 8.09784 20.2431 8.28094 20.4609C9.23108 21.591 10.7661 23.0966 12.1882 23.5408C13.2262 23.8649 14.7763 23.8685 15.8143 23.5447C17.2684 23.091 18.8523 21.5181 19.8107 20.3519C19.9351 20.2004 20.0883 19.9514 20.2163 19.8251C20.2298 19.8117 20.2293 19.7906 20.26 19.7987Z" fill="#9CA3AF"/>
<path d="M4.67465 10.4602C5.05369 10.4803 5.36045 10.2383 5.66396 10.0458C6.21913 9.69373 6.86716 9.38972 6.85772 8.62765C6.77135 7.98704 6.75077 7.33613 6.67122 6.6952C6.59661 6.0945 6.37622 5.68182 6.00214 5.21784C5.95601 5.10294 6.09175 4.84492 6.14236 4.72799C8.76404 -1.33252 18.3921 -1.59491 21.5476 4.10437C21.6836 4.35008 21.9212 4.79706 21.9946 5.05726C22.0099 5.11136 22.0212 5.16328 21.9974 5.21769C21.7884 5.51968 21.5608 5.7989 21.4405 6.15343C21.3202 6.50796 21.3205 6.91893 21.2817 7.30308C21.2421 7.6944 21.1774 8.1141 21.1582 8.50386C21.1405 8.86323 21.2062 9.15539 21.4516 9.42402C21.6541 9.64556 22.4942 10.1763 22.7828 10.3281C22.9416 10.4117 23.1305 10.4761 23.3097 10.4516C23.3205 10.4592 23.3411 10.613 23.3414 10.6395C23.3468 11.3064 23.1405 12.1241 23.0334 12.7938C22.8759 13.7783 22.7381 14.7692 22.564 15.7508C22.4707 16.2765 22.3442 16.6297 21.8842 16.9369C21.454 17.2243 21.0254 17.1964 20.5307 17.1964C20.4597 17.1964 20.3853 17.1692 20.3063 17.2029C20.1729 17.6465 20.0921 18.1051 19.9315 18.5403C19.541 19.5982 18.1932 20.933 17.3271 21.6542C16.1241 22.6559 15.1297 23.0169 13.5357 22.9016C12.2607 22.8093 11.4857 22.348 10.5404 21.5379C9.79049 20.8952 8.58033 19.6832 8.17482 18.7914C7.94483 18.2858 7.8594 17.7294 7.69271 17.2035C7.60465 17.1566 7.52076 17.195 7.43811 17.1962C6.86731 17.2046 6.42265 17.2127 5.96762 16.821C5.69584 16.5869 5.52435 16.2782 5.4691 15.92C5.26821 14.4041 4.91749 12.8834 4.72356 11.3702C4.68472 11.0677 4.66367 10.7657 4.67465 10.4602ZM13.2924 9.42027C11.7606 9.45598 10.1441 9.6256 8.65214 9.96891C7.8885 10.1446 6.95352 10.2594 6.88728 11.2313C6.85338 11.7291 6.85679 12.4785 6.88805 12.9779C6.97054 14.2951 7.91744 14.5421 8.98088 14.8765C9.59625 15.07 10.4446 15.3264 11.0763 15.4005C12.3973 15.5552 12.716 14.268 13.2462 13.3653C13.629 12.7136 14.3474 12.6965 14.7373 13.3497C15.3607 14.394 15.5983 15.6376 17.1343 15.3642C18.0406 15.2028 19.3258 14.8528 20.1573 14.4649C21.4739 13.8506 21.0345 12.38 21.1111 11.2012C21.0362 10.246 20.0516 10.1261 19.3008 9.95347C17.3859 9.51351 15.2561 9.37459 13.2924 9.42027Z" fill="#9CA3AF"/>
<path d="M5.47811 5.31753C5.6578 5.73318 6.00603 6.01147 6.10431 6.47186C6.219 7.00958 6.23541 7.71037 6.28493 8.26992C6.31155 8.57112 6.40674 8.84458 6.15291 9.08811C5.78781 9.31199 5.42316 9.61257 5.0514 9.81821C4.86629 9.92064 4.69047 9.99766 4.52053 9.81338C4.31639 9.59215 4.16595 9.22312 3.96026 8.9902C3.94896 8.9637 3.93766 8.93657 3.93379 8.90773C3.91909 8.80109 3.97094 8.38903 3.99818 8.27381C4.06101 8.0094 4.30524 8.20927 4.47518 8.19305L4.79835 6.69371L4.77266 6.65941C4.66571 6.62636 4.49716 6.62293 4.42767 6.52377C4.37458 6.44832 4.40043 6.39297 4.41684 6.31018C4.44052 6.19029 4.51357 5.85011 4.56387 5.75672C4.61417 5.66333 4.73272 5.61142 4.82466 5.56729C4.97634 5.49449 5.26282 5.36618 5.41837 5.3233C5.43585 5.31847 5.46248 5.30771 5.47811 5.31753Z" fill="#9CA3AF"/>
<path d="M23.2016 6.65563L23.5184 8.18397C23.5433 8.22077 23.7896 8.13455 23.8594 8.13533C23.9443 8.13642 23.9815 8.17462 24.0025 8.2574C24.0313 8.37075 24.0818 8.79964 24.0669 8.90691C24.0624 8.93933 24.0494 8.97036 24.0346 8.99905C23.8279 9.22261 23.6817 9.60536 23.487 9.81942C23.3195 10.0037 23.1425 9.91421 22.9648 9.81724C22.7441 9.69688 21.929 9.19066 21.8023 9.02384C21.7244 8.92156 21.6853 8.80198 21.6726 8.6743C21.7531 8.02744 21.7797 7.37295 21.8552 6.72563C21.8743 6.56209 21.895 6.404 21.956 6.25028C22.0905 5.91072 22.3887 5.65503 22.5221 5.31578C22.55 5.29536 23.0942 5.52766 23.1658 5.56133C23.2551 5.60327 23.3785 5.64583 23.4269 5.73485C23.4754 5.82388 23.587 6.26369 23.6001 6.37095C23.6046 6.40743 23.6114 6.45342 23.6009 6.48866C23.5696 6.59405 23.2988 6.65173 23.2016 6.65563Z" fill="#9CA3AF"/>
</svg>
