<svg width="28" height="28" viewBox="0 0 28 28" fill="none" xmlns="http://www.w3.org/2000/svg">
<path d="M15.4371 15.4467H12.5479V12.5533H15.4371V15.4467Z" fill="#9CA3AF"/>
<path fill-rule="evenodd" clip-rule="evenodd" d="M26 6.36364V21.6364L21.6364 26H6.36364L2 21.6364V6.36364L6.36364 2H21.6364L26 6.36364ZM6.36364 16.2127V19.0178L8.97905 21.6364H11.782L15.3242 18.0909H13.1562L11.147 20.1023H9.61399L7.8956 18.3828V16.8487L9.9059 14.8363V12.6673L6.36364 16.2127ZM11.1033 16.8924H16.8817V11.1076H11.1033V16.8924ZM12.6609 9.90909H14.8288L16.8381 7.89773H18.3711L20.0916 9.61932L20.1001 11.1396L18.0792 13.1637V15.3327L21.6364 11.7724L21.6193 8.98011L19.006 6.36364H16.2031L12.6609 9.90909Z" fill="#9CA3AF"/>
</svg>
