<svg width="24" height="24" viewBox="0 0 24 24" fill="none" xmlns="http://www.w3.org/2000/svg">
<path d="M18 0L24 6V24H0V6L6 0H18ZM5.78906 9C5.67421 9.00025 5.58105 9.09309 5.58105 9.20801V10.2197C5.58105 10.3346 5.6742 10.4285 5.78906 10.4287H6.65527C6.77024 10.4288 6.86328 10.5217 6.86328 10.6367V17.3623C6.86328 17.4773 6.77024 17.5712 6.65527 17.5713H5.78906C5.67421 17.5715 5.58105 17.6644 5.58105 17.7793V18.791C5.58105 18.9059 5.6742 18.9998 5.78906 19H9.21973C9.33469 18.9999 9.42773 18.906 9.42773 18.791V17.7793C9.42773 17.6643 9.33469 17.5714 9.21973 17.5713H8.35352C8.23866 17.571 8.14551 17.4772 8.14551 17.3623V10.6367C8.14551 10.5218 8.23866 10.429 8.35352 10.4287H9.21973C9.33469 10.4286 9.42773 10.3347 9.42773 10.2197V9.20801C9.42773 9.09301 9.33469 9.00012 9.21973 9H5.78906ZM10.2764 9C10.1615 9.00025 10.0684 9.09309 10.0684 9.20801V10.2197C10.0684 10.3346 10.1615 10.4285 10.2764 10.4287H11.1143C11.2086 10.4287 11.291 10.4919 11.3154 10.583L13.1182 17.3086C13.1536 17.4409 13.054 17.5713 12.917 17.5713H12.5C12.3851 17.5715 12.292 17.6644 12.292 17.7793V18.791C12.292 18.9059 12.3851 18.9998 12.5 19H15.9297C16.0447 18.9999 16.1377 18.906 16.1377 18.791V17.7793C16.1377 17.6643 16.0447 17.5714 15.9297 17.5713H15.5693C15.4325 17.5712 15.3328 17.4408 15.3682 17.3086L17.1709 10.583C17.1953 10.4919 17.2778 10.4287 17.3721 10.4287H18.21C18.3249 10.4286 18.418 10.3347 18.418 10.2197V9.20801C18.418 9.09301 18.3249 9.00012 18.21 9H14.7793C14.6644 9.00025 14.5713 9.09309 14.5713 9.20801V10.2197C14.5713 10.3346 14.6644 10.4285 14.7793 10.4287H15.6133C15.7503 10.4287 15.8499 10.5581 15.8145 10.6904L14.4443 15.8018C14.389 16.0073 14.0973 16.0073 14.042 15.8018L12.6719 10.6904C12.6365 10.5582 12.7362 10.4288 12.873 10.4287H13.7061C13.821 10.4286 13.9141 10.3347 13.9141 10.2197V9.20801C13.9141 9.09301 13.821 9.00012 13.7061 9H10.2764Z" fill="#9CA3AF"/>
</svg>
