<svg width="24" height="24" viewBox="0 0 24 24" fill="none" xmlns="http://www.w3.org/2000/svg">
<path d="M18 0L24 6V24H0V6L6 0H18ZM3.5459 9C3.43083 9 3.33691 9.09294 3.33691 9.20801V10.2197C3.33691 10.3348 3.43083 10.4287 3.5459 10.4287H4.38281C4.47711 10.4287 4.56055 10.4919 4.58496 10.583L6.38672 17.3086C6.42217 17.4409 6.32254 17.5713 6.18555 17.5713H5.82617C5.7111 17.5713 5.61719 17.6642 5.61719 17.7793V18.791C5.61719 18.9061 5.7111 19 5.82617 19H9.25488C9.36988 18.9999 9.46289 18.906 9.46289 18.791V17.7793C9.46289 17.6643 9.36988 17.5714 9.25488 17.5713H8.83789C8.70105 17.5711 8.60136 17.4408 8.63672 17.3086L10.4395 10.583C10.4639 10.4919 10.5463 10.4287 10.6406 10.4287H11.4785C11.5935 10.4286 11.6865 10.3347 11.6865 10.2197V9.20801C11.6865 9.09299 11.5935 9.00009 11.4785 9H8.0498C7.93474 9 7.84082 9.09294 7.84082 9.20801V10.2197C7.84082 10.3348 7.93474 10.4287 8.0498 10.4287H8.88184C9.01883 10.4287 9.11845 10.5581 9.08301 10.6904L7.71289 15.8018C7.65752 16.0072 7.36585 16.0073 7.31055 15.8018L5.94043 10.6904C5.90508 10.5582 6.00477 10.4289 6.1416 10.4287H6.97559C7.09058 10.4286 7.18359 10.3347 7.18359 10.2197V9.20801C7.18359 9.09299 7.09058 9.00009 6.97559 9H3.5459ZM12.5361 9C12.4211 9 12.3271 9.09294 12.3271 9.20801V10.2197C12.3271 10.3348 12.4211 10.4287 12.5361 10.4287H13.4014C13.5164 10.4288 13.6094 10.5217 13.6094 10.6367V17.3623C13.6094 17.4773 13.5164 17.5712 13.4014 17.5713H12.5361C12.4211 17.5713 12.3271 17.6642 12.3271 17.7793V18.791C12.3271 18.9061 12.4211 19 12.5361 19H15.9658C16.0808 18.9999 16.1738 18.906 16.1738 18.791V17.7793C16.1738 17.6643 16.0808 17.5714 15.9658 17.5713H15.1006C14.9855 17.5713 14.8916 17.4774 14.8916 17.3623V10.6367C14.8916 10.5217 14.9855 10.4287 15.1006 10.4287H15.9658C16.0808 10.4286 16.1738 10.3347 16.1738 10.2197V9.20801C16.1738 9.09299 16.0808 9.00009 15.9658 9H12.5361ZM17.0244 9C16.9093 9 16.8154 9.09294 16.8154 9.20801V10.2197C16.8154 10.3348 16.9093 10.4287 17.0244 10.4287H17.8896C18.0046 10.4288 18.0977 10.5217 18.0977 10.6367V17.3623C18.0977 17.4773 18.0046 17.5712 17.8896 17.5713H17.0244C16.9093 17.5713 16.8154 17.6642 16.8154 17.7793V18.791C16.8154 18.9061 16.9093 19 17.0244 19H20.4541C20.5691 18.9999 20.6621 18.906 20.6621 18.791V17.7793C20.6621 17.6643 20.5691 17.5714 20.4541 17.5713H19.5889C19.4738 17.5713 19.3799 17.4774 19.3799 17.3623V10.6367C19.3799 10.5217 19.4738 10.4287 19.5889 10.4287H20.4541C20.5691 10.4286 20.6621 10.3347 20.6621 10.2197V9.20801C20.6621 9.09299 20.5691 9.00009 20.4541 9H17.0244Z" fill="#9CA3AF"/>
</svg>
