<svg width="24" height="24" viewBox="0 0 24 24" fill="none" xmlns="http://www.w3.org/2000/svg">
<path d="M18 0L24 6V24H0V6L6 0H18ZM8.04102 9C7.9261 9.00018 7.83301 9.09305 7.83301 9.20801V10.2197C7.83301 10.3347 7.9261 10.4285 8.04102 10.4287H8.90723C9.02213 10.4289 9.11523 10.5218 9.11523 10.6367V17.3623C9.11523 17.4773 9.02213 17.5711 8.90723 17.5713H8.04102C7.9261 17.5715 7.83301 17.6643 7.83301 17.7793V18.791C7.83301 18.906 7.9261 18.9998 8.04102 19H11.4707C11.5856 18.9998 11.6787 18.906 11.6787 18.791V17.7793C11.6787 17.6643 11.5856 17.5715 11.4707 17.5713H10.6045C10.4896 17.5711 10.3965 17.4773 10.3965 17.3623V10.6367C10.3965 10.5218 10.4896 10.4289 10.6045 10.4287H11.4707C11.5856 10.4285 11.6787 10.3347 11.6787 10.2197V9.20801C11.6787 9.09306 11.5856 9.00019 11.4707 9H8.04102ZM12.5283 9C12.4134 9.00018 12.3203 9.09305 12.3203 9.20801V10.2197C12.3203 10.3347 12.4134 10.4285 12.5283 10.4287H13.3945C13.5094 10.4289 13.6025 10.5218 13.6025 10.6367V17.3623C13.6025 17.4773 13.5094 17.5711 13.3945 17.5713H12.5283C12.4134 17.5715 12.3203 17.6643 12.3203 17.7793V18.791C12.3203 18.906 12.4134 18.9998 12.5283 19H15.959C16.0739 18.9998 16.167 18.906 16.167 18.791V17.7793C16.167 17.6643 16.0739 17.5715 15.959 17.5713H15.0928C14.9779 17.5711 14.8848 17.4773 14.8848 17.3623V10.6367C14.8848 10.5218 14.9779 10.4289 15.0928 10.4287H15.959C16.0739 10.4285 16.167 10.3347 16.167 10.2197V9.20801C16.167 9.09306 16.0739 9.00019 15.959 9H12.5283Z" fill="#9CA3AF"/>
</svg>
