<svg width="24" height="24" viewBox="0 0 24 24" fill="none" xmlns="http://www.w3.org/2000/svg">
<path d="M18 0L24 6V24H0V6L6 0H18ZM8.03418 9C7.91911 9 7.8252 9.09294 7.8252 9.20801V10.2197C7.8252 10.3348 7.91911 10.4287 8.03418 10.4287H8.87207C8.96622 10.4289 9.04886 10.492 9.07324 10.583L10.875 17.3086C10.9105 17.4409 10.8108 17.5713 10.6738 17.5713H10.2578C10.1427 17.5713 10.0488 17.6642 10.0488 17.7793V18.791C10.0488 18.9061 10.1427 19 10.2578 19H13.6865C13.8016 19 13.8945 18.9061 13.8945 18.791V17.7793C13.8945 17.6642 13.8016 17.5713 13.6865 17.5713H13.3262C13.1894 17.571 13.0897 17.4407 13.125 17.3086L14.9277 10.583C14.9521 10.4919 15.0346 10.4287 15.1289 10.4287H15.9668C16.0819 10.4287 16.1748 10.3348 16.1748 10.2197V9.20801C16.1748 9.09294 16.0819 9 15.9668 9H12.5371C12.422 9 12.3281 9.09294 12.3281 9.20801V10.2197C12.3281 10.3348 12.422 10.4287 12.5371 10.4287H13.3701C13.5071 10.4287 13.6068 10.5581 13.5713 10.6904L12.2012 15.8018C12.1458 16.0072 11.8541 16.0073 11.7988 15.8018L10.4287 10.6904C10.3934 10.5583 10.4931 10.429 10.6299 10.4287H11.4629C11.578 10.4287 11.6709 10.3348 11.6709 10.2197V9.20801C11.6709 9.09294 11.578 9 11.4629 9H8.03418Z" fill="#9CA3AF"/>
</svg>
