<svg width="24" height="24" viewBox="0 0 24 24" fill="none" xmlns="http://www.w3.org/2000/svg">
<path d="M18 0L24 6V24H0V6L6 0H18ZM5.79004 9C5.67508 9.00012 5.58203 9.09301 5.58203 9.20801V10.2197C5.58203 10.3347 5.67507 10.4286 5.79004 10.4287H6.62793C6.72223 10.4287 6.80469 10.4919 6.8291 10.583L8.63184 17.3086C8.66721 17.4408 8.56755 17.5712 8.43066 17.5713H8.07031C7.95535 17.5714 7.8623 17.6643 7.8623 17.7793V18.791C7.8623 18.906 7.95535 18.9999 8.07031 19H11.5C11.6149 18.9998 11.708 18.9059 11.708 18.791V17.7793C11.708 17.6644 11.6149 17.5715 11.5 17.5713H11.083C10.946 17.5713 10.8464 17.4409 10.8818 17.3086L12.6846 10.583C12.709 10.4919 12.7914 10.4287 12.8857 10.4287H13.7236C13.8385 10.4285 13.9316 10.3346 13.9316 10.2197V9.20801C13.9316 9.09309 13.8385 9.00025 13.7236 9H10.2939C10.179 9.00012 10.0859 9.09301 10.0859 9.20801V10.2197C10.0859 10.3347 10.179 10.4286 10.2939 10.4287H11.127C11.2638 10.4288 11.3635 10.5582 11.3281 10.6904L9.95801 15.8018C9.90269 16.0073 9.61103 16.0073 9.55566 15.8018L8.18555 10.6904C8.15012 10.5581 8.24973 10.4287 8.38672 10.4287H9.2207C9.33556 10.4285 9.42871 10.3346 9.42871 10.2197V9.20801C9.42871 9.09309 9.33556 9.00025 9.2207 9H5.79004ZM14.7803 9C14.6653 9.00012 14.5723 9.09301 14.5723 9.20801V10.2197C14.5723 10.3347 14.6653 10.4286 14.7803 10.4287H15.6465C15.7613 10.429 15.8545 10.5218 15.8545 10.6367V17.3623C15.8545 17.4772 15.7613 17.571 15.6465 17.5713H14.7803C14.6653 17.5714 14.5723 17.6643 14.5723 17.7793V18.791C14.5723 18.906 14.6653 18.9999 14.7803 19H18.2109C18.3258 18.9998 18.4189 18.9059 18.4189 18.791V17.7793C18.4189 17.6644 18.3258 17.5715 18.2109 17.5713H17.3447C17.2298 17.5712 17.1367 17.4773 17.1367 17.3623V10.6367C17.1367 10.5217 17.2298 10.4288 17.3447 10.4287H18.2109C18.3258 10.4285 18.4189 10.3346 18.4189 10.2197V9.20801C18.4189 9.09309 18.3258 9.00025 18.2109 9H14.7803Z" fill="#9CA3AF"/>
</svg>
