<svg width="24" height="24" viewBox="0 0 24 24" fill="none" xmlns="http://www.w3.org/2000/svg">
<path d="M18 0L24 6V24H0V6L6 0H18ZM5.54102 9C5.426 9.00007 5.33301 9.09298 5.33301 9.20801V10.2197C5.33301 10.3348 5.426 10.4286 5.54102 10.4287H6.45703C6.5721 10.4287 6.66602 10.5217 6.66602 10.6367V17.3623C6.66602 17.4774 6.5721 17.5713 6.45703 17.5713H5.54102C5.426 17.5714 5.33301 17.6643 5.33301 17.7793V18.791C5.33301 18.906 5.426 18.9999 5.54102 19H9.12402C9.23909 19 9.33301 18.9061 9.33301 18.791V17.7793C9.33301 17.6642 9.23909 17.5713 9.12402 17.5713H8.20801C8.093 17.5712 8 17.4773 8 17.3623V10.6367C8 10.5217 8.093 10.4288 8.20801 10.4287H9.12402C9.23909 10.4287 9.33301 10.3348 9.33301 10.2197V9.20801C9.33301 9.09294 9.23909 9 9.12402 9H5.54102ZM10.208 9C10.093 9.00007 10 9.09298 10 9.20801V10.2197C10 10.3348 10.093 10.4286 10.208 10.4287H11.125C11.2401 10.4287 11.334 10.5217 11.334 10.6367V17.3623C11.334 17.4774 11.2401 17.5713 11.125 17.5713H10.208C10.093 17.5714 10 17.6643 10 17.7793V18.791C10 18.906 10.093 18.9999 10.208 19H13.792C13.9071 19 14.001 18.9061 14.001 18.791V17.7793C14.001 17.6642 13.9071 17.5713 13.792 17.5713H12.875C12.76 17.5712 12.667 17.4773 12.667 17.3623V10.6367C12.667 10.5217 12.76 10.4288 12.875 10.4287H13.792C13.9071 10.4287 14.001 10.3348 14.001 10.2197V9.20801C14.001 9.09294 13.9071 9 13.792 9H10.208ZM14.875 9C14.76 9.00007 14.667 9.09298 14.667 9.20801V10.2197C14.667 10.3348 14.76 10.4286 14.875 10.4287H15.791C15.9061 10.4287 16 10.5217 16 10.6367V17.3623C16 17.4774 15.9061 17.5713 15.791 17.5713H14.875C14.76 17.5714 14.667 17.6643 14.667 17.7793V18.791C14.667 18.906 14.76 18.9999 14.875 19H18.458C18.5731 19 18.667 18.9061 18.667 18.791V17.7793C18.667 17.6642 18.5731 17.5713 18.458 17.5713H17.542C17.427 17.5712 17.334 17.4773 17.334 17.3623V10.6367C17.334 10.5217 17.427 10.4288 17.542 10.4287H18.458C18.5731 10.4287 18.667 10.3348 18.667 10.2197V9.20801C18.667 9.09294 18.5731 9 18.458 9H14.875Z" fill="#9CA3AF"/>
</svg>
