<svg width="24" height="24" viewBox="0 0 24 24" fill="none" xmlns="http://www.w3.org/2000/svg">
<path d="M18 0L24 6V24H0V6L6 0H18ZM10.6084 9C10.4933 9 10.3994 9.09294 10.3994 9.20801V10.2197C10.3994 10.3348 10.4933 10.4287 10.6084 10.4287H11.5244C11.6395 10.4287 11.7324 10.5217 11.7324 10.6367V17.3623C11.7324 17.4774 11.6395 17.5713 11.5244 17.5713H10.6084C10.4933 17.5713 10.3994 17.6642 10.3994 17.7793V18.791C10.3994 18.9061 10.4933 19 10.6084 19H14.1914C14.3065 19 14.3994 18.9061 14.3994 18.791V17.7793C14.3994 17.6642 14.3065 17.5713 14.1914 17.5713H13.2754C13.1603 17.5713 13.0664 17.4774 13.0664 17.3623V10.6367C13.0664 10.5217 13.1603 10.4287 13.2754 10.4287H14.1914C14.3065 10.4287 14.3994 10.3348 14.3994 10.2197V9.20801C14.3994 9.09294 14.3065 9 14.1914 9H10.6084Z" fill="#9CA3AF"/>
</svg>
