<svg width="9" height="10" viewBox="0 0 9 10" fill="none" xmlns="http://www.w3.org/2000/svg">
<path d="M6.30422 1.95652C6.30422 3.03708 5.42825 3.91304 4.3477 3.91304C3.26714 3.91304 2.39118 3.03708 2.39118 1.95652C2.39118 0.875965 3.26714 0 4.3477 0C5.42825 0 6.30422 0.875965 6.30422 1.95652Z" fill="#9CA3AF"/>
<path d="M3.85736 9.95833C3.89342 9.98538 3.93728 10 3.98236 10H4.71303C4.75811 10 4.80197 9.98538 4.83803 9.95833L6.43827 8.75815C6.49073 8.71881 6.5216 8.65706 6.5216 8.59149V4.55616C6.5216 4.4411 6.42833 4.34783 6.31327 4.34783H5.30355C5.2483 4.34783 5.19531 4.36978 5.15624 4.40885L4.84349 4.72159C4.80442 4.76066 4.75143 4.78261 4.69618 4.78261H3.99921C3.94396 4.78261 3.89097 4.76066 3.85189 4.72159L3.53915 4.40885C3.50008 4.36978 3.44709 4.34783 3.39184 4.34783H2.38212C2.26706 4.34783 2.17378 4.4411 2.17378 4.55616V8.59149C2.17378 8.65706 2.20466 8.71881 2.25712 8.75815L3.85736 9.95833Z" fill="#9CA3AF"/>
<path d="M7.41007 7.82607C7.39961 7.82607 7.39114 7.8176 7.39114 7.80714V4.6692C7.39114 4.65875 7.39961 4.65027 7.41007 4.65027H7.58843C7.64368 4.65027 7.69667 4.62832 7.73574 4.58925L7.87835 4.44664C7.91742 4.40757 7.97041 4.38562 8.02566 4.38562H8.52499C8.64005 4.38562 8.73332 4.47889 8.73332 4.59395V6.92796C8.73332 6.99353 8.70245 7.05528 8.64999 7.09462L7.73028 7.78441C7.69421 7.81145 7.65035 7.82607 7.60528 7.82607H7.41007Z" fill="#9CA3AF"/>
<path d="M6.86558 3.24116C6.79953 3.37035 6.86795 3.53688 6.99012 3.61517C7.15603 3.72149 7.28345 3.88263 7.34682 4.07302C7.35604 4.10072 7.38083 4.12099 7.41003 4.12099C8.06776 4.12099 8.60095 3.58779 8.60095 2.93006C8.60095 2.27233 8.06776 1.73913 7.41003 1.73913C7.38896 1.73913 7.36802 1.73968 7.34722 1.74076C7.2433 1.74616 7.17333 1.84127 7.17373 1.94533C7.17375 1.94906 7.17375 1.95279 7.17375 1.95652C7.17375 2.41911 7.06261 2.85574 6.86558 3.24116Z" fill="#9CA3AF"/>
<path d="M1.52158 1.95652C1.52158 1.95256 1.52159 1.9486 1.5216 1.94464C1.52204 1.83783 1.44833 1.74089 1.34153 1.73927C1.33539 1.73918 1.32924 1.73913 1.32308 1.73913C0.66535 1.73913 0.132155 2.27233 0.132155 2.93006C0.132155 3.58779 0.66535 4.12098 1.32308 4.12098C1.32545 4.12098 1.32781 4.12098 1.33018 4.12096C1.33252 4.12095 1.33456 4.11936 1.33518 4.1171C1.39271 3.90754 1.52668 3.72962 1.70524 3.61518C1.8274 3.53689 1.89582 3.37037 1.82977 3.24118C1.63273 2.85575 1.52158 2.41912 1.52158 1.95652Z" fill="#9CA3AF"/>
<path d="M1.12001 7.82607C1.22176 7.82607 1.30424 7.74359 1.30424 7.64184V4.82396C1.30424 4.72803 1.22648 4.65027 1.13055 4.65027C1.08448 4.65027 1.0403 4.63197 1.00773 4.59939L0.85497 4.44664C0.8159 4.40757 0.76291 4.38562 0.707656 4.38562H0.208333C0.093274 4.38562 0 4.47889 0 4.59395V6.92795C0 6.99353 0.0308738 7.05528 0.0833334 7.09462L1.00947 7.78923C1.04136 7.81314 1.08015 7.82607 1.12001 7.82607Z" fill="#9CA3AF"/>
</svg>
