<svg width="30" height="15" viewBox="0 0 30 15" fill="none" xmlns="http://www.w3.org/2000/svg">
<path fill-rule="evenodd" clip-rule="evenodd" d="M7.91138 4.375C8.19055 4.375 8.44344 4.45858 8.66943 4.62524C8.73587 4.68082 8.82516 4.77143 8.93799 4.89624C9.05761 5.02122 9.14483 5.11855 9.198 5.18799C9.31735 5.3753 9.37738 5.60768 9.37744 5.88501V6.63574C9.37737 6.962 9.26713 7.25413 9.04785 7.51099C9.26697 7.76083 9.37735 8.05196 9.37744 8.38501V9.13574C9.37739 9.40616 9.31736 9.63162 9.198 9.81201C9.04513 10.0412 8.86883 10.233 8.66943 10.3857C8.45009 10.5455 8.19719 10.625 7.91138 10.625H5V4.375H7.91138ZM6.21582 9.40674H7.90161C7.92162 9.40655 7.96163 9.37787 8.02124 9.32251C8.08081 9.26023 8.12723 9.19802 8.1604 9.13574V8.37524C8.12061 8.30595 8.07112 8.23987 8.01147 8.17749C7.95207 8.11543 7.91192 8.08393 7.89185 8.0835H6.21582V9.40674ZM6.21582 6.90674H7.90161C7.92162 6.90655 7.96163 6.87787 8.02124 6.82251C8.08092 6.76012 8.12722 6.70097 8.1604 6.64551V5.88501C8.12057 5.81574 8.07115 5.74961 8.01147 5.68726C7.95206 5.62518 7.91192 5.59368 7.89185 5.59326H6.21582V6.90674Z" fill="#9CA3AF"/>
<path d="M13.8037 5.59326H11.0913V6.875H13.7134V8.09326H11.0913V9.40674H13.8037V10.625H9.87549V4.375H13.8037V5.59326Z" fill="#9CA3AF"/>
<path fill-rule="evenodd" clip-rule="evenodd" d="M19.7852 10.625H18.4888L18.0896 9.42749H16.0059C15.966 9.55944 15.8967 9.76118 15.7971 10.0317C15.7041 10.2955 15.6368 10.4931 15.5969 10.625H14.3005L16.3745 4.375H17.7209L19.7852 10.625ZM16.7041 7.20825C16.5579 7.65258 16.4476 7.98579 16.3745 8.20801H17.7209L17.0435 6.19751C16.9703 6.41971 16.857 6.75693 16.7041 7.20825Z" fill="#9CA3AF"/>
<path fill-rule="evenodd" clip-rule="evenodd" d="M23.1946 4.375C23.487 4.375 23.7368 4.45461 23.9429 4.61426C24.1423 4.77398 24.3217 4.96577 24.4812 5.18799C24.6074 5.3685 24.6704 5.59762 24.6704 5.87524V6.76025C24.6704 7.0172 24.6075 7.2433 24.4812 7.43774C24.4413 7.50717 24.3583 7.60462 24.2322 7.72949C24.1126 7.85445 24.016 7.94494 23.9429 8.00049C23.8897 8.04211 23.8098 8.09029 23.7036 8.14575L25 10.625H23.6438L22.4573 8.23975H21.5002V10.625H20.2832V4.375H23.1946ZM21.5002 7.02026H23.1946C23.2145 7.02026 23.2545 6.99272 23.3142 6.93726C23.3806 6.87484 23.428 6.81981 23.4546 6.77124V5.84351C23.3881 5.73242 23.3009 5.64881 23.1946 5.59326H21.5002V7.02026Z" fill="#9CA3AF"/>
<path fill-rule="evenodd" clip-rule="evenodd" d="M25 1.25C26.7259 1.25 28.125 2.64911 28.125 4.375V10.625C28.125 12.3509 26.7259 13.75 25 13.75H5C3.27411 13.75 1.875 12.3509 1.875 10.625V4.375C1.875 2.64911 3.27411 1.25 5 1.25H25ZM5 1.875C3.61929 1.875 2.5 2.99429 2.5 4.375V10.625L2.51343 10.8801C2.64126 12.141 3.70544 13.125 5 13.125H25L25.2551 13.1116C26.516 12.9837 27.5 11.9196 27.5 10.625V4.375C27.5 3.08044 26.516 2.01626 25.2551 1.88843L25 1.875H5Z" fill="#9CA3AF"/>
</svg>
