<svg width="34" height="40" viewBox="0 0 34 40" fill="none" xmlns="http://www.w3.org/2000/svg">
<mask id="path-1-outside-1_256_834" maskUnits="userSpaceOnUse" x="0" y="0" width="35" height="40" fill="black">
<rect fill="white" width="35" height="40"/>
<path d="M18.6978 30.3176C18.7209 30.3176 18.7439 30.3222 18.7652 30.3315C18.7866 30.3409 18.8061 30.3553 18.8223 30.3726C18.8384 30.3897 18.8512 30.4103 18.8597 30.4326C18.8682 30.455 18.8726 30.4789 18.8721 30.5029C18.8423 31.6758 18.6064 37.9995 16.992 38C15.3773 38 15.156 31.6715 15.1295 30.5029C15.1289 30.4789 15.1327 30.455 15.1412 30.4326C15.1496 30.4101 15.1624 30.3898 15.1785 30.3726C15.1947 30.3553 15.2137 30.3409 15.2349 30.3315C15.2562 30.3222 15.2793 30.3177 15.3023 30.3176H18.6978Z"/>
<path d="M11.2308 30.3176C11.2576 30.3178 11.2844 30.3242 11.3084 30.3367C11.3324 30.3493 11.3538 30.3677 11.3699 30.3901C12.1826 31.4234 13.234 32.223 14.4249 32.7134C14.4574 32.7264 14.485 32.7501 14.5047 32.78C14.5243 32.8101 14.5348 32.8454 14.5347 32.8818V36.3726C14.5345 36.401 14.5281 36.4292 14.5157 36.4546C14.5033 36.4799 14.4856 36.5023 14.4637 36.519C14.4417 36.5359 14.4158 36.5473 14.389 36.552C14.3621 36.5567 14.3344 36.5545 14.3084 36.5461C11.2449 35.4577 8.59429 33.3748 6.74323 30.6018V30.5996C6.72588 30.5725 6.71553 30.5407 6.71393 30.5081C6.71238 30.4754 6.71971 30.4425 6.73444 30.4136C6.74916 30.3847 6.77136 30.3609 6.79816 30.344C6.82497 30.3271 6.85547 30.3178 6.88678 30.3176H11.2308Z"/>
<path d="M27.1082 30.3176C27.1394 30.3178 27.1701 30.3272 27.1968 30.344C27.2236 30.3608 27.2459 30.3848 27.2606 30.4136C27.2753 30.4425 27.2826 30.4754 27.2811 30.5081C27.2795 30.5407 27.2691 30.5725 27.2518 30.5996V30.6018C25.4007 33.3749 22.7502 35.4577 19.6866 36.5461C19.6606 36.5545 19.6329 36.5567 19.606 36.552C19.5793 36.5473 19.554 36.5358 19.532 36.519C19.51 36.5022 19.4917 36.4799 19.4793 36.4546C19.4669 36.4292 19.4605 36.401 19.4603 36.3726V32.8818C19.4603 32.8455 19.4707 32.8101 19.4903 32.78C19.51 32.75 19.5383 32.7265 19.5709 32.7134C20.7617 32.2229 21.8135 31.4231 22.6265 30.3901C22.6425 30.3676 22.6634 30.3493 22.6873 30.3367C22.7114 30.324 22.7381 30.3176 22.765 30.3176H27.1082Z"/>
<path fill-rule="evenodd" clip-rule="evenodd" d="M11.0975 22.7231L11.1561 22.729C11.2138 22.741 11.2676 22.7706 11.3099 22.8147C11.366 22.8733 11.3976 22.9529 11.3978 23.0359V25.1628H11.3948C11.3948 25.631 11.8705 25.4763 11.8738 26.0667V29.2966C11.8738 29.3378 11.8662 29.3788 11.8511 29.4167C11.836 29.4546 11.8138 29.4889 11.786 29.5178C11.7581 29.5469 11.7249 29.5703 11.6885 29.5859C11.6521 29.6016 11.6129 29.6095 11.5735 29.6094H6.96588C6.88637 29.6094 6.80978 29.5765 6.75348 29.5178C6.69722 29.4592 6.66585 29.3797 6.66559 29.2966V23.0359C6.66581 22.9528 6.69724 22.8733 6.75348 22.8147C6.80978 22.756 6.88637 22.7231 6.96588 22.7231H11.0975ZM8.53327 26.7112C8.50378 26.711 8.47411 26.7171 8.44684 26.7288C8.41971 26.7404 8.39515 26.7577 8.37433 26.7793C8.35348 26.801 8.33657 26.8271 8.32526 26.8555C8.31395 26.884 8.30841 26.9148 8.30841 26.9456V27.8992C8.30853 27.9299 8.31393 27.9602 8.32526 27.9885C8.33659 28.0168 8.35352 28.0423 8.37433 28.064C8.39512 28.0856 8.41975 28.1028 8.44684 28.1145C8.47406 28.1261 8.50384 28.1322 8.53327 28.1321H10.261C10.3204 28.1321 10.3778 28.1076 10.42 28.064C10.4619 28.0203 10.4854 27.961 10.4859 27.8992V26.9456C10.4857 26.8835 10.462 26.8239 10.42 26.78C10.3778 26.7362 10.3205 26.7112 10.261 26.7112H8.53327ZM8.53327 24.0833C8.50384 24.0832 8.47406 24.0892 8.44684 24.1008C8.41985 24.1125 8.39508 24.1292 8.37433 24.1506C8.35346 24.1723 8.33661 24.1985 8.32526 24.2268C8.31395 24.2551 8.30853 24.2855 8.30841 24.3162V25.2698C8.30852 25.3005 8.31394 25.3308 8.32526 25.3591C8.33661 25.3875 8.35346 25.4136 8.37433 25.4353C8.39514 25.4569 8.41974 25.4742 8.44684 25.4858C8.47406 25.4975 8.50384 25.5028 8.53327 25.5027H9.80182C9.83113 25.5028 9.86045 25.4974 9.88751 25.4858C9.91456 25.4742 9.93931 25.4569 9.96002 25.4353C9.98087 25.4137 9.99711 25.3875 10.0084 25.3591C10.0197 25.3308 10.0252 25.3004 10.0252 25.2698V24.3162C10.0252 24.2854 10.0197 24.2551 10.0084 24.2268C9.99716 24.1986 9.98076 24.173 9.96002 24.1514C9.93934 24.1298 9.91452 24.1125 9.88751 24.1008C9.86045 24.0892 9.83113 24.0832 9.80182 24.0833H8.53327Z"/>
<path d="M16.1241 22.7231L16.1827 22.729C16.2403 22.741 16.2935 22.7707 16.3358 22.8147C16.3921 22.8733 16.4242 22.9528 16.4244 23.0359V23.7698H16.4207C16.4199 23.8518 16.3883 23.9308 16.3328 23.9888C16.2773 24.0466 16.2024 24.0794 16.1241 24.0803H14.6307C14.5914 24.0802 14.552 24.0881 14.5157 24.1038C14.4795 24.1193 14.4467 24.1424 14.419 24.1711C14.3912 24.2002 14.3688 24.2351 14.3538 24.2729C14.3388 24.3108 14.3311 24.3513 14.3311 24.3923V25.1848C14.3311 25.2258 14.3388 25.2663 14.3538 25.3042C14.3688 25.3421 14.3912 25.3771 14.419 25.406C14.4467 25.4349 14.4795 25.4578 14.5157 25.4734C14.552 25.489 14.5914 25.497 14.6307 25.4968H15.4649C15.5043 25.4968 15.5435 25.5046 15.5799 25.5203C15.6163 25.5359 15.6494 25.5594 15.6773 25.5884C15.7052 25.6175 15.7273 25.6522 15.7425 25.6902C15.7575 25.7281 15.7652 25.7686 15.7652 25.8096V26.4065C15.765 26.4475 15.7576 26.488 15.7425 26.5259C15.7274 26.5637 15.7051 26.5981 15.6773 26.627C15.6494 26.6559 15.6163 26.6795 15.5799 26.6951C15.5435 26.7107 15.5043 26.7187 15.4649 26.7185H14.6307C14.5513 26.7185 14.4745 26.7514 14.4183 26.8101C14.3622 26.8687 14.3311 26.9483 14.3311 27.0312V27.8113C14.3311 27.8941 14.3623 27.9738 14.4183 28.0325C14.4745 28.0911 14.5513 28.1248 14.6307 28.1248H16.1241L16.1827 28.1306C16.2017 28.1345 16.2203 28.1405 16.2383 28.1482C16.2747 28.1638 16.3079 28.1866 16.3358 28.2156C16.3636 28.2445 16.3858 28.2788 16.4009 28.3167C16.4162 28.3546 16.4242 28.3957 16.4244 28.4368V29.2864C16.4245 29.3705 16.3932 29.4516 16.3372 29.512C16.2811 29.5722 16.2045 29.6071 16.1241 29.6094H12.8047C12.7656 29.6095 12.7267 29.6015 12.6905 29.5859C12.6541 29.5703 12.6209 29.5469 12.5931 29.5178C12.5654 29.4888 12.5429 29.4546 12.5279 29.4167C12.5129 29.3788 12.5051 29.3377 12.5052 29.2966V23.0359C12.5052 22.953 12.537 22.8734 12.5931 22.8147C12.6492 22.7561 12.7254 22.7232 12.8047 22.7231H16.1241Z"/>
<path fill-rule="evenodd" clip-rule="evenodd" d="M27.0364 22.7231L27.095 22.729C27.1526 22.741 27.2059 22.7707 27.2481 22.8147C27.3044 22.8733 27.3365 22.9528 27.3367 23.0359V26.2C27.3365 26.2831 27.3044 26.3625 27.2481 26.4211C27.1918 26.4797 27.1158 26.5126 27.0364 26.5127H26.9405C26.8937 26.5125 26.8475 26.5238 26.8057 26.5457C26.7638 26.5677 26.7273 26.6 26.6995 26.6394C26.6717 26.6789 26.653 26.7251 26.6453 26.7734C26.6377 26.8216 26.6415 26.8711 26.6556 26.9177L27.3192 29.2065C27.3328 29.2532 27.336 29.3027 27.3279 29.3508C27.3199 29.3989 27.3009 29.4442 27.273 29.4834C27.2451 29.5226 27.2087 29.5546 27.1668 29.5764C27.125 29.5982 27.0788 29.6096 27.032 29.6094H25.7269C25.6661 29.6094 25.607 29.5897 25.5569 29.5537C25.5068 29.5176 25.468 29.4666 25.4464 29.4072L24.5777 26.7676C24.5729 26.7552 24.564 26.7448 24.5528 26.7383C24.5413 26.7318 24.5275 26.7291 24.5147 26.7317C24.502 26.7343 24.4908 26.7418 24.4825 26.7522C24.4741 26.7626 24.4695 26.7759 24.4693 26.7896V29.2966C24.4694 29.3377 24.4616 29.3788 24.4466 29.4167C24.4316 29.4546 24.4092 29.4888 24.3814 29.5178C24.3536 29.5469 24.3204 29.5703 24.284 29.5859C24.2478 29.6015 24.2089 29.6095 24.1697 29.6094H22.8631C22.7836 29.6094 22.7069 29.5765 22.6507 29.5178C22.5946 29.4592 22.5636 29.3796 22.5635 29.2966V23.0359C22.5635 22.953 22.5947 22.8734 22.6507 22.8147C22.7069 22.756 22.7836 22.7231 22.8631 22.7231H27.0364ZM24.7674 24.0833C24.7282 24.0832 24.6895 24.0911 24.6531 24.1067C24.6168 24.1224 24.5836 24.1451 24.5557 24.1741C24.5279 24.203 24.5057 24.2374 24.4905 24.2751C24.4754 24.3131 24.4672 24.3542 24.4671 24.3953V25.1943C24.4676 25.2771 24.4996 25.3563 24.5557 25.4148C24.6119 25.4732 24.6882 25.5063 24.7674 25.5063H25.5145C25.5538 25.5065 25.5931 25.4985 25.6295 25.4829C25.6657 25.4673 25.699 25.4445 25.7269 25.4155C25.7547 25.3866 25.7768 25.3516 25.7921 25.3137C25.8071 25.2759 25.8146 25.2353 25.8148 25.1943V24.3953C25.8146 24.3542 25.8072 24.3131 25.7921 24.2751C25.7769 24.2374 25.7547 24.203 25.7269 24.1741C25.6991 24.1452 25.6657 24.1224 25.6295 24.1067C25.5931 24.0911 25.5538 24.0832 25.5145 24.0833H24.7674Z"/>
<path fill-rule="evenodd" clip-rule="evenodd" d="M20.4732 22.7202C20.5514 22.72 20.629 22.7361 20.701 22.7678C20.7729 22.7995 20.8378 22.8462 20.8922 22.9048L21.7645 23.8372C21.8709 23.9508 21.9302 24.1037 21.93 24.2627V29.29C21.9298 29.3731 21.8984 29.4533 21.8421 29.512C21.7858 29.5706 21.7092 29.6035 21.6297 29.6035H20.7069C20.6276 29.6034 20.5512 29.5706 20.4952 29.512C20.439 29.4533 20.408 29.3731 20.408 29.29V27.0232C20.4077 26.9404 20.3755 26.8612 20.3194 26.8027C20.2634 26.7444 20.1875 26.7113 20.1085 26.7112H18.8714C18.7919 26.7112 18.7152 26.7447 18.659 26.8035C18.603 26.8621 18.5718 26.9419 18.5718 27.0247V29.29C18.5718 29.3312 18.5635 29.3721 18.5484 29.4102C18.5333 29.4482 18.5111 29.4829 18.4832 29.512C18.4553 29.5409 18.4222 29.5644 18.3858 29.5801C18.3494 29.5957 18.3101 29.6036 18.2708 29.6035H17.3575C17.2782 29.6035 17.2019 29.5706 17.1458 29.512C17.0896 29.4533 17.0579 29.3731 17.0579 29.29V24.2627C17.0576 24.1036 17.1177 23.9508 17.2242 23.8372L18.0958 22.9048C18.1498 22.847 18.215 22.8009 18.2862 22.7693C18.3574 22.7376 18.4338 22.7209 18.511 22.7202H20.4732ZM18.8751 24.0833C18.8359 24.0832 18.7971 24.0911 18.7608 24.1067C18.7245 24.1223 18.6912 24.1451 18.6634 24.1741C18.6356 24.203 18.6133 24.2373 18.5982 24.2751C18.5832 24.3131 18.5755 24.3542 18.5755 24.3953V25.1877C18.5755 25.2287 18.5833 25.2693 18.5982 25.3071C18.6133 25.3449 18.6356 25.3793 18.6634 25.4082C18.6912 25.4372 18.7245 25.4606 18.7608 25.4763C18.7971 25.4918 18.8359 25.4998 18.8751 25.4998H20.1121C20.1914 25.4998 20.2676 25.4667 20.3238 25.4082C20.3798 25.3498 20.4114 25.2705 20.4117 25.1877V24.3953C20.4115 24.3125 20.3799 24.2326 20.3238 24.1741C20.2676 24.1157 20.1913 24.0833 20.1121 24.0833H18.8751Z"/>
<path d="M9.89191 2.71265L14.3611 2.7229C14.384 2.72261 14.4065 2.72724 14.4278 2.73608C14.4491 2.74497 14.4685 2.75815 14.4849 2.7749C14.5013 2.79165 14.5148 2.81145 14.5237 2.8335C14.5327 2.85548 14.5374 2.87918 14.5377 2.90308V5.59033C14.5377 5.63861 14.519 5.6851 14.4864 5.71924C14.4537 5.75336 14.4095 5.77268 14.3633 5.77271H11.7347C11.7018 5.7726 11.6695 5.78229 11.6417 5.80054C11.6138 5.81879 11.5915 5.845 11.5772 5.87598C10.1882 8.57423 8.03275 10.7567 5.40802 12.1228C5.38265 12.1372 5.36091 12.1577 5.34503 12.1829C5.32915 12.2081 5.31981 12.2371 5.3172 12.2671C5.18113 15.3174 5.39818 18.374 5.96466 21.3696V28.7209C5.96454 28.7588 5.95352 28.7956 5.93244 28.8264C5.91126 28.8572 5.8811 28.8801 5.84674 28.8923C5.81239 28.9046 5.7753 28.9054 5.74054 28.8945C5.70584 28.8836 5.67485 28.8615 5.65265 28.8315C4.57875 27.3574 1.16432 21.6808 2.18976 10.1174C2.19347 10.0766 2.2103 10.038 2.23737 10.0083C2.26444 9.97869 2.30037 9.95921 2.33917 9.95337C3.14413 9.83281 7.33046 8.92098 9.73078 2.82617C9.74383 2.79275 9.76658 2.76435 9.79523 2.74414C9.82385 2.72396 9.85737 2.71288 9.89191 2.71265Z"/>
<path d="M24.1031 2.71265C24.1386 2.71169 24.1738 2.72165 24.2034 2.74194C24.233 2.76223 24.256 2.79187 24.2694 2.82617C26.6696 8.92098 30.856 9.83281 31.661 9.95337C31.6997 9.95921 31.7356 9.9787 31.7628 10.0083C31.7898 10.038 31.8067 10.0766 31.8104 10.1174C32.8359 21.6816 29.4204 27.3579 28.3467 28.8315C28.3246 28.8615 28.2942 28.8836 28.2596 28.8945C28.2249 28.9054 28.1877 28.9045 28.1534 28.8923C28.119 28.8801 28.0888 28.8572 28.0677 28.8264C28.0466 28.7956 28.0356 28.7588 28.0355 28.7209V21.3696C28.6024 18.3741 28.8192 15.3174 28.6822 12.2671C28.6798 12.2371 28.6708 12.2081 28.6551 12.1829C28.6393 12.1577 28.6174 12.1371 28.5921 12.1228C25.9674 10.7567 23.812 8.57423 22.4229 5.87598C22.4087 5.84498 22.3864 5.81879 22.3585 5.80054C22.3445 5.79142 22.3294 5.78471 22.3138 5.78003L22.2654 5.77271H19.6368C19.5905 5.77267 19.5463 5.75335 19.5137 5.71924C19.4811 5.6851 19.4625 5.6386 19.4625 5.59033V2.90308H19.4603C19.4608 2.85503 19.4795 2.80938 19.5123 2.77563C19.5451 2.74185 19.5893 2.72267 19.6353 2.7229L24.1031 2.71265Z"/>
<path d="M8.88483 18.1111C8.98856 18.1111 9.09083 18.1398 9.18073 18.1938C9.27058 18.2479 9.34544 18.3258 9.39752 18.4194L10.8763 21.0876C10.9283 21.1815 10.9555 21.2883 10.9554 21.3967C10.9554 21.5052 10.9275 21.612 10.8756 21.7058C10.8235 21.7994 10.7486 21.8775 10.6588 21.9314C10.5689 21.9852 10.4671 22.013 10.3636 22.0127H7.40607C7.30246 22.0129 7.20072 21.9847 7.1109 21.9307C7.02102 21.8767 6.94602 21.7988 6.89411 21.7051C6.84226 21.6113 6.81503 21.505 6.815 21.3967C6.81501 21.2884 6.84218 21.1814 6.89411 21.0876L8.37286 18.4194C8.42495 18.3258 8.49982 18.2479 8.58966 18.1938C8.67945 18.1399 8.78124 18.1111 8.88483 18.1111Z"/>
<path d="M22.9949 16.918C23.1392 16.9189 23.2784 16.9761 23.3839 17.0791C23.7748 17.5402 24.2672 17.8956 24.8187 18.1133C25.3701 18.3311 25.9643 18.405 26.5494 18.3293L26.6387 18.3323C26.7278 18.3397 26.8152 18.3616 26.898 18.3975C27.0085 18.4453 27.1085 18.5165 27.191 18.6069C27.2735 18.6975 27.3375 18.8056 27.3777 18.9233C27.418 19.041 27.4342 19.1664 27.4254 19.291V21.5791C27.4291 21.6344 27.4217 21.6902 27.4041 21.7424C27.3866 21.7946 27.3588 21.8425 27.3228 21.8831C27.2869 21.9235 27.2436 21.956 27.1954 21.9783C27.1469 22.0005 27.0939 22.0123 27.0408 22.0127H11.8475C11.1405 22.0126 11.8383 21.1119 11.8475 21.1001C11.8475 21.1001 13.8606 18.3228 14.2147 17.9536C14.3311 17.859 14.4744 17.8072 14.6219 17.8071C14.7695 17.8071 14.9134 17.859 15.0298 17.9536C15.3724 18.2017 15.6963 18.4771 15.9981 18.7776C16.1071 18.8766 16.2463 18.9313 16.3907 18.9314C16.5352 18.9314 16.675 18.8767 16.784 18.7776C16.784 18.7776 17.9469 17.748 18.3924 17.2842C18.5062 17.1724 18.6566 17.1099 18.8128 17.1099C18.9688 17.1099 19.1189 17.1725 19.2325 17.2842C19.2325 17.2842 19.5102 17.5292 20.178 18.1455C20.256 18.2558 20.3551 18.3479 20.4695 18.415C20.5839 18.4821 20.7109 18.523 20.8416 18.5352C20.9723 18.5472 21.1044 18.5298 21.2283 18.4846C21.3522 18.4395 21.4656 18.3674 21.5609 18.2729C22.1616 17.5864 22.3955 17.2734 22.6046 17.074C22.7112 16.9725 22.8507 16.9171 22.9949 16.918Z"/>
<path d="M11.6988 15.0547C12.0692 15.0547 12.4251 15.2079 12.6876 15.481L13.1717 15.9856C13.3014 16.1206 13.4046 16.2813 13.4749 16.458C13.5451 16.6346 13.5811 16.8242 13.5811 17.0154C13.5811 17.2067 13.5451 17.3961 13.4749 17.5728C13.4046 17.7495 13.3014 17.9101 13.1717 18.0452L12.6876 18.5498C12.4251 18.8228 12.0692 18.9761 11.6988 18.9761C11.3285 18.976 10.9731 18.8227 10.7108 18.5498L10.2252 18.0452C10.0956 17.9101 9.99284 17.7494 9.92267 17.5728C9.85251 17.396 9.81648 17.2066 9.81647 17.0154C9.81647 16.8241 9.85252 16.6346 9.92267 16.458C9.99283 16.2813 10.0956 16.1206 10.2252 15.9856L10.7108 15.481C10.9731 15.2079 11.3285 15.0548 11.6988 15.0547Z"/>
<path d="M6.99298 12.5688C7.94081 15.5293 8.84468 16.2967 9.03204 16.4932C9.07893 16.5594 9.10038 16.6421 9.09137 16.7239C9.08228 16.8057 9.04388 16.8815 8.9837 16.9348C8.9837 16.9348 7.87874 18.1331 7.37164 18.6135C6.8495 19.1573 6.72199 18.6501 6.72199 18.6501C5.71335 14.923 6.97979 12.5951 6.99298 12.571V12.5688Z"/>
<path d="M15.5733 12.9453C15.9931 12.9454 16.3959 13.119 16.6932 13.4287L17.6805 14.457C17.8275 14.61 17.9444 14.7922 18.024 14.9924C18.1035 15.1925 18.1441 15.4071 18.1441 15.6238C18.1441 15.8406 18.1036 16.0556 18.024 16.2559C17.9444 16.456 17.8274 16.6375 17.6805 16.7905L17.6483 16.8242C17.3509 17.134 16.9476 17.3083 16.5277 17.3083C16.1078 17.3083 15.7051 17.134 15.4078 16.8242L14.4205 15.7966C14.2735 15.6436 14.1566 15.4615 14.077 15.2612C13.9975 15.0611 13.9569 14.8466 13.9568 14.6299C13.9568 14.4131 13.9974 14.1981 14.077 13.9978C14.1566 13.7976 14.2736 13.6162 14.4205 13.4631L14.4527 13.4287C14.7501 13.1189 15.1534 12.9453 15.5733 12.9453Z"/>
<path d="M23.2974 12.9365C23.8127 12.3999 25.0535 12.821 26.0674 13.8777C27.0814 14.9344 27.4811 16.2276 26.9683 16.7642H26.9713L26.9207 16.8118C26.3784 17.2734 25.1848 16.845 24.202 15.8215C23.1872 14.7648 22.7822 13.4731 23.2974 12.9365Z"/>
<path d="M19.9027 11.9412C20.3286 11.9412 20.7375 12.1172 21.0394 12.4312L22.0779 13.5129C22.2272 13.6681 22.3457 13.8525 22.4266 14.0557C22.5074 14.2587 22.5489 14.4767 22.5489 14.6965C22.5489 14.9166 22.5074 15.135 22.4266 15.3381C22.3457 15.5412 22.2272 15.7257 22.0779 15.8809C21.9286 16.037 21.7509 16.1604 21.5557 16.2449C21.3605 16.3294 21.1511 16.373 20.9398 16.373C20.7285 16.373 20.519 16.3294 20.3238 16.2449C20.1288 16.1604 19.9516 16.0368 19.8023 15.8809H19.8052L18.7667 14.7983C18.6176 14.6431 18.4988 14.4587 18.418 14.2556C18.3374 14.0525 18.2964 13.8346 18.2964 13.6147C18.2965 13.3949 18.3374 13.177 18.418 12.9739C18.4988 12.7708 18.6176 12.5864 18.7667 12.4312C19.0684 12.1173 19.4768 11.9412 19.9027 11.9412Z"/>
<path d="M10.2801 8.6731C10.5429 10.3304 11.2934 11.8615 12.4268 13.053C12.7684 13.4247 12.4143 13.4761 12.2708 13.4866C9.74229 13.6868 9.95257 14.7404 9.55792 15.1514C9.16302 15.5623 9.10455 15.01 9.10455 15.01C8.65195 10.9543 10.26 8.70324 10.2801 8.67529V8.6731Z"/>
<path d="M20.6146 7.03394C22.5875 7.86407 24.3429 9.17841 25.7305 10.8682C25.7458 10.8869 27.4374 12.9583 27.4781 13.7773C27.5063 14.4045 27.1668 13.9905 27.1668 13.9905C26.7032 13.3945 26.1209 12.9108 25.461 12.5725C24.8836 12.2766 24.2585 12.0981 23.619 12.0459L23.3443 12.0312C23.1776 12.0806 22.9998 12.0723 22.8382 12.0071C22.6766 11.9417 22.5394 11.8231 22.4478 11.6694C22.0151 9.93372 21.2574 8.30476 20.2191 6.87646L20.2169 6.87427L20.6146 7.03394Z"/>
<path d="M12.251 7.00537C14.1099 8.0851 15.7339 9.55977 17.0169 11.3362C17.4484 12.0583 16.784 11.8987 16.784 11.8987C14.7241 11.4455 14.116 12.2596 13.8455 12.5344C13.5204 12.8732 13.4483 12.7079 13.4134 12.448C13.1318 10.5039 12.6152 8.60476 11.876 6.79663V6.79443L12.251 7.00537Z"/>
<path d="M15.0753 6.20337C16.1132 6.35012 17.1028 6.75294 17.9625 7.37817C19.1291 8.03676 20.1321 8.9716 20.8907 10.1079C21.8135 11.6201 20.9697 11.0726 20.9595 11.0659C19.3052 10.0952 18.6727 11.004 18.4876 11.2043C18.3026 11.4046 17.9995 11.6277 17.8336 11.1729C17.1641 9.37874 16.2339 7.70308 15.0753 6.20557V6.20337Z"/>
<path d="M17.1956 2.01025C17.6518 2.05752 18.0809 2.26763 18.4085 2.60864C18.7831 2.99862 18.9949 3.52839 18.9966 4.08081H18.9988L18.9937 4.23535C18.9699 4.59498 18.8577 4.94331 18.6663 5.24536C18.4476 5.59051 18.1353 5.85973 17.7698 6.01953C17.4043 6.17929 17.0014 6.22213 16.6126 6.14258C16.2239 6.06296 15.8665 5.86474 15.5858 5.57275C15.3049 5.28067 15.1136 4.90787 15.0357 4.50195C14.9578 4.09613 14.9965 3.67529 15.1478 3.29272C15.299 2.91013 15.556 2.58313 15.8853 2.35303C16.2147 2.12291 16.6023 1.99983 16.9986 2L17.1956 2.01025Z"/>
</mask>
<path d="M18.6978 30.3176C18.7209 30.3176 18.7439 30.3222 18.7652 30.3315C18.7866 30.3409 18.8061 30.3553 18.8223 30.3726C18.8384 30.3897 18.8512 30.4103 18.8597 30.4326C18.8682 30.455 18.8726 30.4789 18.8721 30.5029C18.8423 31.6758 18.6064 37.9995 16.992 38C15.3773 38 15.156 31.6715 15.1295 30.5029C15.1289 30.4789 15.1327 30.455 15.1412 30.4326C15.1496 30.4101 15.1624 30.3898 15.1785 30.3726C15.1947 30.3553 15.2137 30.3409 15.2349 30.3315C15.2562 30.3222 15.2793 30.3177 15.3023 30.3176H18.6978Z" fill="url(#paint0_linear_256_834)"/>
<path d="M11.2308 30.3176C11.2576 30.3178 11.2844 30.3242 11.3084 30.3367C11.3324 30.3493 11.3538 30.3677 11.3699 30.3901C12.1826 31.4234 13.234 32.223 14.4249 32.7134C14.4574 32.7264 14.485 32.7501 14.5047 32.78C14.5243 32.8101 14.5348 32.8454 14.5347 32.8818V36.3726C14.5345 36.401 14.5281 36.4292 14.5157 36.4546C14.5033 36.4799 14.4856 36.5023 14.4637 36.519C14.4417 36.5359 14.4158 36.5473 14.389 36.552C14.3621 36.5567 14.3344 36.5545 14.3084 36.5461C11.2449 35.4577 8.59429 33.3748 6.74323 30.6018V30.5996C6.72588 30.5725 6.71553 30.5407 6.71393 30.5081C6.71238 30.4754 6.71971 30.4425 6.73444 30.4136C6.74916 30.3847 6.77136 30.3609 6.79816 30.344C6.82497 30.3271 6.85547 30.3178 6.88678 30.3176H11.2308Z" fill="url(#paint1_linear_256_834)"/>
<path d="M27.1082 30.3176C27.1394 30.3178 27.1701 30.3272 27.1968 30.344C27.2236 30.3608 27.2459 30.3848 27.2606 30.4136C27.2753 30.4425 27.2826 30.4754 27.2811 30.5081C27.2795 30.5407 27.2691 30.5725 27.2518 30.5996V30.6018C25.4007 33.3749 22.7502 35.4577 19.6866 36.5461C19.6606 36.5545 19.6329 36.5567 19.606 36.552C19.5793 36.5473 19.554 36.5358 19.532 36.519C19.51 36.5022 19.4917 36.4799 19.4793 36.4546C19.4669 36.4292 19.4605 36.401 19.4603 36.3726V32.8818C19.4603 32.8455 19.4707 32.8101 19.4903 32.78C19.51 32.75 19.5383 32.7265 19.5709 32.7134C20.7617 32.2229 21.8135 31.4231 22.6265 30.3901C22.6425 30.3676 22.6634 30.3493 22.6873 30.3367C22.7114 30.324 22.7381 30.3176 22.765 30.3176H27.1082Z" fill="url(#paint2_linear_256_834)"/>
<path fill-rule="evenodd" clip-rule="evenodd" d="M11.0975 22.7231L11.1561 22.729C11.2138 22.741 11.2676 22.7706 11.3099 22.8147C11.366 22.8733 11.3976 22.9529 11.3978 23.0359V25.1628H11.3948C11.3948 25.631 11.8705 25.4763 11.8738 26.0667V29.2966C11.8738 29.3378 11.8662 29.3788 11.8511 29.4167C11.836 29.4546 11.8138 29.4889 11.786 29.5178C11.7581 29.5469 11.7249 29.5703 11.6885 29.5859C11.6521 29.6016 11.6129 29.6095 11.5735 29.6094H6.96588C6.88637 29.6094 6.80978 29.5765 6.75348 29.5178C6.69722 29.4592 6.66585 29.3797 6.66559 29.2966V23.0359C6.66581 22.9528 6.69724 22.8733 6.75348 22.8147C6.80978 22.756 6.88637 22.7231 6.96588 22.7231H11.0975ZM8.53327 26.7112C8.50378 26.711 8.47411 26.7171 8.44684 26.7288C8.41971 26.7404 8.39515 26.7577 8.37433 26.7793C8.35348 26.801 8.33657 26.8271 8.32526 26.8555C8.31395 26.884 8.30841 26.9148 8.30841 26.9456V27.8992C8.30853 27.9299 8.31393 27.9602 8.32526 27.9885C8.33659 28.0168 8.35352 28.0423 8.37433 28.064C8.39512 28.0856 8.41975 28.1028 8.44684 28.1145C8.47406 28.1261 8.50384 28.1322 8.53327 28.1321H10.261C10.3204 28.1321 10.3778 28.1076 10.42 28.064C10.4619 28.0203 10.4854 27.961 10.4859 27.8992V26.9456C10.4857 26.8835 10.462 26.8239 10.42 26.78C10.3778 26.7362 10.3205 26.7112 10.261 26.7112H8.53327ZM8.53327 24.0833C8.50384 24.0832 8.47406 24.0892 8.44684 24.1008C8.41985 24.1125 8.39508 24.1292 8.37433 24.1506C8.35346 24.1723 8.33661 24.1985 8.32526 24.2268C8.31395 24.2551 8.30853 24.2855 8.30841 24.3162V25.2698C8.30852 25.3005 8.31394 25.3308 8.32526 25.3591C8.33661 25.3875 8.35346 25.4136 8.37433 25.4353C8.39514 25.4569 8.41974 25.4742 8.44684 25.4858C8.47406 25.4975 8.50384 25.5028 8.53327 25.5027H9.80182C9.83113 25.5028 9.86045 25.4974 9.88751 25.4858C9.91456 25.4742 9.93931 25.4569 9.96002 25.4353C9.98087 25.4137 9.99711 25.3875 10.0084 25.3591C10.0197 25.3308 10.0252 25.3004 10.0252 25.2698V24.3162C10.0252 24.2854 10.0197 24.2551 10.0084 24.2268C9.99716 24.1986 9.98076 24.173 9.96002 24.1514C9.93934 24.1298 9.91452 24.1125 9.88751 24.1008C9.86045 24.0892 9.83113 24.0832 9.80182 24.0833H8.53327Z" fill="url(#paint3_linear_256_834)"/>
<path d="M16.1241 22.7231L16.1827 22.729C16.2403 22.741 16.2935 22.7707 16.3358 22.8147C16.3921 22.8733 16.4242 22.9528 16.4244 23.0359V23.7698H16.4207C16.4199 23.8518 16.3883 23.9308 16.3328 23.9888C16.2773 24.0466 16.2024 24.0794 16.1241 24.0803H14.6307C14.5914 24.0802 14.552 24.0881 14.5157 24.1038C14.4795 24.1193 14.4467 24.1424 14.419 24.1711C14.3912 24.2002 14.3688 24.2351 14.3538 24.2729C14.3388 24.3108 14.3311 24.3513 14.3311 24.3923V25.1848C14.3311 25.2258 14.3388 25.2663 14.3538 25.3042C14.3688 25.3421 14.3912 25.3771 14.419 25.406C14.4467 25.4349 14.4795 25.4578 14.5157 25.4734C14.552 25.489 14.5914 25.497 14.6307 25.4968H15.4649C15.5043 25.4968 15.5435 25.5046 15.5799 25.5203C15.6163 25.5359 15.6494 25.5594 15.6773 25.5884C15.7052 25.6175 15.7273 25.6522 15.7425 25.6902C15.7575 25.7281 15.7652 25.7686 15.7652 25.8096V26.4065C15.765 26.4475 15.7576 26.488 15.7425 26.5259C15.7274 26.5637 15.7051 26.5981 15.6773 26.627C15.6494 26.6559 15.6163 26.6795 15.5799 26.6951C15.5435 26.7107 15.5043 26.7187 15.4649 26.7185H14.6307C14.5513 26.7185 14.4745 26.7514 14.4183 26.8101C14.3622 26.8687 14.3311 26.9483 14.3311 27.0312V27.8113C14.3311 27.8941 14.3623 27.9738 14.4183 28.0325C14.4745 28.0911 14.5513 28.1248 14.6307 28.1248H16.1241L16.1827 28.1306C16.2017 28.1345 16.2203 28.1405 16.2383 28.1482C16.2747 28.1638 16.3079 28.1866 16.3358 28.2156C16.3636 28.2445 16.3858 28.2788 16.4009 28.3167C16.4162 28.3546 16.4242 28.3957 16.4244 28.4368V29.2864C16.4245 29.3705 16.3932 29.4516 16.3372 29.512C16.2811 29.5722 16.2045 29.6071 16.1241 29.6094H12.8047C12.7656 29.6095 12.7267 29.6015 12.6905 29.5859C12.6541 29.5703 12.6209 29.5469 12.5931 29.5178C12.5654 29.4888 12.5429 29.4546 12.5279 29.4167C12.5129 29.3788 12.5051 29.3377 12.5052 29.2966V23.0359C12.5052 22.953 12.537 22.8734 12.5931 22.8147C12.6492 22.7561 12.7254 22.7232 12.8047 22.7231H16.1241Z" fill="url(#paint4_linear_256_834)"/>
<path fill-rule="evenodd" clip-rule="evenodd" d="M27.0364 22.7231L27.095 22.729C27.1526 22.741 27.2059 22.7707 27.2481 22.8147C27.3044 22.8733 27.3365 22.9528 27.3367 23.0359V26.2C27.3365 26.2831 27.3044 26.3625 27.2481 26.4211C27.1918 26.4797 27.1158 26.5126 27.0364 26.5127H26.9405C26.8937 26.5125 26.8475 26.5238 26.8057 26.5457C26.7638 26.5677 26.7273 26.6 26.6995 26.6394C26.6717 26.6789 26.653 26.7251 26.6453 26.7734C26.6377 26.8216 26.6415 26.8711 26.6556 26.9177L27.3192 29.2065C27.3328 29.2532 27.336 29.3027 27.3279 29.3508C27.3199 29.3989 27.3009 29.4442 27.273 29.4834C27.2451 29.5226 27.2087 29.5546 27.1668 29.5764C27.125 29.5982 27.0788 29.6096 27.032 29.6094H25.7269C25.6661 29.6094 25.607 29.5897 25.5569 29.5537C25.5068 29.5176 25.468 29.4666 25.4464 29.4072L24.5777 26.7676C24.5729 26.7552 24.564 26.7448 24.5528 26.7383C24.5413 26.7318 24.5275 26.7291 24.5147 26.7317C24.502 26.7343 24.4908 26.7418 24.4825 26.7522C24.4741 26.7626 24.4695 26.7759 24.4693 26.7896V29.2966C24.4694 29.3377 24.4616 29.3788 24.4466 29.4167C24.4316 29.4546 24.4092 29.4888 24.3814 29.5178C24.3536 29.5469 24.3204 29.5703 24.284 29.5859C24.2478 29.6015 24.2089 29.6095 24.1697 29.6094H22.8631C22.7836 29.6094 22.7069 29.5765 22.6507 29.5178C22.5946 29.4592 22.5636 29.3796 22.5635 29.2966V23.0359C22.5635 22.953 22.5947 22.8734 22.6507 22.8147C22.7069 22.756 22.7836 22.7231 22.8631 22.7231H27.0364ZM24.7674 24.0833C24.7282 24.0832 24.6895 24.0911 24.6531 24.1067C24.6168 24.1224 24.5836 24.1451 24.5557 24.1741C24.5279 24.203 24.5057 24.2374 24.4905 24.2751C24.4754 24.3131 24.4672 24.3542 24.4671 24.3953V25.1943C24.4676 25.2771 24.4996 25.3563 24.5557 25.4148C24.6119 25.4732 24.6882 25.5063 24.7674 25.5063H25.5145C25.5538 25.5065 25.5931 25.4985 25.6295 25.4829C25.6657 25.4673 25.699 25.4445 25.7269 25.4155C25.7547 25.3866 25.7768 25.3516 25.7921 25.3137C25.8071 25.2759 25.8146 25.2353 25.8148 25.1943V24.3953C25.8146 24.3542 25.8072 24.3131 25.7921 24.2751C25.7769 24.2374 25.7547 24.203 25.7269 24.1741C25.6991 24.1452 25.6657 24.1224 25.6295 24.1067C25.5931 24.0911 25.5538 24.0832 25.5145 24.0833H24.7674Z" fill="url(#paint5_linear_256_834)"/>
<path fill-rule="evenodd" clip-rule="evenodd" d="M20.4732 22.7202C20.5514 22.72 20.629 22.7361 20.701 22.7678C20.7729 22.7995 20.8378 22.8462 20.8922 22.9048L21.7645 23.8372C21.8709 23.9508 21.9302 24.1037 21.93 24.2627V29.29C21.9298 29.3731 21.8984 29.4533 21.8421 29.512C21.7858 29.5706 21.7092 29.6035 21.6297 29.6035H20.7069C20.6276 29.6034 20.5512 29.5706 20.4952 29.512C20.439 29.4533 20.408 29.3731 20.408 29.29V27.0232C20.4077 26.9404 20.3755 26.8612 20.3194 26.8027C20.2634 26.7444 20.1875 26.7113 20.1085 26.7112H18.8714C18.7919 26.7112 18.7152 26.7447 18.659 26.8035C18.603 26.8621 18.5718 26.9419 18.5718 27.0247V29.29C18.5718 29.3312 18.5635 29.3721 18.5484 29.4102C18.5333 29.4482 18.5111 29.4829 18.4832 29.512C18.4553 29.5409 18.4222 29.5644 18.3858 29.5801C18.3494 29.5957 18.3101 29.6036 18.2708 29.6035H17.3575C17.2782 29.6035 17.2019 29.5706 17.1458 29.512C17.0896 29.4533 17.0579 29.3731 17.0579 29.29V24.2627C17.0576 24.1036 17.1177 23.9508 17.2242 23.8372L18.0958 22.9048C18.1498 22.847 18.215 22.8009 18.2862 22.7693C18.3574 22.7376 18.4338 22.7209 18.511 22.7202H20.4732ZM18.8751 24.0833C18.8359 24.0832 18.7971 24.0911 18.7608 24.1067C18.7245 24.1223 18.6912 24.1451 18.6634 24.1741C18.6356 24.203 18.6133 24.2373 18.5982 24.2751C18.5832 24.3131 18.5755 24.3542 18.5755 24.3953V25.1877C18.5755 25.2287 18.5833 25.2693 18.5982 25.3071C18.6133 25.3449 18.6356 25.3793 18.6634 25.4082C18.6912 25.4372 18.7245 25.4606 18.7608 25.4763C18.7971 25.4918 18.8359 25.4998 18.8751 25.4998H20.1121C20.1914 25.4998 20.2676 25.4667 20.3238 25.4082C20.3798 25.3498 20.4114 25.2705 20.4117 25.1877V24.3953C20.4115 24.3125 20.3799 24.2326 20.3238 24.1741C20.2676 24.1157 20.1913 24.0833 20.1121 24.0833H18.8751Z" fill="url(#paint6_linear_256_834)"/>
<path d="M9.89191 2.71265L14.3611 2.7229C14.384 2.72261 14.4065 2.72724 14.4278 2.73608C14.4491 2.74497 14.4685 2.75815 14.4849 2.7749C14.5013 2.79165 14.5148 2.81145 14.5237 2.8335C14.5327 2.85548 14.5374 2.87918 14.5377 2.90308V5.59033C14.5377 5.63861 14.519 5.6851 14.4864 5.71924C14.4537 5.75336 14.4095 5.77268 14.3633 5.77271H11.7347C11.7018 5.7726 11.6695 5.78229 11.6417 5.80054C11.6138 5.81879 11.5915 5.845 11.5772 5.87598C10.1882 8.57423 8.03275 10.7567 5.40802 12.1228C5.38265 12.1372 5.36091 12.1577 5.34503 12.1829C5.32915 12.2081 5.31981 12.2371 5.3172 12.2671C5.18113 15.3174 5.39818 18.374 5.96466 21.3696V28.7209C5.96454 28.7588 5.95352 28.7956 5.93244 28.8264C5.91126 28.8572 5.8811 28.8801 5.84674 28.8923C5.81239 28.9046 5.7753 28.9054 5.74054 28.8945C5.70584 28.8836 5.67485 28.8615 5.65265 28.8315C4.57875 27.3574 1.16432 21.6808 2.18976 10.1174C2.19347 10.0766 2.2103 10.038 2.23737 10.0083C2.26444 9.97869 2.30037 9.95921 2.33917 9.95337C3.14413 9.83281 7.33046 8.92098 9.73078 2.82617C9.74383 2.79275 9.76658 2.76435 9.79523 2.74414C9.82385 2.72396 9.85737 2.71288 9.89191 2.71265Z" fill="url(#paint7_linear_256_834)"/>
<path d="M24.1031 2.71265C24.1386 2.71169 24.1738 2.72165 24.2034 2.74194C24.233 2.76223 24.256 2.79187 24.2694 2.82617C26.6696 8.92098 30.856 9.83281 31.661 9.95337C31.6997 9.95921 31.7356 9.9787 31.7628 10.0083C31.7898 10.038 31.8067 10.0766 31.8104 10.1174C32.8359 21.6816 29.4204 27.3579 28.3467 28.8315C28.3246 28.8615 28.2942 28.8836 28.2596 28.8945C28.2249 28.9054 28.1877 28.9045 28.1534 28.8923C28.119 28.8801 28.0888 28.8572 28.0677 28.8264C28.0466 28.7956 28.0356 28.7588 28.0355 28.7209V21.3696C28.6024 18.3741 28.8192 15.3174 28.6822 12.2671C28.6798 12.2371 28.6708 12.2081 28.6551 12.1829C28.6393 12.1577 28.6174 12.1371 28.5921 12.1228C25.9674 10.7567 23.812 8.57423 22.4229 5.87598C22.4087 5.84498 22.3864 5.81879 22.3585 5.80054C22.3445 5.79142 22.3294 5.78471 22.3138 5.78003L22.2654 5.77271H19.6368C19.5905 5.77267 19.5463 5.75335 19.5137 5.71924C19.4811 5.6851 19.4625 5.6386 19.4625 5.59033V2.90308H19.4603C19.4608 2.85503 19.4795 2.80938 19.5123 2.77563C19.5451 2.74185 19.5893 2.72267 19.6353 2.7229L24.1031 2.71265Z" fill="url(#paint8_linear_256_834)"/>
<path d="M8.88483 18.1111C8.98856 18.1111 9.09083 18.1398 9.18073 18.1938C9.27058 18.2479 9.34544 18.3258 9.39752 18.4194L10.8763 21.0876C10.9283 21.1815 10.9555 21.2883 10.9554 21.3967C10.9554 21.5052 10.9275 21.612 10.8756 21.7058C10.8235 21.7994 10.7486 21.8775 10.6588 21.9314C10.5689 21.9852 10.4671 22.013 10.3636 22.0127H7.40607C7.30246 22.0129 7.20072 21.9847 7.1109 21.9307C7.02102 21.8767 6.94602 21.7988 6.89411 21.7051C6.84226 21.6113 6.81503 21.505 6.815 21.3967C6.81501 21.2884 6.84218 21.1814 6.89411 21.0876L8.37286 18.4194C8.42495 18.3258 8.49982 18.2479 8.58966 18.1938C8.67945 18.1399 8.78124 18.1111 8.88483 18.1111Z" fill="url(#paint9_linear_256_834)"/>
<path d="M22.9949 16.918C23.1392 16.9189 23.2784 16.9761 23.3839 17.0791C23.7748 17.5402 24.2672 17.8956 24.8187 18.1133C25.3701 18.3311 25.9643 18.405 26.5494 18.3293L26.6387 18.3323C26.7278 18.3397 26.8152 18.3616 26.898 18.3975C27.0085 18.4453 27.1085 18.5165 27.191 18.6069C27.2735 18.6975 27.3375 18.8056 27.3777 18.9233C27.418 19.041 27.4342 19.1664 27.4254 19.291V21.5791C27.4291 21.6344 27.4217 21.6902 27.4041 21.7424C27.3866 21.7946 27.3588 21.8425 27.3228 21.8831C27.2869 21.9235 27.2436 21.956 27.1954 21.9783C27.1469 22.0005 27.0939 22.0123 27.0408 22.0127H11.8475C11.1405 22.0126 11.8383 21.1119 11.8475 21.1001C11.8475 21.1001 13.8606 18.3228 14.2147 17.9536C14.3311 17.859 14.4744 17.8072 14.6219 17.8071C14.7695 17.8071 14.9134 17.859 15.0298 17.9536C15.3724 18.2017 15.6963 18.4771 15.9981 18.7776C16.1071 18.8766 16.2463 18.9313 16.3907 18.9314C16.5352 18.9314 16.675 18.8767 16.784 18.7776C16.784 18.7776 17.9469 17.748 18.3924 17.2842C18.5062 17.1724 18.6566 17.1099 18.8128 17.1099C18.9688 17.1099 19.1189 17.1725 19.2325 17.2842C19.2325 17.2842 19.5102 17.5292 20.178 18.1455C20.256 18.2558 20.3551 18.3479 20.4695 18.415C20.5839 18.4821 20.7109 18.523 20.8416 18.5352C20.9723 18.5472 21.1044 18.5298 21.2283 18.4846C21.3522 18.4395 21.4656 18.3674 21.5609 18.2729C22.1616 17.5864 22.3955 17.2734 22.6046 17.074C22.7112 16.9725 22.8507 16.9171 22.9949 16.918Z" fill="url(#paint10_linear_256_834)"/>
<path d="M11.6988 15.0547C12.0692 15.0547 12.4251 15.2079 12.6876 15.481L13.1717 15.9856C13.3014 16.1206 13.4046 16.2813 13.4749 16.458C13.5451 16.6346 13.5811 16.8242 13.5811 17.0154C13.5811 17.2067 13.5451 17.3961 13.4749 17.5728C13.4046 17.7495 13.3014 17.9101 13.1717 18.0452L12.6876 18.5498C12.4251 18.8228 12.0692 18.9761 11.6988 18.9761C11.3285 18.976 10.9731 18.8227 10.7108 18.5498L10.2252 18.0452C10.0956 17.9101 9.99284 17.7494 9.92267 17.5728C9.85251 17.396 9.81648 17.2066 9.81647 17.0154C9.81647 16.8241 9.85252 16.6346 9.92267 16.458C9.99283 16.2813 10.0956 16.1206 10.2252 15.9856L10.7108 15.481C10.9731 15.2079 11.3285 15.0548 11.6988 15.0547Z" fill="url(#paint11_linear_256_834)"/>
<path d="M6.99298 12.5688C7.94081 15.5293 8.84468 16.2967 9.03204 16.4932C9.07893 16.5594 9.10038 16.6421 9.09137 16.7239C9.08228 16.8057 9.04388 16.8815 8.9837 16.9348C8.9837 16.9348 7.87874 18.1331 7.37164 18.6135C6.8495 19.1573 6.72199 18.6501 6.72199 18.6501C5.71335 14.923 6.97979 12.5951 6.99298 12.571V12.5688Z" fill="url(#paint12_linear_256_834)"/>
<path d="M15.5733 12.9453C15.9931 12.9454 16.3959 13.119 16.6932 13.4287L17.6805 14.457C17.8275 14.61 17.9444 14.7922 18.024 14.9924C18.1035 15.1925 18.1441 15.4071 18.1441 15.6238C18.1441 15.8406 18.1036 16.0556 18.024 16.2559C17.9444 16.456 17.8274 16.6375 17.6805 16.7905L17.6483 16.8242C17.3509 17.134 16.9476 17.3083 16.5277 17.3083C16.1078 17.3083 15.7051 17.134 15.4078 16.8242L14.4205 15.7966C14.2735 15.6436 14.1566 15.4615 14.077 15.2612C13.9975 15.0611 13.9569 14.8466 13.9568 14.6299C13.9568 14.4131 13.9974 14.1981 14.077 13.9978C14.1566 13.7976 14.2736 13.6162 14.4205 13.4631L14.4527 13.4287C14.7501 13.1189 15.1534 12.9453 15.5733 12.9453Z" fill="url(#paint13_linear_256_834)"/>
<path d="M23.2974 12.9365C23.8127 12.3999 25.0535 12.821 26.0674 13.8777C27.0814 14.9344 27.4811 16.2276 26.9683 16.7642H26.9713L26.9207 16.8118C26.3784 17.2734 25.1848 16.845 24.202 15.8215C23.1872 14.7648 22.7822 13.4731 23.2974 12.9365Z" fill="url(#paint14_linear_256_834)"/>
<path d="M19.9027 11.9412C20.3286 11.9412 20.7375 12.1172 21.0394 12.4312L22.0779 13.5129C22.2272 13.6681 22.3457 13.8525 22.4266 14.0557C22.5074 14.2587 22.5489 14.4767 22.5489 14.6965C22.5489 14.9166 22.5074 15.135 22.4266 15.3381C22.3457 15.5412 22.2272 15.7257 22.0779 15.8809C21.9286 16.037 21.7509 16.1604 21.5557 16.2449C21.3605 16.3294 21.1511 16.373 20.9398 16.373C20.7285 16.373 20.519 16.3294 20.3238 16.2449C20.1288 16.1604 19.9516 16.0368 19.8023 15.8809H19.8052L18.7667 14.7983C18.6176 14.6431 18.4988 14.4587 18.418 14.2556C18.3374 14.0525 18.2964 13.8346 18.2964 13.6147C18.2965 13.3949 18.3374 13.177 18.418 12.9739C18.4988 12.7708 18.6176 12.5864 18.7667 12.4312C19.0684 12.1173 19.4768 11.9412 19.9027 11.9412Z" fill="url(#paint15_linear_256_834)"/>
<path d="M10.2801 8.6731C10.5429 10.3304 11.2934 11.8615 12.4268 13.053C12.7684 13.4247 12.4143 13.4761 12.2708 13.4866C9.74229 13.6868 9.95257 14.7404 9.55792 15.1514C9.16302 15.5623 9.10455 15.01 9.10455 15.01C8.65195 10.9543 10.26 8.70324 10.2801 8.67529V8.6731Z" fill="url(#paint16_linear_256_834)"/>
<path d="M20.6146 7.03394C22.5875 7.86407 24.3429 9.17841 25.7305 10.8682C25.7458 10.8869 27.4374 12.9583 27.4781 13.7773C27.5063 14.4045 27.1668 13.9905 27.1668 13.9905C26.7032 13.3945 26.1209 12.9108 25.461 12.5725C24.8836 12.2766 24.2585 12.0981 23.619 12.0459L23.3443 12.0312C23.1776 12.0806 22.9998 12.0723 22.8382 12.0071C22.6766 11.9417 22.5394 11.8231 22.4478 11.6694C22.0151 9.93372 21.2574 8.30476 20.2191 6.87646L20.2169 6.87427L20.6146 7.03394Z" fill="url(#paint17_linear_256_834)"/>
<path d="M12.251 7.00537C14.1099 8.0851 15.7339 9.55977 17.0169 11.3362C17.4484 12.0583 16.784 11.8987 16.784 11.8987C14.7241 11.4455 14.116 12.2596 13.8455 12.5344C13.5204 12.8732 13.4483 12.7079 13.4134 12.448C13.1318 10.5039 12.6152 8.60476 11.876 6.79663V6.79443L12.251 7.00537Z" fill="url(#paint18_linear_256_834)"/>
<path d="M15.0753 6.20337C16.1132 6.35012 17.1028 6.75294 17.9625 7.37817C19.1291 8.03676 20.1321 8.9716 20.8907 10.1079C21.8135 11.6201 20.9697 11.0726 20.9595 11.0659C19.3052 10.0952 18.6727 11.004 18.4876 11.2043C18.3026 11.4046 17.9995 11.6277 17.8336 11.1729C17.1641 9.37874 16.2339 7.70308 15.0753 6.20557V6.20337Z" fill="url(#paint19_linear_256_834)"/>
<path d="M17.1956 2.01025C17.6518 2.05752 18.0809 2.26763 18.4085 2.60864C18.7831 2.99862 18.9949 3.52839 18.9966 4.08081H18.9988L18.9937 4.23535C18.9699 4.59498 18.8577 4.94331 18.6663 5.24536C18.4476 5.59051 18.1353 5.85973 17.7698 6.01953C17.4043 6.17929 17.0014 6.22213 16.6126 6.14258C16.2239 6.06296 15.8665 5.86474 15.5858 5.57275C15.3049 5.28067 15.1136 4.90787 15.0357 4.50195C14.9578 4.09613 14.9965 3.67529 15.1478 3.29272C15.299 2.91013 15.556 2.58313 15.8853 2.35303C16.2147 2.12291 16.6023 1.99983 16.9986 2L17.1956 2.01025Z" fill="url(#paint20_linear_256_834)"/>
<path d="M18.6978 30.3176C18.7209 30.3176 18.7439 30.3222 18.7652 30.3315C18.7866 30.3409 18.8061 30.3553 18.8223 30.3726C18.8384 30.3897 18.8512 30.4103 18.8597 30.4326C18.8682 30.455 18.8726 30.4789 18.8721 30.5029C18.8423 31.6758 18.6064 37.9995 16.992 38C15.3773 38 15.156 31.6715 15.1295 30.5029C15.1289 30.4789 15.1327 30.455 15.1412 30.4326C15.1496 30.4101 15.1624 30.3898 15.1785 30.3726C15.1947 30.3553 15.2137 30.3409 15.2349 30.3315C15.2562 30.3222 15.2793 30.3177 15.3023 30.3176H18.6978Z" stroke="black" stroke-opacity="0.35" stroke-width="4" mask="url(#path-1-outside-1_256_834)"/>
<path d="M11.2308 30.3176C11.2576 30.3178 11.2844 30.3242 11.3084 30.3367C11.3324 30.3493 11.3538 30.3677 11.3699 30.3901C12.1826 31.4234 13.234 32.223 14.4249 32.7134C14.4574 32.7264 14.485 32.7501 14.5047 32.78C14.5243 32.8101 14.5348 32.8454 14.5347 32.8818V36.3726C14.5345 36.401 14.5281 36.4292 14.5157 36.4546C14.5033 36.4799 14.4856 36.5023 14.4637 36.519C14.4417 36.5359 14.4158 36.5473 14.389 36.552C14.3621 36.5567 14.3344 36.5545 14.3084 36.5461C11.2449 35.4577 8.59429 33.3748 6.74323 30.6018V30.5996C6.72588 30.5725 6.71553 30.5407 6.71393 30.5081C6.71238 30.4754 6.71971 30.4425 6.73444 30.4136C6.74916 30.3847 6.77136 30.3609 6.79816 30.344C6.82497 30.3271 6.85547 30.3178 6.88678 30.3176H11.2308Z" stroke="black" stroke-opacity="0.35" stroke-width="4" mask="url(#path-1-outside-1_256_834)"/>
<path d="M27.1082 30.3176C27.1394 30.3178 27.1701 30.3272 27.1968 30.344C27.2236 30.3608 27.2459 30.3848 27.2606 30.4136C27.2753 30.4425 27.2826 30.4754 27.2811 30.5081C27.2795 30.5407 27.2691 30.5725 27.2518 30.5996V30.6018C25.4007 33.3749 22.7502 35.4577 19.6866 36.5461C19.6606 36.5545 19.6329 36.5567 19.606 36.552C19.5793 36.5473 19.554 36.5358 19.532 36.519C19.51 36.5022 19.4917 36.4799 19.4793 36.4546C19.4669 36.4292 19.4605 36.401 19.4603 36.3726V32.8818C19.4603 32.8455 19.4707 32.8101 19.4903 32.78C19.51 32.75 19.5383 32.7265 19.5709 32.7134C20.7617 32.2229 21.8135 31.4231 22.6265 30.3901C22.6425 30.3676 22.6634 30.3493 22.6873 30.3367C22.7114 30.324 22.7381 30.3176 22.765 30.3176H27.1082Z" stroke="black" stroke-opacity="0.35" stroke-width="4" mask="url(#path-1-outside-1_256_834)"/>
<path fill-rule="evenodd" clip-rule="evenodd" d="M11.0975 22.7231L11.1561 22.729C11.2138 22.741 11.2676 22.7706 11.3099 22.8147C11.366 22.8733 11.3976 22.9529 11.3978 23.0359V25.1628H11.3948C11.3948 25.631 11.8705 25.4763 11.8738 26.0667V29.2966C11.8738 29.3378 11.8662 29.3788 11.8511 29.4167C11.836 29.4546 11.8138 29.4889 11.786 29.5178C11.7581 29.5469 11.7249 29.5703 11.6885 29.5859C11.6521 29.6016 11.6129 29.6095 11.5735 29.6094H6.96588C6.88637 29.6094 6.80978 29.5765 6.75348 29.5178C6.69722 29.4592 6.66585 29.3797 6.66559 29.2966V23.0359C6.66581 22.9528 6.69724 22.8733 6.75348 22.8147C6.80978 22.756 6.88637 22.7231 6.96588 22.7231H11.0975ZM8.53327 26.7112C8.50378 26.711 8.47411 26.7171 8.44684 26.7288C8.41971 26.7404 8.39515 26.7577 8.37433 26.7793C8.35348 26.801 8.33657 26.8271 8.32526 26.8555C8.31395 26.884 8.30841 26.9148 8.30841 26.9456V27.8992C8.30853 27.9299 8.31393 27.9602 8.32526 27.9885C8.33659 28.0168 8.35352 28.0423 8.37433 28.064C8.39512 28.0856 8.41975 28.1028 8.44684 28.1145C8.47406 28.1261 8.50384 28.1322 8.53327 28.1321H10.261C10.3204 28.1321 10.3778 28.1076 10.42 28.064C10.4619 28.0203 10.4854 27.961 10.4859 27.8992V26.9456C10.4857 26.8835 10.462 26.8239 10.42 26.78C10.3778 26.7362 10.3205 26.7112 10.261 26.7112H8.53327ZM8.53327 24.0833C8.50384 24.0832 8.47406 24.0892 8.44684 24.1008C8.41985 24.1125 8.39508 24.1292 8.37433 24.1506C8.35346 24.1723 8.33661 24.1985 8.32526 24.2268C8.31395 24.2551 8.30853 24.2855 8.30841 24.3162V25.2698C8.30852 25.3005 8.31394 25.3308 8.32526 25.3591C8.33661 25.3875 8.35346 25.4136 8.37433 25.4353C8.39514 25.4569 8.41974 25.4742 8.44684 25.4858C8.47406 25.4975 8.50384 25.5028 8.53327 25.5027H9.80182C9.83113 25.5028 9.86045 25.4974 9.88751 25.4858C9.91456 25.4742 9.93931 25.4569 9.96002 25.4353C9.98087 25.4137 9.99711 25.3875 10.0084 25.3591C10.0197 25.3308 10.0252 25.3004 10.0252 25.2698V24.3162C10.0252 24.2854 10.0197 24.2551 10.0084 24.2268C9.99716 24.1986 9.98076 24.173 9.96002 24.1514C9.93934 24.1298 9.91452 24.1125 9.88751 24.1008C9.86045 24.0892 9.83113 24.0832 9.80182 24.0833H8.53327Z" stroke="black" stroke-opacity="0.35" stroke-width="4" mask="url(#path-1-outside-1_256_834)"/>
<path d="M16.1241 22.7231L16.1827 22.729C16.2403 22.741 16.2935 22.7707 16.3358 22.8147C16.3921 22.8733 16.4242 22.9528 16.4244 23.0359V23.7698H16.4207C16.4199 23.8518 16.3883 23.9308 16.3328 23.9888C16.2773 24.0466 16.2024 24.0794 16.1241 24.0803H14.6307C14.5914 24.0802 14.552 24.0881 14.5157 24.1038C14.4795 24.1193 14.4467 24.1424 14.419 24.1711C14.3912 24.2002 14.3688 24.2351 14.3538 24.2729C14.3388 24.3108 14.3311 24.3513 14.3311 24.3923V25.1848C14.3311 25.2258 14.3388 25.2663 14.3538 25.3042C14.3688 25.3421 14.3912 25.3771 14.419 25.406C14.4467 25.4349 14.4795 25.4578 14.5157 25.4734C14.552 25.489 14.5914 25.497 14.6307 25.4968H15.4649C15.5043 25.4968 15.5435 25.5046 15.5799 25.5203C15.6163 25.5359 15.6494 25.5594 15.6773 25.5884C15.7052 25.6175 15.7273 25.6522 15.7425 25.6902C15.7575 25.7281 15.7652 25.7686 15.7652 25.8096V26.4065C15.765 26.4475 15.7576 26.488 15.7425 26.5259C15.7274 26.5637 15.7051 26.5981 15.6773 26.627C15.6494 26.6559 15.6163 26.6795 15.5799 26.6951C15.5435 26.7107 15.5043 26.7187 15.4649 26.7185H14.6307C14.5513 26.7185 14.4745 26.7514 14.4183 26.8101C14.3622 26.8687 14.3311 26.9483 14.3311 27.0312V27.8113C14.3311 27.8941 14.3623 27.9738 14.4183 28.0325C14.4745 28.0911 14.5513 28.1248 14.6307 28.1248H16.1241L16.1827 28.1306C16.2017 28.1345 16.2203 28.1405 16.2383 28.1482C16.2747 28.1638 16.3079 28.1866 16.3358 28.2156C16.3636 28.2445 16.3858 28.2788 16.4009 28.3167C16.4162 28.3546 16.4242 28.3957 16.4244 28.4368V29.2864C16.4245 29.3705 16.3932 29.4516 16.3372 29.512C16.2811 29.5722 16.2045 29.6071 16.1241 29.6094H12.8047C12.7656 29.6095 12.7267 29.6015 12.6905 29.5859C12.6541 29.5703 12.6209 29.5469 12.5931 29.5178C12.5654 29.4888 12.5429 29.4546 12.5279 29.4167C12.5129 29.3788 12.5051 29.3377 12.5052 29.2966V23.0359C12.5052 22.953 12.537 22.8734 12.5931 22.8147C12.6492 22.7561 12.7254 22.7232 12.8047 22.7231H16.1241Z" stroke="black" stroke-opacity="0.35" stroke-width="4" mask="url(#path-1-outside-1_256_834)"/>
<path fill-rule="evenodd" clip-rule="evenodd" d="M27.0364 22.7231L27.095 22.729C27.1526 22.741 27.2059 22.7707 27.2481 22.8147C27.3044 22.8733 27.3365 22.9528 27.3367 23.0359V26.2C27.3365 26.2831 27.3044 26.3625 27.2481 26.4211C27.1918 26.4797 27.1158 26.5126 27.0364 26.5127H26.9405C26.8937 26.5125 26.8475 26.5238 26.8057 26.5457C26.7638 26.5677 26.7273 26.6 26.6995 26.6394C26.6717 26.6789 26.653 26.7251 26.6453 26.7734C26.6377 26.8216 26.6415 26.8711 26.6556 26.9177L27.3192 29.2065C27.3328 29.2532 27.336 29.3027 27.3279 29.3508C27.3199 29.3989 27.3009 29.4442 27.273 29.4834C27.2451 29.5226 27.2087 29.5546 27.1668 29.5764C27.125 29.5982 27.0788 29.6096 27.032 29.6094H25.7269C25.6661 29.6094 25.607 29.5897 25.5569 29.5537C25.5068 29.5176 25.468 29.4666 25.4464 29.4072L24.5777 26.7676C24.5729 26.7552 24.564 26.7448 24.5528 26.7383C24.5413 26.7318 24.5275 26.7291 24.5147 26.7317C24.502 26.7343 24.4908 26.7418 24.4825 26.7522C24.4741 26.7626 24.4695 26.7759 24.4693 26.7896V29.2966C24.4694 29.3377 24.4616 29.3788 24.4466 29.4167C24.4316 29.4546 24.4092 29.4888 24.3814 29.5178C24.3536 29.5469 24.3204 29.5703 24.284 29.5859C24.2478 29.6015 24.2089 29.6095 24.1697 29.6094H22.8631C22.7836 29.6094 22.7069 29.5765 22.6507 29.5178C22.5946 29.4592 22.5636 29.3796 22.5635 29.2966V23.0359C22.5635 22.953 22.5947 22.8734 22.6507 22.8147C22.7069 22.756 22.7836 22.7231 22.8631 22.7231H27.0364ZM24.7674 24.0833C24.7282 24.0832 24.6895 24.0911 24.6531 24.1067C24.6168 24.1224 24.5836 24.1451 24.5557 24.1741C24.5279 24.203 24.5057 24.2374 24.4905 24.2751C24.4754 24.3131 24.4672 24.3542 24.4671 24.3953V25.1943C24.4676 25.2771 24.4996 25.3563 24.5557 25.4148C24.6119 25.4732 24.6882 25.5063 24.7674 25.5063H25.5145C25.5538 25.5065 25.5931 25.4985 25.6295 25.4829C25.6657 25.4673 25.699 25.4445 25.7269 25.4155C25.7547 25.3866 25.7768 25.3516 25.7921 25.3137C25.8071 25.2759 25.8146 25.2353 25.8148 25.1943V24.3953C25.8146 24.3542 25.8072 24.3131 25.7921 24.2751C25.7769 24.2374 25.7547 24.203 25.7269 24.1741C25.6991 24.1452 25.6657 24.1224 25.6295 24.1067C25.5931 24.0911 25.5538 24.0832 25.5145 24.0833H24.7674Z" stroke="black" stroke-opacity="0.35" stroke-width="4" mask="url(#path-1-outside-1_256_834)"/>
<path fill-rule="evenodd" clip-rule="evenodd" d="M20.4732 22.7202C20.5514 22.72 20.629 22.7361 20.701 22.7678C20.7729 22.7995 20.8378 22.8462 20.8922 22.9048L21.7645 23.8372C21.8709 23.9508 21.9302 24.1037 21.93 24.2627V29.29C21.9298 29.3731 21.8984 29.4533 21.8421 29.512C21.7858 29.5706 21.7092 29.6035 21.6297 29.6035H20.7069C20.6276 29.6034 20.5512 29.5706 20.4952 29.512C20.439 29.4533 20.408 29.3731 20.408 29.29V27.0232C20.4077 26.9404 20.3755 26.8612 20.3194 26.8027C20.2634 26.7444 20.1875 26.7113 20.1085 26.7112H18.8714C18.7919 26.7112 18.7152 26.7447 18.659 26.8035C18.603 26.8621 18.5718 26.9419 18.5718 27.0247V29.29C18.5718 29.3312 18.5635 29.3721 18.5484 29.4102C18.5333 29.4482 18.5111 29.4829 18.4832 29.512C18.4553 29.5409 18.4222 29.5644 18.3858 29.5801C18.3494 29.5957 18.3101 29.6036 18.2708 29.6035H17.3575C17.2782 29.6035 17.2019 29.5706 17.1458 29.512C17.0896 29.4533 17.0579 29.3731 17.0579 29.29V24.2627C17.0576 24.1036 17.1177 23.9508 17.2242 23.8372L18.0958 22.9048C18.1498 22.847 18.215 22.8009 18.2862 22.7693C18.3574 22.7376 18.4338 22.7209 18.511 22.7202H20.4732ZM18.8751 24.0833C18.8359 24.0832 18.7971 24.0911 18.7608 24.1067C18.7245 24.1223 18.6912 24.1451 18.6634 24.1741C18.6356 24.203 18.6133 24.2373 18.5982 24.2751C18.5832 24.3131 18.5755 24.3542 18.5755 24.3953V25.1877C18.5755 25.2287 18.5833 25.2693 18.5982 25.3071C18.6133 25.3449 18.6356 25.3793 18.6634 25.4082C18.6912 25.4372 18.7245 25.4606 18.7608 25.4763C18.7971 25.4918 18.8359 25.4998 18.8751 25.4998H20.1121C20.1914 25.4998 20.2676 25.4667 20.3238 25.4082C20.3798 25.3498 20.4114 25.2705 20.4117 25.1877V24.3953C20.4115 24.3125 20.3799 24.2326 20.3238 24.1741C20.2676 24.1157 20.1913 24.0833 20.1121 24.0833H18.8751Z" stroke="black" stroke-opacity="0.35" stroke-width="4" mask="url(#path-1-outside-1_256_834)"/>
<path d="M9.89191 2.71265L14.3611 2.7229C14.384 2.72261 14.4065 2.72724 14.4278 2.73608C14.4491 2.74497 14.4685 2.75815 14.4849 2.7749C14.5013 2.79165 14.5148 2.81145 14.5237 2.8335C14.5327 2.85548 14.5374 2.87918 14.5377 2.90308V5.59033C14.5377 5.63861 14.519 5.6851 14.4864 5.71924C14.4537 5.75336 14.4095 5.77268 14.3633 5.77271H11.7347C11.7018 5.7726 11.6695 5.78229 11.6417 5.80054C11.6138 5.81879 11.5915 5.845 11.5772 5.87598C10.1882 8.57423 8.03275 10.7567 5.40802 12.1228C5.38265 12.1372 5.36091 12.1577 5.34503 12.1829C5.32915 12.2081 5.31981 12.2371 5.3172 12.2671C5.18113 15.3174 5.39818 18.374 5.96466 21.3696V28.7209C5.96454 28.7588 5.95352 28.7956 5.93244 28.8264C5.91126 28.8572 5.8811 28.8801 5.84674 28.8923C5.81239 28.9046 5.7753 28.9054 5.74054 28.8945C5.70584 28.8836 5.67485 28.8615 5.65265 28.8315C4.57875 27.3574 1.16432 21.6808 2.18976 10.1174C2.19347 10.0766 2.2103 10.038 2.23737 10.0083C2.26444 9.97869 2.30037 9.95921 2.33917 9.95337C3.14413 9.83281 7.33046 8.92098 9.73078 2.82617C9.74383 2.79275 9.76658 2.76435 9.79523 2.74414C9.82385 2.72396 9.85737 2.71288 9.89191 2.71265Z" stroke="black" stroke-opacity="0.35" stroke-width="4" mask="url(#path-1-outside-1_256_834)"/>
<path d="M24.1031 2.71265C24.1386 2.71169 24.1738 2.72165 24.2034 2.74194C24.233 2.76223 24.256 2.79187 24.2694 2.82617C26.6696 8.92098 30.856 9.83281 31.661 9.95337C31.6997 9.95921 31.7356 9.9787 31.7628 10.0083C31.7898 10.038 31.8067 10.0766 31.8104 10.1174C32.8359 21.6816 29.4204 27.3579 28.3467 28.8315C28.3246 28.8615 28.2942 28.8836 28.2596 28.8945C28.2249 28.9054 28.1877 28.9045 28.1534 28.8923C28.119 28.8801 28.0888 28.8572 28.0677 28.8264C28.0466 28.7956 28.0356 28.7588 28.0355 28.7209V21.3696C28.6024 18.3741 28.8192 15.3174 28.6822 12.2671C28.6798 12.2371 28.6708 12.2081 28.6551 12.1829C28.6393 12.1577 28.6174 12.1371 28.5921 12.1228C25.9674 10.7567 23.812 8.57423 22.4229 5.87598C22.4087 5.84498 22.3864 5.81879 22.3585 5.80054C22.3445 5.79142 22.3294 5.78471 22.3138 5.78003L22.2654 5.77271H19.6368C19.5905 5.77267 19.5463 5.75335 19.5137 5.71924C19.4811 5.6851 19.4625 5.6386 19.4625 5.59033V2.90308H19.4603C19.4608 2.85503 19.4795 2.80938 19.5123 2.77563C19.5451 2.74185 19.5893 2.72267 19.6353 2.7229L24.1031 2.71265Z" stroke="black" stroke-opacity="0.35" stroke-width="4" mask="url(#path-1-outside-1_256_834)"/>
<path d="M8.88483 18.1111C8.98856 18.1111 9.09083 18.1398 9.18073 18.1938C9.27058 18.2479 9.34544 18.3258 9.39752 18.4194L10.8763 21.0876C10.9283 21.1815 10.9555 21.2883 10.9554 21.3967C10.9554 21.5052 10.9275 21.612 10.8756 21.7058C10.8235 21.7994 10.7486 21.8775 10.6588 21.9314C10.5689 21.9852 10.4671 22.013 10.3636 22.0127H7.40607C7.30246 22.0129 7.20072 21.9847 7.1109 21.9307C7.02102 21.8767 6.94602 21.7988 6.89411 21.7051C6.84226 21.6113 6.81503 21.505 6.815 21.3967C6.81501 21.2884 6.84218 21.1814 6.89411 21.0876L8.37286 18.4194C8.42495 18.3258 8.49982 18.2479 8.58966 18.1938C8.67945 18.1399 8.78124 18.1111 8.88483 18.1111Z" stroke="black" stroke-opacity="0.35" stroke-width="4" mask="url(#path-1-outside-1_256_834)"/>
<path d="M22.9949 16.918C23.1392 16.9189 23.2784 16.9761 23.3839 17.0791C23.7748 17.5402 24.2672 17.8956 24.8187 18.1133C25.3701 18.3311 25.9643 18.405 26.5494 18.3293L26.6387 18.3323C26.7278 18.3397 26.8152 18.3616 26.898 18.3975C27.0085 18.4453 27.1085 18.5165 27.191 18.6069C27.2735 18.6975 27.3375 18.8056 27.3777 18.9233C27.418 19.041 27.4342 19.1664 27.4254 19.291V21.5791C27.4291 21.6344 27.4217 21.6902 27.4041 21.7424C27.3866 21.7946 27.3588 21.8425 27.3228 21.8831C27.2869 21.9235 27.2436 21.956 27.1954 21.9783C27.1469 22.0005 27.0939 22.0123 27.0408 22.0127H11.8475C11.1405 22.0126 11.8383 21.1119 11.8475 21.1001C11.8475 21.1001 13.8606 18.3228 14.2147 17.9536C14.3311 17.859 14.4744 17.8072 14.6219 17.8071C14.7695 17.8071 14.9134 17.859 15.0298 17.9536C15.3724 18.2017 15.6963 18.4771 15.9981 18.7776C16.1071 18.8766 16.2463 18.9313 16.3907 18.9314C16.5352 18.9314 16.675 18.8767 16.784 18.7776C16.784 18.7776 17.9469 17.748 18.3924 17.2842C18.5062 17.1724 18.6566 17.1099 18.8128 17.1099C18.9688 17.1099 19.1189 17.1725 19.2325 17.2842C19.2325 17.2842 19.5102 17.5292 20.178 18.1455C20.256 18.2558 20.3551 18.3479 20.4695 18.415C20.5839 18.4821 20.7109 18.523 20.8416 18.5352C20.9723 18.5472 21.1044 18.5298 21.2283 18.4846C21.3522 18.4395 21.4656 18.3674 21.5609 18.2729C22.1616 17.5864 22.3955 17.2734 22.6046 17.074C22.7112 16.9725 22.8507 16.9171 22.9949 16.918Z" stroke="black" stroke-opacity="0.35" stroke-width="4" mask="url(#path-1-outside-1_256_834)"/>
<path d="M11.6988 15.0547C12.0692 15.0547 12.4251 15.2079 12.6876 15.481L13.1717 15.9856C13.3014 16.1206 13.4046 16.2813 13.4749 16.458C13.5451 16.6346 13.5811 16.8242 13.5811 17.0154C13.5811 17.2067 13.5451 17.3961 13.4749 17.5728C13.4046 17.7495 13.3014 17.9101 13.1717 18.0452L12.6876 18.5498C12.4251 18.8228 12.0692 18.9761 11.6988 18.9761C11.3285 18.976 10.9731 18.8227 10.7108 18.5498L10.2252 18.0452C10.0956 17.9101 9.99284 17.7494 9.92267 17.5728C9.85251 17.396 9.81648 17.2066 9.81647 17.0154C9.81647 16.8241 9.85252 16.6346 9.92267 16.458C9.99283 16.2813 10.0956 16.1206 10.2252 15.9856L10.7108 15.481C10.9731 15.2079 11.3285 15.0548 11.6988 15.0547Z" stroke="black" stroke-opacity="0.35" stroke-width="4" mask="url(#path-1-outside-1_256_834)"/>
<path d="M6.99298 12.5688C7.94081 15.5293 8.84468 16.2967 9.03204 16.4932C9.07893 16.5594 9.10038 16.6421 9.09137 16.7239C9.08228 16.8057 9.04388 16.8815 8.9837 16.9348C8.9837 16.9348 7.87874 18.1331 7.37164 18.6135C6.8495 19.1573 6.72199 18.6501 6.72199 18.6501C5.71335 14.923 6.97979 12.5951 6.99298 12.571V12.5688Z" stroke="black" stroke-opacity="0.35" stroke-width="4" mask="url(#path-1-outside-1_256_834)"/>
<path d="M15.5733 12.9453C15.9931 12.9454 16.3959 13.119 16.6932 13.4287L17.6805 14.457C17.8275 14.61 17.9444 14.7922 18.024 14.9924C18.1035 15.1925 18.1441 15.4071 18.1441 15.6238C18.1441 15.8406 18.1036 16.0556 18.024 16.2559C17.9444 16.456 17.8274 16.6375 17.6805 16.7905L17.6483 16.8242C17.3509 17.134 16.9476 17.3083 16.5277 17.3083C16.1078 17.3083 15.7051 17.134 15.4078 16.8242L14.4205 15.7966C14.2735 15.6436 14.1566 15.4615 14.077 15.2612C13.9975 15.0611 13.9569 14.8466 13.9568 14.6299C13.9568 14.4131 13.9974 14.1981 14.077 13.9978C14.1566 13.7976 14.2736 13.6162 14.4205 13.4631L14.4527 13.4287C14.7501 13.1189 15.1534 12.9453 15.5733 12.9453Z" stroke="black" stroke-opacity="0.35" stroke-width="4" mask="url(#path-1-outside-1_256_834)"/>
<path d="M23.2974 12.9365C23.8127 12.3999 25.0535 12.821 26.0674 13.8777C27.0814 14.9344 27.4811 16.2276 26.9683 16.7642H26.9713L26.9207 16.8118C26.3784 17.2734 25.1848 16.845 24.202 15.8215C23.1872 14.7648 22.7822 13.4731 23.2974 12.9365Z" stroke="black" stroke-opacity="0.35" stroke-width="4" mask="url(#path-1-outside-1_256_834)"/>
<path d="M19.9027 11.9412C20.3286 11.9412 20.7375 12.1172 21.0394 12.4312L22.0779 13.5129C22.2272 13.6681 22.3457 13.8525 22.4266 14.0557C22.5074 14.2587 22.5489 14.4767 22.5489 14.6965C22.5489 14.9166 22.5074 15.135 22.4266 15.3381C22.3457 15.5412 22.2272 15.7257 22.0779 15.8809C21.9286 16.037 21.7509 16.1604 21.5557 16.2449C21.3605 16.3294 21.1511 16.373 20.9398 16.373C20.7285 16.373 20.519 16.3294 20.3238 16.2449C20.1288 16.1604 19.9516 16.0368 19.8023 15.8809H19.8052L18.7667 14.7983C18.6176 14.6431 18.4988 14.4587 18.418 14.2556C18.3374 14.0525 18.2964 13.8346 18.2964 13.6147C18.2965 13.3949 18.3374 13.177 18.418 12.9739C18.4988 12.7708 18.6176 12.5864 18.7667 12.4312C19.0684 12.1173 19.4768 11.9412 19.9027 11.9412Z" stroke="black" stroke-opacity="0.35" stroke-width="4" mask="url(#path-1-outside-1_256_834)"/>
<path d="M10.2801 8.6731C10.5429 10.3304 11.2934 11.8615 12.4268 13.053C12.7684 13.4247 12.4143 13.4761 12.2708 13.4866C9.74229 13.6868 9.95257 14.7404 9.55792 15.1514C9.16302 15.5623 9.10455 15.01 9.10455 15.01C8.65195 10.9543 10.26 8.70324 10.2801 8.67529V8.6731Z" stroke="black" stroke-opacity="0.35" stroke-width="4" mask="url(#path-1-outside-1_256_834)"/>
<path d="M20.6146 7.03394C22.5875 7.86407 24.3429 9.17841 25.7305 10.8682C25.7458 10.8869 27.4374 12.9583 27.4781 13.7773C27.5063 14.4045 27.1668 13.9905 27.1668 13.9905C26.7032 13.3945 26.1209 12.9108 25.461 12.5725C24.8836 12.2766 24.2585 12.0981 23.619 12.0459L23.3443 12.0312C23.1776 12.0806 22.9998 12.0723 22.8382 12.0071C22.6766 11.9417 22.5394 11.8231 22.4478 11.6694C22.0151 9.93372 21.2574 8.30476 20.2191 6.87646L20.2169 6.87427L20.6146 7.03394Z" stroke="black" stroke-opacity="0.35" stroke-width="4" mask="url(#path-1-outside-1_256_834)"/>
<path d="M12.251 7.00537C14.1099 8.0851 15.7339 9.55977 17.0169 11.3362C17.4484 12.0583 16.784 11.8987 16.784 11.8987C14.7241 11.4455 14.116 12.2596 13.8455 12.5344C13.5204 12.8732 13.4483 12.7079 13.4134 12.448C13.1318 10.5039 12.6152 8.60476 11.876 6.79663V6.79443L12.251 7.00537Z" stroke="black" stroke-opacity="0.35" stroke-width="4" mask="url(#path-1-outside-1_256_834)"/>
<path d="M15.0753 6.20337C16.1132 6.35012 17.1028 6.75294 17.9625 7.37817C19.1291 8.03676 20.1321 8.9716 20.8907 10.1079C21.8135 11.6201 20.9697 11.0726 20.9595 11.0659C19.3052 10.0952 18.6727 11.004 18.4876 11.2043C18.3026 11.4046 17.9995 11.6277 17.8336 11.1729C17.1641 9.37874 16.2339 7.70308 15.0753 6.20557V6.20337Z" stroke="black" stroke-opacity="0.35" stroke-width="4" mask="url(#path-1-outside-1_256_834)"/>
<path d="M17.1956 2.01025C17.6518 2.05752 18.0809 2.26763 18.4085 2.60864C18.7831 2.99862 18.9949 3.52839 18.9966 4.08081H18.9988L18.9937 4.23535C18.9699 4.59498 18.8577 4.94331 18.6663 5.24536C18.4476 5.59051 18.1353 5.85973 17.7698 6.01953C17.4043 6.17929 17.0014 6.22213 16.6126 6.14258C16.2239 6.06296 15.8665 5.86474 15.5858 5.57275C15.3049 5.28067 15.1136 4.90787 15.0357 4.50195C14.9578 4.09613 14.9965 3.67529 15.1478 3.29272C15.299 2.91013 15.556 2.58313 15.8853 2.35303C16.2147 2.12291 16.6023 1.99983 16.9986 2L17.1956 2.01025Z" stroke="black" stroke-opacity="0.35" stroke-width="4" mask="url(#path-1-outside-1_256_834)"/>
<defs>
<linearGradient id="paint0_linear_256_834" x1="33.8021" y1="38.0008" x2="14.1599" y2="2.43067" gradientUnits="userSpaceOnUse">
<stop stop-color="#6B6B6B"/>
<stop offset="0.481251" stop-color="#DFDFDF"/>
<stop offset="0.65627" stop-color="#727272"/>
<stop offset="0.853867" stop-color="#DADADA"/>
<stop offset="1" stop-color="#9E9E9E"/>
</linearGradient>
<linearGradient id="paint1_linear_256_834" x1="33.8021" y1="38.0008" x2="14.1599" y2="2.43067" gradientUnits="userSpaceOnUse">
<stop stop-color="#6B6B6B"/>
<stop offset="0.481251" stop-color="#DFDFDF"/>
<stop offset="0.65627" stop-color="#727272"/>
<stop offset="0.853867" stop-color="#DADADA"/>
<stop offset="1" stop-color="#9E9E9E"/>
</linearGradient>
<linearGradient id="paint2_linear_256_834" x1="33.8021" y1="38.0008" x2="14.1599" y2="2.43067" gradientUnits="userSpaceOnUse">
<stop stop-color="#6B6B6B"/>
<stop offset="0.481251" stop-color="#DFDFDF"/>
<stop offset="0.65627" stop-color="#727272"/>
<stop offset="0.853867" stop-color="#DADADA"/>
<stop offset="1" stop-color="#9E9E9E"/>
</linearGradient>
<linearGradient id="paint3_linear_256_834" x1="33.8021" y1="38.0008" x2="14.1599" y2="2.43067" gradientUnits="userSpaceOnUse">
<stop stop-color="#6B6B6B"/>
<stop offset="0.481251" stop-color="#DFDFDF"/>
<stop offset="0.65627" stop-color="#727272"/>
<stop offset="0.853867" stop-color="#DADADA"/>
<stop offset="1" stop-color="#9E9E9E"/>
</linearGradient>
<linearGradient id="paint4_linear_256_834" x1="33.8021" y1="38.0008" x2="14.1599" y2="2.43067" gradientUnits="userSpaceOnUse">
<stop stop-color="#6B6B6B"/>
<stop offset="0.481251" stop-color="#DFDFDF"/>
<stop offset="0.65627" stop-color="#727272"/>
<stop offset="0.853867" stop-color="#DADADA"/>
<stop offset="1" stop-color="#9E9E9E"/>
</linearGradient>
<linearGradient id="paint5_linear_256_834" x1="33.8021" y1="38.0008" x2="14.1599" y2="2.43067" gradientUnits="userSpaceOnUse">
<stop stop-color="#6B6B6B"/>
<stop offset="0.481251" stop-color="#DFDFDF"/>
<stop offset="0.65627" stop-color="#727272"/>
<stop offset="0.853867" stop-color="#DADADA"/>
<stop offset="1" stop-color="#9E9E9E"/>
</linearGradient>
<linearGradient id="paint6_linear_256_834" x1="33.8021" y1="38.0008" x2="14.1599" y2="2.43067" gradientUnits="userSpaceOnUse">
<stop stop-color="#6B6B6B"/>
<stop offset="0.481251" stop-color="#DFDFDF"/>
<stop offset="0.65627" stop-color="#727272"/>
<stop offset="0.853867" stop-color="#DADADA"/>
<stop offset="1" stop-color="#9E9E9E"/>
</linearGradient>
<linearGradient id="paint7_linear_256_834" x1="33.8021" y1="38.0008" x2="14.1599" y2="2.43067" gradientUnits="userSpaceOnUse">
<stop stop-color="#6B6B6B"/>
<stop offset="0.481251" stop-color="#DFDFDF"/>
<stop offset="0.65627" stop-color="#727272"/>
<stop offset="0.853867" stop-color="#DADADA"/>
<stop offset="1" stop-color="#9E9E9E"/>
</linearGradient>
<linearGradient id="paint8_linear_256_834" x1="33.8021" y1="38.0008" x2="14.1599" y2="2.43067" gradientUnits="userSpaceOnUse">
<stop stop-color="#6B6B6B"/>
<stop offset="0.481251" stop-color="#DFDFDF"/>
<stop offset="0.65627" stop-color="#727272"/>
<stop offset="0.853867" stop-color="#DADADA"/>
<stop offset="1" stop-color="#9E9E9E"/>
</linearGradient>
<linearGradient id="paint9_linear_256_834" x1="33.8021" y1="38.0008" x2="14.1599" y2="2.43067" gradientUnits="userSpaceOnUse">
<stop stop-color="#6B6B6B"/>
<stop offset="0.481251" stop-color="#DFDFDF"/>
<stop offset="0.65627" stop-color="#727272"/>
<stop offset="0.853867" stop-color="#DADADA"/>
<stop offset="1" stop-color="#9E9E9E"/>
</linearGradient>
<linearGradient id="paint10_linear_256_834" x1="33.8021" y1="38.0008" x2="14.1599" y2="2.43067" gradientUnits="userSpaceOnUse">
<stop stop-color="#6B6B6B"/>
<stop offset="0.481251" stop-color="#DFDFDF"/>
<stop offset="0.65627" stop-color="#727272"/>
<stop offset="0.853867" stop-color="#DADADA"/>
<stop offset="1" stop-color="#9E9E9E"/>
</linearGradient>
<linearGradient id="paint11_linear_256_834" x1="33.8021" y1="38.0008" x2="14.1599" y2="2.43067" gradientUnits="userSpaceOnUse">
<stop stop-color="#6B6B6B"/>
<stop offset="0.481251" stop-color="#DFDFDF"/>
<stop offset="0.65627" stop-color="#727272"/>
<stop offset="0.853867" stop-color="#DADADA"/>
<stop offset="1" stop-color="#9E9E9E"/>
</linearGradient>
<linearGradient id="paint12_linear_256_834" x1="33.8021" y1="38.0008" x2="14.1599" y2="2.43067" gradientUnits="userSpaceOnUse">
<stop stop-color="#6B6B6B"/>
<stop offset="0.481251" stop-color="#DFDFDF"/>
<stop offset="0.65627" stop-color="#727272"/>
<stop offset="0.853867" stop-color="#DADADA"/>
<stop offset="1" stop-color="#9E9E9E"/>
</linearGradient>
<linearGradient id="paint13_linear_256_834" x1="33.8021" y1="38.0008" x2="14.1599" y2="2.43067" gradientUnits="userSpaceOnUse">
<stop stop-color="#6B6B6B"/>
<stop offset="0.481251" stop-color="#DFDFDF"/>
<stop offset="0.65627" stop-color="#727272"/>
<stop offset="0.853867" stop-color="#DADADA"/>
<stop offset="1" stop-color="#9E9E9E"/>
</linearGradient>
<linearGradient id="paint14_linear_256_834" x1="33.8021" y1="38.0008" x2="14.1599" y2="2.43067" gradientUnits="userSpaceOnUse">
<stop stop-color="#6B6B6B"/>
<stop offset="0.481251" stop-color="#DFDFDF"/>
<stop offset="0.65627" stop-color="#727272"/>
<stop offset="0.853867" stop-color="#DADADA"/>
<stop offset="1" stop-color="#9E9E9E"/>
</linearGradient>
<linearGradient id="paint15_linear_256_834" x1="33.8021" y1="38.0008" x2="14.1599" y2="2.43067" gradientUnits="userSpaceOnUse">
<stop stop-color="#6B6B6B"/>
<stop offset="0.481251" stop-color="#DFDFDF"/>
<stop offset="0.65627" stop-color="#727272"/>
<stop offset="0.853867" stop-color="#DADADA"/>
<stop offset="1" stop-color="#9E9E9E"/>
</linearGradient>
<linearGradient id="paint16_linear_256_834" x1="33.8021" y1="38.0008" x2="14.1599" y2="2.43067" gradientUnits="userSpaceOnUse">
<stop stop-color="#6B6B6B"/>
<stop offset="0.481251" stop-color="#DFDFDF"/>
<stop offset="0.65627" stop-color="#727272"/>
<stop offset="0.853867" stop-color="#DADADA"/>
<stop offset="1" stop-color="#9E9E9E"/>
</linearGradient>
<linearGradient id="paint17_linear_256_834" x1="33.8021" y1="38.0008" x2="14.1599" y2="2.43067" gradientUnits="userSpaceOnUse">
<stop stop-color="#6B6B6B"/>
<stop offset="0.481251" stop-color="#DFDFDF"/>
<stop offset="0.65627" stop-color="#727272"/>
<stop offset="0.853867" stop-color="#DADADA"/>
<stop offset="1" stop-color="#9E9E9E"/>
</linearGradient>
<linearGradient id="paint18_linear_256_834" x1="33.8021" y1="38.0008" x2="14.1599" y2="2.43067" gradientUnits="userSpaceOnUse">
<stop stop-color="#6B6B6B"/>
<stop offset="0.481251" stop-color="#DFDFDF"/>
<stop offset="0.65627" stop-color="#727272"/>
<stop offset="0.853867" stop-color="#DADADA"/>
<stop offset="1" stop-color="#9E9E9E"/>
</linearGradient>
<linearGradient id="paint19_linear_256_834" x1="33.8021" y1="38.0008" x2="14.1599" y2="2.43067" gradientUnits="userSpaceOnUse">
<stop stop-color="#6B6B6B"/>
<stop offset="0.481251" stop-color="#DFDFDF"/>
<stop offset="0.65627" stop-color="#727272"/>
<stop offset="0.853867" stop-color="#DADADA"/>
<stop offset="1" stop-color="#9E9E9E"/>
</linearGradient>
<linearGradient id="paint20_linear_256_834" x1="33.8021" y1="38.0008" x2="14.1599" y2="2.43067" gradientUnits="userSpaceOnUse">
<stop stop-color="#6B6B6B"/>
<stop offset="0.481251" stop-color="#DFDFDF"/>
<stop offset="0.65627" stop-color="#727272"/>
<stop offset="0.853867" stop-color="#DADADA"/>
<stop offset="1" stop-color="#9E9E9E"/>
</linearGradient>
</defs>
</svg>
