<svg width="9" height="9" viewBox="0 0 9 9" fill="none" xmlns="http://www.w3.org/2000/svg">
<path d="M7.5 0C8.19036 0 8.75 0.559644 8.75 1.25V7.5C8.75 8.19036 8.19036 8.75 7.5 8.75H1.25C0.559644 8.75 3.01997e-08 8.19036 0 7.5V1.25C0 0.559644 0.559644 3.01995e-08 1.25 0H7.5ZM2.1875 3.89941C1.92862 3.89941 1.71875 4.10928 1.71875 4.36816C1.719 4.62683 1.92877 4.83691 2.1875 4.83691H6.5625C6.82123 4.83691 7.031 4.62683 7.03125 4.36816C7.03125 4.10928 6.82138 3.89941 6.5625 3.89941H2.1875Z" fill="#9CA3AF"/>
</svg>
