<svg xmlns="http://www.w3.org/2000/svg" width="7" height="8" fill="none" viewBox="0 0 7 8"><path fill="#9ca3af" d="M5.043 1.565a1.565 1.565 0 1 1-3.13 0 1.565 1.565 0 0 1 3.13 0M3.086 7.967a.17.17 0 0 0 .1.033h.584a.17.17 0 0 0 .1-.033l1.28-.96a.17.17 0 0 0 .067-.134V3.645a.167.167 0 0 0-.166-.167h-.808a.17.17 0 0 0-.118.05l-.25.25a.17.17 0 0 1-.118.048h-.558a.17.17 0 0 1-.117-.049l-.25-.25a.17.17 0 0 0-.119-.049h-.807a.167.167 0 0 0-.167.167v3.228c0 .053.025.102.067.134zM5.928 6.26a.015.015 0 0 1-.015-.014v-2.51q.001-.015.015-.016h.143a.17.17 0 0 0 .118-.049l.114-.114a.17.17 0 0 1 .118-.048h.399c.092 0 .167.074.167.166v1.867a.17.17 0 0 1-.067.134l-.736.552a.17.17 0 0 1-.1.033zm-.436-3.667c-.052.103.002.236.1.3a.7.7 0 0 1 .285.365.054.054 0 0 0 .051.039.953.953 0 1 0-.05-1.904c-.083.004-.14.08-.139.163v.01c0 .37-.089.719-.247 1.027M1.217 1.565v-.01c0-.085-.058-.162-.144-.164h-.015a.953.953 0 1 0 0 1.906h.006l.004-.003a.7.7 0 0 1 .296-.402c.098-.062.153-.196.1-.3a2.25 2.25 0 0 1-.247-1.027M.896 6.26a.147.147 0 0 0 .147-.147V3.86a.14.14 0 0 0-.139-.139.14.14 0 0 1-.098-.04l-.122-.123a.17.17 0 0 0-.118-.049h-.4A.167.167 0 0 0 0 3.675v1.867c0 .053.025.102.067.134l.74.555q.04.03.089.03"/></svg>