<svg xmlns="http://www.w3.org/2000/svg" width="24" height="24" fill="none" viewBox="0 0 24 24"><path fill="#9ca3af" d="m24 18-6 6H0V0h24zM7.25 6a.25.25 0 0 0-.25.25v1.214c0 .138.112.25.25.25h1.038a.25.25 0 0 1 .25.25v8.071a.25.25 0 0 1-.25.25H7.25a.25.25 0 0 0-.25.25v1.214c0 .138.112.25.25.25h4.115a.25.25 0 0 0 .25-.25v-1.214a.25.25 0 0 0-.25-.25h-1.039a.25.25 0 0 1-.25-.25V7.964a.25.25 0 0 1 .25-.25h1.04a.25.25 0 0 0 .25-.25V6.25a.25.25 0 0 0-.25-.25zm5.385 0a.25.25 0 0 0-.25.25v1.214c0 .138.112.25.25.25h1.038a.25.25 0 0 1 .25.25v8.071a.25.25 0 0 1-.25.25h-1.038a.25.25 0 0 0-.25.25v1.214c0 .138.112.25.25.25h4.115a.25.25 0 0 0 .25-.25v-1.214a.25.25 0 0 0-.25-.25h-1.038a.25.25 0 0 1-.25-.25V7.964a.25.25 0 0 1 .25-.25h1.038a.25.25 0 0 0 .25-.25V6.25a.25.25 0 0 0-.25-.25z"/></svg>