<svg xmlns="http://www.w3.org/2000/svg" width="12" height="12" fill="none" viewBox="0 0 12 12"><path fill="#9ca3af" d="M8.014 6.373q.02 0 .08.06a.7.7 0 0 1 .1.127v.487a.6.6 0 0 1-.093.12q-.06.052-.08.053H6.894v-.847zm0-1.593q.02 0 .08.06t.1.127v.486a.7.7 0 0 1-.093.113q-.06.054-.08.054H6.894v-.84z"/><path fill="#9ca3af" fill-rule="evenodd" d="M11 3a1 1 0 0 1 1 1v4a1 1 0 0 1-1 1H1a1 1 0 0 1-1-1V4a1 1 0 0 1 1-1zM2.993 8H5.58v-.787H3.807V4h-.814zM6.08 8h1.946q.287 0 .507-.153.2-.147.354-.367.12-.173.12-.433v-.48q0-.32-.22-.56a.82.82 0 0 0 .22-.56v-.48a.8.8 0 0 0-.12-.447 3 3 0 0 0-.173-.187 2 2 0 0 0-.18-.173.86.86 0 0 0-.508-.16H6.08z" clip-rule="evenodd"/></svg>