<svg width="20" height="20" viewBox="0 0 20 20" fill="none" xmlns="http://www.w3.org/2000/svg">
<g filter="url(#filter0_i_236_908)">
<path d="M6.2793 16.6934C6.22548 16.9826 6.20024 17.3035 6.2002 17.6562C6.2002 18.4741 6.56682 19.1149 7.07129 19.6035L6.35254 20H0.625L0.663086 19.7822L6.2793 16.6934ZM12.5 9.6875C14.3333 9.68753 19.3731 11.5625 19.375 12.9688C19.3798 14.2243 18.65 14.7303 17.5498 14.9082V15.7812L17.0908 16.25C17.1082 16.2505 17.5496 16.2785 17.5498 17.6562C17.5498 18.9746 15.5323 19.8811 13.0107 19.9893L12.5 20C9.74575 20 7.4502 19.0625 7.4502 17.6562C7.45035 16.2804 7.8906 16.2506 7.90918 16.25L7.4502 15.7812V14.9082C6.35009 14.7303 5.62019 14.2243 5.625 12.9688C5.62686 11.5626 10.6666 9.68759 12.5 9.6875ZM4.53809 12.1982C4.44253 12.4218 4.37587 12.6784 4.375 12.9639C4.37171 13.8214 4.6208 14.5961 5.19727 15.1836L1.03516 17.4727L1.62695 13.791L4.53809 12.1982ZM17.0986 15.1699C14.7881 14.6117 10.2535 14.6575 7.91016 15.1621V15.6328C8.8477 16.2992 16.1621 16.4014 17.0986 15.6396V15.1699ZM12.5078 10.4355C12.2766 10.4355 12.0854 10.6292 12.085 10.8652C12.085 11.0594 12.2141 11.2247 12.3877 11.2754L12.3828 11.4648H11.8457C11.788 11.4649 11.7385 11.5163 11.7383 11.5752C11.7386 11.6341 11.788 11.6846 11.8457 11.6846H12.374L12.334 13.0273C12.3339 13.1368 12.2344 13.2297 12.123 13.209C11.8421 13.1668 11.6266 13.0652 11.5273 12.8965L11.5811 12.8662C11.6346 12.8366 11.622 12.7564 11.5684 12.7354L11.3457 12.6689C11.3086 12.6565 11.2712 12.677 11.2588 12.7148L11.1924 12.9434C11.1765 13.0022 11.2345 13.0519 11.2881 13.0225L11.3457 12.9893C11.4904 13.2635 11.8209 13.4748 12.2217 13.5381C12.3374 13.5634 12.4331 13.6266 12.4951 13.7236L12.5029 13.7314L12.5107 13.7236C12.5727 13.6268 12.6728 13.567 12.7842 13.5459C13.1887 13.4783 13.5154 13.272 13.6602 12.998L13.7139 13.0273C13.7674 13.0564 13.8247 13.006 13.8086 12.9473L13.7432 12.7188C13.7306 12.6812 13.6932 12.6595 13.6562 12.6719L13.4326 12.7402C13.3751 12.7574 13.3673 12.8416 13.4209 12.8711L13.4746 12.9004C13.3755 13.0691 13.1556 13.1664 12.8789 13.2129C12.7717 13.2294 12.6691 13.1407 12.6689 13.0312L12.6309 11.6934H13.1602C13.2179 11.6932 13.2676 11.642 13.2676 11.583C13.2672 11.5243 13.2177 11.4738 13.1602 11.4736H12.623L12.6182 11.2842C12.8 11.2251 12.9287 11.0594 12.9287 10.8652C12.9283 10.6295 12.7387 10.436 12.5078 10.4355ZM9.21582 1.81836V2.72754H8.26172V6.36328H9.21582V8.18164H8.01367L2 11.4912L2.53418 8.18164H1.5791V6.36328H2.53418V2.72754H1.5791V1.81836L5.39746 0L9.21582 1.81836ZM12.5029 10.6338C12.6265 10.6341 12.73 10.7391 12.7305 10.8652C12.7305 11.0001 12.6267 11.0984 12.5029 11.0986C12.3791 11.0984 12.2754 10.9917 12.2754 10.8652C12.2758 10.7391 12.3794 10.634 12.5029 10.6338ZM4.44336 6.36328H6.35254V2.72754H4.44336V6.36328Z" fill="url(#paint0_linear_236_908)"/>
</g>
<defs>
<filter id="filter0_i_236_908" x="0.625" y="0" width="18.75" height="20" filterUnits="userSpaceOnUse" color-interpolation-filters="sRGB">
<feFlood flood-opacity="0" result="BackgroundImageFix"/>
<feBlend mode="normal" in="SourceGraphic" in2="BackgroundImageFix" result="shape"/>
<feColorMatrix in="SourceAlpha" type="matrix" values="0 0 0 0 0 0 0 0 0 0 0 0 0 0 0 0 0 0 127 0" result="hardAlpha"/>
<feOffset dy="0.25"/>
<feComposite in2="hardAlpha" operator="arithmetic" k2="-1" k3="1"/>
<feColorMatrix type="matrix" values="0 0 0 0 1 0 0 0 0 1 0 0 0 0 1 0 0 0 1 0"/>
<feBlend mode="overlay" in2="shape" result="effect1_innerShadow_236_908"/>
</filter>
<linearGradient id="paint0_linear_236_908" x1="10" y1="0" x2="10" y2="20" gradientUnits="userSpaceOnUse">
<stop stop-color="#2ED399"/>
<stop offset="1" stop-color="#1E805D"/>
</linearGradient>
</defs>
</svg>
