<svg width="10" height="10" viewBox="0 0 10 10" fill="none" xmlns="http://www.w3.org/2000/svg">
<path d="M6.48926 6.55176L4.59082 10H8.75C9.39513 10 9.92539 9.5112 9.99219 8.88379H7.08008C6.76791 8.88379 6.51465 8.64417 6.51465 8.34863V6.55176H6.48926ZM1.25 0C0.559644 0 0 0.559644 0 1.25V8.75C0 9.44036 0.559644 10 1.25 10H3.34961C3.3592 9.94699 3.37483 9.89405 3.40234 9.84375L5.50488 6.02539L4.78418 4.80078L4.09277 5.5957C3.9854 5.71896 3.82501 5.79004 3.65625 5.79004H1.81543C1.50327 5.79004 1.25 5.55042 1.25 5.25488C1.2501 4.95942 1.50333 4.71973 1.81543 4.71973H3.38965L4.43945 3.51562C4.54674 3.39245 4.70638 3.32043 4.875 3.32031H7.88379C8.07034 3.32033 8.24524 3.40795 8.35059 3.55371L9.36133 4.95312C9.53759 5.19703 9.47149 5.5294 9.21387 5.69629C8.95634 5.86301 8.60502 5.80126 8.42871 5.55762L7.58594 4.39062H6.79199L7.57422 5.7334C7.62027 5.81242 7.64445 5.90097 7.64453 5.99121V7.81348H10V1.25C10 0.559644 9.44036 0 8.75 0H1.25ZM4.88477 1.25C5.40474 1.25022 5.82602 1.6493 5.82617 2.1416C5.82617 2.63403 5.40484 3.03396 4.88477 3.03418C4.36449 3.03418 3.94238 2.63417 3.94238 2.1416C3.94254 1.64916 4.36459 1.25 4.88477 1.25Z" fill="#222225"/>
</svg>
