<svg xmlns="http://www.w3.org/2000/svg" width="8" height="8" fill="none" viewBox="0 0 8 8"><path fill="#52525b" d="M7 0a1 1 0 0 1 1 1v2.776H6.788l-.84-.963a.46.46 0 0 0-.348-.157H3.193a.46.46 0 0 0-.373.187l-.81 1.119a.415.415 0 0 0 .119.596.47.47 0 0 0 .628-.113l.675-.932h.634L3.44 4.587a.4.4 0 0 0-.056.206v1.458H1.452A.44.44 0 0 0 1 6.679a.44.44 0 0 0 .452.428h2.384a.44.44 0 0 0 .452-.428V5.24h.02L5.829 8H1a1 1 0 0 1-1-1V1a1 1 0 0 1 1-1zm-.774 4.477a.46.46 0 0 0 .35.155H8V7a1 1 0 0 1-1 1h-.18a.4.4 0 0 0-.042-.125L5.097 4.82l.576-.98zM5.593 1c-.416 0-.754.32-.754.714s.338.713.754.713.752-.32.753-.713c0-.394-.337-.714-.753-.714"/></svg>