<svg xmlns="http://www.w3.org/2000/svg" width="12" height="12" fill="none" viewBox="0 0 12 12"><path fill="#9a8866" d="M3.393 4.78q.104.054.17.16v.593a.5.5 0 0 1-.091.107q-.06.053-.08.053H2.28V4.78z"/><path fill="#9a8866" fill-rule="evenodd" d="M11 3a1 1 0 0 1 1 1v4a1 1 0 0 1-1 1H1a1 1 0 0 1-1-1V4a1 1 0 0 1 1-1zM1.481 8h.8V6.474h1.112a.8.8 0 0 0 .49-.154q.073-.053.19-.174a1 1 0 0 0 .164-.186.77.77 0 0 0 .124-.434V4.96a.74.74 0 0 0-.124-.44 2 2 0 0 0-.353-.367A.8.8 0 0 0 3.393 4H1.48zm3.38 0h.8V6.38h1.688V5.6H5.66v-.82h1.78V4H4.861zM7.94 8h2.58v-.78H8.74v-.84h1.72V5.6H8.74v-.82h1.78V4H7.94z" clip-rule="evenodd"/></svg>