<svg width="21" height="20" viewBox="0 0 21 20" fill="none" xmlns="http://www.w3.org/2000/svg">
<path fill-rule="evenodd" clip-rule="evenodd" d="M10.554 5.03855e-05C10.5363 -0.000335021 9.75099 -0.0126086 9.43535 0.7903C9.43242 0.798448 9.22061 1.39004 9.44032 1.56332C9.44032 1.56332 9.43837 1.70549 9.39433 1.83781C9.39308 1.84512 9.35358 2.07578 9.37941 2.15046C9.38207 2.15835 9.37726 2.17118 9.36823 2.18862C9.35184 2.18754 9.22827 2.18892 9.05377 2.43727C8.91323 2.65388 8.84832 2.72527 8.75919 2.7253C8.75919 2.7253 8.73832 2.50555 8.61253 2.50497H8.11038C8.11038 2.50497 7.90696 2.58142 7.56971 2.78439C7.4833 2.91545 7.3733 3.1321 7.12722 3.36661C7.03602 3.47045 7.01412 3.57596 7.00044 3.67926C6.92278 3.70201 6.56667 3.61524 6.56666 4.07562C6.56666 4.07562 6.57799 4.88461 5.97254 5.9343V6.36389C5.97254 6.36389 5.97255 6.48564 5.82215 6.69255C5.82215 6.91165 5.80658 7.24905 5.80599 7.26123C5.80599 7.26123 5.64212 7.45416 5.64192 7.59604C5.64192 7.73845 5.70943 9.79882 5.6991 10.2093H5.7513V10.3041H5.80475V10.0887H5.86068V8.29767C5.86584 8.30813 5.95387 8.48308 6.07322 8.58447C6.19627 8.68954 6.37696 8.84211 6.43491 8.93036H6.67728C6.67728 8.93036 6.80484 8.94111 6.83514 9.05714C6.83804 9.05717 6.84094 9.0559 6.84384 9.05591L6.84259 9.06084L6.74564 9.11007H6.4722C6.3001 9.15884 6.30354 9.22735 6.3044 9.2344L6.30813 10.3459C6.33689 10.3593 6.52216 10.5635 6.52689 10.5687L6.5331 10.7964C6.46346 10.8225 6.4722 10.8838 6.4722 10.8838V11.3442C6.56289 11.4732 6.53559 11.8919 6.53559 11.8919C6.50056 12.1669 6.41378 12.2514 6.41378 12.2514V12.4077C6.56938 12.5056 6.31603 12.8551 6.32056 12.8865C6.32542 12.9159 6.30248 13.2439 6.30192 13.2521C6.34489 13.3062 6.35483 13.4039 6.35536 13.4097C6.35372 13.6295 6.37925 13.7287 6.45356 13.8429C6.52848 13.9572 6.63502 14.2184 6.63502 14.2184C6.30701 14.8725 6.31808 15.0234 6.3044 15.0776C6.29047 15.1312 6.21227 15.2308 6.06079 15.3496C5.90929 15.4688 5.90294 15.6906 5.90294 15.6906C5.82035 16.1435 5.70034 16.1189 5.70034 16.1189L5.65062 16.0684V14.6874H5.59096V14.643H5.37718V14.6874H5.31752C5.31752 14.6874 5.30931 16.0766 5.31752 16.1546C5.32527 16.2301 5.17475 16.2077 5.16588 16.2063V16.5473C5.03571 16.6209 5.04546 16.7386 5.06023 16.8919C5.0752 17.0454 5.22057 17.0716 5.22057 17.0716V17.9284H5.05277V18.4884C5.05277 18.4884 5.10155 18.5262 5.10373 18.582C5.10506 18.637 5.05277 18.678 5.05277 18.678V19.4092C5.09981 19.4092 5.10373 19.4547 5.10373 19.4547V19.6861C5.09492 19.7439 5.05277 19.7329 5.05277 19.7329V19.888H4.99808V19.8449C4.87127 19.8459 4.8749 19.996 4.87503 20H7.13841L7.02903 19.6209C6.88131 19.3394 6.52316 19.2688 6.52316 19.2688C6.38604 19.1015 6.43367 18.9808 6.43367 18.9808C6.61092 18.7009 7.02406 18.6214 7.02406 18.6214C7.32037 18.3667 7.47773 17.6908 7.47773 17.6908C7.58334 16.9034 7.93971 16.3823 8.0097 16.2876C8.0805 16.192 8.37388 15.8998 8.37388 15.8998C8.38159 15.8912 8.89056 15.3203 8.8897 14.6529C8.88916 13.9867 9.17746 13.1645 9.18303 13.1487C9.46019 13.455 9.45441 13.5928 9.45399 13.5992C9.4701 13.8635 9.77947 13.997 9.79082 14.0017C10.0306 14.529 10.3763 14.5171 10.3924 14.5163C10.4371 14.6545 10.2967 15.0985 10.2967 15.0985C10.3169 15.1731 10.3311 15.1677 10.4359 15.3077C10.5404 15.448 10.5291 15.5662 10.5291 15.5662C10.3372 16.4249 10.2084 17.9358 10.2084 17.9358C10.4527 18.1463 10.4722 18.2951 10.4732 18.3038C10.4573 18.7506 10.5043 18.7802 10.5043 18.7802C10.5072 18.7849 10.5357 18.8309 10.6435 18.9734C10.756 19.1216 10.8482 18.9959 10.851 18.9919C10.898 19.6784 10.7616 20 10.7616 20H14.0143C13.9741 19.5342 13.4436 19.353 13.4351 19.3501C13.3123 19.3378 13.1999 19.4488 13.1965 19.4522L13.0336 19.4547C13.0045 19.2782 12.8246 19.2982 12.8136 19.2996C12.8204 19.1094 12.6598 19.148 12.6496 19.1507C12.6746 18.9694 12.488 19.0288 12.488 19.0288C12.498 18.8555 12.3314 18.8819 12.3214 18.8836C12.2328 18.6767 12.2991 18.6374 12.2991 18.6374C12.5074 18.4501 12.5191 18.2213 12.5191 18.2213C12.6087 18.1132 12.5961 18.0416 12.5961 18.0416C12.4805 17.5684 12.4193 16.1131 12.4184 16.0918C12.326 15.8897 12.5256 15.695 12.5327 15.6881C12.7744 14.9716 12.7569 14.076 12.7565 14.0559C12.6536 13.9324 12.6496 13.8146 12.6496 13.8146C12.6509 13.8062 12.6705 13.6717 12.5887 13.6275C12.5056 13.5829 12.3415 13.7159 12.3351 13.7211C11.7718 12.2461 11.6762 11.856 11.6739 11.8464C11.6739 11.8464 11.625 11.3595 11.5123 11.2999C11.3991 11.2396 11.306 10.8924 11.306 10.8924C11.2453 10.6602 10.8436 10.0542 10.8436 10.0542C10.9524 9.86515 10.9256 9.66768 10.9256 9.66768C10.8345 9.37732 11.1518 9.24794 11.1518 9.24794C11.1611 9.15998 11.1655 9.10638 11.1655 9.10638C11.1655 9.10638 11.5281 9.20763 11.6987 8.71372C11.7124 8.91683 11.7948 9.19414 11.8429 8.59186C11.8839 8.21921 12.0476 7.82625 12.1636 7.4471C12.2182 7.22399 12.239 6.9265 11.5421 6.96704C11.5678 6.80889 11.618 6.64736 11.6913 6.53253C11.7465 6.45218 11.786 6.36572 11.8168 6.27896L11.9026 6.35528C12.534 6.74498 12.7588 6.84178 12.7639 6.84395C12.7639 6.84395 13.0356 6.97397 13.2076 6.95843C13.3781 6.9424 13.9137 6.1315 13.9236 6.11648C14.4191 5.34612 14.5166 5.31868 14.5711 5.28315C14.6246 5.24836 14.6393 4.9443 14.6395 4.93972C14.6395 4.93972 14.652 4.81043 14.7936 4.68369C14.9315 4.56001 14.9021 4.28656 14.9005 4.27257C14.9517 4.24398 15.1317 3.73712 15.1317 3.73712H16.8631V3.69527H16.919V3.6411H16.8159V3.53278H16.919V3.26321H17.0309L17.149 3.38015H20.2476V3.26321H20.2948V2.93702H20.2414V2.83116H17.149L17.0309 2.93456H16.919V2.77577H16.7562V2.72284H17.0309V2.56036H14.0852V2.45204H14.1933V2.2834L14.0354 2.12708V1.75411L12.2904 1.75903V2.2871H12.5563V2.57267H12.1275C12.0562 2.75765 11.7596 2.72161 11.7596 2.72161C11.7289 2.72354 11.6982 2.72256 11.6677 2.72407C11.7057 2.64945 11.7373 2.59729 11.7373 2.59729C11.7377 2.59433 11.763 2.4339 11.8827 2.35356C11.8827 2.35356 12.0473 2.33532 12.0057 2.18124C11.9639 2.02687 11.8903 1.98825 11.8715 1.80458C11.8825 1.79626 12.052 1.67422 12.4432 1.71964C12.457 1.71742 12.7537 1.66686 12.7266 1.49808C12.7197 1.49195 12.3867 1.19804 11.8156 0.928162L11.8168 0.834613C11.8168 0.834613 11.9722 0.814462 11.7895 0.594584C11.786 0.589589 11.7343 0.514799 11.7161 0.486263C11.6976 0.457705 11.5524 0.0298144 10.554 5.03855e-05ZM11.8727 7.15907C12.0144 7.15955 11.9838 7.36721 11.9821 7.37817C11.9821 7.37817 11.9057 7.38196 11.833 7.37817C11.8149 7.33455 11.7811 7.28739 11.736 7.27108C11.6752 7.39995 11.5043 7.48251 11.4986 7.48526C11.5895 7.13587 11.8022 7.15907 11.8727 7.15907ZM13.5992 4.55814V4.71447H13.5432V4.82279H13.6526V5.2056C13.6532 5.21872 13.6539 5.44128 13.0162 5.68812C13.0162 5.68812 12.9919 5.63938 12.9429 5.45548C12.8939 5.27127 12.7912 5.1121 12.7639 5.08497C12.7639 5.08497 12.8796 5.03319 13.0162 4.84987L13.138 4.70708H13.2076V4.55322L13.5992 4.55814ZM6.62135 4.83017V5.16375C6.62135 5.31053 6.45728 5.32377 6.45728 5.32377V5.11451C6.56886 4.7852 6.62135 4.83017 6.62135 4.83017ZM13.5992 4.44613H13.2139V4.39689H13.4314V4.3415H13.4861V4.17778H13.5992V4.44613ZM12.2904 3.68296C12.2865 3.69837 12.1884 4.08275 12.0505 4.11132C12.0049 3.9581 11.8453 3.78701 11.7758 3.71865C11.7594 3.70973 11.7462 3.69683 11.7348 3.68296H12.2904ZM13.1057 2.44711H13.2151V2.51112H12.9404V2.39665H13.1057V2.44711Z" fill="#0095E2"/>
</svg>
