<svg xmlns="http://www.w3.org/2000/svg" width="12" height="12" fill="none" viewBox="0 0 12 12"><path fill="#52525b" fill-rule="evenodd" d="M11 3a1 1 0 0 1 1 1v4a1 1 0 0 1-1 1H1a1 1 0 0 1-1-1V4a1 1 0 0 1 1-1zM5.55 4a.9.9 0 0 0-.427.125q-.105.066-.27.223a2 2 0 0 0-.222.25.76.76 0 0 0-.106.414v.361q0 .255.138.473.144.216.407.289.303.078.86.23.566.15.802.216l.02.04v.387a.2.2 0 0 1-.04.053 1 1 0 0 1-.196.17h-.998q-.151-.098-.342-.44l-.742.23q.079.225.223.42.394.558.866.559H6.53q.21 0 .433-.125.1-.06.257-.217.157-.165.222-.262a.74.74 0 0 0 .119-.408v-.387a.84.84 0 0 0-.144-.473.7.7 0 0 0-.401-.29l-1.668-.452-.02-.04v-.348q0-.007.032-.046a1 1 0 0 1 .211-.183h.907q.222.15.347.414l.742-.211a2 2 0 0 0-.222-.42Q6.943 4 6.482 4z" clip-rule="evenodd"/></svg>