<svg width="32" height="41" viewBox="0 0 32 41" fill="none" xmlns="http://www.w3.org/2000/svg">
<mask id="path-1-outside-1_256_894" maskUnits="userSpaceOnUse" x="0" y="-0.850586" width="32" height="41" fill="black">
<rect fill="white" y="-0.850586" width="32" height="41"/>
<path d="M29.2962 25.7195V25.7224C29.3555 25.7209 29.4146 25.7316 29.4698 25.7547C29.525 25.7777 29.5756 25.8126 29.6177 25.8565C29.6598 25.9004 29.693 25.9527 29.7151 26.0103C29.7371 26.0679 29.7474 26.1298 29.7459 26.1919V29.1611C29.722 29.2971 29.6692 29.4259 29.5913 29.5376C29.5134 29.6493 29.4127 29.7415 29.2962 29.8071C28.6796 30.1998 16.414 37.9381 16.3623 37.9707C16.2149 38.0594 16.0533 38.1199 15.8855 38.1494H15.8672C15.6995 38.1199 15.5379 38.0593 15.3904 37.9707C15.3294 37.9322 3.07289 30.1996 2.4566 29.8071C2.34016 29.7415 2.2394 29.6492 2.16143 29.5376C2.08341 29.4259 2.0304 29.297 2.00616 29.1611V26.1934C2.00472 26.1312 2.01555 26.0694 2.03766 26.0117C2.05979 25.954 2.09293 25.9012 2.13507 25.8572C2.17714 25.8133 2.22708 25.7784 2.28228 25.7554C2.30993 25.7439 2.33882 25.7352 2.36798 25.7298C2.39712 25.7243 2.42685 25.7224 2.4566 25.7232H4.18585L4.2752 25.729C4.30467 25.7342 4.33361 25.7426 4.36163 25.7539C4.41766 25.7765 4.46883 25.8112 4.51177 25.855C4.55458 25.8988 4.5885 25.951 4.61138 26.0088C4.6343 26.0668 4.6459 26.1292 4.64507 26.1919V27.5322C5.69976 28.195 15.6276 34.4105 15.8768 34.5657C16.1277 34.4083 26.0528 28.1951 27.1077 27.5322V26.1882C27.1069 26.1257 27.1186 26.0637 27.1414 26.0059C27.1643 25.9479 27.1981 25.8952 27.241 25.8513C27.284 25.8075 27.3351 25.7729 27.3911 25.7503C27.4471 25.7277 27.5069 25.7173 27.5669 25.7195H29.2962Z"/>
<path d="M16.9878 25.7246L17.0757 25.7319C17.1047 25.7375 17.1332 25.7461 17.1607 25.7576C17.2155 25.7807 17.2654 25.815 17.3072 25.8587C17.349 25.9024 17.3819 25.9551 17.4038 26.0125C17.4258 26.0697 17.4367 26.131 17.4353 26.1926V32.3794L15.8863 33.3557V33.3667L15.8775 33.3616L15.868 33.3667V33.3557L14.3196 32.3794V26.1926C14.3184 26.131 14.3291 26.0697 14.3511 26.0125C14.3732 25.9551 14.4059 25.9024 14.4478 25.8587C14.4896 25.815 14.5401 25.7807 14.595 25.7576C14.6499 25.7346 14.7087 25.7234 14.7679 25.7246H16.9878Z"/>
<path d="M21.167 25.7239L21.2557 25.7298C21.2849 25.735 21.3136 25.7433 21.3413 25.7547C21.3967 25.7774 21.4471 25.8119 21.4893 25.8557C21.5315 25.8996 21.5647 25.9524 21.5867 26.0103C21.6087 26.068 21.6186 26.1299 21.6167 26.1919V29.7515L19.1477 31.3005C19.1477 31.3005 19.0841 31.3406 19.0049 31.3599C18.9654 31.3695 18.9219 31.374 18.8804 31.3657C18.7835 31.3464 18.6973 31.2572 18.6973 31.0024V26.1926C18.6968 26.1309 18.7079 26.0696 18.7303 26.0125C18.7528 25.9553 18.7865 25.9037 18.8284 25.8601C18.8703 25.8165 18.92 25.7816 18.9749 25.7583C19.0296 25.7352 19.0887 25.7238 19.1477 25.7246L21.167 25.7239Z"/>
<path d="M10.5857 25.7239H12.6043L12.6929 25.7319C12.7217 25.7376 12.7499 25.7461 12.7771 25.7576C12.8319 25.7807 12.8824 25.8151 12.9244 25.8587C12.9664 25.9023 12.9993 25.9546 13.0218 26.0117C13.0443 26.0689 13.0559 26.1301 13.0555 26.1919V30.9995C13.0555 31.2541 12.9694 31.3433 12.8724 31.3628C12.8306 31.3712 12.7869 31.3666 12.7471 31.3569C12.6679 31.3377 12.6043 31.2976 12.6043 31.2976L10.136 29.7493V26.1904C10.1342 26.1283 10.1441 26.0659 10.1661 26.0081C10.1881 25.9504 10.2213 25.8981 10.2635 25.8543C10.3056 25.8104 10.356 25.7759 10.4114 25.7532C10.4391 25.7418 10.4679 25.7335 10.4971 25.7283C10.5263 25.7231 10.556 25.7213 10.5857 25.7224V25.7239Z"/>
<path d="M8.3958 25.7224L8.4771 25.7349C8.50336 25.742 8.52887 25.7522 8.55327 25.7649C8.60229 25.7906 8.64595 25.8268 8.68071 25.8711C8.71544 25.9154 8.74094 25.9669 8.75542 26.022C8.7699 26.0773 8.77327 26.1353 8.76494 26.1919V27.6582L8.77007 28.5254C8.76985 28.5347 8.75895 28.8804 8.40679 28.6668L5.84698 27.0386V26.1926C5.84564 26.1308 5.85578 26.0692 5.87774 26.0117C5.89982 25.9541 5.93318 25.9011 5.97515 25.8572C6.01708 25.8133 6.0673 25.7786 6.12237 25.7554C6.17745 25.7322 6.23656 25.7212 6.29595 25.7224H8.3958Z"/>
<path d="M25.4576 25.7224L25.5462 25.7298C25.5752 25.7353 25.6036 25.7438 25.6311 25.7554C25.6862 25.7786 25.7364 25.8134 25.7784 25.8572C25.8203 25.9011 25.8536 25.9541 25.8758 26.0117C25.8977 26.0692 25.9086 26.1308 25.9073 26.1926V27.0386L23.3474 28.6668C23.2804 28.7073 23.2257 28.7271 23.1812 28.7334C23.1515 28.7376 23.1264 28.7362 23.105 28.7297C22.9875 28.6941 22.9856 28.5239 22.9856 28.5239L22.9915 27.6575V26.1926C22.983 26.1362 22.9861 26.0786 23.0003 26.0235C23.0146 25.9682 23.0397 25.9162 23.0743 25.8718C23.1088 25.8275 23.1522 25.7914 23.201 25.7656C23.2498 25.7398 23.3037 25.7253 23.3584 25.7224H25.4576Z"/>
<path d="M28.5169 14.8343L29.7488 16.127V17.2937C29.7513 17.3545 29.7416 17.4155 29.721 17.4724C29.7004 17.5292 29.669 17.5811 29.6287 17.6248C29.5883 17.6686 29.5395 17.7036 29.4859 17.7273C29.459 17.7392 29.4309 17.7485 29.4024 17.7544C29.374 17.7603 29.345 17.7633 29.3159 17.7632H28.0518C27.9921 17.7659 27.9325 17.7556 27.8767 17.7332C27.821 17.7106 27.7704 17.6761 27.7281 17.6321C27.6856 17.588 27.6525 17.5349 27.6306 17.4768C27.6089 17.4186 27.5989 17.3561 27.6013 17.2937V17.0879H25.4722V22.157H27.6013V21.7241C27.6001 21.6621 27.6106 21.6 27.6328 21.5425C27.6551 21.4849 27.6888 21.4326 27.731 21.3887C27.773 21.3449 27.8231 21.31 27.8782 21.2869C27.9333 21.2639 27.9924 21.2527 28.0518 21.2539H29.3137L29.3159 21.2517L29.4038 21.2583C29.4328 21.2638 29.4614 21.2722 29.4888 21.284C29.5435 21.3074 29.593 21.3432 29.6338 21.388C29.6746 21.4326 29.7056 21.4859 29.7254 21.544C29.7452 21.6022 29.7535 21.6641 29.7488 21.7256V23.0549L28.5161 24.4107H24.4644L23.3321 23.0549V16.127L24.4637 14.8343H28.5169Z"/>
<path d="M3.70025 14.8328L3.78887 14.8401C3.8179 14.8456 3.8463 14.8543 3.87383 14.8657C3.92917 14.8888 3.98016 14.9231 4.02252 14.9668C4.06473 15.0105 4.09802 15.0625 4.12066 15.1199C4.14335 15.1773 4.15491 15.2394 4.15435 15.3015V22.1555H6.30987V15.3015C6.30954 15.2398 6.32106 15.1784 6.34356 15.1214C6.36613 15.0641 6.39974 15.0119 6.4417 14.9683C6.48361 14.9247 6.53344 14.8905 6.58819 14.8672C6.64303 14.8439 6.7018 14.8322 6.76104 14.8328H8.02227L8.11089 14.8394C8.13989 14.8449 8.16835 14.8536 8.19585 14.865C8.25101 14.888 8.30102 14.923 8.34307 14.9668C8.38505 15.0105 8.4183 15.0625 8.44048 15.1199C8.46267 15.1774 8.47395 15.2395 8.47271 15.3015V23.0535L7.22686 24.4092H3.21319L2.00616 23.0535V15.3015C2.0045 15.2409 2.01451 15.18 2.03546 15.1236C2.0564 15.0672 2.08757 15.0155 2.12774 14.9719C2.16803 14.9282 2.21649 14.8934 2.26983 14.8694C2.32305 14.8456 2.38036 14.8334 2.43829 14.8328H3.70025Z"/>
<path d="M14.2295 14.8328L15.523 16.1255V17.2923C15.5225 17.4168 15.4742 17.5362 15.3897 17.624C15.3263 17.6899 15.2462 17.7343 15.1597 17.7522C15.131 17.7582 15.1015 17.761 15.0718 17.761H13.8099C13.7499 17.7648 13.6896 17.7554 13.6333 17.7332C13.5772 17.711 13.5257 17.6764 13.4832 17.6321C13.4408 17.5878 13.4079 17.5346 13.3865 17.4761C13.3651 17.4175 13.3559 17.3549 13.3594 17.2923V17.0857H11.25V18.3433H14.2295L15.523 19.7107V23.0535L14.2295 24.4092H10.4187L9.09014 23.0535V21.7241C9.08677 21.6616 9.09658 21.5989 9.11797 21.5403C9.13937 21.4818 9.17224 21.4286 9.21465 21.3843C9.25712 21.3399 9.30796 21.3048 9.36406 21.2825C9.4202 21.2601 9.48058 21.2504 9.54058 21.2539H10.8025V21.2517C10.8325 21.2523 10.8623 21.2555 10.8912 21.262C10.9774 21.2814 11.0569 21.3271 11.1197 21.3938C11.2033 21.4828 11.2502 21.6024 11.25 21.7271V22.1607H13.3594V20.6006H10.4187L9.09014 19.2141V16.1255L10.4187 14.8328H14.2295Z"/>
<path d="M22.2298 14.8328L22.3177 14.8408C22.3467 14.8467 22.3751 14.8555 22.4026 14.8672C22.4574 14.8906 22.5072 14.9254 22.5491 14.969C22.591 15.0126 22.6246 15.0644 22.6473 15.1214C22.6698 15.1784 22.6812 15.2398 22.6809 15.3015V16.6162C22.6821 16.6783 22.6709 16.7403 22.6487 16.7979C22.6265 16.8553 22.5932 16.9072 22.5513 16.951C22.5092 16.9947 22.4592 17.0297 22.4041 17.0528C22.3489 17.0759 22.2892 17.087 22.2298 17.0857V17.0828H18.3904V18.3404H20.3372L20.4251 18.3491C20.454 18.3551 20.4826 18.3637 20.51 18.3755C20.5647 18.3991 20.6147 18.4338 20.6565 18.4773C20.6983 18.5209 20.7313 18.5727 20.7539 18.6297C20.7767 18.6867 20.7884 18.7481 20.7884 18.8098V20.1238C20.7884 20.1856 20.7767 20.2469 20.7539 20.304C20.7313 20.3609 20.6983 20.4127 20.6565 20.4563C20.6147 20.4999 20.5647 20.5346 20.51 20.5581C20.4553 20.5817 20.3964 20.5941 20.3372 20.594H18.3904V22.1541H22.2298L22.3184 22.1621C22.3473 22.1678 22.3759 22.1761 22.4034 22.1878C22.4583 22.2111 22.5086 22.2459 22.5506 22.2896C22.5925 22.3333 22.6256 22.3854 22.648 22.4426C22.6704 22.4999 22.6816 22.5616 22.6809 22.6236V23.9382C22.6817 24.0002 22.6704 24.0618 22.648 24.1192C22.6256 24.1765 22.5925 24.2285 22.5506 24.2722C22.5085 24.316 22.4584 24.3509 22.4034 24.374C22.3483 24.3972 22.2891 24.408 22.2298 24.407H16.6788C16.6189 24.4098 16.5588 24.4002 16.503 24.3777C16.4473 24.3551 16.3967 24.3206 16.3543 24.2766C16.3119 24.2326 16.2787 24.1795 16.2569 24.1214C16.2351 24.0632 16.2251 24.0006 16.2276 23.9382V15.3015C16.2271 15.2397 16.2381 15.1779 16.2605 15.1206C16.283 15.0634 16.3167 15.0112 16.3587 14.9676C16.4006 14.924 16.4504 14.8897 16.5052 14.8665C16.5601 14.8432 16.6194 14.832 16.6788 14.8328H22.2298Z"/>
<path fill-rule="evenodd" clip-rule="evenodd" d="M9.37651 2.14945C9.43609 2.14863 9.49565 2.16041 9.55083 2.18388C9.60596 2.20735 9.65602 2.24242 9.69805 2.28642C9.74002 2.33042 9.77322 2.38266 9.79546 2.44023C9.81773 2.4979 9.82866 2.55969 9.82769 2.62187V4.77225C9.83308 4.83137 9.82447 4.89092 9.80278 4.94584C9.78111 5.00083 9.74697 5.04992 9.70317 5.08793L8.39434 6.1016V10.1753C8.40898 10.2683 8.45768 10.3517 8.52984 10.4082C10.5251 11.6952 10.7867 11.8716 10.8208 11.895L11.2486 11.3501L11.8858 4.77299C11.8923 4.72114 11.9089 4.67122 11.9349 4.6265C11.9609 4.58176 11.9956 4.54302 12.0367 4.51298L14.2603 3.13383C14.2995 3.11903 14.3398 3.10828 14.3804 3.10087C14.4618 3.086 14.5451 3.08607 14.6265 3.10087C14.6673 3.10828 14.708 3.11897 14.7474 3.13383L18.4563 3.91386C18.672 3.99477 18.8631 4.13465 19.01 4.31815C19.2924 4.60678 20.6412 5.9434 20.6412 5.9434C20.8381 6.1584 20.9523 6.44155 20.9612 6.7388V7.61771C20.9374 7.70492 20.8935 7.78467 20.8338 7.85062C20.6061 8.12419 20.361 8.38151 20.0999 8.62039C19.9949 8.12985 19.7188 7.69713 19.3257 7.40677C19.2383 7.37246 19.147 7.35151 19.0547 7.34378C18.9626 7.33606 18.8694 7.34208 18.7779 7.36136C18.5946 7.39999 18.425 7.49155 18.2893 7.62577C18.6481 8.01976 19.0808 8.33236 19.5601 8.54495C19.5883 8.53393 19.6173 8.5255 19.6465 8.51932C19.7051 8.50695 19.7652 8.50408 19.8245 8.51126C19.854 8.51484 19.8835 8.52111 19.9124 8.52957C19.9422 8.60353 19.9573 8.683 19.9571 8.76322C19.9571 8.76322 19.3115 9.36411 18.9602 9.68826L18.1795 8.95804L18.1868 9.91605L20.9268 11.9002C20.9268 11.9028 20.9537 11.8726 23.2207 10.4104C23.2932 10.354 23.342 10.2705 23.357 10.1775V6.1038L22.0474 5.08939C22.0038 5.0513 21.9694 5.00291 21.9478 4.94804C21.9263 4.89307 21.9181 4.83283 21.9236 4.77372V2.62333C21.9225 2.56121 21.9336 2.49933 21.9558 2.44169C21.978 2.38406 22.0112 2.33189 22.0533 2.28788C22.0953 2.24381 22.1453 2.20877 22.2005 2.18534C22.2556 2.16197 22.3146 2.15003 22.3741 2.15092H28.1199C28.2488 2.16231 28.371 2.21673 28.4685 2.30546C28.6288 2.4424 28.7546 2.53959 28.8567 2.62626C29.0967 2.82904 29.2079 2.92894 29.3357 3.04594C29.5247 3.17143 29.6688 3.35819 29.7459 3.57768V12.9102L29.7422 12.916V13.0515C29.7455 13.1139 29.7359 13.1764 29.7144 13.2346C29.6929 13.293 29.6595 13.3459 29.617 13.3899C29.5745 13.4339 29.5236 13.4682 29.4676 13.4903C29.4115 13.5122 29.3515 13.5212 29.2918 13.5174H27.4893C27.4303 13.518 27.3712 13.5068 27.3164 13.4837C27.2618 13.4606 27.2119 13.4259 27.17 13.3826C27.1281 13.3393 27.0952 13.2877 27.0725 13.231C27.0499 13.1741 27.038 13.1131 27.0381 13.0515V5.95878C27.0339 5.81502 26.9858 5.67618 26.9004 5.56327C26.8119 5.46703 26.5627 5.22893 26.3357 5.01469L25.9036 4.61039V13.0479C25.9051 13.1097 25.8949 13.1714 25.8728 13.2288C25.8508 13.2862 25.8174 13.3382 25.7754 13.3819C25.7334 13.4255 25.6834 13.4602 25.6282 13.4829C25.6005 13.4943 25.5717 13.5026 25.5425 13.5078C25.5136 13.5131 25.4841 13.5154 25.4546 13.5144H23.4353C23.3765 13.5154 23.3178 13.5037 23.2632 13.4807C23.2086 13.4576 23.1591 13.423 23.1175 13.3797C23.0757 13.3362 23.043 13.2843 23.0208 13.2273C22.9985 13.1704 22.9871 13.1094 22.9878 13.0479V12.6641L21.8804 13.3972C21.7836 13.4489 21.6797 13.4841 21.5728 13.502C21.5372 13.5079 21.5013 13.5124 21.4651 13.5144H18.9829C18.924 13.515 18.8655 13.5031 18.8108 13.48C18.7562 13.4568 18.7063 13.4223 18.6643 13.3789C18.6225 13.3356 18.5888 13.2841 18.5662 13.2273C18.5435 13.1705 18.5318 13.1094 18.5318 13.0479V12.344L17.3372 11.3977V13.0442C17.3381 13.1059 17.3272 13.1673 17.305 13.2244C17.2827 13.2815 17.2495 13.3339 17.2076 13.3775C17.1656 13.4209 17.1152 13.4549 17.0603 13.4778C17.033 13.4892 17.0049 13.498 16.9761 13.5034C16.9472 13.5089 16.9177 13.5114 16.8882 13.5108H14.7613C14.7025 13.5109 14.6442 13.499 14.5899 13.4756C14.5356 13.4523 14.4858 13.4178 14.4441 13.3745C14.4026 13.3313 14.3701 13.2795 14.3475 13.2229C14.3249 13.1662 14.3131 13.1056 14.313 13.0442V9.522L13.1873 10.3211C13.1254 10.4036 13.088 10.5024 13.0782 10.6053V13.0442C13.079 13.1056 13.0674 13.1667 13.0452 13.2237C13.023 13.2806 12.9902 13.3325 12.9485 13.376C12.9069 13.4194 12.8574 13.454 12.8028 13.4771C12.7754 13.4887 12.7467 13.4971 12.7178 13.5027C12.6891 13.5083 12.66 13.5112 12.6307 13.5108H10.2745C10.1297 13.5027 9.98818 13.4626 9.85918 13.3936L8.75029 12.6604C8.75037 12.6622 8.75542 12.7701 8.75542 13.0442C8.75609 13.1057 8.74473 13.1667 8.72246 13.2237C8.70018 13.2806 8.66749 13.3326 8.62578 13.376C8.58399 13.4195 8.534 13.454 8.4793 13.4771C8.45204 13.4885 8.42383 13.4971 8.39507 13.5027C8.36616 13.5084 8.33674 13.5113 8.30718 13.5108H6.28863C6.22938 13.5126 6.17016 13.5013 6.11504 13.4785C6.06 13.4557 6.00981 13.4218 5.96783 13.3782C5.92581 13.3346 5.89253 13.2825 5.87041 13.2251C5.84832 13.1677 5.83754 13.1061 5.83892 13.0442V4.60233C5.82684 4.61357 5.02085 5.36411 4.84283 5.55594C4.75756 5.66877 4.70935 5.80708 4.70513 5.95072V13.0435C4.70513 13.1051 4.69339 13.1661 4.67071 13.2229C4.64796 13.2798 4.61455 13.3319 4.57256 13.3753C4.53055 13.4187 4.48013 13.4525 4.42535 13.4756C4.39804 13.4872 4.36992 13.4963 4.34112 13.502C4.31224 13.5077 4.28276 13.5104 4.25323 13.51H2.45074C2.39126 13.5129 2.33201 13.5023 2.27642 13.48C2.22073 13.4577 2.17013 13.4235 2.12774 13.3797C2.08545 13.3359 2.05224 13.2837 2.03033 13.2259C2.00841 13.168 1.99805 13.1057 2.0003 13.0435V3.57621C2.07888 3.356 2.22489 3.16867 2.41558 3.04374C2.54336 2.92684 2.65399 2.82743 2.89459 2.6248C2.99667 2.53817 3.1219 2.44081 3.28204 2.304C3.37924 2.2153 3.50131 2.16098 3.62994 2.14945H9.37651ZM17.5928 5.95804L17.9817 5.59842L17.5591 5.1934L16.7447 5.15531L17.5928 5.95804Z"/>
</mask>
<path d="M29.2962 25.7195V25.7224C29.3555 25.7209 29.4146 25.7316 29.4698 25.7547C29.525 25.7777 29.5756 25.8126 29.6177 25.8565C29.6598 25.9004 29.693 25.9527 29.7151 26.0103C29.7371 26.0679 29.7474 26.1298 29.7459 26.1919V29.1611C29.722 29.2971 29.6692 29.4259 29.5913 29.5376C29.5134 29.6493 29.4127 29.7415 29.2962 29.8071C28.6796 30.1998 16.414 37.9381 16.3623 37.9707C16.2149 38.0594 16.0533 38.1199 15.8855 38.1494H15.8672C15.6995 38.1199 15.5379 38.0593 15.3904 37.9707C15.3294 37.9322 3.07289 30.1996 2.4566 29.8071C2.34016 29.7415 2.2394 29.6492 2.16143 29.5376C2.08341 29.4259 2.0304 29.297 2.00616 29.1611V26.1934C2.00472 26.1312 2.01555 26.0694 2.03766 26.0117C2.05979 25.954 2.09293 25.9012 2.13507 25.8572C2.17714 25.8133 2.22708 25.7784 2.28228 25.7554C2.30993 25.7439 2.33882 25.7352 2.36798 25.7298C2.39712 25.7243 2.42685 25.7224 2.4566 25.7232H4.18585L4.2752 25.729C4.30467 25.7342 4.33361 25.7426 4.36163 25.7539C4.41766 25.7765 4.46883 25.8112 4.51177 25.855C4.55458 25.8988 4.5885 25.951 4.61138 26.0088C4.6343 26.0668 4.6459 26.1292 4.64507 26.1919V27.5322C5.69976 28.195 15.6276 34.4105 15.8768 34.5657C16.1277 34.4083 26.0528 28.1951 27.1077 27.5322V26.1882C27.1069 26.1257 27.1186 26.0637 27.1414 26.0059C27.1643 25.9479 27.1981 25.8952 27.241 25.8513C27.284 25.8075 27.3351 25.7729 27.3911 25.7503C27.4471 25.7277 27.5069 25.7173 27.5669 25.7195H29.2962Z" fill="url(#paint0_linear_256_894)"/>
<path d="M16.9878 25.7246L17.0757 25.7319C17.1047 25.7375 17.1332 25.7461 17.1607 25.7576C17.2155 25.7807 17.2654 25.815 17.3072 25.8587C17.349 25.9024 17.3819 25.9551 17.4038 26.0125C17.4258 26.0697 17.4367 26.131 17.4353 26.1926V32.3794L15.8863 33.3557V33.3667L15.8775 33.3616L15.868 33.3667V33.3557L14.3196 32.3794V26.1926C14.3184 26.131 14.3291 26.0697 14.3511 26.0125C14.3732 25.9551 14.4059 25.9024 14.4478 25.8587C14.4896 25.815 14.5401 25.7807 14.595 25.7576C14.6499 25.7346 14.7087 25.7234 14.7679 25.7246H16.9878Z" fill="url(#paint1_linear_256_894)"/>
<path d="M21.167 25.7239L21.2557 25.7298C21.2849 25.735 21.3136 25.7433 21.3413 25.7547C21.3967 25.7774 21.4471 25.8119 21.4893 25.8557C21.5315 25.8996 21.5647 25.9524 21.5867 26.0103C21.6087 26.068 21.6186 26.1299 21.6167 26.1919V29.7515L19.1477 31.3005C19.1477 31.3005 19.0841 31.3406 19.0049 31.3599C18.9654 31.3695 18.9219 31.374 18.8804 31.3657C18.7835 31.3464 18.6973 31.2572 18.6973 31.0024V26.1926C18.6968 26.1309 18.7079 26.0696 18.7303 26.0125C18.7528 25.9553 18.7865 25.9037 18.8284 25.8601C18.8703 25.8165 18.92 25.7816 18.9749 25.7583C19.0296 25.7352 19.0887 25.7238 19.1477 25.7246L21.167 25.7239Z" fill="url(#paint2_linear_256_894)"/>
<path d="M10.5857 25.7239H12.6043L12.6929 25.7319C12.7217 25.7376 12.7499 25.7461 12.7771 25.7576C12.8319 25.7807 12.8824 25.8151 12.9244 25.8587C12.9664 25.9023 12.9993 25.9546 13.0218 26.0117C13.0443 26.0689 13.0559 26.1301 13.0555 26.1919V30.9995C13.0555 31.2541 12.9694 31.3433 12.8724 31.3628C12.8306 31.3712 12.7869 31.3666 12.7471 31.3569C12.6679 31.3377 12.6043 31.2976 12.6043 31.2976L10.136 29.7493V26.1904C10.1342 26.1283 10.1441 26.0659 10.1661 26.0081C10.1881 25.9504 10.2213 25.8981 10.2635 25.8543C10.3056 25.8104 10.356 25.7759 10.4114 25.7532C10.4391 25.7418 10.4679 25.7335 10.4971 25.7283C10.5263 25.7231 10.556 25.7213 10.5857 25.7224V25.7239Z" fill="url(#paint3_linear_256_894)"/>
<path d="M8.3958 25.7224L8.4771 25.7349C8.50336 25.742 8.52887 25.7522 8.55327 25.7649C8.60229 25.7906 8.64595 25.8268 8.68071 25.8711C8.71544 25.9154 8.74094 25.9669 8.75542 26.022C8.7699 26.0773 8.77327 26.1353 8.76494 26.1919V27.6582L8.77007 28.5254C8.76985 28.5347 8.75895 28.8804 8.40679 28.6668L5.84698 27.0386V26.1926C5.84564 26.1308 5.85578 26.0692 5.87774 26.0117C5.89982 25.9541 5.93318 25.9011 5.97515 25.8572C6.01708 25.8133 6.0673 25.7786 6.12237 25.7554C6.17745 25.7322 6.23656 25.7212 6.29595 25.7224H8.3958Z" fill="url(#paint4_linear_256_894)"/>
<path d="M25.4576 25.7224L25.5462 25.7298C25.5752 25.7353 25.6036 25.7438 25.6311 25.7554C25.6862 25.7786 25.7364 25.8134 25.7784 25.8572C25.8203 25.9011 25.8536 25.9541 25.8758 26.0117C25.8977 26.0692 25.9086 26.1308 25.9073 26.1926V27.0386L23.3474 28.6668C23.2804 28.7073 23.2257 28.7271 23.1812 28.7334C23.1515 28.7376 23.1264 28.7362 23.105 28.7297C22.9875 28.6941 22.9856 28.5239 22.9856 28.5239L22.9915 27.6575V26.1926C22.983 26.1362 22.9861 26.0786 23.0003 26.0235C23.0146 25.9682 23.0397 25.9162 23.0743 25.8718C23.1088 25.8275 23.1522 25.7914 23.201 25.7656C23.2498 25.7398 23.3037 25.7253 23.3584 25.7224H25.4576Z" fill="url(#paint5_linear_256_894)"/>
<path d="M28.5169 14.8343L29.7488 16.127V17.2937C29.7513 17.3545 29.7416 17.4155 29.721 17.4724C29.7004 17.5292 29.669 17.5811 29.6287 17.6248C29.5883 17.6686 29.5395 17.7036 29.4859 17.7273C29.459 17.7392 29.4309 17.7485 29.4024 17.7544C29.374 17.7603 29.345 17.7633 29.3159 17.7632H28.0518C27.9921 17.7659 27.9325 17.7556 27.8767 17.7332C27.821 17.7106 27.7704 17.6761 27.7281 17.6321C27.6856 17.588 27.6525 17.5349 27.6306 17.4768C27.6089 17.4186 27.5989 17.3561 27.6013 17.2937V17.0879H25.4722V22.157H27.6013V21.7241C27.6001 21.6621 27.6106 21.6 27.6328 21.5425C27.6551 21.4849 27.6888 21.4326 27.731 21.3887C27.773 21.3449 27.8231 21.31 27.8782 21.2869C27.9333 21.2639 27.9924 21.2527 28.0518 21.2539H29.3137L29.3159 21.2517L29.4038 21.2583C29.4328 21.2638 29.4614 21.2722 29.4888 21.284C29.5435 21.3074 29.593 21.3432 29.6338 21.388C29.6746 21.4326 29.7056 21.4859 29.7254 21.544C29.7452 21.6022 29.7535 21.6641 29.7488 21.7256V23.0549L28.5161 24.4107H24.4644L23.3321 23.0549V16.127L24.4637 14.8343H28.5169Z" fill="url(#paint6_linear_256_894)"/>
<path d="M3.70025 14.8328L3.78887 14.8401C3.8179 14.8456 3.8463 14.8543 3.87383 14.8657C3.92917 14.8888 3.98016 14.9231 4.02252 14.9668C4.06473 15.0105 4.09802 15.0625 4.12066 15.1199C4.14335 15.1773 4.15491 15.2394 4.15435 15.3015V22.1555H6.30987V15.3015C6.30954 15.2398 6.32106 15.1784 6.34356 15.1214C6.36613 15.0641 6.39974 15.0119 6.4417 14.9683C6.48361 14.9247 6.53344 14.8905 6.58819 14.8672C6.64303 14.8439 6.7018 14.8322 6.76104 14.8328H8.02227L8.11089 14.8394C8.13989 14.8449 8.16835 14.8536 8.19585 14.865C8.25101 14.888 8.30102 14.923 8.34307 14.9668C8.38505 15.0105 8.4183 15.0625 8.44048 15.1199C8.46267 15.1774 8.47395 15.2395 8.47271 15.3015V23.0535L7.22686 24.4092H3.21319L2.00616 23.0535V15.3015C2.0045 15.2409 2.01451 15.18 2.03546 15.1236C2.0564 15.0672 2.08757 15.0155 2.12774 14.9719C2.16803 14.9282 2.21649 14.8934 2.26983 14.8694C2.32305 14.8456 2.38036 14.8334 2.43829 14.8328H3.70025Z" fill="url(#paint7_linear_256_894)"/>
<path d="M14.2295 14.8328L15.523 16.1255V17.2923C15.5225 17.4168 15.4742 17.5362 15.3897 17.624C15.3263 17.6899 15.2462 17.7343 15.1597 17.7522C15.131 17.7582 15.1015 17.761 15.0718 17.761H13.8099C13.7499 17.7648 13.6896 17.7554 13.6333 17.7332C13.5772 17.711 13.5257 17.6764 13.4832 17.6321C13.4408 17.5878 13.4079 17.5346 13.3865 17.4761C13.3651 17.4175 13.3559 17.3549 13.3594 17.2923V17.0857H11.25V18.3433H14.2295L15.523 19.7107V23.0535L14.2295 24.4092H10.4187L9.09014 23.0535V21.7241C9.08677 21.6616 9.09658 21.5989 9.11797 21.5403C9.13937 21.4818 9.17224 21.4286 9.21465 21.3843C9.25712 21.3399 9.30796 21.3048 9.36406 21.2825C9.4202 21.2601 9.48058 21.2504 9.54058 21.2539H10.8025V21.2517C10.8325 21.2523 10.8623 21.2555 10.8912 21.262C10.9774 21.2814 11.0569 21.3271 11.1197 21.3938C11.2033 21.4828 11.2502 21.6024 11.25 21.7271V22.1607H13.3594V20.6006H10.4187L9.09014 19.2141V16.1255L10.4187 14.8328H14.2295Z" fill="url(#paint8_linear_256_894)"/>
<path d="M22.2298 14.8328L22.3177 14.8408C22.3467 14.8467 22.3751 14.8555 22.4026 14.8672C22.4574 14.8906 22.5072 14.9254 22.5491 14.969C22.591 15.0126 22.6246 15.0644 22.6473 15.1214C22.6698 15.1784 22.6812 15.2398 22.6809 15.3015V16.6162C22.6821 16.6783 22.6709 16.7403 22.6487 16.7979C22.6265 16.8553 22.5932 16.9072 22.5513 16.951C22.5092 16.9947 22.4592 17.0297 22.4041 17.0528C22.3489 17.0759 22.2892 17.087 22.2298 17.0857V17.0828H18.3904V18.3404H20.3372L20.4251 18.3491C20.454 18.3551 20.4826 18.3637 20.51 18.3755C20.5647 18.3991 20.6147 18.4338 20.6565 18.4773C20.6983 18.5209 20.7313 18.5727 20.7539 18.6297C20.7767 18.6867 20.7884 18.7481 20.7884 18.8098V20.1238C20.7884 20.1856 20.7767 20.2469 20.7539 20.304C20.7313 20.3609 20.6983 20.4127 20.6565 20.4563C20.6147 20.4999 20.5647 20.5346 20.51 20.5581C20.4553 20.5817 20.3964 20.5941 20.3372 20.594H18.3904V22.1541H22.2298L22.3184 22.1621C22.3473 22.1678 22.3759 22.1761 22.4034 22.1878C22.4583 22.2111 22.5086 22.2459 22.5506 22.2896C22.5925 22.3333 22.6256 22.3854 22.648 22.4426C22.6704 22.4999 22.6816 22.5616 22.6809 22.6236V23.9382C22.6817 24.0002 22.6704 24.0618 22.648 24.1192C22.6256 24.1765 22.5925 24.2285 22.5506 24.2722C22.5085 24.316 22.4584 24.3509 22.4034 24.374C22.3483 24.3972 22.2891 24.408 22.2298 24.407H16.6788C16.6189 24.4098 16.5588 24.4002 16.503 24.3777C16.4473 24.3551 16.3967 24.3206 16.3543 24.2766C16.3119 24.2326 16.2787 24.1795 16.2569 24.1214C16.2351 24.0632 16.2251 24.0006 16.2276 23.9382V15.3015C16.2271 15.2397 16.2381 15.1779 16.2605 15.1206C16.283 15.0634 16.3167 15.0112 16.3587 14.9676C16.4006 14.924 16.4504 14.8897 16.5052 14.8665C16.5601 14.8432 16.6194 14.832 16.6788 14.8328H22.2298Z" fill="url(#paint9_linear_256_894)"/>
<path fill-rule="evenodd" clip-rule="evenodd" d="M9.37651 2.14945C9.43609 2.14863 9.49565 2.16041 9.55083 2.18388C9.60596 2.20735 9.65602 2.24242 9.69805 2.28642C9.74002 2.33042 9.77322 2.38266 9.79546 2.44023C9.81773 2.4979 9.82866 2.55969 9.82769 2.62187V4.77225C9.83308 4.83137 9.82447 4.89092 9.80278 4.94584C9.78111 5.00083 9.74697 5.04992 9.70317 5.08793L8.39434 6.1016V10.1753C8.40898 10.2683 8.45768 10.3517 8.52984 10.4082C10.5251 11.6952 10.7867 11.8716 10.8208 11.895L11.2486 11.3501L11.8858 4.77299C11.8923 4.72114 11.9089 4.67122 11.9349 4.6265C11.9609 4.58176 11.9956 4.54302 12.0367 4.51298L14.2603 3.13383C14.2995 3.11903 14.3398 3.10828 14.3804 3.10087C14.4618 3.086 14.5451 3.08607 14.6265 3.10087C14.6673 3.10828 14.708 3.11897 14.7474 3.13383L18.4563 3.91386C18.672 3.99477 18.8631 4.13465 19.01 4.31815C19.2924 4.60678 20.6412 5.9434 20.6412 5.9434C20.8381 6.1584 20.9523 6.44155 20.9612 6.7388V7.61771C20.9374 7.70492 20.8935 7.78467 20.8338 7.85062C20.6061 8.12419 20.361 8.38151 20.0999 8.62039C19.9949 8.12985 19.7188 7.69713 19.3257 7.40677C19.2383 7.37246 19.147 7.35151 19.0547 7.34378C18.9626 7.33606 18.8694 7.34208 18.7779 7.36136C18.5946 7.39999 18.425 7.49155 18.2893 7.62577C18.6481 8.01976 19.0808 8.33236 19.5601 8.54495C19.5883 8.53393 19.6173 8.5255 19.6465 8.51932C19.7051 8.50695 19.7652 8.50408 19.8245 8.51126C19.854 8.51484 19.8835 8.52111 19.9124 8.52957C19.9422 8.60353 19.9573 8.683 19.9571 8.76322C19.9571 8.76322 19.3115 9.36411 18.9602 9.68826L18.1795 8.95804L18.1868 9.91605L20.9268 11.9002C20.9268 11.9028 20.9537 11.8726 23.2207 10.4104C23.2932 10.354 23.342 10.2705 23.357 10.1775V6.1038L22.0474 5.08939C22.0038 5.0513 21.9694 5.00291 21.9478 4.94804C21.9263 4.89307 21.9181 4.83283 21.9236 4.77372V2.62333C21.9225 2.56121 21.9336 2.49933 21.9558 2.44169C21.978 2.38406 22.0112 2.33189 22.0533 2.28788C22.0953 2.24381 22.1453 2.20877 22.2005 2.18534C22.2556 2.16197 22.3146 2.15003 22.3741 2.15092H28.1199C28.2488 2.16231 28.371 2.21673 28.4685 2.30546C28.6288 2.4424 28.7546 2.53959 28.8567 2.62626C29.0967 2.82904 29.2079 2.92894 29.3357 3.04594C29.5247 3.17143 29.6688 3.35819 29.7459 3.57768V12.9102L29.7422 12.916V13.0515C29.7455 13.1139 29.7359 13.1764 29.7144 13.2346C29.6929 13.293 29.6595 13.3459 29.617 13.3899C29.5745 13.4339 29.5236 13.4682 29.4676 13.4903C29.4115 13.5122 29.3515 13.5212 29.2918 13.5174H27.4893C27.4303 13.518 27.3712 13.5068 27.3164 13.4837C27.2618 13.4606 27.2119 13.4259 27.17 13.3826C27.1281 13.3393 27.0952 13.2877 27.0725 13.231C27.0499 13.1741 27.038 13.1131 27.0381 13.0515V5.95878C27.0339 5.81502 26.9858 5.67618 26.9004 5.56327C26.8119 5.46703 26.5627 5.22893 26.3357 5.01469L25.9036 4.61039V13.0479C25.9051 13.1097 25.8949 13.1714 25.8728 13.2288C25.8508 13.2862 25.8174 13.3382 25.7754 13.3819C25.7334 13.4255 25.6834 13.4602 25.6282 13.4829C25.6005 13.4943 25.5717 13.5026 25.5425 13.5078C25.5136 13.5131 25.4841 13.5154 25.4546 13.5144H23.4353C23.3765 13.5154 23.3178 13.5037 23.2632 13.4807C23.2086 13.4576 23.1591 13.423 23.1175 13.3797C23.0757 13.3362 23.043 13.2843 23.0208 13.2273C22.9985 13.1704 22.9871 13.1094 22.9878 13.0479V12.6641L21.8804 13.3972C21.7836 13.4489 21.6797 13.4841 21.5728 13.502C21.5372 13.5079 21.5013 13.5124 21.4651 13.5144H18.9829C18.924 13.515 18.8655 13.5031 18.8108 13.48C18.7562 13.4568 18.7063 13.4223 18.6643 13.3789C18.6225 13.3356 18.5888 13.2841 18.5662 13.2273C18.5435 13.1705 18.5318 13.1094 18.5318 13.0479V12.344L17.3372 11.3977V13.0442C17.3381 13.1059 17.3272 13.1673 17.305 13.2244C17.2827 13.2815 17.2495 13.3339 17.2076 13.3775C17.1656 13.4209 17.1152 13.4549 17.0603 13.4778C17.033 13.4892 17.0049 13.498 16.9761 13.5034C16.9472 13.5089 16.9177 13.5114 16.8882 13.5108H14.7613C14.7025 13.5109 14.6442 13.499 14.5899 13.4756C14.5356 13.4523 14.4858 13.4178 14.4441 13.3745C14.4026 13.3313 14.3701 13.2795 14.3475 13.2229C14.3249 13.1662 14.3131 13.1056 14.313 13.0442V9.522L13.1873 10.3211C13.1254 10.4036 13.088 10.5024 13.0782 10.6053V13.0442C13.079 13.1056 13.0674 13.1667 13.0452 13.2237C13.023 13.2806 12.9902 13.3325 12.9485 13.376C12.9069 13.4194 12.8574 13.454 12.8028 13.4771C12.7754 13.4887 12.7467 13.4971 12.7178 13.5027C12.6891 13.5083 12.66 13.5112 12.6307 13.5108H10.2745C10.1297 13.5027 9.98818 13.4626 9.85918 13.3936L8.75029 12.6604C8.75037 12.6622 8.75542 12.7701 8.75542 13.0442C8.75609 13.1057 8.74473 13.1667 8.72246 13.2237C8.70018 13.2806 8.66749 13.3326 8.62578 13.376C8.58399 13.4195 8.534 13.454 8.4793 13.4771C8.45204 13.4885 8.42383 13.4971 8.39507 13.5027C8.36616 13.5084 8.33674 13.5113 8.30718 13.5108H6.28863C6.22938 13.5126 6.17016 13.5013 6.11504 13.4785C6.06 13.4557 6.00981 13.4218 5.96783 13.3782C5.92581 13.3346 5.89253 13.2825 5.87041 13.2251C5.84832 13.1677 5.83754 13.1061 5.83892 13.0442V4.60233C5.82684 4.61357 5.02085 5.36411 4.84283 5.55594C4.75756 5.66877 4.70935 5.80708 4.70513 5.95072V13.0435C4.70513 13.1051 4.69339 13.1661 4.67071 13.2229C4.64796 13.2798 4.61455 13.3319 4.57256 13.3753C4.53055 13.4187 4.48013 13.4525 4.42535 13.4756C4.39804 13.4872 4.36992 13.4963 4.34112 13.502C4.31224 13.5077 4.28276 13.5104 4.25323 13.51H2.45074C2.39126 13.5129 2.33201 13.5023 2.27642 13.48C2.22073 13.4577 2.17013 13.4235 2.12774 13.3797C2.08545 13.3359 2.05224 13.2837 2.03033 13.2259C2.00841 13.168 1.99805 13.1057 2.0003 13.0435V3.57621C2.07888 3.356 2.22489 3.16867 2.41558 3.04374C2.54336 2.92684 2.65399 2.82743 2.89459 2.6248C2.99667 2.53817 3.1219 2.44081 3.28204 2.304C3.37924 2.2153 3.50131 2.16098 3.62994 2.14945H9.37651ZM17.5928 5.95804L17.9817 5.59842L17.5591 5.1934L16.7447 5.15531L17.5928 5.95804Z" fill="url(#paint10_linear_256_894)"/>
<path d="M29.2962 25.7195V25.7224C29.3555 25.7209 29.4146 25.7316 29.4698 25.7547C29.525 25.7777 29.5756 25.8126 29.6177 25.8565C29.6598 25.9004 29.693 25.9527 29.7151 26.0103C29.7371 26.0679 29.7474 26.1298 29.7459 26.1919V29.1611C29.722 29.2971 29.6692 29.4259 29.5913 29.5376C29.5134 29.6493 29.4127 29.7415 29.2962 29.8071C28.6796 30.1998 16.414 37.9381 16.3623 37.9707C16.2149 38.0594 16.0533 38.1199 15.8855 38.1494H15.8672C15.6995 38.1199 15.5379 38.0593 15.3904 37.9707C15.3294 37.9322 3.07289 30.1996 2.4566 29.8071C2.34016 29.7415 2.2394 29.6492 2.16143 29.5376C2.08341 29.4259 2.0304 29.297 2.00616 29.1611V26.1934C2.00472 26.1312 2.01555 26.0694 2.03766 26.0117C2.05979 25.954 2.09293 25.9012 2.13507 25.8572C2.17714 25.8133 2.22708 25.7784 2.28228 25.7554C2.30993 25.7439 2.33882 25.7352 2.36798 25.7298C2.39712 25.7243 2.42685 25.7224 2.4566 25.7232H4.18585L4.2752 25.729C4.30467 25.7342 4.33361 25.7426 4.36163 25.7539C4.41766 25.7765 4.46883 25.8112 4.51177 25.855C4.55458 25.8988 4.5885 25.951 4.61138 26.0088C4.6343 26.0668 4.6459 26.1292 4.64507 26.1919V27.5322C5.69976 28.195 15.6276 34.4105 15.8768 34.5657C16.1277 34.4083 26.0528 28.1951 27.1077 27.5322V26.1882C27.1069 26.1257 27.1186 26.0637 27.1414 26.0059C27.1643 25.9479 27.1981 25.8952 27.241 25.8513C27.284 25.8075 27.3351 25.7729 27.3911 25.7503C27.4471 25.7277 27.5069 25.7173 27.5669 25.7195H29.2962Z" stroke="black" stroke-opacity="0.35" stroke-width="4" mask="url(#path-1-outside-1_256_894)"/>
<path d="M16.9878 25.7246L17.0757 25.7319C17.1047 25.7375 17.1332 25.7461 17.1607 25.7576C17.2155 25.7807 17.2654 25.815 17.3072 25.8587C17.349 25.9024 17.3819 25.9551 17.4038 26.0125C17.4258 26.0697 17.4367 26.131 17.4353 26.1926V32.3794L15.8863 33.3557V33.3667L15.8775 33.3616L15.868 33.3667V33.3557L14.3196 32.3794V26.1926C14.3184 26.131 14.3291 26.0697 14.3511 26.0125C14.3732 25.9551 14.4059 25.9024 14.4478 25.8587C14.4896 25.815 14.5401 25.7807 14.595 25.7576C14.6499 25.7346 14.7087 25.7234 14.7679 25.7246H16.9878Z" stroke="black" stroke-opacity="0.35" stroke-width="4" mask="url(#path-1-outside-1_256_894)"/>
<path d="M21.167 25.7239L21.2557 25.7298C21.2849 25.735 21.3136 25.7433 21.3413 25.7547C21.3967 25.7774 21.4471 25.8119 21.4893 25.8557C21.5315 25.8996 21.5647 25.9524 21.5867 26.0103C21.6087 26.068 21.6186 26.1299 21.6167 26.1919V29.7515L19.1477 31.3005C19.1477 31.3005 19.0841 31.3406 19.0049 31.3599C18.9654 31.3695 18.9219 31.374 18.8804 31.3657C18.7835 31.3464 18.6973 31.2572 18.6973 31.0024V26.1926C18.6968 26.1309 18.7079 26.0696 18.7303 26.0125C18.7528 25.9553 18.7865 25.9037 18.8284 25.8601C18.8703 25.8165 18.92 25.7816 18.9749 25.7583C19.0296 25.7352 19.0887 25.7238 19.1477 25.7246L21.167 25.7239Z" stroke="black" stroke-opacity="0.35" stroke-width="4" mask="url(#path-1-outside-1_256_894)"/>
<path d="M10.5857 25.7239H12.6043L12.6929 25.7319C12.7217 25.7376 12.7499 25.7461 12.7771 25.7576C12.8319 25.7807 12.8824 25.8151 12.9244 25.8587C12.9664 25.9023 12.9993 25.9546 13.0218 26.0117C13.0443 26.0689 13.0559 26.1301 13.0555 26.1919V30.9995C13.0555 31.2541 12.9694 31.3433 12.8724 31.3628C12.8306 31.3712 12.7869 31.3666 12.7471 31.3569C12.6679 31.3377 12.6043 31.2976 12.6043 31.2976L10.136 29.7493V26.1904C10.1342 26.1283 10.1441 26.0659 10.1661 26.0081C10.1881 25.9504 10.2213 25.8981 10.2635 25.8543C10.3056 25.8104 10.356 25.7759 10.4114 25.7532C10.4391 25.7418 10.4679 25.7335 10.4971 25.7283C10.5263 25.7231 10.556 25.7213 10.5857 25.7224V25.7239Z" stroke="black" stroke-opacity="0.35" stroke-width="4" mask="url(#path-1-outside-1_256_894)"/>
<path d="M8.3958 25.7224L8.4771 25.7349C8.50336 25.742 8.52887 25.7522 8.55327 25.7649C8.60229 25.7906 8.64595 25.8268 8.68071 25.8711C8.71544 25.9154 8.74094 25.9669 8.75542 26.022C8.7699 26.0773 8.77327 26.1353 8.76494 26.1919V27.6582L8.77007 28.5254C8.76985 28.5347 8.75895 28.8804 8.40679 28.6668L5.84698 27.0386V26.1926C5.84564 26.1308 5.85578 26.0692 5.87774 26.0117C5.89982 25.9541 5.93318 25.9011 5.97515 25.8572C6.01708 25.8133 6.0673 25.7786 6.12237 25.7554C6.17745 25.7322 6.23656 25.7212 6.29595 25.7224H8.3958Z" stroke="black" stroke-opacity="0.35" stroke-width="4" mask="url(#path-1-outside-1_256_894)"/>
<path d="M25.4576 25.7224L25.5462 25.7298C25.5752 25.7353 25.6036 25.7438 25.6311 25.7554C25.6862 25.7786 25.7364 25.8134 25.7784 25.8572C25.8203 25.9011 25.8536 25.9541 25.8758 26.0117C25.8977 26.0692 25.9086 26.1308 25.9073 26.1926V27.0386L23.3474 28.6668C23.2804 28.7073 23.2257 28.7271 23.1812 28.7334C23.1515 28.7376 23.1264 28.7362 23.105 28.7297C22.9875 28.6941 22.9856 28.5239 22.9856 28.5239L22.9915 27.6575V26.1926C22.983 26.1362 22.9861 26.0786 23.0003 26.0235C23.0146 25.9682 23.0397 25.9162 23.0743 25.8718C23.1088 25.8275 23.1522 25.7914 23.201 25.7656C23.2498 25.7398 23.3037 25.7253 23.3584 25.7224H25.4576Z" stroke="black" stroke-opacity="0.35" stroke-width="4" mask="url(#path-1-outside-1_256_894)"/>
<path d="M28.5169 14.8343L29.7488 16.127V17.2937C29.7513 17.3545 29.7416 17.4155 29.721 17.4724C29.7004 17.5292 29.669 17.5811 29.6287 17.6248C29.5883 17.6686 29.5395 17.7036 29.4859 17.7273C29.459 17.7392 29.4309 17.7485 29.4024 17.7544C29.374 17.7603 29.345 17.7633 29.3159 17.7632H28.0518C27.9921 17.7659 27.9325 17.7556 27.8767 17.7332C27.821 17.7106 27.7704 17.6761 27.7281 17.6321C27.6856 17.588 27.6525 17.5349 27.6306 17.4768C27.6089 17.4186 27.5989 17.3561 27.6013 17.2937V17.0879H25.4722V22.157H27.6013V21.7241C27.6001 21.6621 27.6106 21.6 27.6328 21.5425C27.6551 21.4849 27.6888 21.4326 27.731 21.3887C27.773 21.3449 27.8231 21.31 27.8782 21.2869C27.9333 21.2639 27.9924 21.2527 28.0518 21.2539H29.3137L29.3159 21.2517L29.4038 21.2583C29.4328 21.2638 29.4614 21.2722 29.4888 21.284C29.5435 21.3074 29.593 21.3432 29.6338 21.388C29.6746 21.4326 29.7056 21.4859 29.7254 21.544C29.7452 21.6022 29.7535 21.6641 29.7488 21.7256V23.0549L28.5161 24.4107H24.4644L23.3321 23.0549V16.127L24.4637 14.8343H28.5169Z" stroke="black" stroke-opacity="0.35" stroke-width="4" mask="url(#path-1-outside-1_256_894)"/>
<path d="M3.70025 14.8328L3.78887 14.8401C3.8179 14.8456 3.8463 14.8543 3.87383 14.8657C3.92917 14.8888 3.98016 14.9231 4.02252 14.9668C4.06473 15.0105 4.09802 15.0625 4.12066 15.1199C4.14335 15.1773 4.15491 15.2394 4.15435 15.3015V22.1555H6.30987V15.3015C6.30954 15.2398 6.32106 15.1784 6.34356 15.1214C6.36613 15.0641 6.39974 15.0119 6.4417 14.9683C6.48361 14.9247 6.53344 14.8905 6.58819 14.8672C6.64303 14.8439 6.7018 14.8322 6.76104 14.8328H8.02227L8.11089 14.8394C8.13989 14.8449 8.16835 14.8536 8.19585 14.865C8.25101 14.888 8.30102 14.923 8.34307 14.9668C8.38505 15.0105 8.4183 15.0625 8.44048 15.1199C8.46267 15.1774 8.47395 15.2395 8.47271 15.3015V23.0535L7.22686 24.4092H3.21319L2.00616 23.0535V15.3015C2.0045 15.2409 2.01451 15.18 2.03546 15.1236C2.0564 15.0672 2.08757 15.0155 2.12774 14.9719C2.16803 14.9282 2.21649 14.8934 2.26983 14.8694C2.32305 14.8456 2.38036 14.8334 2.43829 14.8328H3.70025Z" stroke="black" stroke-opacity="0.35" stroke-width="4" mask="url(#path-1-outside-1_256_894)"/>
<path d="M14.2295 14.8328L15.523 16.1255V17.2923C15.5225 17.4168 15.4742 17.5362 15.3897 17.624C15.3263 17.6899 15.2462 17.7343 15.1597 17.7522C15.131 17.7582 15.1015 17.761 15.0718 17.761H13.8099C13.7499 17.7648 13.6896 17.7554 13.6333 17.7332C13.5772 17.711 13.5257 17.6764 13.4832 17.6321C13.4408 17.5878 13.4079 17.5346 13.3865 17.4761C13.3651 17.4175 13.3559 17.3549 13.3594 17.2923V17.0857H11.25V18.3433H14.2295L15.523 19.7107V23.0535L14.2295 24.4092H10.4187L9.09014 23.0535V21.7241C9.08677 21.6616 9.09658 21.5989 9.11797 21.5403C9.13937 21.4818 9.17224 21.4286 9.21465 21.3843C9.25712 21.3399 9.30796 21.3048 9.36406 21.2825C9.4202 21.2601 9.48058 21.2504 9.54058 21.2539H10.8025V21.2517C10.8325 21.2523 10.8623 21.2555 10.8912 21.262C10.9774 21.2814 11.0569 21.3271 11.1197 21.3938C11.2033 21.4828 11.2502 21.6024 11.25 21.7271V22.1607H13.3594V20.6006H10.4187L9.09014 19.2141V16.1255L10.4187 14.8328H14.2295Z" stroke="black" stroke-opacity="0.35" stroke-width="4" mask="url(#path-1-outside-1_256_894)"/>
<path d="M22.2298 14.8328L22.3177 14.8408C22.3467 14.8467 22.3751 14.8555 22.4026 14.8672C22.4574 14.8906 22.5072 14.9254 22.5491 14.969C22.591 15.0126 22.6246 15.0644 22.6473 15.1214C22.6698 15.1784 22.6812 15.2398 22.6809 15.3015V16.6162C22.6821 16.6783 22.6709 16.7403 22.6487 16.7979C22.6265 16.8553 22.5932 16.9072 22.5513 16.951C22.5092 16.9947 22.4592 17.0297 22.4041 17.0528C22.3489 17.0759 22.2892 17.087 22.2298 17.0857V17.0828H18.3904V18.3404H20.3372L20.4251 18.3491C20.454 18.3551 20.4826 18.3637 20.51 18.3755C20.5647 18.3991 20.6147 18.4338 20.6565 18.4773C20.6983 18.5209 20.7313 18.5727 20.7539 18.6297C20.7767 18.6867 20.7884 18.7481 20.7884 18.8098V20.1238C20.7884 20.1856 20.7767 20.2469 20.7539 20.304C20.7313 20.3609 20.6983 20.4127 20.6565 20.4563C20.6147 20.4999 20.5647 20.5346 20.51 20.5581C20.4553 20.5817 20.3964 20.5941 20.3372 20.594H18.3904V22.1541H22.2298L22.3184 22.1621C22.3473 22.1678 22.3759 22.1761 22.4034 22.1878C22.4583 22.2111 22.5086 22.2459 22.5506 22.2896C22.5925 22.3333 22.6256 22.3854 22.648 22.4426C22.6704 22.4999 22.6816 22.5616 22.6809 22.6236V23.9382C22.6817 24.0002 22.6704 24.0618 22.648 24.1192C22.6256 24.1765 22.5925 24.2285 22.5506 24.2722C22.5085 24.316 22.4584 24.3509 22.4034 24.374C22.3483 24.3972 22.2891 24.408 22.2298 24.407H16.6788C16.6189 24.4098 16.5588 24.4002 16.503 24.3777C16.4473 24.3551 16.3967 24.3206 16.3543 24.2766C16.3119 24.2326 16.2787 24.1795 16.2569 24.1214C16.2351 24.0632 16.2251 24.0006 16.2276 23.9382V15.3015C16.2271 15.2397 16.2381 15.1779 16.2605 15.1206C16.283 15.0634 16.3167 15.0112 16.3587 14.9676C16.4006 14.924 16.4504 14.8897 16.5052 14.8665C16.5601 14.8432 16.6194 14.832 16.6788 14.8328H22.2298Z" stroke="black" stroke-opacity="0.35" stroke-width="4" mask="url(#path-1-outside-1_256_894)"/>
<path fill-rule="evenodd" clip-rule="evenodd" d="M9.37651 2.14945C9.43609 2.14863 9.49565 2.16041 9.55083 2.18388C9.60596 2.20735 9.65602 2.24242 9.69805 2.28642C9.74002 2.33042 9.77322 2.38266 9.79546 2.44023C9.81773 2.4979 9.82866 2.55969 9.82769 2.62187V4.77225C9.83308 4.83137 9.82447 4.89092 9.80278 4.94584C9.78111 5.00083 9.74697 5.04992 9.70317 5.08793L8.39434 6.1016V10.1753C8.40898 10.2683 8.45768 10.3517 8.52984 10.4082C10.5251 11.6952 10.7867 11.8716 10.8208 11.895L11.2486 11.3501L11.8858 4.77299C11.8923 4.72114 11.9089 4.67122 11.9349 4.6265C11.9609 4.58176 11.9956 4.54302 12.0367 4.51298L14.2603 3.13383C14.2995 3.11903 14.3398 3.10828 14.3804 3.10087C14.4618 3.086 14.5451 3.08607 14.6265 3.10087C14.6673 3.10828 14.708 3.11897 14.7474 3.13383L18.4563 3.91386C18.672 3.99477 18.8631 4.13465 19.01 4.31815C19.2924 4.60678 20.6412 5.9434 20.6412 5.9434C20.8381 6.1584 20.9523 6.44155 20.9612 6.7388V7.61771C20.9374 7.70492 20.8935 7.78467 20.8338 7.85062C20.6061 8.12419 20.361 8.38151 20.0999 8.62039C19.9949 8.12985 19.7188 7.69713 19.3257 7.40677C19.2383 7.37246 19.147 7.35151 19.0547 7.34378C18.9626 7.33606 18.8694 7.34208 18.7779 7.36136C18.5946 7.39999 18.425 7.49155 18.2893 7.62577C18.6481 8.01976 19.0808 8.33236 19.5601 8.54495C19.5883 8.53393 19.6173 8.5255 19.6465 8.51932C19.7051 8.50695 19.7652 8.50408 19.8245 8.51126C19.854 8.51484 19.8835 8.52111 19.9124 8.52957C19.9422 8.60353 19.9573 8.683 19.9571 8.76322C19.9571 8.76322 19.3115 9.36411 18.9602 9.68826L18.1795 8.95804L18.1868 9.91605L20.9268 11.9002C20.9268 11.9028 20.9537 11.8726 23.2207 10.4104C23.2932 10.354 23.342 10.2705 23.357 10.1775V6.1038L22.0474 5.08939C22.0038 5.0513 21.9694 5.00291 21.9478 4.94804C21.9263 4.89307 21.9181 4.83283 21.9236 4.77372V2.62333C21.9225 2.56121 21.9336 2.49933 21.9558 2.44169C21.978 2.38406 22.0112 2.33189 22.0533 2.28788C22.0953 2.24381 22.1453 2.20877 22.2005 2.18534C22.2556 2.16197 22.3146 2.15003 22.3741 2.15092H28.1199C28.2488 2.16231 28.371 2.21673 28.4685 2.30546C28.6288 2.4424 28.7546 2.53959 28.8567 2.62626C29.0967 2.82904 29.2079 2.92894 29.3357 3.04594C29.5247 3.17143 29.6688 3.35819 29.7459 3.57768V12.9102L29.7422 12.916V13.0515C29.7455 13.1139 29.7359 13.1764 29.7144 13.2346C29.6929 13.293 29.6595 13.3459 29.617 13.3899C29.5745 13.4339 29.5236 13.4682 29.4676 13.4903C29.4115 13.5122 29.3515 13.5212 29.2918 13.5174H27.4893C27.4303 13.518 27.3712 13.5068 27.3164 13.4837C27.2618 13.4606 27.2119 13.4259 27.17 13.3826C27.1281 13.3393 27.0952 13.2877 27.0725 13.231C27.0499 13.1741 27.038 13.1131 27.0381 13.0515V5.95878C27.0339 5.81502 26.9858 5.67618 26.9004 5.56327C26.8119 5.46703 26.5627 5.22893 26.3357 5.01469L25.9036 4.61039V13.0479C25.9051 13.1097 25.8949 13.1714 25.8728 13.2288C25.8508 13.2862 25.8174 13.3382 25.7754 13.3819C25.7334 13.4255 25.6834 13.4602 25.6282 13.4829C25.6005 13.4943 25.5717 13.5026 25.5425 13.5078C25.5136 13.5131 25.4841 13.5154 25.4546 13.5144H23.4353C23.3765 13.5154 23.3178 13.5037 23.2632 13.4807C23.2086 13.4576 23.1591 13.423 23.1175 13.3797C23.0757 13.3362 23.043 13.2843 23.0208 13.2273C22.9985 13.1704 22.9871 13.1094 22.9878 13.0479V12.6641L21.8804 13.3972C21.7836 13.4489 21.6797 13.4841 21.5728 13.502C21.5372 13.5079 21.5013 13.5124 21.4651 13.5144H18.9829C18.924 13.515 18.8655 13.5031 18.8108 13.48C18.7562 13.4568 18.7063 13.4223 18.6643 13.3789C18.6225 13.3356 18.5888 13.2841 18.5662 13.2273C18.5435 13.1705 18.5318 13.1094 18.5318 13.0479V12.344L17.3372 11.3977V13.0442C17.3381 13.1059 17.3272 13.1673 17.305 13.2244C17.2827 13.2815 17.2495 13.3339 17.2076 13.3775C17.1656 13.4209 17.1152 13.4549 17.0603 13.4778C17.033 13.4892 17.0049 13.498 16.9761 13.5034C16.9472 13.5089 16.9177 13.5114 16.8882 13.5108H14.7613C14.7025 13.5109 14.6442 13.499 14.5899 13.4756C14.5356 13.4523 14.4858 13.4178 14.4441 13.3745C14.4026 13.3313 14.3701 13.2795 14.3475 13.2229C14.3249 13.1662 14.3131 13.1056 14.313 13.0442V9.522L13.1873 10.3211C13.1254 10.4036 13.088 10.5024 13.0782 10.6053V13.0442C13.079 13.1056 13.0674 13.1667 13.0452 13.2237C13.023 13.2806 12.9902 13.3325 12.9485 13.376C12.9069 13.4194 12.8574 13.454 12.8028 13.4771C12.7754 13.4887 12.7467 13.4971 12.7178 13.5027C12.6891 13.5083 12.66 13.5112 12.6307 13.5108H10.2745C10.1297 13.5027 9.98818 13.4626 9.85918 13.3936L8.75029 12.6604C8.75037 12.6622 8.75542 12.7701 8.75542 13.0442C8.75609 13.1057 8.74473 13.1667 8.72246 13.2237C8.70018 13.2806 8.66749 13.3326 8.62578 13.376C8.58399 13.4195 8.534 13.454 8.4793 13.4771C8.45204 13.4885 8.42383 13.4971 8.39507 13.5027C8.36616 13.5084 8.33674 13.5113 8.30718 13.5108H6.28863C6.22938 13.5126 6.17016 13.5013 6.11504 13.4785C6.06 13.4557 6.00981 13.4218 5.96783 13.3782C5.92581 13.3346 5.89253 13.2825 5.87041 13.2251C5.84832 13.1677 5.83754 13.1061 5.83892 13.0442V4.60233C5.82684 4.61357 5.02085 5.36411 4.84283 5.55594C4.75756 5.66877 4.70935 5.80708 4.70513 5.95072V13.0435C4.70513 13.1051 4.69339 13.1661 4.67071 13.2229C4.64796 13.2798 4.61455 13.3319 4.57256 13.3753C4.53055 13.4187 4.48013 13.4525 4.42535 13.4756C4.39804 13.4872 4.36992 13.4963 4.34112 13.502C4.31224 13.5077 4.28276 13.5104 4.25323 13.51H2.45074C2.39126 13.5129 2.33201 13.5023 2.27642 13.48C2.22073 13.4577 2.17013 13.4235 2.12774 13.3797C2.08545 13.3359 2.05224 13.2837 2.03033 13.2259C2.00841 13.168 1.99805 13.1057 2.0003 13.0435V3.57621C2.07888 3.356 2.22489 3.16867 2.41558 3.04374C2.54336 2.92684 2.65399 2.82743 2.89459 2.6248C2.99667 2.53817 3.1219 2.44081 3.28204 2.304C3.37924 2.2153 3.50131 2.16098 3.62994 2.14945H9.37651ZM17.5928 5.95804L17.9817 5.59842L17.5591 5.1934L16.7447 5.15531L17.5928 5.95804Z" stroke="black" stroke-opacity="0.35" stroke-width="4" mask="url(#path-1-outside-1_256_894)"/>
<defs>
<linearGradient id="paint0_linear_256_894" x1="31.4168" y1="38.1502" x2="10.9875" y2="3.92941" gradientUnits="userSpaceOnUse">
<stop stop-color="#6B6B6B"/>
<stop offset="0.481251" stop-color="#DFDFDF"/>
<stop offset="0.65627" stop-color="#727272"/>
<stop offset="0.853867" stop-color="#DADADA"/>
<stop offset="1" stop-color="#9E9E9E"/>
</linearGradient>
<linearGradient id="paint1_linear_256_894" x1="31.4168" y1="38.1502" x2="10.9875" y2="3.92941" gradientUnits="userSpaceOnUse">
<stop stop-color="#6B6B6B"/>
<stop offset="0.481251" stop-color="#DFDFDF"/>
<stop offset="0.65627" stop-color="#727272"/>
<stop offset="0.853867" stop-color="#DADADA"/>
<stop offset="1" stop-color="#9E9E9E"/>
</linearGradient>
<linearGradient id="paint2_linear_256_894" x1="31.4168" y1="38.1502" x2="10.9875" y2="3.92941" gradientUnits="userSpaceOnUse">
<stop stop-color="#6B6B6B"/>
<stop offset="0.481251" stop-color="#DFDFDF"/>
<stop offset="0.65627" stop-color="#727272"/>
<stop offset="0.853867" stop-color="#DADADA"/>
<stop offset="1" stop-color="#9E9E9E"/>
</linearGradient>
<linearGradient id="paint3_linear_256_894" x1="31.4168" y1="38.1502" x2="10.9875" y2="3.92941" gradientUnits="userSpaceOnUse">
<stop stop-color="#6B6B6B"/>
<stop offset="0.481251" stop-color="#DFDFDF"/>
<stop offset="0.65627" stop-color="#727272"/>
<stop offset="0.853867" stop-color="#DADADA"/>
<stop offset="1" stop-color="#9E9E9E"/>
</linearGradient>
<linearGradient id="paint4_linear_256_894" x1="31.4168" y1="38.1502" x2="10.9875" y2="3.92941" gradientUnits="userSpaceOnUse">
<stop stop-color="#6B6B6B"/>
<stop offset="0.481251" stop-color="#DFDFDF"/>
<stop offset="0.65627" stop-color="#727272"/>
<stop offset="0.853867" stop-color="#DADADA"/>
<stop offset="1" stop-color="#9E9E9E"/>
</linearGradient>
<linearGradient id="paint5_linear_256_894" x1="31.4168" y1="38.1502" x2="10.9875" y2="3.92941" gradientUnits="userSpaceOnUse">
<stop stop-color="#6B6B6B"/>
<stop offset="0.481251" stop-color="#DFDFDF"/>
<stop offset="0.65627" stop-color="#727272"/>
<stop offset="0.853867" stop-color="#DADADA"/>
<stop offset="1" stop-color="#9E9E9E"/>
</linearGradient>
<linearGradient id="paint6_linear_256_894" x1="31.4168" y1="38.1502" x2="10.9875" y2="3.92941" gradientUnits="userSpaceOnUse">
<stop stop-color="#6B6B6B"/>
<stop offset="0.481251" stop-color="#DFDFDF"/>
<stop offset="0.65627" stop-color="#727272"/>
<stop offset="0.853867" stop-color="#DADADA"/>
<stop offset="1" stop-color="#9E9E9E"/>
</linearGradient>
<linearGradient id="paint7_linear_256_894" x1="31.4168" y1="38.1502" x2="10.9875" y2="3.92941" gradientUnits="userSpaceOnUse">
<stop stop-color="#6B6B6B"/>
<stop offset="0.481251" stop-color="#DFDFDF"/>
<stop offset="0.65627" stop-color="#727272"/>
<stop offset="0.853867" stop-color="#DADADA"/>
<stop offset="1" stop-color="#9E9E9E"/>
</linearGradient>
<linearGradient id="paint8_linear_256_894" x1="31.4168" y1="38.1502" x2="10.9875" y2="3.92941" gradientUnits="userSpaceOnUse">
<stop stop-color="#6B6B6B"/>
<stop offset="0.481251" stop-color="#DFDFDF"/>
<stop offset="0.65627" stop-color="#727272"/>
<stop offset="0.853867" stop-color="#DADADA"/>
<stop offset="1" stop-color="#9E9E9E"/>
</linearGradient>
<linearGradient id="paint9_linear_256_894" x1="31.4168" y1="38.1502" x2="10.9875" y2="3.92941" gradientUnits="userSpaceOnUse">
<stop stop-color="#6B6B6B"/>
<stop offset="0.481251" stop-color="#DFDFDF"/>
<stop offset="0.65627" stop-color="#727272"/>
<stop offset="0.853867" stop-color="#DADADA"/>
<stop offset="1" stop-color="#9E9E9E"/>
</linearGradient>
<linearGradient id="paint10_linear_256_894" x1="31.4168" y1="38.1502" x2="10.9875" y2="3.92941" gradientUnits="userSpaceOnUse">
<stop stop-color="#6B6B6B"/>
<stop offset="0.481251" stop-color="#DFDFDF"/>
<stop offset="0.65627" stop-color="#727272"/>
<stop offset="0.853867" stop-color="#DADADA"/>
<stop offset="1" stop-color="#9E9E9E"/>
</linearGradient>
</defs>
</svg>
