<svg width="30" height="15" viewBox="0 0 30 15" fill="none" xmlns="http://www.w3.org/2000/svg">
<path d="M6.22803 9.03442C6.38913 9.23967 6.5143 9.3691 6.60156 9.42383H7.98096C8.10826 9.34172 8.22958 9.21494 8.34351 9.04419V4.4165H9.57153V9.04419C9.57153 9.29732 9.51475 9.51036 9.40063 9.6814C9.32679 9.79085 9.21197 9.9274 9.05762 10.0916C8.90351 10.2554 8.77613 10.3681 8.67554 10.4297C8.44731 10.5597 8.22506 10.625 8.01025 10.625H6.57104C6.34281 10.625 6.12057 10.5597 5.90576 10.4297C5.80519 10.3681 5.67464 10.2553 5.51392 10.0916C5.3596 9.9206 5.24474 9.784 5.1709 9.6814C5.05678 9.51036 5 9.29732 5 9.04419V4.4165H6.22803V9.03442Z" fill="#9CA3AF"/>
<path d="M13.3386 4.375C13.8083 4.37513 14.2476 4.66242 14.657 5.23682C14.7912 5.42838 14.906 5.64726 15 5.89355L13.8623 6.22192C13.7348 5.94827 13.5559 5.7323 13.3276 5.57495H11.9385C11.8915 5.60232 11.8347 5.64766 11.7676 5.70923C11.7072 5.76392 11.6565 5.81518 11.6162 5.86304C11.5828 5.90394 11.5662 5.92823 11.5662 5.93506V6.47827L11.5967 6.54053L14.1541 7.24854C14.4157 7.32381 14.6204 7.47449 14.7681 7.7002C14.9156 7.92589 14.9902 8.17201 14.9902 8.43872V9.04419C14.9902 9.27672 14.9291 9.48867 14.8083 9.68018C14.7413 9.78269 14.6274 9.91955 14.4666 10.0903C14.3055 10.2545 14.1742 10.3681 14.0735 10.4297C13.8453 10.5597 13.623 10.625 13.4082 10.625H11.8677C11.3846 10.6248 10.9421 10.3334 10.5396 9.7522C10.3919 9.54696 10.2771 9.32807 10.1965 9.09546L11.3342 8.73657C11.5288 9.09214 11.7036 9.32116 11.8579 9.42383H13.3887C13.4357 9.39646 13.4894 9.35526 13.5498 9.30054C13.6102 9.24584 13.6566 9.19752 13.6902 9.15649C13.7304 9.10863 13.7512 9.08155 13.7512 9.07471V8.46924L13.7207 8.4082C13.479 8.33979 13.0698 8.22616 12.4927 8.06885C11.9221 7.9115 11.4819 7.79206 11.1731 7.70996C10.9048 7.63467 10.6969 7.48396 10.5493 7.2583C10.4084 7.0326 10.3382 6.7865 10.3381 6.51978V5.95581C10.3381 5.69584 10.3919 5.47987 10.4993 5.30884C10.5664 5.21307 10.68 5.08234 10.8411 4.91821C11.0085 4.75436 11.1464 4.63874 11.2537 4.57031C11.4817 4.44044 11.7 4.37511 11.908 4.375H13.3386Z" fill="#9CA3AF"/>
<path d="M23.3276 4.375C23.7975 4.375 24.2377 4.66214 24.6472 5.23682C24.7814 5.42831 24.8951 5.64738 24.989 5.89355L23.8513 6.22192C23.7238 5.94833 23.5461 5.73228 23.3179 5.57495H22.0593C21.8982 5.69125 21.7669 5.82898 21.6663 5.98633V9.04419C21.6663 9.0511 21.6798 9.07527 21.7065 9.11621C21.7401 9.15725 21.7878 9.20848 21.8481 9.27002C21.9152 9.33146 21.9856 9.38285 22.0593 9.42383H23.3374C23.5253 9.2939 23.697 9.08889 23.8513 8.80859L24.9988 9.09546C24.9182 9.32799 24.8046 9.54702 24.657 9.7522C24.2542 10.3337 23.8109 10.625 23.3276 10.625H22.0093C21.781 10.625 21.5588 10.5597 21.344 10.4297C21.2434 10.3681 21.1162 10.2585 20.9619 10.1013C20.8077 9.93728 20.6897 9.80057 20.6091 9.69116C20.495 9.50644 20.4382 9.2934 20.4382 9.05396V5.94482C20.4383 5.6918 20.4951 5.47982 20.6091 5.30884C20.6829 5.20627 20.7967 5.07252 20.9509 4.90845C21.1117 4.74455 21.2465 4.63196 21.3538 4.57031C21.582 4.44033 21.8012 4.375 22.0093 4.375H23.3276Z" fill="#9CA3AF"/>
<path d="M19.6265 5.61768H16.8872V6.87988H19.5361V8.07983H16.8872V9.37256H19.6265V10.5737H15.6592V4.4165H19.6265V5.61768Z" fill="#9CA3AF"/>
<path fill-rule="evenodd" clip-rule="evenodd" d="M25 1.25C26.7259 1.25 28.125 2.64911 28.125 4.375V10.625C28.125 12.3509 26.7259 13.75 25 13.75H5C3.27411 13.75 1.875 12.3509 1.875 10.625V4.375C1.875 2.64911 3.27411 1.25 5 1.25H25ZM5 1.875C3.61929 1.875 2.5 2.99429 2.5 4.375V10.625L2.51343 10.8801C2.64126 12.141 3.70544 13.125 5 13.125H25L25.2551 13.1116C26.516 12.9837 27.5 11.9196 27.5 10.625V4.375C27.5 3.08044 26.516 2.01626 25.2551 1.88843L25 1.875H5Z" fill="#9CA3AF"/>
</svg>
